<svg width="39" height="32" viewBox="0 0 39 32" fill="none" xmlns="http://www.w3.org/2000/svg">
<path d="M4.2716 16.926H34.771C35.4106 16.926 35.9305 17.4744 35.8748 18.1187C35.2064 25.7904 28.1401 31.8273 19.5223 31.8273C10.9046 31.8273 3.83834 25.7904 3.16988 18.1187C3.11211 17.4744 3.63203 16.926 4.2716 16.926Z" fill="#FF6633"/>
<path d="M25.0264 5.44668C25.3669 5.44668 25.7052 5.29237 25.926 4.99627C27.0401 3.51573 29.1568 2.59404 31.449 2.59404C33.7412 2.59404 35.8579 3.51364 36.972 4.99627C37.3496 5.49882 38.0593 5.59474 38.5545 5.21313C39.0517 4.83153 39.1466 4.1142 38.769 3.61373C37.2134 1.54515 34.4777 0.310669 31.449 0.310669C28.4203 0.310669 25.6846 1.54515 24.1269 3.61373C23.7494 4.11628 23.8463 4.83153 24.3415 5.21313C24.5478 5.37161 24.7871 5.44668 25.0264 5.44668Z" fill="#414141"/>
<path d="M1.17487 5.44668C1.51529 5.44668 1.85365 5.29237 2.0744 4.99627C3.1885 3.51573 5.30528 2.59404 7.59743 2.59404C9.88959 2.59404 12.0064 3.51364 13.1205 4.99627C13.498 5.49882 14.2077 5.59474 14.7029 5.21313C15.2001 4.83153 15.295 4.1142 14.9175 3.61373C13.3619 1.54515 10.6261 0.310669 7.59743 0.310669C4.56874 0.310669 1.83302 1.54515 0.275343 3.61373C-0.102212 4.11628 -0.00524235 4.83153 0.489912 5.21313C0.696226 5.37161 0.935546 5.44668 1.17487 5.44668Z" fill="#414141"/>
</svg>
