<svg width="146" height="20" viewBox="0 0 146 20" fill="none" xmlns="http://www.w3.org/2000/svg">
<path d="M3.01098 0.22139H28.2511L25.2401 19.7246H18.8892L21.3634 3.77968H8.82507L6.3509 19.7246H0L3.01098 0.22139Z" fill="#0093C6"/>
<path d="M44.8253 0.220703H52.9905L59.7127 19.7239H53.1559L51.2589 13.7371H41.0717L36.8236 19.7239H30.3496L44.8253 0.220703ZM50.2297 10.5932L49.033 6.15211L48.3327 2.81384L46.3126 6.15211L43.3844 10.5932H50.2297Z" fill="#0093C6"/>
<path d="M67.7575 0.22139H78.7681C84.2936 0.22139 88.7495 2.15308 88.7495 6.12446C88.7495 11.9452 80.7479 13.9592 73.3253 13.9592H72.0055L71.0974 19.7246H64.7041L67.7575 0.22139ZM72.5423 10.6223C77.2848 10.5669 82.1101 10.2916 82.1101 6.64955C82.1101 4.55317 80.2534 3.55967 77.3676 3.55967H73.6563L72.5423 10.6223Z" fill="#0093C6"/>
<path d="M95.0572 16.3607C98.1912 15.7816 99.9651 15.3402 101.119 14.0713L101.697 13.4368H99.7169L91.5518 0.222763H98.6453L104.379 10.4576L111.184 0.222763H118.731L107.595 13.7406C103.307 18.9538 101.162 19.1752 96.9138 19.9757L95.0572 16.3607Z" fill="#0093C6"/>
<path d="M120.669 11.4214C120.669 3.9174 127.062 0 138.113 0C141.165 0 143.393 0.303745 145.907 0.965191L143.97 4.11041C141.578 3.642 140.01 3.53133 137.494 3.53133C130.937 3.53133 127.224 6.51054 127.224 10.787C127.224 14.622 131.06 16.4147 136.42 16.4147C138.771 16.4147 140.791 16.3323 143.06 15.9179L144.091 19.1725C141.08 19.8069 138.357 20 135.1 20C126.814 20.0013 120.669 17.4366 120.669 11.4214Z" fill="#0093C6"/>
</svg>
