<svg width="183" height="96" viewBox="0 0 183 96" fill="none" xmlns="http://www.w3.org/2000/svg">
<path d="M3.01098 0.22139H28.2511L25.2401 19.7246H18.8892L21.3634 3.77968H8.82507L6.3509 19.7246H0L3.01098 0.22139Z" fill="#0093C6"/>
<path d="M44.8253 0.220703H52.9905L59.7127 19.7239H53.1559L51.2589 13.7371H41.0717L36.8236 19.7239H30.3496L44.8253 0.220703ZM50.2297 10.5932L49.033 6.15211L48.3327 2.81384L46.3126 6.15211L43.3844 10.5932H50.2297Z" fill="#0093C6"/>
<path d="M67.7575 0.22139H78.7681C84.2936 0.22139 88.7495 2.15308 88.7495 6.12446C88.7495 11.9452 80.7479 13.9592 73.3253 13.9592H72.0055L71.0974 19.7246H64.7041L67.7575 0.22139ZM72.5423 10.6223C77.2848 10.5669 82.1101 10.2916 82.1101 6.64955C82.1101 4.55317 80.2534 3.55967 77.3676 3.55967H73.6563L72.5423 10.6223Z" fill="#0093C6"/>
<path d="M95.0572 16.3607C98.1912 15.7816 99.9651 15.3402 101.119 14.0713L101.697 13.4368H99.7169L91.5518 0.222763H98.6453L104.379 10.4576L111.184 0.222763H118.731L107.595 13.7406C103.307 18.9538 101.162 19.1752 96.9138 19.9757L95.0572 16.3607Z" fill="#0093C6"/>
<path d="M120.669 11.4214C120.669 3.9174 127.062 0 138.113 0C141.165 0 143.393 0.303745 145.907 0.965191L143.97 4.11041C141.578 3.642 140.01 3.53133 137.494 3.53133C130.937 3.53133 127.224 6.51054 127.224 10.787C127.224 14.622 131.06 16.4147 136.42 16.4147C138.771 16.4147 140.791 16.3323 143.06 15.9179L144.091 19.1725C141.08 19.8069 138.357 20 135.1 20C126.814 20.0013 120.669 17.4366 120.669 11.4214Z" fill="#0093C6"/>
<path fill-rule="evenodd" clip-rule="evenodd" d="M14.6163 30.0067C14.842 29.8311 15.158 29.8311 15.3837 30.0067L26.6337 38.7567C26.786 38.8751 26.875 39.0571 26.875 39.25V53C26.875 54.7259 25.4759 56.125 23.75 56.125H6.25C4.52411 56.125 3.125 54.7259 3.125 53V39.25C3.125 39.0571 3.21405 38.8751 3.36629 38.7567L14.6163 30.0067ZM4.375 39.5557V53C4.375 54.0355 5.21447 54.875 6.25 54.875H23.75C24.7855 54.875 25.625 54.0355 25.625 53V39.5557L15 31.2918L4.375 39.5557Z" fill="#414141"/>
<path fill-rule="evenodd" clip-rule="evenodd" d="M10.625 43C10.625 42.6548 10.9048 42.375 11.25 42.375H18.75C19.0952 42.375 19.375 42.6548 19.375 43V55.5C19.375 55.8452 19.0952 56.125 18.75 56.125C18.4048 56.125 18.125 55.8452 18.125 55.5V43.625H11.875V55.5C11.875 55.8452 11.5952 56.125 11.25 56.125C10.9048 56.125 10.625 55.8452 10.625 55.5V43Z" fill="#414141"/>
<path d="M47.018 40.14C47.114 40.14 47.198 40.176 47.27 40.248C47.342 40.32 47.378 40.404 47.378 40.5C47.378 40.584 47.348 40.692 47.288 40.824L43.868 48.924L43.706 49.284C43.394 50.04 43.106 50.664 42.842 51.156C42.578 51.648 42.248 52.062 41.852 52.398C41.456 52.746 40.988 52.92 40.448 52.92H39.764C39.644 52.92 39.542 52.884 39.458 52.812C39.386 52.74 39.35 52.638 39.35 52.506V51.894C39.35 51.774 39.386 51.672 39.458 51.588C39.542 51.516 39.644 51.48 39.764 51.48H40.232C40.496 51.48 40.712 51.426 40.88 51.318C41.048 51.222 41.198 51.054 41.33 50.814C41.474 50.574 41.648 50.208 41.852 49.716L42.158 48.978L38.63 40.824C38.57 40.668 38.54 40.566 38.54 40.518C38.552 40.41 38.594 40.32 38.666 40.248C38.738 40.176 38.822 40.14 38.918 40.14H39.764C39.968 40.14 40.118 40.242 40.214 40.446L42.968 47.052L45.758 40.446C45.842 40.242 45.992 40.14 46.208 40.14H47.018ZM48.1808 49.5C48.0608 49.5 47.9588 49.458 47.8748 49.374C47.7908 49.29 47.7488 49.188 47.7488 49.068V48.402C47.7488 48.282 47.7848 48.186 47.8568 48.114C47.9288 48.042 48.0188 48.006 48.1268 48.006C48.7028 47.982 49.1288 47.574 49.4048 46.782C49.6928 45.978 49.8368 44.67 49.8368 42.858V40.554C49.8368 40.434 49.8728 40.338 49.9448 40.266C50.0288 40.182 50.1308 40.14 50.2508 40.14H55.9748C56.0948 40.14 56.1908 40.182 56.2628 40.266C56.3468 40.338 56.3888 40.434 56.3888 40.554V49.086C56.3888 49.206 56.3468 49.308 56.2628 49.392C56.1908 49.464 56.0948 49.5 55.9748 49.5H55.1108C54.9908 49.5 54.8948 49.464 54.8228 49.392C54.7508 49.308 54.7148 49.206 54.7148 49.086V41.58H51.4748V43.056C51.4748 45.348 51.2108 46.998 50.6828 48.006C50.1548 49.002 49.3208 49.5 48.1808 49.5ZM59.3602 49.5C59.2402 49.5 59.1382 49.464 59.0542 49.392C58.9822 49.308 58.9462 49.206 58.9462 49.086V47.79C58.9462 47.67 58.9822 47.574 59.0542 47.502C59.1382 47.418 59.2402 47.376 59.3602 47.376H60.6562C60.7762 47.376 60.8782 47.418 60.9622 47.502C61.0462 47.574 61.0882 47.67 61.0882 47.79V49.086C61.0882 49.206 61.0462 49.308 60.9622 49.392C60.8782 49.464 60.7762 49.5 60.6562 49.5H59.3602ZM72.7895 49.68C71.1815 49.68 69.9575 49.248 69.1175 48.384C68.2895 47.52 67.8455 46.326 67.7855 44.802C67.7735 44.478 67.7675 43.95 67.7675 43.218C67.7675 42.474 67.7735 41.934 67.7855 41.598C67.8455 40.086 68.2955 38.898 69.1355 38.034C69.9755 37.158 71.1935 36.72 72.7895 36.72C73.8575 36.72 74.7635 36.912 75.5075 37.296C76.2515 37.668 76.8155 38.16 77.1995 38.772C77.5835 39.384 77.7935 40.038 77.8295 40.734V40.77C77.8295 40.866 77.7875 40.95 77.7035 41.022C77.6315 41.082 77.5475 41.112 77.4515 41.112H76.4615C76.2215 41.112 76.0715 40.974 76.0115 40.698C75.8075 39.798 75.4415 39.168 74.9135 38.808C74.3855 38.436 73.6775 38.25 72.7895 38.25C70.7255 38.25 69.6575 39.396 69.5855 41.688C69.5735 42.012 69.5675 42.51 69.5675 43.182C69.5675 43.854 69.5735 44.364 69.5855 44.712C69.6575 47.004 70.7255 48.15 72.7895 48.15C73.6775 48.15 74.3855 47.97 74.9135 47.61C75.4535 47.238 75.8195 46.602 76.0115 45.702C76.0475 45.546 76.1015 45.438 76.1735 45.378C76.2455 45.318 76.3415 45.288 76.4615 45.288H77.4515C77.5595 45.288 77.6495 45.324 77.7215 45.396C77.8055 45.456 77.8415 45.54 77.8295 45.648C77.7935 46.356 77.5835 47.016 77.1995 47.628C76.8155 48.24 76.2515 48.738 75.5075 49.122C74.7635 49.494 73.8575 49.68 72.7895 49.68ZM83.8418 49.68C82.5218 49.68 81.4958 49.308 80.7638 48.564C80.0438 47.82 79.6598 46.83 79.6118 45.594L79.5938 44.82L79.6118 44.046C79.6598 42.822 80.0498 41.838 80.7818 41.094C81.5138 40.338 82.5338 39.96 83.8418 39.96C85.1498 39.96 86.1698 40.338 86.9018 41.094C87.6338 41.838 88.0238 42.822 88.0718 44.046C88.0838 44.178 88.0898 44.436 88.0898 44.82C88.0898 45.204 88.0838 45.462 88.0718 45.594C88.0238 46.83 87.6338 47.82 86.9018 48.564C86.1818 49.308 85.1618 49.68 83.8418 49.68ZM83.8418 48.294C84.5978 48.294 85.1918 48.054 85.6238 47.574C86.0678 47.094 86.3078 46.404 86.3438 45.504C86.3558 45.384 86.3618 45.156 86.3618 44.82C86.3618 44.484 86.3558 44.256 86.3438 44.136C86.3078 43.236 86.0678 42.546 85.6238 42.066C85.1918 41.586 84.5978 41.346 83.8418 41.346C83.0858 41.346 82.4858 41.586 82.0418 42.066C81.5978 42.546 81.3638 43.236 81.3398 44.136L81.3218 44.82L81.3398 45.504C81.3638 46.404 81.5978 47.094 82.0418 47.574C82.4858 48.054 83.0858 48.294 83.8418 48.294ZM90.7577 49.5C90.6377 49.5 90.5357 49.464 90.4517 49.392C90.3797 49.308 90.3437 49.206 90.3437 49.086V40.554C90.3437 40.434 90.3797 40.338 90.4517 40.266C90.5357 40.182 90.6377 40.14 90.7577 40.14H94.5017C95.6057 40.14 96.4457 40.368 97.0217 40.824C97.6097 41.268 97.9037 41.88 97.9037 42.66C97.9037 43.176 97.8077 43.578 97.6157 43.866C97.4237 44.142 97.1297 44.382 96.7337 44.586C97.1657 44.766 97.5017 45.066 97.7417 45.486C97.9937 45.906 98.1197 46.356 98.1197 46.836C98.1197 47.7 97.8137 48.36 97.2017 48.816C96.6017 49.272 95.7497 49.5 94.6457 49.5H90.7577ZM94.3937 44.118C94.9817 44.118 95.4437 43.992 95.7797 43.74C96.1157 43.488 96.2837 43.134 96.2837 42.678C96.2837 42.234 96.1217 41.922 95.7977 41.742C95.4737 41.55 95.0057 41.454 94.3937 41.454H91.9997V44.118H94.3937ZM94.5017 48.186C95.1017 48.186 95.5697 48.072 95.9057 47.844C96.2537 47.616 96.4277 47.28 96.4277 46.836C96.4277 46.356 96.2717 46.008 95.9597 45.792C95.6477 45.564 95.1617 45.45 94.5017 45.45H91.9997V48.186H94.5017ZM104.178 49.68C102.942 49.68 101.952 49.302 101.208 48.546C100.476 47.778 100.074 46.734 100.002 45.414L99.9836 44.802L100.002 44.208C100.086 42.912 100.494 41.88 101.226 41.112C101.97 40.344 102.948 39.96 104.16 39.96C105.492 39.96 106.524 40.386 107.256 41.238C107.988 42.078 108.354 43.218 108.354 44.658V44.964C108.354 45.084 108.312 45.186 108.228 45.27C108.156 45.342 108.06 45.378 107.94 45.378H101.712V45.54C101.748 46.32 101.982 46.986 102.414 47.538C102.858 48.078 103.44 48.348 104.16 48.348C104.712 48.348 105.162 48.24 105.51 48.024C105.87 47.796 106.134 47.562 106.302 47.322C106.41 47.178 106.488 47.094 106.536 47.07C106.596 47.034 106.698 47.016 106.842 47.016H107.724C107.832 47.016 107.922 47.046 107.994 47.106C108.066 47.166 108.102 47.25 108.102 47.358C108.102 47.622 107.934 47.94 107.598 48.312C107.274 48.684 106.812 49.008 106.212 49.284C105.624 49.548 104.946 49.68 104.178 49.68ZM106.644 44.136V44.082C106.644 43.254 106.416 42.582 105.96 42.066C105.516 41.538 104.916 41.274 104.16 41.274C103.404 41.274 102.804 41.538 102.36 42.066C101.928 42.582 101.712 43.254 101.712 44.082V44.136H106.644ZM113.368 49.5C113.248 49.5 113.146 49.464 113.062 49.392C112.99 49.308 112.954 49.206 112.954 49.086V41.58H109.822C109.702 41.58 109.6 41.544 109.516 41.472C109.444 41.388 109.408 41.286 109.408 41.166V40.554C109.408 40.434 109.444 40.338 109.516 40.266C109.6 40.182 109.702 40.14 109.822 40.14H117.742C117.862 40.14 117.958 40.182 118.03 40.266C118.114 40.338 118.156 40.434 118.156 40.554V41.166C118.156 41.286 118.114 41.388 118.03 41.472C117.958 41.544 117.862 41.58 117.742 41.58H114.61V49.086C114.61 49.206 114.574 49.308 114.502 49.392C114.43 49.464 114.334 49.5 114.214 49.5H113.368ZM123.497 49.68C122.213 49.68 121.205 49.32 120.473 48.6C119.753 47.868 119.369 46.848 119.321 45.54L119.303 44.82L119.321 44.1C119.369 42.792 119.753 41.778 120.473 41.058C121.205 40.326 122.213 39.96 123.497 39.96C124.361 39.96 125.093 40.116 125.693 40.428C126.293 40.74 126.737 41.124 127.025 41.58C127.325 42.036 127.487 42.492 127.511 42.948C127.523 43.068 127.487 43.164 127.403 43.236C127.319 43.308 127.217 43.344 127.097 43.344H126.233C126.113 43.344 126.023 43.32 125.963 43.272C125.903 43.224 125.843 43.128 125.783 42.984C125.579 42.408 125.291 42 124.919 41.76C124.547 41.508 124.079 41.382 123.515 41.382C122.771 41.382 122.177 41.616 121.733 42.084C121.301 42.54 121.067 43.242 121.031 44.19L121.013 44.838L121.031 45.45C121.067 46.41 121.301 47.118 121.733 47.574C122.165 48.03 122.759 48.258 123.515 48.258C124.079 48.258 124.547 48.138 124.919 47.898C125.291 47.646 125.579 47.232 125.783 46.656C125.843 46.512 125.903 46.416 125.963 46.368C126.023 46.308 126.113 46.278 126.233 46.278H127.097C127.217 46.278 127.319 46.32 127.403 46.404C127.487 46.476 127.523 46.572 127.511 46.692C127.487 47.136 127.325 47.592 127.025 48.06C126.737 48.516 126.293 48.9 125.693 49.212C125.105 49.524 124.373 49.68 123.497 49.68ZM137.46 48.978C137.52 49.05 137.55 49.128 137.55 49.212C137.55 49.296 137.514 49.368 137.442 49.428C137.382 49.476 137.298 49.5 137.19 49.5H136.092C135.9 49.5 135.744 49.41 135.624 49.23L133.014 45.468H131.322V49.086C131.322 49.206 131.28 49.308 131.196 49.392C131.124 49.464 131.028 49.5 130.908 49.5H130.062C129.942 49.5 129.84 49.464 129.756 49.392C129.684 49.308 129.648 49.206 129.648 49.086V40.554C129.648 40.434 129.684 40.338 129.756 40.266C129.84 40.182 129.942 40.14 130.062 40.14H130.908C131.028 40.14 131.124 40.182 131.196 40.266C131.28 40.338 131.322 40.434 131.322 40.554V44.01H132.978L135.39 40.41C135.534 40.23 135.696 40.14 135.876 40.14H136.812C136.92 40.14 137.01 40.17 137.082 40.23C137.154 40.278 137.19 40.344 137.19 40.428C137.19 40.488 137.16 40.56 137.1 40.644L134.418 44.622L137.46 48.978ZM141.909 49.68C141.321 49.68 140.775 49.56 140.271 49.32C139.767 49.08 139.365 48.756 139.065 48.348C138.777 47.928 138.633 47.466 138.633 46.962C138.633 46.17 138.957 45.522 139.605 45.018C140.265 44.502 141.153 44.166 142.269 44.01L144.951 43.632V43.11C144.951 41.886 144.249 41.274 142.845 41.274C142.317 41.274 141.885 41.388 141.549 41.616C141.213 41.832 140.961 42.09 140.793 42.39C140.757 42.498 140.709 42.576 140.649 42.624C140.601 42.672 140.529 42.696 140.433 42.696H139.659C139.551 42.696 139.455 42.66 139.371 42.588C139.299 42.504 139.263 42.408 139.263 42.3C139.275 42.012 139.407 41.688 139.659 41.328C139.923 40.956 140.325 40.638 140.865 40.374C141.405 40.098 142.071 39.96 142.863 39.96C144.207 39.96 145.173 40.278 145.761 40.914C146.349 41.538 146.643 42.318 146.643 43.254V49.086C146.643 49.206 146.601 49.308 146.517 49.392C146.445 49.464 146.349 49.5 146.229 49.5H145.401C145.281 49.5 145.179 49.464 145.095 49.392C145.023 49.308 144.987 49.206 144.987 49.086V48.312C144.723 48.696 144.339 49.02 143.835 49.284C143.331 49.548 142.689 49.68 141.909 49.68ZM142.287 48.33C143.067 48.33 143.703 48.078 144.195 47.574C144.699 47.058 144.951 46.32 144.951 45.36V44.856L142.863 45.162C142.011 45.282 141.369 45.486 140.937 45.774C140.505 46.05 140.289 46.404 140.289 46.836C140.289 47.316 140.487 47.688 140.883 47.952C141.279 48.204 141.747 48.33 142.287 48.33ZM155.926 40.14C156.046 40.14 156.142 40.182 156.214 40.266C156.298 40.338 156.34 40.434 156.34 40.554V49.086C156.34 49.206 156.298 49.308 156.214 49.392C156.142 49.464 156.046 49.5 155.926 49.5H155.062C154.942 49.5 154.84 49.464 154.756 49.392C154.684 49.308 154.648 49.206 154.648 49.086V46.152H152.722L150.688 49.23C150.64 49.302 150.574 49.368 150.49 49.428C150.406 49.476 150.316 49.5 150.22 49.5H149.356C149.248 49.5 149.158 49.464 149.086 49.392C149.014 49.32 148.978 49.236 148.978 49.14C148.978 49.02 149.02 48.912 149.104 48.816L151.12 45.846C150.496 45.63 150.028 45.288 149.716 44.82C149.404 44.34 149.248 43.764 149.248 43.092C149.248 42.084 149.542 41.34 150.13 40.86C150.73 40.38 151.63 40.14 152.83 40.14H155.926ZM154.666 41.49H152.776C152.092 41.49 151.594 41.61 151.282 41.85C150.97 42.09 150.814 42.504 150.814 43.092C150.814 43.608 150.964 44.022 151.264 44.334C151.576 44.646 152.032 44.802 152.632 44.802H154.666V41.49ZM167.843 49.68C166.907 49.68 166.085 49.53 165.377 49.23C164.669 48.918 164.117 48.474 163.721 47.898C163.325 47.322 163.127 46.65 163.127 45.882C163.127 45.174 163.301 44.556 163.649 44.028C163.997 43.488 164.471 43.074 165.071 42.786C164.591 42.51 164.219 42.15 163.955 41.706C163.703 41.25 163.577 40.722 163.577 40.122C163.577 39.066 163.961 38.238 164.729 37.638C165.509 37.026 166.547 36.72 167.843 36.72C169.127 36.72 170.153 37.026 170.921 37.638C171.701 38.238 172.091 39.06 172.091 40.104C172.091 40.704 171.959 41.232 171.695 41.688C171.443 42.132 171.083 42.498 170.615 42.786C171.215 43.074 171.689 43.488 172.037 44.028C172.385 44.556 172.559 45.174 172.559 45.882C172.559 46.65 172.361 47.322 171.965 47.898C171.569 48.474 171.011 48.918 170.291 49.23C169.583 49.53 168.767 49.68 167.843 49.68ZM167.843 42.138C168.563 42.126 169.169 41.94 169.661 41.58C170.153 41.22 170.399 40.746 170.399 40.158C170.399 39.558 170.153 39.078 169.661 38.718C169.181 38.346 168.575 38.16 167.843 38.16C167.099 38.16 166.481 38.34 165.989 38.7C165.509 39.06 165.269 39.546 165.269 40.158C165.269 40.758 165.509 41.238 165.989 41.598C166.481 41.958 167.099 42.138 167.843 42.138ZM167.843 48.24C168.683 48.24 169.385 48.024 169.949 47.592C170.513 47.16 170.795 46.59 170.795 45.882C170.795 45.174 170.513 44.61 169.949 44.19C169.385 43.77 168.683 43.56 167.843 43.56C166.991 43.56 166.283 43.77 165.719 44.19C165.155 44.61 164.873 45.174 164.873 45.882C164.873 46.59 165.155 47.16 165.719 47.592C166.283 48.024 166.991 48.24 167.843 48.24ZM176.245 49.5C176.137 49.5 176.047 49.464 175.975 49.392C175.915 49.308 175.885 49.212 175.885 49.104L175.921 48.942L180.403 38.466H174.499C174.379 38.466 174.277 38.43 174.193 38.358C174.121 38.274 174.085 38.172 174.085 38.052V37.332C174.085 37.2 174.121 37.098 174.193 37.026C174.277 36.942 174.379 36.9 174.499 36.9H181.879C182.011 36.9 182.113 36.942 182.185 37.026C182.269 37.098 182.311 37.2 182.311 37.332V37.998C182.311 38.214 182.263 38.448 182.167 38.7L177.739 49.05C177.679 49.182 177.607 49.29 177.523 49.374C177.451 49.458 177.349 49.5 177.217 49.5H176.245Z" fill="#414141"/>
<path fill-rule="evenodd" clip-rule="evenodd" d="M0.663186 73.0349C0.373237 70.7276 2.34828 69.125 4.46942 69.125H8.959C9.86517 69.125 10.6417 69.773 10.8038 70.6646L11.5617 74.8332C11.7881 76.0783 11.4642 77.3606 10.6736 78.3488L9.76931 79.4791C9.60817 79.6806 9.59344 79.9476 9.71792 80.1506C10.3049 81.1077 11.3607 82.7246 12.3192 83.6831C13.2776 84.6415 14.8945 85.6973 15.8516 86.2843C16.0546 86.4088 16.3217 86.3941 16.5231 86.2329L17.6534 85.3287C18.6417 84.5381 19.9239 84.2141 21.1691 84.4405L25.3376 85.1985C26.2292 85.3606 26.8772 86.1371 26.8772 87.0432V91.2271C26.8772 93.504 25.0635 95.53 22.6463 95.1413C18.5056 94.4754 12.5867 92.346 7.66923 87.0503C2.88791 81.9012 1.11664 76.6434 0.663186 73.0349ZM4.46942 70.375C2.88878 70.375 1.73184 71.5135 1.90343 72.8791C2.3263 76.2442 3.99305 81.2543 8.58522 86.1997C13.2721 91.2471 18.9134 93.2749 22.8448 93.9071C24.3378 94.1472 25.6272 92.9106 25.6272 91.2271V87.0432C25.6272 86.7412 25.4112 86.4823 25.114 86.4283L20.9455 85.6704C20.056 85.5087 19.1402 85.74 18.4343 86.3048L17.304 87.209C16.7067 87.6868 15.8671 87.7601 15.1982 87.3499C14.2442 86.7649 12.51 85.6416 11.4353 84.5669C10.3606 83.4923 9.23737 81.758 8.65234 80.8041C8.24209 80.1351 8.31539 79.2956 8.79323 78.6983L9.69747 77.568C10.2622 76.8621 10.4936 75.9462 10.3318 75.0568L9.57392 70.8882C9.51989 70.591 9.26106 70.375 8.959 70.375H4.46942Z" fill="#414141"/>
<path d="M43.274 86.906C43.154 86.906 43.052 86.87 42.968 86.798C42.896 86.714 42.86 86.612 42.86 86.492V82.748H39.17C39.05 82.748 38.948 82.712 38.864 82.64C38.792 82.556 38.756 82.454 38.756 82.334V81.758C38.756 81.638 38.792 81.542 38.864 81.47C38.948 81.386 39.05 81.344 39.17 81.344H42.86V77.708C42.86 77.588 42.896 77.492 42.968 77.42C43.052 77.336 43.154 77.294 43.274 77.294H43.904C44.024 77.294 44.12 77.336 44.192 77.42C44.276 77.492 44.318 77.588 44.318 77.708V81.344H48.026C48.146 81.344 48.242 81.386 48.314 81.47C48.398 81.542 48.44 81.638 48.44 81.758V82.334C48.44 82.454 48.398 82.556 48.314 82.64C48.242 82.712 48.146 82.748 48.026 82.748H44.318V86.492C44.318 86.612 44.276 86.714 44.192 86.798C44.12 86.87 44.024 86.906 43.904 86.906H43.274ZM50.93 87.5C50.822 87.5 50.732 87.464 50.66 87.392C50.6 87.308 50.57 87.212 50.57 87.104L50.606 86.942L55.088 76.466H49.184C49.064 76.466 48.962 76.43 48.878 76.358C48.806 76.274 48.77 76.172 48.77 76.052V75.332C48.77 75.2 48.806 75.098 48.878 75.026C48.962 74.942 49.064 74.9 49.184 74.9H56.564C56.696 74.9 56.798 74.942 56.87 75.026C56.954 75.098 56.996 75.2 56.996 75.332V75.998C56.996 76.214 56.948 76.448 56.852 76.7L52.424 87.05C52.364 87.182 52.292 87.29 52.208 87.374C52.136 87.458 52.034 87.5 51.902 87.5H50.93ZM67.6127 87.68C66.6767 87.68 65.8547 87.53 65.1467 87.23C64.4387 86.918 63.8867 86.474 63.4907 85.898C63.0947 85.322 62.8967 84.65 62.8967 83.882C62.8967 83.174 63.0707 82.556 63.4187 82.028C63.7667 81.488 64.2407 81.074 64.8407 80.786C64.3607 80.51 63.9887 80.15 63.7247 79.706C63.4727 79.25 63.3467 78.722 63.3467 78.122C63.3467 77.066 63.7307 76.238 64.4987 75.638C65.2787 75.026 66.3167 74.72 67.6127 74.72C68.8967 74.72 69.9227 75.026 70.6907 75.638C71.4707 76.238 71.8607 77.06 71.8607 78.104C71.8607 78.704 71.7287 79.232 71.4647 79.688C71.2127 80.132 70.8527 80.498 70.3847 80.786C70.9847 81.074 71.4587 81.488 71.8067 82.028C72.1547 82.556 72.3287 83.174 72.3287 83.882C72.3287 84.65 72.1307 85.322 71.7347 85.898C71.3387 86.474 70.7807 86.918 70.0607 87.23C69.3527 87.53 68.5367 87.68 67.6127 87.68ZM67.6127 80.138C68.3327 80.126 68.9387 79.94 69.4307 79.58C69.9227 79.22 70.1687 78.746 70.1687 78.158C70.1687 77.558 69.9227 77.078 69.4307 76.718C68.9507 76.346 68.3447 76.16 67.6127 76.16C66.8687 76.16 66.2507 76.34 65.7587 76.7C65.2787 77.06 65.0387 77.546 65.0387 78.158C65.0387 78.758 65.2787 79.238 65.7587 79.598C66.2507 79.958 66.8687 80.138 67.6127 80.138ZM67.6127 86.24C68.4527 86.24 69.1547 86.024 69.7187 85.592C70.2827 85.16 70.5647 84.59 70.5647 83.882C70.5647 83.174 70.2827 82.61 69.7187 82.19C69.1547 81.77 68.4527 81.56 67.6127 81.56C66.7607 81.56 66.0527 81.77 65.4887 82.19C64.9247 82.61 64.6427 83.174 64.6427 83.882C64.6427 84.59 64.9247 85.16 65.4887 85.592C66.0527 86.024 66.7607 86.24 67.6127 86.24ZM74.628 87.5C74.508 87.5 74.406 87.464 74.322 87.392C74.25 87.308 74.214 87.206 74.214 87.086V86.51C74.214 86.234 74.364 85.97 74.664 85.718L78.48 81.902C79.404 81.134 80.04 80.51 80.388 80.03C80.736 79.538 80.91 79.022 80.91 78.482C80.91 77.786 80.712 77.24 80.316 76.844C79.932 76.448 79.368 76.25 78.624 76.25C77.928 76.25 77.37 76.46 76.95 76.88C76.53 77.288 76.272 77.834 76.176 78.518C76.152 78.662 76.092 78.77 75.996 78.842C75.912 78.902 75.816 78.932 75.708 78.932H74.772C74.664 78.932 74.574 78.902 74.502 78.842C74.43 78.77 74.394 78.686 74.394 78.59C74.418 77.942 74.592 77.324 74.916 76.736C75.24 76.136 75.714 75.65 76.338 75.278C76.974 74.894 77.736 74.702 78.624 74.702C79.98 74.702 81 75.056 81.684 75.764C82.38 76.46 82.728 77.348 82.728 78.428C82.728 79.184 82.536 79.868 82.152 80.48C81.78 81.08 81.198 81.728 80.406 82.424L76.95 85.934H82.566C82.698 85.934 82.8 85.976 82.872 86.06C82.956 86.132 82.998 86.228 82.998 86.348V87.086C82.998 87.206 82.956 87.308 82.872 87.392C82.788 87.464 82.686 87.5 82.566 87.5H74.628ZM88.8645 87.5C88.7445 87.5 88.6425 87.464 88.5585 87.392C88.4865 87.308 88.4505 87.206 88.4505 87.086V77.006L85.4625 79.31C85.3785 79.382 85.2885 79.418 85.1925 79.418C85.0845 79.418 84.9825 79.358 84.8865 79.238L84.4185 78.644C84.3585 78.56 84.3285 78.476 84.3285 78.392C84.3285 78.248 84.3885 78.134 84.5085 78.05L88.4325 75.026C88.5645 74.942 88.7205 74.9 88.9005 74.9H89.8185C89.9385 74.9 90.0345 74.942 90.1065 75.026C90.1905 75.098 90.2325 75.194 90.2325 75.314V87.086C90.2325 87.206 90.1905 87.308 90.1065 87.392C90.0345 87.464 89.9385 87.5 89.8185 87.5H88.8645ZM98.8137 87.5C98.6937 87.5 98.5917 87.464 98.5077 87.392C98.4357 87.308 98.3997 87.206 98.3997 87.086V84.494H92.5677C92.4477 84.494 92.3457 84.458 92.2617 84.386C92.1897 84.302 92.1537 84.2 92.1537 84.08V83.36C92.1537 83.18 92.2197 83 92.3517 82.82L97.7517 75.206C97.8117 75.11 97.9017 75.038 98.0217 74.99C98.1417 74.93 98.2737 74.9 98.4177 74.9H99.7137C99.8337 74.9 99.9297 74.942 100.002 75.026C100.086 75.098 100.128 75.194 100.128 75.314V82.928H101.748C101.868 82.928 101.97 82.97 102.054 83.054C102.138 83.126 102.18 83.222 102.18 83.342V84.08C102.18 84.2 102.138 84.302 102.054 84.386C101.982 84.458 101.886 84.494 101.766 84.494H100.128V87.086C100.128 87.206 100.086 87.308 100.002 87.392C99.9297 87.464 99.8337 87.5 99.7137 87.5H98.8137ZM98.4177 82.964V76.79L94.0797 82.964H98.4177ZM108.481 87.68C106.933 87.68 105.799 87.23 105.079 86.33C104.359 85.43 103.975 84.248 103.927 82.784C103.915 82.46 103.909 81.938 103.909 81.218C103.909 80.474 103.915 79.934 103.927 79.598C103.963 78.158 104.347 76.988 105.079 76.088C105.811 75.176 106.945 74.72 108.481 74.72C110.029 74.72 111.169 75.176 111.901 76.088C112.633 76.988 113.017 78.158 113.053 79.598C113.077 80.27 113.089 80.81 113.089 81.218C113.089 81.614 113.077 82.136 113.053 82.784C113.005 84.248 112.621 85.43 111.901 86.33C111.181 87.23 110.041 87.68 108.481 87.68ZM108.481 86.132C109.381 86.132 110.059 85.832 110.515 85.232C110.983 84.632 111.229 83.786 111.253 82.694C111.277 81.998 111.289 81.494 111.289 81.182C111.289 80.846 111.277 80.354 111.253 79.706C111.229 78.626 110.989 77.78 110.533 77.168C110.077 76.556 109.393 76.25 108.481 76.25C107.581 76.25 106.897 76.556 106.429 77.168C105.973 77.78 105.733 78.626 105.709 79.706L105.691 81.182L105.709 82.694C105.733 83.786 105.973 84.632 106.429 85.232C106.897 85.832 107.581 86.132 108.481 86.132ZM122.087 87.5C121.979 87.5 121.889 87.464 121.817 87.392C121.757 87.308 121.727 87.212 121.727 87.104C121.727 87.02 121.751 86.942 121.799 86.87L124.553 83.036C124.265 83.108 123.941 83.144 123.581 83.144C122.729 83.132 121.973 82.934 121.313 82.55C120.665 82.166 120.167 81.656 119.819 81.02C119.471 80.384 119.297 79.706 119.297 78.986C119.297 78.266 119.465 77.582 119.801 76.934C120.149 76.274 120.665 75.74 121.349 75.332C122.033 74.924 122.861 74.72 123.833 74.72C124.805 74.72 125.633 74.918 126.317 75.314C127.013 75.71 127.535 76.232 127.883 76.88C128.231 77.528 128.405 78.218 128.405 78.95C128.405 79.598 128.291 80.174 128.063 80.678C127.835 81.17 127.517 81.71 127.109 82.298L123.635 87.14C123.551 87.248 123.467 87.338 123.383 87.41C123.311 87.47 123.203 87.5 123.059 87.5H122.087ZM123.833 81.686C124.337 81.686 124.799 81.578 125.219 81.362C125.651 81.134 125.993 80.816 126.245 80.408C126.497 79.988 126.623 79.508 126.623 78.968C126.623 78.428 126.497 77.954 126.245 77.546C125.993 77.126 125.651 76.808 125.219 76.592C124.799 76.364 124.337 76.25 123.833 76.25C123.329 76.25 122.867 76.364 122.447 76.592C122.027 76.808 121.691 77.126 121.439 77.546C121.199 77.954 121.079 78.428 121.079 78.968C121.079 79.508 121.199 79.988 121.439 80.408C121.691 80.816 122.027 81.134 122.447 81.362C122.867 81.578 123.329 81.686 123.833 81.686ZM134.251 87.5C134.131 87.5 134.029 87.464 133.945 87.392C133.873 87.308 133.837 87.206 133.837 87.086V77.006L130.849 79.31C130.765 79.382 130.675 79.418 130.579 79.418C130.471 79.418 130.369 79.358 130.273 79.238L129.805 78.644C129.745 78.56 129.715 78.476 129.715 78.392C129.715 78.248 129.775 78.134 129.895 78.05L133.819 75.026C133.951 74.942 134.107 74.9 134.287 74.9H135.205C135.325 74.9 135.421 74.942 135.493 75.026C135.577 75.098 135.619 75.194 135.619 75.314V87.086C135.619 87.206 135.577 87.308 135.493 87.392C135.421 87.464 135.325 87.5 135.205 87.5H134.251ZM142.346 87.68C141.398 87.68 140.576 87.53 139.88 87.23C139.196 86.918 138.674 86.516 138.314 86.024C137.966 85.532 137.78 85.016 137.756 84.476C137.756 84.368 137.792 84.284 137.864 84.224C137.936 84.152 138.026 84.116 138.134 84.116H139.016C139.268 84.116 139.436 84.248 139.52 84.512C139.676 85.112 140.012 85.538 140.528 85.79C141.044 86.03 141.65 86.15 142.346 86.15C143.198 86.15 143.876 85.952 144.38 85.556C144.884 85.148 145.136 84.566 145.136 83.81C145.136 82.358 144.254 81.632 142.49 81.632H140.78C140.66 81.632 140.558 81.596 140.474 81.524C140.402 81.44 140.366 81.338 140.366 81.218V80.732C140.366 80.564 140.432 80.402 140.564 80.246L144.056 76.43H138.746C138.626 76.43 138.524 76.394 138.44 76.322C138.368 76.238 138.332 76.136 138.332 76.016V75.332C138.332 75.212 138.368 75.11 138.44 75.026C138.524 74.942 138.626 74.9 138.746 74.9H145.928C146.06 74.9 146.162 74.942 146.234 75.026C146.318 75.098 146.36 75.2 146.36 75.332V75.98C146.36 76.124 146.294 76.262 146.162 76.394L142.688 80.264L142.976 80.282C144.2 80.318 145.166 80.636 145.874 81.236C146.582 81.836 146.936 82.712 146.936 83.864C146.936 84.644 146.738 85.322 146.342 85.898C145.946 86.474 145.4 86.918 144.704 87.23C144.008 87.53 143.222 87.68 142.346 87.68ZM153.157 87.68C152.209 87.68 151.387 87.53 150.691 87.23C150.007 86.918 149.485 86.516 149.125 86.024C148.777 85.532 148.591 85.016 148.567 84.476C148.567 84.368 148.603 84.284 148.675 84.224C148.747 84.152 148.837 84.116 148.945 84.116H149.827C150.079 84.116 150.247 84.248 150.331 84.512C150.487 85.112 150.823 85.538 151.339 85.79C151.855 86.03 152.461 86.15 153.157 86.15C154.009 86.15 154.687 85.952 155.191 85.556C155.695 85.148 155.947 84.566 155.947 83.81C155.947 82.358 155.065 81.632 153.301 81.632H151.591C151.471 81.632 151.369 81.596 151.285 81.524C151.213 81.44 151.177 81.338 151.177 81.218V80.732C151.177 80.564 151.243 80.402 151.375 80.246L154.867 76.43H149.557C149.437 76.43 149.335 76.394 149.251 76.322C149.179 76.238 149.143 76.136 149.143 76.016V75.332C149.143 75.212 149.179 75.11 149.251 75.026C149.335 74.942 149.437 74.9 149.557 74.9H156.739C156.871 74.9 156.973 74.942 157.045 75.026C157.129 75.098 157.171 75.2 157.171 75.332V75.98C157.171 76.124 157.105 76.262 156.973 76.394L153.499 80.264L153.787 80.282C155.011 80.318 155.977 80.636 156.685 81.236C157.393 81.836 157.747 82.712 157.747 83.864C157.747 84.644 157.549 85.322 157.153 85.898C156.757 86.474 156.211 86.918 155.515 87.23C154.819 87.53 154.033 87.68 153.157 87.68ZM164.31 87.68C162.762 87.68 161.628 87.23 160.908 86.33C160.188 85.43 159.804 84.248 159.756 82.784C159.744 82.46 159.738 81.938 159.738 81.218C159.738 80.474 159.744 79.934 159.756 79.598C159.792 78.158 160.176 76.988 160.908 76.088C161.64 75.176 162.774 74.72 164.31 74.72C165.858 74.72 166.998 75.176 167.73 76.088C168.462 76.988 168.846 78.158 168.882 79.598C168.906 80.27 168.918 80.81 168.918 81.218C168.918 81.614 168.906 82.136 168.882 82.784C168.834 84.248 168.45 85.43 167.73 86.33C167.01 87.23 165.87 87.68 164.31 87.68ZM164.31 86.132C165.21 86.132 165.888 85.832 166.344 85.232C166.812 84.632 167.058 83.786 167.082 82.694C167.106 81.998 167.118 81.494 167.118 81.182C167.118 80.846 167.106 80.354 167.082 79.706C167.058 78.626 166.818 77.78 166.362 77.168C165.906 76.556 165.222 76.25 164.31 76.25C163.41 76.25 162.726 76.556 162.258 77.168C161.802 77.78 161.562 78.626 161.538 79.706L161.52 81.182L161.538 82.694C161.562 83.786 161.802 84.632 162.258 85.232C162.726 85.832 163.41 86.132 164.31 86.132Z" fill="#414141"/>
<path d="M38 88.85H170.034V89.75H38V88.85Z" fill="#414141"/>
</svg>
