<svg width="171" height="96" viewBox="0 0 171 96" fill="none" xmlns="http://www.w3.org/2000/svg">
<path d="M19.7556 0.841949L19.8178 3.96749C19.8178 8.74634 19.4224 13.8343 18.6318 19.2252H11.1725C11.6507 15.2313 11.8907 11.2598 11.8907 7.31272C11.8907 5.94008 11.8596 4.57962 11.7974 3.23137H11.2675C10.0815 3.23137 9.09235 3.30455 8.30171 3.45096V4.6284C8.30171 9.55569 7.94782 14.42 7.24004 19.2252H0.124293C0.416035 16.602 0.561043 13.7346 0.561043 10.6213C0.561043 7.5079 0.374604 4.24815 0 0.841949H19.7556Z" fill="#D20D21"/>
<path d="M37.1076 8.23184L40.0405 8.45148C40.3323 8.45148 40.5498 8.4393 40.6965 8.41489L39.2292 11.6503H38.9478C38.5525 11.6503 37.9897 11.5222 37.2629 11.2639C36.5345 11.0056 36.0148 10.8775 35.7024 10.8775C34.8496 10.8775 34.1729 11.5282 33.674 12.8257C33.5911 14.0275 33.529 15.2273 33.4876 16.4291C34.5699 16.6752 35.4227 16.7972 36.0476 16.7972H36.329C37.2232 16.7972 37.9362 16.5654 38.4662 16.0977C38.9961 15.632 39.3759 14.7982 39.6055 13.5984L43.3516 13.7814C43.0391 15.8902 42.6231 17.7041 42.1035 19.2232H26.7792C26.3632 15.9146 26.1543 12.6304 26.1543 9.37065C26.1543 6.11087 26.2993 3.26798 26.591 0.841949H43.3205C42.9459 3.48963 42.6127 5.35236 42.321 6.43015C41.0936 6.50335 39.9698 6.55215 38.9495 6.57656C39.1153 6.01326 39.1998 5.48657 39.1998 4.99648C39.1998 3.81906 38.4506 3.23137 36.9522 3.23137C36.3912 3.23137 35.7663 3.30455 35.0792 3.45096C34.6217 5.77938 34.2678 7.82517 34.0175 9.59029C34.8513 8.68536 35.8802 8.23184 37.1076 8.23184Z" fill="#D20D21"/>
<path d="M68.3503 19.2252H61.1413C60.7667 14.2979 59.705 9.92375 57.958 6.10068C56.8342 9.11643 56.2732 11.8862 56.2732 14.4098C56.2732 16.1261 56.5442 17.7306 57.0845 19.2252H48.9692C48.8242 18.2207 48.75 16.8724 48.75 15.1805C48.75 13.4886 48.9468 11.8475 49.3438 10.2532C50.863 9.73873 52.3182 8.86224 53.7131 7.6238C55.1062 6.38741 56.1057 5.06764 56.7099 3.67059C56.2524 2.81243 55.6586 1.86888 54.9301 0.839905H65.2602C67.3197 6.06207 68.3503 12.1912 68.3503 19.2252Z" fill="#D20D21"/>
<path d="M74.0609 19.2252C73.5827 16.8724 73.3428 13.8079 73.3428 10.0336C73.3428 6.25932 73.6345 3.19477 74.2163 0.841949H81.9259C81.5927 3.17037 81.3735 5.26694 81.2699 7.12968C84.9106 7.61976 88.1457 8.69753 90.9768 10.365C90.9146 13.6248 90.5815 16.5776 89.9773 19.2252H74.0609ZM81.2095 9.66551C81.2095 12.2644 81.4701 14.6416 81.9897 16.7972C83.0721 15.2293 83.7575 13.1815 84.0492 10.6579C83.1325 10.0946 82.1865 9.76515 81.2095 9.66551ZM100.653 4.59181C100.653 9.71432 100.299 14.5928 99.591 19.2252H92.5063C92.7756 16.8236 92.912 13.9502 92.912 10.603C92.912 7.2578 92.7255 4.00412 92.3509 0.841949H100.59C100.632 2.50946 100.653 3.76008 100.653 4.59181Z" fill="#D20D21"/>
<path d="M118.411 3.08495C117.683 2.93853 116.98 2.86531 116.305 2.86531C115.629 2.86531 114.812 2.99952 113.856 3.26998C113.543 4.81345 113.388 6.32234 113.388 7.7926C113.388 11.5913 114.824 14.5094 117.695 16.543C119.609 15.0483 121.336 13.1856 122.875 10.9548C122.938 11.935 122.989 13.4317 123.031 15.4408C121.491 16.8623 119.92 17.9787 118.318 18.786C116.716 19.5953 114.719 20 112.326 20H111.608C109.735 19.0442 108.262 17.635 107.192 15.7723C106.12 13.9095 105.585 11.9492 105.585 9.8892C105.585 7.14391 106.541 4.8094 108.456 2.88566C110.37 0.961923 113.148 1.52588e-05 116.789 1.52588e-05C118.827 1.52588e-05 120.959 0.307086 123.186 0.919185C122.853 2.46265 122.437 3.92274 121.938 5.29336C120.628 5.43977 119.274 5.513 117.881 5.513C118.088 4.82566 118.266 4.01631 118.411 3.08495Z" fill="#D20D21"/>
<path d="M129.023 19.2252C128.524 16.7748 128.273 13.7041 128.273 10.0153C128.273 6.32641 128.576 3.26798 129.178 0.841949H136.857C136.523 3.12156 136.306 5.20595 136.201 7.09309C139.841 7.58317 143.076 8.66094 145.907 10.3284C145.845 13.6126 145.523 16.5796 144.941 19.2252H129.023ZM136.138 9.62892C136.138 12.2034 136.399 14.5806 136.919 16.7606C138.022 15.1419 138.707 13.0961 138.978 10.6213C138.063 10.058 137.117 9.72856 136.138 9.62892Z" fill="#D20D21"/>
<path fill-rule="evenodd" clip-rule="evenodd" d="M14.6163 30.0067C14.842 29.8311 15.158 29.8311 15.3837 30.0067L26.6337 38.7567C26.786 38.8751 26.875 39.0571 26.875 39.25V53C26.875 54.7259 25.4759 56.125 23.75 56.125H6.25C4.52411 56.125 3.125 54.7259 3.125 53V39.25C3.125 39.0571 3.21405 38.8751 3.36629 38.7567L14.6163 30.0067ZM4.375 39.5557V53C4.375 54.0355 5.21447 54.875 6.25 54.875H23.75C24.7855 54.875 25.625 54.0355 25.625 53V39.5557L15 31.2918L4.375 39.5557Z" fill="#414141"/>
<path fill-rule="evenodd" clip-rule="evenodd" d="M10.625 43C10.625 42.6548 10.9048 42.375 11.25 42.375H18.75C19.0952 42.375 19.375 42.6548 19.375 43V55.5C19.375 55.8452 19.0952 56.125 18.75 56.125C18.4048 56.125 18.125 55.8452 18.125 55.5V43.625H11.875V55.5C11.875 55.8452 11.5952 56.125 11.25 56.125C10.9048 56.125 10.625 55.8452 10.625 55.5V43Z" fill="#414141"/>
<path d="M47.018 40.14C47.114 40.14 47.198 40.176 47.27 40.248C47.342 40.32 47.378 40.404 47.378 40.5C47.378 40.584 47.348 40.692 47.288 40.824L43.868 48.924L43.706 49.284C43.394 50.04 43.106 50.664 42.842 51.156C42.578 51.648 42.248 52.062 41.852 52.398C41.456 52.746 40.988 52.92 40.448 52.92H39.764C39.644 52.92 39.542 52.884 39.458 52.812C39.386 52.74 39.35 52.638 39.35 52.506V51.894C39.35 51.774 39.386 51.672 39.458 51.588C39.542 51.516 39.644 51.48 39.764 51.48H40.232C40.496 51.48 40.712 51.426 40.88 51.318C41.048 51.222 41.198 51.054 41.33 50.814C41.474 50.574 41.648 50.208 41.852 49.716L42.158 48.978L38.63 40.824C38.57 40.668 38.54 40.566 38.54 40.518C38.552 40.41 38.594 40.32 38.666 40.248C38.738 40.176 38.822 40.14 38.918 40.14H39.764C39.968 40.14 40.118 40.242 40.214 40.446L42.968 47.052L45.758 40.446C45.842 40.242 45.992 40.14 46.208 40.14H47.018ZM48.1808 49.5C48.0608 49.5 47.9588 49.458 47.8748 49.374C47.7908 49.29 47.7488 49.188 47.7488 49.068V48.402C47.7488 48.282 47.7848 48.186 47.8568 48.114C47.9288 48.042 48.0188 48.006 48.1268 48.006C48.7028 47.982 49.1288 47.574 49.4048 46.782C49.6928 45.978 49.8368 44.67 49.8368 42.858V40.554C49.8368 40.434 49.8728 40.338 49.9448 40.266C50.0288 40.182 50.1308 40.14 50.2508 40.14H55.9748C56.0948 40.14 56.1908 40.182 56.2628 40.266C56.3468 40.338 56.3888 40.434 56.3888 40.554V49.086C56.3888 49.206 56.3468 49.308 56.2628 49.392C56.1908 49.464 56.0948 49.5 55.9748 49.5H55.1108C54.9908 49.5 54.8948 49.464 54.8228 49.392C54.7508 49.308 54.7148 49.206 54.7148 49.086V41.58H51.4748V43.056C51.4748 45.348 51.2108 46.998 50.6828 48.006C50.1548 49.002 49.3208 49.5 48.1808 49.5ZM59.3602 49.5C59.2402 49.5 59.1382 49.464 59.0542 49.392C58.9822 49.308 58.9462 49.206 58.9462 49.086V47.79C58.9462 47.67 58.9822 47.574 59.0542 47.502C59.1382 47.418 59.2402 47.376 59.3602 47.376H60.6562C60.7762 47.376 60.8782 47.418 60.9622 47.502C61.0462 47.574 61.0882 47.67 61.0882 47.79V49.086C61.0882 49.206 61.0462 49.308 60.9622 49.392C60.8782 49.464 60.7762 49.5 60.6562 49.5H59.3602ZM68.6675 49.5C68.5475 49.5 68.4455 49.464 68.3615 49.392C68.2895 49.308 68.2535 49.206 68.2535 49.086V37.332C68.2535 37.2 68.2895 37.098 68.3615 37.026C68.4455 36.942 68.5475 36.9 68.6675 36.9H73.2395C74.5955 36.9 75.6635 37.23 76.4435 37.89C77.2235 38.55 77.6135 39.504 77.6135 40.752C77.6135 42 77.2235 42.954 76.4435 43.614C75.6755 44.262 74.6075 44.586 73.2395 44.586H70.0535V49.086C70.0535 49.206 70.0115 49.308 69.9275 49.392C69.8435 49.464 69.7415 49.5 69.6215 49.5H68.6675ZM73.1495 43.074C74.0255 43.074 74.6855 42.876 75.1295 42.48C75.5855 42.084 75.8135 41.508 75.8135 40.752C75.8135 39.996 75.5915 39.42 75.1475 39.024C74.7035 38.616 74.0375 38.412 73.1495 38.412H70.0355V43.074H73.1495ZM82.1783 49.68C81.5903 49.68 81.0443 49.56 80.5403 49.32C80.0363 49.08 79.6343 48.756 79.3343 48.348C79.0463 47.928 78.9023 47.466 78.9023 46.962C78.9023 46.17 79.2263 45.522 79.8743 45.018C80.5343 44.502 81.4223 44.166 82.5383 44.01L85.2203 43.632V43.11C85.2203 41.886 84.5183 41.274 83.1143 41.274C82.5863 41.274 82.1543 41.388 81.8183 41.616C81.4823 41.832 81.2303 42.09 81.0623 42.39C81.0263 42.498 80.9783 42.576 80.9183 42.624C80.8703 42.672 80.7983 42.696 80.7023 42.696H79.9283C79.8203 42.696 79.7243 42.66 79.6403 42.588C79.5683 42.504 79.5323 42.408 79.5323 42.3C79.5443 42.012 79.6763 41.688 79.9283 41.328C80.1923 40.956 80.5943 40.638 81.1343 40.374C81.6743 40.098 82.3403 39.96 83.1323 39.96C84.4763 39.96 85.4423 40.278 86.0303 40.914C86.6183 41.538 86.9123 42.318 86.9123 43.254V49.086C86.9123 49.206 86.8703 49.308 86.7863 49.392C86.7143 49.464 86.6183 49.5 86.4983 49.5H85.6703C85.5503 49.5 85.4483 49.464 85.3643 49.392C85.2923 49.308 85.2563 49.206 85.2563 49.086V48.312C84.9923 48.696 84.6083 49.02 84.1043 49.284C83.6003 49.548 82.9583 49.68 82.1783 49.68ZM82.5563 48.33C83.3363 48.33 83.9723 48.078 84.4643 47.574C84.9683 47.058 85.2203 46.32 85.2203 45.36V44.856L83.1323 45.162C82.2803 45.282 81.6383 45.486 81.2063 45.774C80.7743 46.05 80.5583 46.404 80.5583 46.836C80.5583 47.316 80.7563 47.688 81.1523 47.952C81.5483 48.204 82.0163 48.33 82.5563 48.33ZM97.69 44.604C97.702 44.724 97.708 44.916 97.708 45.18C97.708 45.408 97.702 45.57 97.69 45.666C97.642 46.878 97.252 47.85 96.52 48.582C95.8 49.314 94.78 49.68 93.46 49.68C92.104 49.68 91.072 49.296 90.364 48.528C89.656 47.76 89.278 46.704 89.23 45.36L89.212 44.28L89.23 43.2C89.242 41.484 89.47 40.2 89.914 39.348C90.37 38.484 91.012 37.866 91.84 37.494C92.68 37.11 94.036 36.672 95.908 36.18L96.34 36.072L96.43 36.054C96.526 36.054 96.61 36.09 96.682 36.162C96.766 36.222 96.814 36.294 96.826 36.378L96.97 37.116L96.988 37.224C96.988 37.308 96.958 37.38 96.898 37.44C96.85 37.5 96.778 37.542 96.682 37.566L95.782 37.782C94.402 38.118 93.412 38.406 92.812 38.646C92.212 38.886 91.744 39.264 91.408 39.78C91.084 40.284 90.904 41.04 90.868 42.048C91.156 41.616 91.564 41.268 92.092 41.004C92.62 40.728 93.178 40.59 93.766 40.59C94.978 40.59 95.92 40.962 96.592 41.706C97.276 42.438 97.642 43.404 97.69 44.604ZM95.962 45.594C95.974 45.51 95.98 45.372 95.98 45.18C95.98 44.964 95.974 44.802 95.962 44.694C95.938 43.818 95.71 43.14 95.278 42.66C94.858 42.168 94.306 41.922 93.622 41.922C92.854 41.922 92.224 42.168 91.732 42.66C91.252 43.14 90.994 43.818 90.958 44.694L90.94 45.18L90.958 45.594C90.994 46.482 91.234 47.166 91.678 47.646C92.122 48.114 92.716 48.348 93.46 48.348C94.216 48.348 94.816 48.114 95.26 47.646C95.704 47.166 95.938 46.482 95.962 45.594ZM103.793 49.68C102.473 49.68 101.447 49.308 100.715 48.564C99.995 47.82 99.611 46.83 99.563 45.594L99.545 44.82L99.563 44.046C99.611 42.822 100.001 41.838 100.733 41.094C101.465 40.338 102.485 39.96 103.793 39.96C105.101 39.96 106.121 40.338 106.853 41.094C107.585 41.838 107.975 42.822 108.023 44.046C108.035 44.178 108.041 44.436 108.041 44.82C108.041 45.204 108.035 45.462 108.023 45.594C107.975 46.83 107.585 47.82 106.853 48.564C106.133 49.308 105.113 49.68 103.793 49.68ZM103.793 48.294C104.549 48.294 105.143 48.054 105.575 47.574C106.019 47.094 106.259 46.404 106.295 45.504C106.307 45.384 106.313 45.156 106.313 44.82C106.313 44.484 106.307 44.256 106.295 44.136C106.259 43.236 106.019 42.546 105.575 42.066C105.143 41.586 104.549 41.346 103.793 41.346C103.037 41.346 102.437 41.586 101.993 42.066C101.549 42.546 101.315 43.236 101.291 44.136L101.273 44.82L101.291 45.504C101.315 46.404 101.549 47.094 101.993 47.574C102.437 48.054 103.037 48.294 103.793 48.294ZM116.199 49.5C116.079 49.5 115.977 49.464 115.893 49.392C115.821 49.308 115.785 49.206 115.785 49.086V45.702C115.173 46.278 114.255 46.566 113.031 46.566C111.939 46.566 111.111 46.326 110.547 45.846C109.983 45.366 109.701 44.616 109.701 43.596V40.554C109.701 40.434 109.737 40.338 109.809 40.266C109.893 40.182 109.995 40.14 110.115 40.14H110.997C111.117 40.14 111.213 40.182 111.285 40.266C111.369 40.338 111.411 40.434 111.411 40.554V43.488C111.411 44.028 111.567 44.424 111.879 44.676C112.191 44.916 112.683 45.036 113.355 45.036C114.135 45.036 114.735 44.94 115.155 44.748C115.575 44.556 115.785 44.232 115.785 43.776V40.554C115.785 40.434 115.821 40.338 115.893 40.266C115.977 40.182 116.079 40.14 116.199 40.14H117.099C117.219 40.14 117.315 40.182 117.387 40.266C117.471 40.338 117.513 40.434 117.513 40.554V49.086C117.513 49.206 117.471 49.308 117.387 49.392C117.315 49.464 117.219 49.5 117.099 49.5H116.199ZM122.801 49.68C122.213 49.68 121.667 49.56 121.163 49.32C120.659 49.08 120.257 48.756 119.957 48.348C119.669 47.928 119.525 47.466 119.525 46.962C119.525 46.17 119.849 45.522 120.497 45.018C121.157 44.502 122.045 44.166 123.161 44.01L125.843 43.632V43.11C125.843 41.886 125.141 41.274 123.737 41.274C123.209 41.274 122.777 41.388 122.441 41.616C122.105 41.832 121.853 42.09 121.685 42.39C121.649 42.498 121.601 42.576 121.541 42.624C121.493 42.672 121.421 42.696 121.325 42.696H120.551C120.443 42.696 120.347 42.66 120.263 42.588C120.191 42.504 120.155 42.408 120.155 42.3C120.167 42.012 120.299 41.688 120.551 41.328C120.815 40.956 121.217 40.638 121.757 40.374C122.297 40.098 122.963 39.96 123.755 39.96C125.099 39.96 126.065 40.278 126.653 40.914C127.241 41.538 127.535 42.318 127.535 43.254V49.086C127.535 49.206 127.493 49.308 127.409 49.392C127.337 49.464 127.241 49.5 127.121 49.5H126.293C126.173 49.5 126.071 49.464 125.987 49.392C125.915 49.308 125.879 49.206 125.879 49.086V48.312C125.615 48.696 125.231 49.02 124.727 49.284C124.223 49.548 123.581 49.68 122.801 49.68ZM123.179 48.33C123.959 48.33 124.595 48.078 125.087 47.574C125.591 47.058 125.843 46.32 125.843 45.36V44.856L123.755 45.162C122.903 45.282 122.261 45.486 121.829 45.774C121.397 46.05 121.181 46.404 121.181 46.836C121.181 47.316 121.379 47.688 121.775 47.952C122.171 48.204 122.639 48.33 123.179 48.33ZM136.819 40.14C136.939 40.14 137.035 40.182 137.107 40.266C137.191 40.338 137.233 40.434 137.233 40.554V49.086C137.233 49.206 137.191 49.308 137.107 49.392C137.035 49.464 136.939 49.5 136.819 49.5H135.955C135.835 49.5 135.733 49.464 135.649 49.392C135.577 49.308 135.541 49.206 135.541 49.086V46.152H133.615L131.581 49.23C131.533 49.302 131.467 49.368 131.383 49.428C131.299 49.476 131.209 49.5 131.113 49.5H130.249C130.141 49.5 130.051 49.464 129.979 49.392C129.907 49.32 129.871 49.236 129.871 49.14C129.871 49.02 129.913 48.912 129.997 48.816L132.013 45.846C131.389 45.63 130.921 45.288 130.609 44.82C130.297 44.34 130.141 43.764 130.141 43.092C130.141 42.084 130.435 41.34 131.023 40.86C131.623 40.38 132.523 40.14 133.723 40.14H136.819ZM135.559 41.49H133.669C132.985 41.49 132.487 41.61 132.175 41.85C131.863 42.09 131.707 42.504 131.707 43.092C131.707 43.608 131.857 44.022 132.157 44.334C132.469 44.646 132.925 44.802 133.525 44.802H135.559V41.49ZM147.98 49.5C147.86 49.5 147.758 49.464 147.674 49.392C147.602 49.308 147.566 49.206 147.566 49.086V39.006L144.578 41.31C144.494 41.382 144.404 41.418 144.308 41.418C144.2 41.418 144.098 41.358 144.002 41.238L143.534 40.644C143.474 40.56 143.444 40.476 143.444 40.392C143.444 40.248 143.504 40.134 143.624 40.05L147.548 37.026C147.68 36.942 147.836 36.9 148.016 36.9H148.934C149.054 36.9 149.15 36.942 149.222 37.026C149.306 37.098 149.348 37.194 149.348 37.314V49.086C149.348 49.206 149.306 49.308 149.222 49.392C149.15 49.464 149.054 49.5 148.934 49.5H147.98Z" fill="#414141"/>
<path fill-rule="evenodd" clip-rule="evenodd" d="M0.663186 73.0349C0.373237 70.7276 2.34828 69.125 4.46942 69.125H8.959C9.86517 69.125 10.6417 69.773 10.8038 70.6646L11.5617 74.8332C11.7881 76.0783 11.4642 77.3606 10.6736 78.3488L9.76931 79.4791C9.60817 79.6806 9.59344 79.9476 9.71792 80.1506C10.3049 81.1077 11.3607 82.7246 12.3192 83.6831C13.2776 84.6415 14.8945 85.6973 15.8516 86.2843C16.0546 86.4088 16.3217 86.3941 16.5231 86.2329L17.6534 85.3287C18.6417 84.5381 19.9239 84.2141 21.1691 84.4405L25.3376 85.1985C26.2292 85.3606 26.8772 86.1371 26.8772 87.0432V91.2271C26.8772 93.504 25.0635 95.53 22.6463 95.1413C18.5056 94.4754 12.5867 92.346 7.66923 87.0503C2.88791 81.9012 1.11664 76.6434 0.663186 73.0349ZM4.46942 70.375C2.88878 70.375 1.73184 71.5135 1.90343 72.8791C2.3263 76.2442 3.99305 81.2543 8.58522 86.1997C13.2721 91.2471 18.9134 93.2749 22.8448 93.9071C24.3378 94.1472 25.6272 92.9106 25.6272 91.2271V87.0432C25.6272 86.7412 25.4112 86.4823 25.114 86.4283L20.9455 85.6704C20.056 85.5087 19.1402 85.74 18.4343 86.3048L17.304 87.209C16.7067 87.6868 15.8671 87.7601 15.1982 87.3499C14.2442 86.7649 12.51 85.6416 11.4353 84.5669C10.3606 83.4923 9.23737 81.758 8.65234 80.8041C8.24209 80.1351 8.31539 79.2956 8.79323 78.6983L9.69747 77.568C10.2622 76.8621 10.4936 75.9462 10.3318 75.0568L9.57392 70.8882C9.51989 70.591 9.26106 70.375 8.959 70.375H4.46942Z" fill="#414141"/>
<path d="M43.274 86.906C43.154 86.906 43.052 86.87 42.968 86.798C42.896 86.714 42.86 86.612 42.86 86.492V82.748H39.17C39.05 82.748 38.948 82.712 38.864 82.64C38.792 82.556 38.756 82.454 38.756 82.334V81.758C38.756 81.638 38.792 81.542 38.864 81.47C38.948 81.386 39.05 81.344 39.17 81.344H42.86V77.708C42.86 77.588 42.896 77.492 42.968 77.42C43.052 77.336 43.154 77.294 43.274 77.294H43.904C44.024 77.294 44.12 77.336 44.192 77.42C44.276 77.492 44.318 77.588 44.318 77.708V81.344H48.026C48.146 81.344 48.242 81.386 48.314 81.47C48.398 81.542 48.44 81.638 48.44 81.758V82.334C48.44 82.454 48.398 82.556 48.314 82.64C48.242 82.712 48.146 82.748 48.026 82.748H44.318V86.492C44.318 86.612 44.276 86.714 44.192 86.798C44.12 86.87 44.024 86.906 43.904 86.906H43.274ZM50.93 87.5C50.822 87.5 50.732 87.464 50.66 87.392C50.6 87.308 50.57 87.212 50.57 87.104L50.606 86.942L55.088 76.466H49.184C49.064 76.466 48.962 76.43 48.878 76.358C48.806 76.274 48.77 76.172 48.77 76.052V75.332C48.77 75.2 48.806 75.098 48.878 75.026C48.962 74.942 49.064 74.9 49.184 74.9H56.564C56.696 74.9 56.798 74.942 56.87 75.026C56.954 75.098 56.996 75.2 56.996 75.332V75.998C56.996 76.214 56.948 76.448 56.852 76.7L52.424 87.05C52.364 87.182 52.292 87.29 52.208 87.374C52.136 87.458 52.034 87.5 51.902 87.5H50.93ZM67.6127 87.68C66.6767 87.68 65.8547 87.53 65.1467 87.23C64.4387 86.918 63.8867 86.474 63.4907 85.898C63.0947 85.322 62.8967 84.65 62.8967 83.882C62.8967 83.174 63.0707 82.556 63.4187 82.028C63.7667 81.488 64.2407 81.074 64.8407 80.786C64.3607 80.51 63.9887 80.15 63.7247 79.706C63.4727 79.25 63.3467 78.722 63.3467 78.122C63.3467 77.066 63.7307 76.238 64.4987 75.638C65.2787 75.026 66.3167 74.72 67.6127 74.72C68.8967 74.72 69.9227 75.026 70.6907 75.638C71.4707 76.238 71.8607 77.06 71.8607 78.104C71.8607 78.704 71.7287 79.232 71.4647 79.688C71.2127 80.132 70.8527 80.498 70.3847 80.786C70.9847 81.074 71.4587 81.488 71.8067 82.028C72.1547 82.556 72.3287 83.174 72.3287 83.882C72.3287 84.65 72.1307 85.322 71.7347 85.898C71.3387 86.474 70.7807 86.918 70.0607 87.23C69.3527 87.53 68.5367 87.68 67.6127 87.68ZM67.6127 80.138C68.3327 80.126 68.9387 79.94 69.4307 79.58C69.9227 79.22 70.1687 78.746 70.1687 78.158C70.1687 77.558 69.9227 77.078 69.4307 76.718C68.9507 76.346 68.3447 76.16 67.6127 76.16C66.8687 76.16 66.2507 76.34 65.7587 76.7C65.2787 77.06 65.0387 77.546 65.0387 78.158C65.0387 78.758 65.2787 79.238 65.7587 79.598C66.2507 79.958 66.8687 80.138 67.6127 80.138ZM67.6127 86.24C68.4527 86.24 69.1547 86.024 69.7187 85.592C70.2827 85.16 70.5647 84.59 70.5647 83.882C70.5647 83.174 70.2827 82.61 69.7187 82.19C69.1547 81.77 68.4527 81.56 67.6127 81.56C66.7607 81.56 66.0527 81.77 65.4887 82.19C64.9247 82.61 64.6427 83.174 64.6427 83.882C64.6427 84.59 64.9247 85.16 65.4887 85.592C66.0527 86.024 66.7607 86.24 67.6127 86.24ZM74.628 87.5C74.508 87.5 74.406 87.464 74.322 87.392C74.25 87.308 74.214 87.206 74.214 87.086V86.51C74.214 86.234 74.364 85.97 74.664 85.718L78.48 81.902C79.404 81.134 80.04 80.51 80.388 80.03C80.736 79.538 80.91 79.022 80.91 78.482C80.91 77.786 80.712 77.24 80.316 76.844C79.932 76.448 79.368 76.25 78.624 76.25C77.928 76.25 77.37 76.46 76.95 76.88C76.53 77.288 76.272 77.834 76.176 78.518C76.152 78.662 76.092 78.77 75.996 78.842C75.912 78.902 75.816 78.932 75.708 78.932H74.772C74.664 78.932 74.574 78.902 74.502 78.842C74.43 78.77 74.394 78.686 74.394 78.59C74.418 77.942 74.592 77.324 74.916 76.736C75.24 76.136 75.714 75.65 76.338 75.278C76.974 74.894 77.736 74.702 78.624 74.702C79.98 74.702 81 75.056 81.684 75.764C82.38 76.46 82.728 77.348 82.728 78.428C82.728 79.184 82.536 79.868 82.152 80.48C81.78 81.08 81.198 81.728 80.406 82.424L76.95 85.934H82.566C82.698 85.934 82.8 85.976 82.872 86.06C82.956 86.132 82.998 86.228 82.998 86.348V87.086C82.998 87.206 82.956 87.308 82.872 87.392C82.788 87.464 82.686 87.5 82.566 87.5H74.628ZM88.8645 87.5C88.7445 87.5 88.6425 87.464 88.5585 87.392C88.4865 87.308 88.4505 87.206 88.4505 87.086V77.006L85.4625 79.31C85.3785 79.382 85.2885 79.418 85.1925 79.418C85.0845 79.418 84.9825 79.358 84.8865 79.238L84.4185 78.644C84.3585 78.56 84.3285 78.476 84.3285 78.392C84.3285 78.248 84.3885 78.134 84.5085 78.05L88.4325 75.026C88.5645 74.942 88.7205 74.9 88.9005 74.9H89.8185C89.9385 74.9 90.0345 74.942 90.1065 75.026C90.1905 75.098 90.2325 75.194 90.2325 75.314V87.086C90.2325 87.206 90.1905 87.308 90.1065 87.392C90.0345 87.464 89.9385 87.5 89.8185 87.5H88.8645ZM98.8137 87.5C98.6937 87.5 98.5917 87.464 98.5077 87.392C98.4357 87.308 98.3997 87.206 98.3997 87.086V84.494H92.5677C92.4477 84.494 92.3457 84.458 92.2617 84.386C92.1897 84.302 92.1537 84.2 92.1537 84.08V83.36C92.1537 83.18 92.2197 83 92.3517 82.82L97.7517 75.206C97.8117 75.11 97.9017 75.038 98.0217 74.99C98.1417 74.93 98.2737 74.9 98.4177 74.9H99.7137C99.8337 74.9 99.9297 74.942 100.002 75.026C100.086 75.098 100.128 75.194 100.128 75.314V82.928H101.748C101.868 82.928 101.97 82.97 102.054 83.054C102.138 83.126 102.18 83.222 102.18 83.342V84.08C102.18 84.2 102.138 84.302 102.054 84.386C101.982 84.458 101.886 84.494 101.766 84.494H100.128V87.086C100.128 87.206 100.086 87.308 100.002 87.392C99.9297 87.464 99.8337 87.5 99.7137 87.5H98.8137ZM98.4177 82.964V76.79L94.0797 82.964H98.4177ZM108.481 87.68C106.933 87.68 105.799 87.23 105.079 86.33C104.359 85.43 103.975 84.248 103.927 82.784C103.915 82.46 103.909 81.938 103.909 81.218C103.909 80.474 103.915 79.934 103.927 79.598C103.963 78.158 104.347 76.988 105.079 76.088C105.811 75.176 106.945 74.72 108.481 74.72C110.029 74.72 111.169 75.176 111.901 76.088C112.633 76.988 113.017 78.158 113.053 79.598C113.077 80.27 113.089 80.81 113.089 81.218C113.089 81.614 113.077 82.136 113.053 82.784C113.005 84.248 112.621 85.43 111.901 86.33C111.181 87.23 110.041 87.68 108.481 87.68ZM108.481 86.132C109.381 86.132 110.059 85.832 110.515 85.232C110.983 84.632 111.229 83.786 111.253 82.694C111.277 81.998 111.289 81.494 111.289 81.182C111.289 80.846 111.277 80.354 111.253 79.706C111.229 78.626 110.989 77.78 110.533 77.168C110.077 76.556 109.393 76.25 108.481 76.25C107.581 76.25 106.897 76.556 106.429 77.168C105.973 77.78 105.733 78.626 105.709 79.706L105.691 81.182L105.709 82.694C105.733 83.786 105.973 84.632 106.429 85.232C106.897 85.832 107.581 86.132 108.481 86.132ZM122.087 87.5C121.979 87.5 121.889 87.464 121.817 87.392C121.757 87.308 121.727 87.212 121.727 87.104C121.727 87.02 121.751 86.942 121.799 86.87L124.553 83.036C124.265 83.108 123.941 83.144 123.581 83.144C122.729 83.132 121.973 82.934 121.313 82.55C120.665 82.166 120.167 81.656 119.819 81.02C119.471 80.384 119.297 79.706 119.297 78.986C119.297 78.266 119.465 77.582 119.801 76.934C120.149 76.274 120.665 75.74 121.349 75.332C122.033 74.924 122.861 74.72 123.833 74.72C124.805 74.72 125.633 74.918 126.317 75.314C127.013 75.71 127.535 76.232 127.883 76.88C128.231 77.528 128.405 78.218 128.405 78.95C128.405 79.598 128.291 80.174 128.063 80.678C127.835 81.17 127.517 81.71 127.109 82.298L123.635 87.14C123.551 87.248 123.467 87.338 123.383 87.41C123.311 87.47 123.203 87.5 123.059 87.5H122.087ZM123.833 81.686C124.337 81.686 124.799 81.578 125.219 81.362C125.651 81.134 125.993 80.816 126.245 80.408C126.497 79.988 126.623 79.508 126.623 78.968C126.623 78.428 126.497 77.954 126.245 77.546C125.993 77.126 125.651 76.808 125.219 76.592C124.799 76.364 124.337 76.25 123.833 76.25C123.329 76.25 122.867 76.364 122.447 76.592C122.027 76.808 121.691 77.126 121.439 77.546C121.199 77.954 121.079 78.428 121.079 78.968C121.079 79.508 121.199 79.988 121.439 80.408C121.691 80.816 122.027 81.134 122.447 81.362C122.867 81.578 123.329 81.686 123.833 81.686ZM134.251 87.5C134.131 87.5 134.029 87.464 133.945 87.392C133.873 87.308 133.837 87.206 133.837 87.086V77.006L130.849 79.31C130.765 79.382 130.675 79.418 130.579 79.418C130.471 79.418 130.369 79.358 130.273 79.238L129.805 78.644C129.745 78.56 129.715 78.476 129.715 78.392C129.715 78.248 129.775 78.134 129.895 78.05L133.819 75.026C133.951 74.942 134.107 74.9 134.287 74.9H135.205C135.325 74.9 135.421 74.942 135.493 75.026C135.577 75.098 135.619 75.194 135.619 75.314V87.086C135.619 87.206 135.577 87.308 135.493 87.392C135.421 87.464 135.325 87.5 135.205 87.5H134.251ZM142.346 87.68C141.398 87.68 140.576 87.53 139.88 87.23C139.196 86.918 138.674 86.516 138.314 86.024C137.966 85.532 137.78 85.016 137.756 84.476C137.756 84.368 137.792 84.284 137.864 84.224C137.936 84.152 138.026 84.116 138.134 84.116H139.016C139.268 84.116 139.436 84.248 139.52 84.512C139.676 85.112 140.012 85.538 140.528 85.79C141.044 86.03 141.65 86.15 142.346 86.15C143.198 86.15 143.876 85.952 144.38 85.556C144.884 85.148 145.136 84.566 145.136 83.81C145.136 82.358 144.254 81.632 142.49 81.632H140.78C140.66 81.632 140.558 81.596 140.474 81.524C140.402 81.44 140.366 81.338 140.366 81.218V80.732C140.366 80.564 140.432 80.402 140.564 80.246L144.056 76.43H138.746C138.626 76.43 138.524 76.394 138.44 76.322C138.368 76.238 138.332 76.136 138.332 76.016V75.332C138.332 75.212 138.368 75.11 138.44 75.026C138.524 74.942 138.626 74.9 138.746 74.9H145.928C146.06 74.9 146.162 74.942 146.234 75.026C146.318 75.098 146.36 75.2 146.36 75.332V75.98C146.36 76.124 146.294 76.262 146.162 76.394L142.688 80.264L142.976 80.282C144.2 80.318 145.166 80.636 145.874 81.236C146.582 81.836 146.936 82.712 146.936 83.864C146.936 84.644 146.738 85.322 146.342 85.898C145.946 86.474 145.4 86.918 144.704 87.23C144.008 87.53 143.222 87.68 142.346 87.68ZM153.499 87.68C151.951 87.68 150.817 87.23 150.097 86.33C149.377 85.43 148.993 84.248 148.945 82.784C148.933 82.46 148.927 81.938 148.927 81.218C148.927 80.474 148.933 79.934 148.945 79.598C148.981 78.158 149.365 76.988 150.097 76.088C150.829 75.176 151.963 74.72 153.499 74.72C155.047 74.72 156.187 75.176 156.919 76.088C157.651 76.988 158.035 78.158 158.071 79.598C158.095 80.27 158.107 80.81 158.107 81.218C158.107 81.614 158.095 82.136 158.071 82.784C158.023 84.248 157.639 85.43 156.919 86.33C156.199 87.23 155.059 87.68 153.499 87.68ZM153.499 86.132C154.399 86.132 155.077 85.832 155.533 85.232C156.001 84.632 156.247 83.786 156.271 82.694C156.295 81.998 156.307 81.494 156.307 81.182C156.307 80.846 156.295 80.354 156.271 79.706C156.247 78.626 156.007 77.78 155.551 77.168C155.095 76.556 154.411 76.25 153.499 76.25C152.599 76.25 151.915 76.556 151.447 77.168C150.991 77.78 150.751 78.626 150.727 79.706L150.709 81.182L150.727 82.694C150.751 83.786 150.991 84.632 151.447 85.232C151.915 85.832 152.599 86.132 153.499 86.132ZM164.925 87.68C163.377 87.68 162.243 87.23 161.523 86.33C160.803 85.43 160.419 84.248 160.371 82.784C160.359 82.46 160.353 81.938 160.353 81.218C160.353 80.474 160.359 79.934 160.371 79.598C160.407 78.158 160.791 76.988 161.523 76.088C162.255 75.176 163.389 74.72 164.925 74.72C166.473 74.72 167.613 75.176 168.345 76.088C169.077 76.988 169.461 78.158 169.497 79.598C169.521 80.27 169.533 80.81 169.533 81.218C169.533 81.614 169.521 82.136 169.497 82.784C169.449 84.248 169.065 85.43 168.345 86.33C167.625 87.23 166.485 87.68 164.925 87.68ZM164.925 86.132C165.825 86.132 166.503 85.832 166.959 85.232C167.427 84.632 167.673 83.786 167.697 82.694C167.721 81.998 167.733 81.494 167.733 81.182C167.733 80.846 167.721 80.354 167.697 79.706C167.673 78.626 167.433 77.78 166.977 77.168C166.521 76.556 165.837 76.25 164.925 76.25C164.025 76.25 163.341 76.556 162.873 77.168C162.417 77.78 162.177 78.626 162.153 79.706L162.135 81.182L162.153 82.694C162.177 83.786 162.417 84.632 162.873 85.232C163.341 85.832 164.025 86.132 164.925 86.132Z" fill="#414141"/>
<path d="M38 88.85H170.649V89.75H38V88.85Z" fill="#414141"/>
</svg>
