<svg width="182" height="96" viewBox="0 0 182 96" fill="none" xmlns="http://www.w3.org/2000/svg">
<path d="M0 0.00120544H10.5582V3.3483C10.5582 8.67014 8.2157 11.331 3.53059 11.331V19.8571H0V0.00120544ZM6.00288 7.56937C6.68509 6.83593 7.02766 5.80965 7.02766 4.49395V2.66331H3.53059V8.6713C4.4956 8.67012 5.31921 8.30399 6.00288 7.56937Z" fill="#AA111D"/>
<path d="M15.2881 0.00195312H25.8463V19.8578H22.3157V9.84365C21.5388 9.84365 20.8332 9.77755 20.1977 9.64291C19.256 10.1578 18.8318 11.1405 18.9265 12.5896L19.4921 19.8567H15.9965L15.4674 12.5896L15.4324 11.9885C15.4324 10.3291 16.0563 9.04177 17.3041 8.12645C15.9616 6.79185 15.291 4.70253 15.291 1.86091V0.00195312H15.2881ZM19.8435 6.08203C20.5257 6.81665 21.3493 7.18391 22.3157 7.18391V2.66406H18.8201V3.00771C18.8187 4.32222 19.1598 5.3486 19.8435 6.08203Z" fill="#AA111D"/>
<path d="M31.9941 0.00195312H41.9868V5.60961H38.4562V2.66285H35.5247V6.89695C37.5495 6.89695 39.22 7.33982 40.5393 8.22679C41.8571 9.11377 42.5174 10.4921 42.5174 12.3605L42.4824 12.9617L41.9533 19.8567H31.9956V0.00195312H31.9941ZM38.6326 17.1969L38.9854 12.9628C39.1734 10.6929 38.0203 9.55785 35.5247 9.55785V17.1969H38.6326Z" fill="#AA111D"/>
<path d="M47.9863 0.00121104H51.5169V7.83984L55.0125 5.43644V0H58.5081V19.8559H55.0125V8.92644L51.5169 11.3299V19.8559H47.9863V0.00121104Z" fill="#AA111D"/>
<path d="M64.6533 0.00195312H68.1839V7.18276H71.6445V0.00195312H75.1751V19.8578H71.6445V9.84365H68.1839V19.8578H64.6533V0.00195312Z" fill="#AA111D"/>
<path d="M84.0771 0.00120544L85.666 8.81305H86.2316L87.7856 0.00120544H92.5173V2.6621H90.857L88.7739 12.9905C89.7156 13.2007 90.4517 13.6011 90.9809 14.1916C91.51 14.7833 91.7753 15.5274 91.7753 16.4238C91.7753 17.5493 91.3745 18.4269 90.5742 19.0564C89.7739 19.6859 88.7025 20 87.3614 20H84.9955C83.6529 20 82.5815 19.6859 81.7827 19.0564C80.9824 18.4269 80.5815 17.5493 80.5815 16.4238C80.5815 15.2982 80.9809 14.4207 81.7827 13.7912C82.583 13.1617 83.6544 12.8476 84.9955 12.8476H85.5246L85.7725 11.4739H82.8774L80.4766 0.00120544H84.0771ZM85.4897 17.482H86.8672C87.9736 17.482 88.5275 17.1289 88.5275 16.4238C88.5275 15.7187 87.9736 15.3656 86.8672 15.3656H85.4897C84.3833 15.3656 83.8293 15.7187 83.8293 16.4238C83.8308 17.13 84.3833 17.482 85.4897 17.482Z" fill="#AA111D"/>
<path d="M101.134 0.00120544V17.1962H103.852L103.817 0.00120544H107.348V17.1962H110.067L110.032 0.00120544H113.562V19.8571H97.6366L97.6016 0.00120544H101.134Z" fill="#AA111D"/>
<path d="M119.708 0.00195312H123.239V6.63946C123.591 6.65835 124.097 6.70677 124.758 6.78236L126.135 0.00195312H130.69V2.66285H128.925L127.76 7.7839C129.479 8.83267 130.256 10.4732 130.091 12.7053L129.562 19.8578H126.03L126.596 12.7053L126.631 12.2188C126.631 11.2657 126.348 10.5594 125.784 10.1011C125.218 9.64289 124.371 9.38542 123.242 9.32873V19.8578H119.711V0.00195312H119.708Z" fill="#AA111D"/>
<path d="M137.186 5.91001C138.504 4.92737 140.222 4.43605 142.342 4.43605L142.377 2.6621H135.773V0.00120544H145.907V19.8571H142.377V13.3908H139.058L139.445 19.8571H135.915L135.386 10.5019C135.268 8.42328 135.868 6.89265 137.186 5.91001ZM138.881 10.7311H142.377V7.09695C141.199 7.09695 140.305 7.3639 139.693 7.89774C139.081 8.43157 138.81 9.29965 138.881 10.5008V10.7311Z" fill="#AA111D"/>
<path fill-rule="evenodd" clip-rule="evenodd" d="M14.6163 30.0067C14.842 29.8311 15.158 29.8311 15.3837 30.0067L26.6337 38.7567C26.786 38.8751 26.875 39.0571 26.875 39.25V53C26.875 54.7259 25.4759 56.125 23.75 56.125H6.25C4.52411 56.125 3.125 54.7259 3.125 53V39.25C3.125 39.0571 3.21405 38.8751 3.36629 38.7567L14.6163 30.0067ZM4.375 39.5557V53C4.375 54.0355 5.21447 54.875 6.25 54.875H23.75C24.7855 54.875 25.625 54.0355 25.625 53V39.5557L15 31.2918L4.375 39.5557Z" fill="#414141"/>
<path fill-rule="evenodd" clip-rule="evenodd" d="M10.625 43C10.625 42.6548 10.9048 42.375 11.25 42.375H18.75C19.0952 42.375 19.375 42.6548 19.375 43V55.5C19.375 55.8452 19.0952 56.125 18.75 56.125C18.4048 56.125 18.125 55.8452 18.125 55.5V43.625H11.875V55.5C11.875 55.8452 11.5952 56.125 11.25 56.125C10.9048 56.125 10.625 55.8452 10.625 55.5V43Z" fill="#414141"/>
<path d="M47.018 40.14C47.114 40.14 47.198 40.176 47.27 40.248C47.342 40.32 47.378 40.404 47.378 40.5C47.378 40.584 47.348 40.692 47.288 40.824L43.868 48.924L43.706 49.284C43.394 50.04 43.106 50.664 42.842 51.156C42.578 51.648 42.248 52.062 41.852 52.398C41.456 52.746 40.988 52.92 40.448 52.92H39.764C39.644 52.92 39.542 52.884 39.458 52.812C39.386 52.74 39.35 52.638 39.35 52.506V51.894C39.35 51.774 39.386 51.672 39.458 51.588C39.542 51.516 39.644 51.48 39.764 51.48H40.232C40.496 51.48 40.712 51.426 40.88 51.318C41.048 51.222 41.198 51.054 41.33 50.814C41.474 50.574 41.648 50.208 41.852 49.716L42.158 48.978L38.63 40.824C38.57 40.668 38.54 40.566 38.54 40.518C38.552 40.41 38.594 40.32 38.666 40.248C38.738 40.176 38.822 40.14 38.918 40.14H39.764C39.968 40.14 40.118 40.242 40.214 40.446L42.968 47.052L45.758 40.446C45.842 40.242 45.992 40.14 46.208 40.14H47.018ZM48.1808 49.5C48.0608 49.5 47.9588 49.458 47.8748 49.374C47.7908 49.29 47.7488 49.188 47.7488 49.068V48.402C47.7488 48.282 47.7848 48.186 47.8568 48.114C47.9288 48.042 48.0188 48.006 48.1268 48.006C48.7028 47.982 49.1288 47.574 49.4048 46.782C49.6928 45.978 49.8368 44.67 49.8368 42.858V40.554C49.8368 40.434 49.8728 40.338 49.9448 40.266C50.0288 40.182 50.1308 40.14 50.2508 40.14H55.9748C56.0948 40.14 56.1908 40.182 56.2628 40.266C56.3468 40.338 56.3888 40.434 56.3888 40.554V49.086C56.3888 49.206 56.3468 49.308 56.2628 49.392C56.1908 49.464 56.0948 49.5 55.9748 49.5H55.1108C54.9908 49.5 54.8948 49.464 54.8228 49.392C54.7508 49.308 54.7148 49.206 54.7148 49.086V41.58H51.4748V43.056C51.4748 45.348 51.2108 46.998 50.6828 48.006C50.1548 49.002 49.3208 49.5 48.1808 49.5ZM59.3602 49.5C59.2402 49.5 59.1382 49.464 59.0542 49.392C58.9822 49.308 58.9462 49.206 58.9462 49.086V47.79C58.9462 47.67 58.9822 47.574 59.0542 47.502C59.1382 47.418 59.2402 47.376 59.3602 47.376H60.6562C60.7762 47.376 60.8782 47.418 60.9622 47.502C61.0462 47.574 61.0882 47.67 61.0882 47.79V49.086C61.0882 49.206 61.0462 49.308 60.9622 49.392C60.8782 49.464 60.7762 49.5 60.6562 49.5H59.3602ZM72.0515 49.68C71.1035 49.68 70.2875 49.542 69.6035 49.266C68.9315 48.978 68.4095 48.594 68.0375 48.114C67.6655 47.622 67.4495 47.076 67.3895 46.476V46.44C67.3895 46.344 67.4255 46.272 67.4975 46.224C67.5695 46.164 67.6595 46.134 67.7675 46.134H68.6675C68.7995 46.134 68.9075 46.164 68.9915 46.224C69.0755 46.272 69.1355 46.368 69.1715 46.512C69.3155 47.016 69.6335 47.418 70.1255 47.718C70.6175 48.006 71.2535 48.15 72.0335 48.15C72.8975 48.15 73.6175 47.952 74.1935 47.556C74.7815 47.16 75.0755 46.62 75.0755 45.936C75.0755 45.228 74.8175 44.682 74.3015 44.298C73.7975 43.902 73.1075 43.704 72.2315 43.704H70.9535C70.8335 43.704 70.7315 43.668 70.6475 43.596C70.5755 43.512 70.5395 43.41 70.5395 43.29V42.66C70.5395 42.528 70.5755 42.426 70.6475 42.354C70.7315 42.27 70.8335 42.228 70.9535 42.228H72.1595C72.9275 42.228 73.5335 42.06 73.9775 41.724C74.4335 41.388 74.6615 40.878 74.6615 40.194C74.6615 39.606 74.4155 39.138 73.9235 38.79C73.4315 38.43 72.8195 38.25 72.0875 38.25C71.3315 38.25 70.7135 38.388 70.2335 38.664C69.7535 38.94 69.4535 39.36 69.3335 39.924C69.2735 40.164 69.1295 40.284 68.9015 40.284H67.9295C67.8215 40.284 67.7255 40.248 67.6415 40.176C67.5695 40.104 67.5395 40.014 67.5515 39.906C67.6355 38.946 68.0675 38.178 68.8475 37.602C69.6275 37.014 70.7195 36.72 72.1235 36.72C73.0355 36.72 73.8155 36.876 74.4635 37.188C75.1235 37.5 75.6155 37.914 75.9395 38.43C76.2755 38.946 76.4435 39.504 76.4435 40.104C76.4435 41.388 75.9635 42.312 75.0035 42.876C75.6275 43.188 76.0955 43.614 76.4075 44.154C76.7195 44.682 76.8755 45.288 76.8755 45.972C76.8755 46.704 76.6775 47.352 76.2815 47.916C75.8855 48.468 75.3215 48.9 74.5895 49.212C73.8695 49.524 73.0235 49.68 72.0515 49.68ZM81.8092 49.68C81.2212 49.68 80.6752 49.56 80.1712 49.32C79.6672 49.08 79.2652 48.756 78.9652 48.348C78.6772 47.928 78.5332 47.466 78.5332 46.962C78.5332 46.17 78.8572 45.522 79.5052 45.018C80.1652 44.502 81.0532 44.166 82.1692 44.01L84.8512 43.632V43.11C84.8512 41.886 84.1492 41.274 82.7452 41.274C82.2172 41.274 81.7852 41.388 81.4492 41.616C81.1132 41.832 80.8612 42.09 80.6932 42.39C80.6572 42.498 80.6092 42.576 80.5492 42.624C80.5012 42.672 80.4292 42.696 80.3332 42.696H79.5592C79.4512 42.696 79.3552 42.66 79.2712 42.588C79.1992 42.504 79.1632 42.408 79.1632 42.3C79.1752 42.012 79.3072 41.688 79.5592 41.328C79.8232 40.956 80.2252 40.638 80.7652 40.374C81.3052 40.098 81.9712 39.96 82.7632 39.96C84.1072 39.96 85.0732 40.278 85.6612 40.914C86.2492 41.538 86.5432 42.318 86.5432 43.254V49.086C86.5432 49.206 86.5012 49.308 86.4172 49.392C86.3452 49.464 86.2492 49.5 86.1292 49.5H85.3012C85.1812 49.5 85.0792 49.464 84.9952 49.392C84.9232 49.308 84.8872 49.206 84.8872 49.086V48.312C84.6232 48.696 84.2392 49.02 83.7352 49.284C83.2312 49.548 82.5892 49.68 81.8092 49.68ZM82.1872 48.33C82.9672 48.33 83.6032 48.078 84.0952 47.574C84.5992 47.058 84.8512 46.32 84.8512 45.36V44.856L82.7632 45.162C81.9112 45.282 81.2692 45.486 80.8372 45.774C80.4052 46.05 80.1892 46.404 80.1892 46.836C80.1892 47.316 80.3872 47.688 80.7832 47.952C81.1792 48.204 81.6472 48.33 82.1872 48.33ZM89.5448 49.5C89.4248 49.5 89.3228 49.464 89.2388 49.392C89.1668 49.308 89.1308 49.206 89.1308 49.086V40.554C89.1308 40.434 89.1668 40.338 89.2388 40.266C89.3228 40.182 89.4248 40.14 89.5448 40.14H93.2888C94.3928 40.14 95.2328 40.368 95.8088 40.824C96.3968 41.268 96.6908 41.88 96.6908 42.66C96.6908 43.176 96.5948 43.578 96.4028 43.866C96.2108 44.142 95.9168 44.382 95.5208 44.586C95.9528 44.766 96.2888 45.066 96.5288 45.486C96.7808 45.906 96.9068 46.356 96.9068 46.836C96.9068 47.7 96.6008 48.36 95.9888 48.816C95.3888 49.272 94.5368 49.5 93.4328 49.5H89.5448ZM93.1808 44.118C93.7688 44.118 94.2308 43.992 94.5668 43.74C94.9028 43.488 95.0708 43.134 95.0708 42.678C95.0708 42.234 94.9088 41.922 94.5848 41.742C94.2608 41.55 93.7928 41.454 93.1808 41.454H90.7868V44.118H93.1808ZM93.2888 48.186C93.8888 48.186 94.3568 48.072 94.6928 47.844C95.0408 47.616 95.2148 47.28 95.2148 46.836C95.2148 46.356 95.0588 46.008 94.7468 45.792C94.4348 45.564 93.9488 45.45 93.2888 45.45H90.7868V48.186H93.2888ZM103.055 49.68C101.735 49.68 100.709 49.308 99.9767 48.564C99.2567 47.82 98.8727 46.83 98.8247 45.594L98.8067 44.82L98.8247 44.046C98.8727 42.822 99.2627 41.838 99.9947 41.094C100.727 40.338 101.747 39.96 103.055 39.96C104.363 39.96 105.383 40.338 106.115 41.094C106.847 41.838 107.237 42.822 107.285 44.046C107.297 44.178 107.303 44.436 107.303 44.82C107.303 45.204 107.297 45.462 107.285 45.594C107.237 46.83 106.847 47.82 106.115 48.564C105.395 49.308 104.375 49.68 103.055 49.68ZM103.055 48.294C103.811 48.294 104.405 48.054 104.837 47.574C105.281 47.094 105.521 46.404 105.557 45.504C105.569 45.384 105.575 45.156 105.575 44.82C105.575 44.484 105.569 44.256 105.557 44.136C105.521 43.236 105.281 42.546 104.837 42.066C104.405 41.586 103.811 41.346 103.055 41.346C102.299 41.346 101.699 41.586 101.255 42.066C100.811 42.546 100.577 43.236 100.553 44.136L100.535 44.82L100.553 45.504C100.577 46.404 100.811 47.094 101.255 47.574C101.699 48.054 102.299 48.294 103.055 48.294ZM109.017 51.48C108.897 51.48 108.795 51.438 108.711 51.354C108.639 51.282 108.603 51.186 108.603 51.066V48.474C108.603 48.354 108.639 48.258 108.711 48.186C108.795 48.102 108.897 48.06 109.017 48.06H109.107C109.611 48.048 109.989 47.628 110.241 46.8C110.505 45.972 110.637 44.658 110.637 42.858V40.554C110.637 40.434 110.673 40.338 110.745 40.266C110.829 40.182 110.931 40.14 111.051 40.14H116.793C116.913 40.14 117.009 40.182 117.081 40.266C117.165 40.338 117.207 40.434 117.207 40.554V48.024H118.053C118.173 48.024 118.269 48.066 118.341 48.15C118.425 48.222 118.467 48.318 118.467 48.438V51.066C118.467 51.186 118.425 51.282 118.341 51.354C118.269 51.438 118.173 51.48 118.053 51.48H117.207C117.087 51.48 116.985 51.438 116.901 51.354C116.829 51.282 116.793 51.186 116.793 51.066V49.5H110.277V51.066C110.277 51.186 110.235 51.282 110.151 51.354C110.079 51.438 109.983 51.48 109.863 51.48H109.017ZM115.533 48.024V41.58H112.275V43.056C112.275 45.456 111.933 47.124 111.249 48.06L115.533 48.024ZM124.13 49.68C122.846 49.68 121.838 49.32 121.106 48.6C120.386 47.868 120.002 46.848 119.954 45.54L119.936 44.82L119.954 44.1C120.002 42.792 120.386 41.778 121.106 41.058C121.838 40.326 122.846 39.96 124.13 39.96C124.994 39.96 125.726 40.116 126.326 40.428C126.926 40.74 127.37 41.124 127.658 41.58C127.958 42.036 128.12 42.492 128.144 42.948C128.156 43.068 128.12 43.164 128.036 43.236C127.952 43.308 127.85 43.344 127.73 43.344H126.866C126.746 43.344 126.656 43.32 126.596 43.272C126.536 43.224 126.476 43.128 126.416 42.984C126.212 42.408 125.924 42 125.552 41.76C125.18 41.508 124.712 41.382 124.148 41.382C123.404 41.382 122.81 41.616 122.366 42.084C121.934 42.54 121.7 43.242 121.664 44.19L121.646 44.838L121.664 45.45C121.7 46.41 121.934 47.118 122.366 47.574C122.798 48.03 123.392 48.258 124.148 48.258C124.712 48.258 125.18 48.138 125.552 47.898C125.924 47.646 126.212 47.232 126.416 46.656C126.476 46.512 126.536 46.416 126.596 46.368C126.656 46.308 126.746 46.278 126.866 46.278H127.73C127.85 46.278 127.952 46.32 128.036 46.404C128.12 46.476 128.156 46.572 128.144 46.692C128.12 47.136 127.958 47.592 127.658 48.06C127.37 48.516 126.926 48.9 126.326 49.212C125.738 49.524 125.006 49.68 124.13 49.68ZM138.093 48.978C138.153 49.05 138.183 49.128 138.183 49.212C138.183 49.296 138.147 49.368 138.075 49.428C138.015 49.476 137.931 49.5 137.823 49.5H136.725C136.533 49.5 136.377 49.41 136.257 49.23L133.647 45.468H131.955V49.086C131.955 49.206 131.913 49.308 131.829 49.392C131.757 49.464 131.661 49.5 131.541 49.5H130.695C130.575 49.5 130.473 49.464 130.389 49.392C130.317 49.308 130.281 49.206 130.281 49.086V40.554C130.281 40.434 130.317 40.338 130.389 40.266C130.473 40.182 130.575 40.14 130.695 40.14H131.541C131.661 40.14 131.757 40.182 131.829 40.266C131.913 40.338 131.955 40.434 131.955 40.554V44.01H133.611L136.023 40.41C136.167 40.23 136.329 40.14 136.509 40.14H137.445C137.553 40.14 137.643 40.17 137.715 40.23C137.787 40.278 137.823 40.344 137.823 40.428C137.823 40.488 137.793 40.56 137.733 40.644L135.051 44.622L138.093 48.978ZM142.542 49.68C141.954 49.68 141.408 49.56 140.904 49.32C140.4 49.08 139.998 48.756 139.698 48.348C139.41 47.928 139.266 47.466 139.266 46.962C139.266 46.17 139.59 45.522 140.238 45.018C140.898 44.502 141.786 44.166 142.902 44.01L145.584 43.632V43.11C145.584 41.886 144.882 41.274 143.478 41.274C142.95 41.274 142.518 41.388 142.182 41.616C141.846 41.832 141.594 42.09 141.426 42.39C141.39 42.498 141.342 42.576 141.282 42.624C141.234 42.672 141.162 42.696 141.066 42.696H140.292C140.184 42.696 140.088 42.66 140.004 42.588C139.932 42.504 139.896 42.408 139.896 42.3C139.908 42.012 140.04 41.688 140.292 41.328C140.556 40.956 140.958 40.638 141.498 40.374C142.038 40.098 142.704 39.96 143.496 39.96C144.84 39.96 145.806 40.278 146.394 40.914C146.982 41.538 147.276 42.318 147.276 43.254V49.086C147.276 49.206 147.234 49.308 147.15 49.392C147.078 49.464 146.982 49.5 146.862 49.5H146.034C145.914 49.5 145.812 49.464 145.728 49.392C145.656 49.308 145.62 49.206 145.62 49.086V48.312C145.356 48.696 144.972 49.02 144.468 49.284C143.964 49.548 143.322 49.68 142.542 49.68ZM142.92 48.33C143.7 48.33 144.336 48.078 144.828 47.574C145.332 47.058 145.584 46.32 145.584 45.36V44.856L143.496 45.162C142.644 45.282 142.002 45.486 141.57 45.774C141.138 46.05 140.922 46.404 140.922 46.836C140.922 47.316 141.12 47.688 141.516 47.952C141.912 48.204 142.38 48.33 142.92 48.33ZM156.559 40.14C156.679 40.14 156.775 40.182 156.847 40.266C156.931 40.338 156.973 40.434 156.973 40.554V49.086C156.973 49.206 156.931 49.308 156.847 49.392C156.775 49.464 156.679 49.5 156.559 49.5H155.695C155.575 49.5 155.473 49.464 155.389 49.392C155.317 49.308 155.281 49.206 155.281 49.086V46.152H153.355L151.321 49.23C151.273 49.302 151.207 49.368 151.123 49.428C151.039 49.476 150.949 49.5 150.853 49.5H149.989C149.881 49.5 149.791 49.464 149.719 49.392C149.647 49.32 149.611 49.236 149.611 49.14C149.611 49.02 149.653 48.912 149.737 48.816L151.753 45.846C151.129 45.63 150.661 45.288 150.349 44.82C150.037 44.34 149.881 43.764 149.881 43.092C149.881 42.084 150.175 41.34 150.763 40.86C151.363 40.38 152.263 40.14 153.463 40.14H156.559ZM155.299 41.49H153.409C152.725 41.49 152.227 41.61 151.915 41.85C151.603 42.09 151.447 42.504 151.447 43.092C151.447 43.608 151.597 44.022 151.897 44.334C152.209 44.646 152.665 44.802 153.265 44.802H155.299V41.49ZM167.72 49.5C167.6 49.5 167.498 49.464 167.414 49.392C167.342 49.308 167.306 49.206 167.306 49.086V39.006L164.318 41.31C164.234 41.382 164.144 41.418 164.048 41.418C163.94 41.418 163.838 41.358 163.742 41.238L163.274 40.644C163.214 40.56 163.184 40.476 163.184 40.392C163.184 40.248 163.244 40.134 163.364 40.05L167.288 37.026C167.42 36.942 167.576 36.9 167.756 36.9H168.674C168.794 36.9 168.89 36.942 168.962 37.026C169.046 37.098 169.088 37.194 169.088 37.314V49.086C169.088 49.206 169.046 49.308 168.962 49.392C168.89 49.464 168.794 49.5 168.674 49.5H167.72ZM175.995 49.68C175.035 49.68 174.201 49.488 173.493 49.104C172.785 48.708 172.245 48.18 171.873 47.52C171.501 46.86 171.315 46.14 171.315 45.36C171.315 44.724 171.441 44.124 171.693 43.56C171.957 42.984 172.251 42.474 172.575 42.03L175.995 37.26C176.007 37.248 176.043 37.206 176.103 37.134C176.151 37.062 176.217 37.008 176.301 36.972C176.385 36.924 176.481 36.9 176.589 36.9H177.543C177.651 36.9 177.735 36.942 177.795 37.026C177.867 37.098 177.903 37.188 177.903 37.296C177.903 37.38 177.879 37.458 177.831 37.53L175.203 41.202C175.467 41.118 175.809 41.076 176.229 41.076C177.093 41.088 177.855 41.286 178.515 41.67C179.187 42.054 179.703 42.57 180.063 43.218C180.435 43.866 180.621 44.574 180.621 45.342C180.621 46.11 180.435 46.83 180.063 47.502C179.703 48.162 179.169 48.69 178.461 49.086C177.765 49.482 176.943 49.68 175.995 49.68ZM175.977 48.15C176.493 48.15 176.967 48.042 177.399 47.826C177.843 47.61 178.191 47.292 178.443 46.872C178.707 46.44 178.839 45.93 178.839 45.342C178.839 44.766 178.707 44.268 178.443 43.848C178.191 43.428 177.843 43.11 177.399 42.894C176.967 42.678 176.493 42.57 175.977 42.57C175.473 42.57 174.999 42.678 174.555 42.894C174.123 43.11 173.775 43.428 173.511 43.848C173.247 44.268 173.115 44.766 173.115 45.342C173.115 45.93 173.247 46.44 173.511 46.872C173.775 47.292 174.123 47.61 174.555 47.826C174.987 48.042 175.461 48.15 175.977 48.15Z" fill="#414141"/>
<path fill-rule="evenodd" clip-rule="evenodd" d="M0.663186 73.0349C0.373237 70.7276 2.34828 69.125 4.46942 69.125H8.959C9.86517 69.125 10.6417 69.773 10.8038 70.6646L11.5617 74.8332C11.7881 76.0783 11.4642 77.3606 10.6736 78.3488L9.76931 79.4791C9.60817 79.6806 9.59344 79.9476 9.71792 80.1506C10.3049 81.1077 11.3607 82.7246 12.3192 83.6831C13.2776 84.6415 14.8945 85.6973 15.8516 86.2843C16.0546 86.4088 16.3217 86.3941 16.5231 86.2329L17.6534 85.3287C18.6417 84.5381 19.9239 84.2141 21.1691 84.4405L25.3376 85.1985C26.2292 85.3606 26.8772 86.1371 26.8772 87.0432V91.2271C26.8772 93.504 25.0635 95.53 22.6463 95.1413C18.5056 94.4754 12.5867 92.346 7.66923 87.0503C2.88791 81.9012 1.11664 76.6434 0.663186 73.0349ZM4.46942 70.375C2.88878 70.375 1.73184 71.5135 1.90343 72.8791C2.3263 76.2442 3.99305 81.2543 8.58522 86.1997C13.2721 91.2471 18.9134 93.2749 22.8448 93.9071C24.3378 94.1472 25.6272 92.9106 25.6272 91.2271V87.0432C25.6272 86.7412 25.4112 86.4823 25.114 86.4283L20.9455 85.6704C20.056 85.5087 19.1402 85.74 18.4343 86.3048L17.304 87.209C16.7067 87.6868 15.8671 87.7601 15.1982 87.3499C14.2442 86.7649 12.51 85.6416 11.4353 84.5669C10.3606 83.4923 9.23737 81.758 8.65234 80.8041C8.24209 80.1351 8.31539 79.2956 8.79323 78.6983L9.69747 77.568C10.2622 76.8621 10.4936 75.9462 10.3318 75.0568L9.57392 70.8882C9.51989 70.591 9.26106 70.375 8.959 70.375H4.46942Z" fill="#414141"/>
<path d="M43.274 86.906C43.154 86.906 43.052 86.87 42.968 86.798C42.896 86.714 42.86 86.612 42.86 86.492V82.748H39.17C39.05 82.748 38.948 82.712 38.864 82.64C38.792 82.556 38.756 82.454 38.756 82.334V81.758C38.756 81.638 38.792 81.542 38.864 81.47C38.948 81.386 39.05 81.344 39.17 81.344H42.86V77.708C42.86 77.588 42.896 77.492 42.968 77.42C43.052 77.336 43.154 77.294 43.274 77.294H43.904C44.024 77.294 44.12 77.336 44.192 77.42C44.276 77.492 44.318 77.588 44.318 77.708V81.344H48.026C48.146 81.344 48.242 81.386 48.314 81.47C48.398 81.542 48.44 81.638 48.44 81.758V82.334C48.44 82.454 48.398 82.556 48.314 82.64C48.242 82.712 48.146 82.748 48.026 82.748H44.318V86.492C44.318 86.612 44.276 86.714 44.192 86.798C44.12 86.87 44.024 86.906 43.904 86.906H43.274ZM50.93 87.5C50.822 87.5 50.732 87.464 50.66 87.392C50.6 87.308 50.57 87.212 50.57 87.104L50.606 86.942L55.088 76.466H49.184C49.064 76.466 48.962 76.43 48.878 76.358C48.806 76.274 48.77 76.172 48.77 76.052V75.332C48.77 75.2 48.806 75.098 48.878 75.026C48.962 74.942 49.064 74.9 49.184 74.9H56.564C56.696 74.9 56.798 74.942 56.87 75.026C56.954 75.098 56.996 75.2 56.996 75.332V75.998C56.996 76.214 56.948 76.448 56.852 76.7L52.424 87.05C52.364 87.182 52.292 87.29 52.208 87.374C52.136 87.458 52.034 87.5 51.902 87.5H50.93ZM67.6127 87.68C66.6767 87.68 65.8547 87.53 65.1467 87.23C64.4387 86.918 63.8867 86.474 63.4907 85.898C63.0947 85.322 62.8967 84.65 62.8967 83.882C62.8967 83.174 63.0707 82.556 63.4187 82.028C63.7667 81.488 64.2407 81.074 64.8407 80.786C64.3607 80.51 63.9887 80.15 63.7247 79.706C63.4727 79.25 63.3467 78.722 63.3467 78.122C63.3467 77.066 63.7307 76.238 64.4987 75.638C65.2787 75.026 66.3167 74.72 67.6127 74.72C68.8967 74.72 69.9227 75.026 70.6907 75.638C71.4707 76.238 71.8607 77.06 71.8607 78.104C71.8607 78.704 71.7287 79.232 71.4647 79.688C71.2127 80.132 70.8527 80.498 70.3847 80.786C70.9847 81.074 71.4587 81.488 71.8067 82.028C72.1547 82.556 72.3287 83.174 72.3287 83.882C72.3287 84.65 72.1307 85.322 71.7347 85.898C71.3387 86.474 70.7807 86.918 70.0607 87.23C69.3527 87.53 68.5367 87.68 67.6127 87.68ZM67.6127 80.138C68.3327 80.126 68.9387 79.94 69.4307 79.58C69.9227 79.22 70.1687 78.746 70.1687 78.158C70.1687 77.558 69.9227 77.078 69.4307 76.718C68.9507 76.346 68.3447 76.16 67.6127 76.16C66.8687 76.16 66.2507 76.34 65.7587 76.7C65.2787 77.06 65.0387 77.546 65.0387 78.158C65.0387 78.758 65.2787 79.238 65.7587 79.598C66.2507 79.958 66.8687 80.138 67.6127 80.138ZM67.6127 86.24C68.4527 86.24 69.1547 86.024 69.7187 85.592C70.2827 85.16 70.5647 84.59 70.5647 83.882C70.5647 83.174 70.2827 82.61 69.7187 82.19C69.1547 81.77 68.4527 81.56 67.6127 81.56C66.7607 81.56 66.0527 81.77 65.4887 82.19C64.9247 82.61 64.6427 83.174 64.6427 83.882C64.6427 84.59 64.9247 85.16 65.4887 85.592C66.0527 86.024 66.7607 86.24 67.6127 86.24ZM74.628 87.5C74.508 87.5 74.406 87.464 74.322 87.392C74.25 87.308 74.214 87.206 74.214 87.086V86.51C74.214 86.234 74.364 85.97 74.664 85.718L78.48 81.902C79.404 81.134 80.04 80.51 80.388 80.03C80.736 79.538 80.91 79.022 80.91 78.482C80.91 77.786 80.712 77.24 80.316 76.844C79.932 76.448 79.368 76.25 78.624 76.25C77.928 76.25 77.37 76.46 76.95 76.88C76.53 77.288 76.272 77.834 76.176 78.518C76.152 78.662 76.092 78.77 75.996 78.842C75.912 78.902 75.816 78.932 75.708 78.932H74.772C74.664 78.932 74.574 78.902 74.502 78.842C74.43 78.77 74.394 78.686 74.394 78.59C74.418 77.942 74.592 77.324 74.916 76.736C75.24 76.136 75.714 75.65 76.338 75.278C76.974 74.894 77.736 74.702 78.624 74.702C79.98 74.702 81 75.056 81.684 75.764C82.38 76.46 82.728 77.348 82.728 78.428C82.728 79.184 82.536 79.868 82.152 80.48C81.78 81.08 81.198 81.728 80.406 82.424L76.95 85.934H82.566C82.698 85.934 82.8 85.976 82.872 86.06C82.956 86.132 82.998 86.228 82.998 86.348V87.086C82.998 87.206 82.956 87.308 82.872 87.392C82.788 87.464 82.686 87.5 82.566 87.5H74.628ZM88.8645 87.5C88.7445 87.5 88.6425 87.464 88.5585 87.392C88.4865 87.308 88.4505 87.206 88.4505 87.086V77.006L85.4625 79.31C85.3785 79.382 85.2885 79.418 85.1925 79.418C85.0845 79.418 84.9825 79.358 84.8865 79.238L84.4185 78.644C84.3585 78.56 84.3285 78.476 84.3285 78.392C84.3285 78.248 84.3885 78.134 84.5085 78.05L88.4325 75.026C88.5645 74.942 88.7205 74.9 88.9005 74.9H89.8185C89.9385 74.9 90.0345 74.942 90.1065 75.026C90.1905 75.098 90.2325 75.194 90.2325 75.314V87.086C90.2325 87.206 90.1905 87.308 90.1065 87.392C90.0345 87.464 89.9385 87.5 89.8185 87.5H88.8645ZM98.8137 87.5C98.6937 87.5 98.5917 87.464 98.5077 87.392C98.4357 87.308 98.3997 87.206 98.3997 87.086V84.494H92.5677C92.4477 84.494 92.3457 84.458 92.2617 84.386C92.1897 84.302 92.1537 84.2 92.1537 84.08V83.36C92.1537 83.18 92.2197 83 92.3517 82.82L97.7517 75.206C97.8117 75.11 97.9017 75.038 98.0217 74.99C98.1417 74.93 98.2737 74.9 98.4177 74.9H99.7137C99.8337 74.9 99.9297 74.942 100.002 75.026C100.086 75.098 100.128 75.194 100.128 75.314V82.928H101.748C101.868 82.928 101.97 82.97 102.054 83.054C102.138 83.126 102.18 83.222 102.18 83.342V84.08C102.18 84.2 102.138 84.302 102.054 84.386C101.982 84.458 101.886 84.494 101.766 84.494H100.128V87.086C100.128 87.206 100.086 87.308 100.002 87.392C99.9297 87.464 99.8337 87.5 99.7137 87.5H98.8137ZM98.4177 82.964V76.79L94.0797 82.964H98.4177ZM108.481 87.68C106.933 87.68 105.799 87.23 105.079 86.33C104.359 85.43 103.975 84.248 103.927 82.784C103.915 82.46 103.909 81.938 103.909 81.218C103.909 80.474 103.915 79.934 103.927 79.598C103.963 78.158 104.347 76.988 105.079 76.088C105.811 75.176 106.945 74.72 108.481 74.72C110.029 74.72 111.169 75.176 111.901 76.088C112.633 76.988 113.017 78.158 113.053 79.598C113.077 80.27 113.089 80.81 113.089 81.218C113.089 81.614 113.077 82.136 113.053 82.784C113.005 84.248 112.621 85.43 111.901 86.33C111.181 87.23 110.041 87.68 108.481 87.68ZM108.481 86.132C109.381 86.132 110.059 85.832 110.515 85.232C110.983 84.632 111.229 83.786 111.253 82.694C111.277 81.998 111.289 81.494 111.289 81.182C111.289 80.846 111.277 80.354 111.253 79.706C111.229 78.626 110.989 77.78 110.533 77.168C110.077 76.556 109.393 76.25 108.481 76.25C107.581 76.25 106.897 76.556 106.429 77.168C105.973 77.78 105.733 78.626 105.709 79.706L105.691 81.182L105.709 82.694C105.733 83.786 105.973 84.632 106.429 85.232C106.897 85.832 107.581 86.132 108.481 86.132ZM122.087 87.5C121.979 87.5 121.889 87.464 121.817 87.392C121.757 87.308 121.727 87.212 121.727 87.104C121.727 87.02 121.751 86.942 121.799 86.87L124.553 83.036C124.265 83.108 123.941 83.144 123.581 83.144C122.729 83.132 121.973 82.934 121.313 82.55C120.665 82.166 120.167 81.656 119.819 81.02C119.471 80.384 119.297 79.706 119.297 78.986C119.297 78.266 119.465 77.582 119.801 76.934C120.149 76.274 120.665 75.74 121.349 75.332C122.033 74.924 122.861 74.72 123.833 74.72C124.805 74.72 125.633 74.918 126.317 75.314C127.013 75.71 127.535 76.232 127.883 76.88C128.231 77.528 128.405 78.218 128.405 78.95C128.405 79.598 128.291 80.174 128.063 80.678C127.835 81.17 127.517 81.71 127.109 82.298L123.635 87.14C123.551 87.248 123.467 87.338 123.383 87.41C123.311 87.47 123.203 87.5 123.059 87.5H122.087ZM123.833 81.686C124.337 81.686 124.799 81.578 125.219 81.362C125.651 81.134 125.993 80.816 126.245 80.408C126.497 79.988 126.623 79.508 126.623 78.968C126.623 78.428 126.497 77.954 126.245 77.546C125.993 77.126 125.651 76.808 125.219 76.592C124.799 76.364 124.337 76.25 123.833 76.25C123.329 76.25 122.867 76.364 122.447 76.592C122.027 76.808 121.691 77.126 121.439 77.546C121.199 77.954 121.079 78.428 121.079 78.968C121.079 79.508 121.199 79.988 121.439 80.408C121.691 80.816 122.027 81.134 122.447 81.362C122.867 81.578 123.329 81.686 123.833 81.686ZM134.251 87.5C134.131 87.5 134.029 87.464 133.945 87.392C133.873 87.308 133.837 87.206 133.837 87.086V77.006L130.849 79.31C130.765 79.382 130.675 79.418 130.579 79.418C130.471 79.418 130.369 79.358 130.273 79.238L129.805 78.644C129.745 78.56 129.715 78.476 129.715 78.392C129.715 78.248 129.775 78.134 129.895 78.05L133.819 75.026C133.951 74.942 134.107 74.9 134.287 74.9H135.205C135.325 74.9 135.421 74.942 135.493 75.026C135.577 75.098 135.619 75.194 135.619 75.314V87.086C135.619 87.206 135.577 87.308 135.493 87.392C135.421 87.464 135.325 87.5 135.205 87.5H134.251ZM141.95 87.5C141.83 87.5 141.728 87.464 141.644 87.392C141.572 87.308 141.536 87.206 141.536 87.086V77.006L138.548 79.31C138.464 79.382 138.374 79.418 138.278 79.418C138.17 79.418 138.068 79.358 137.972 79.238L137.504 78.644C137.444 78.56 137.414 78.476 137.414 78.392C137.414 78.248 137.474 78.134 137.594 78.05L141.518 75.026C141.65 74.942 141.806 74.9 141.986 74.9H142.904C143.024 74.9 143.12 74.942 143.192 75.026C143.276 75.098 143.318 75.194 143.318 75.314V87.086C143.318 87.206 143.276 87.308 143.192 87.392C143.12 87.464 143.024 87.5 142.904 87.5H141.95ZM150.388 87.68C148.84 87.68 147.706 87.23 146.986 86.33C146.266 85.43 145.882 84.248 145.834 82.784C145.822 82.46 145.816 81.938 145.816 81.218C145.816 80.474 145.822 79.934 145.834 79.598C145.87 78.158 146.254 76.988 146.986 76.088C147.718 75.176 148.852 74.72 150.388 74.72C151.936 74.72 153.076 75.176 153.808 76.088C154.54 76.988 154.924 78.158 154.96 79.598C154.984 80.27 154.996 80.81 154.996 81.218C154.996 81.614 154.984 82.136 154.96 82.784C154.912 84.248 154.528 85.43 153.808 86.33C153.088 87.23 151.948 87.68 150.388 87.68ZM150.388 86.132C151.288 86.132 151.966 85.832 152.422 85.232C152.89 84.632 153.136 83.786 153.16 82.694C153.184 81.998 153.196 81.494 153.196 81.182C153.196 80.846 153.184 80.354 153.16 79.706C153.136 78.626 152.896 77.78 152.44 77.168C151.984 76.556 151.3 76.25 150.388 76.25C149.488 76.25 148.804 76.556 148.336 77.168C147.88 77.78 147.64 78.626 147.616 79.706L147.598 81.182L147.616 82.694C147.64 83.786 147.88 84.632 148.336 85.232C148.804 85.832 149.488 86.132 150.388 86.132ZM161.075 87.5C160.955 87.5 160.853 87.464 160.769 87.392C160.697 87.308 160.661 87.206 160.661 87.086V77.006L157.673 79.31C157.589 79.382 157.499 79.418 157.403 79.418C157.295 79.418 157.193 79.358 157.097 79.238L156.629 78.644C156.569 78.56 156.539 78.476 156.539 78.392C156.539 78.248 156.599 78.134 156.719 78.05L160.643 75.026C160.775 74.942 160.931 74.9 161.111 74.9H162.029C162.149 74.9 162.245 74.942 162.317 75.026C162.401 75.098 162.443 75.194 162.443 75.314V87.086C162.443 87.206 162.401 87.308 162.317 87.392C162.245 87.464 162.149 87.5 162.029 87.5H161.075Z" fill="#414141"/>
<path d="M38 88.85H163.811V89.75H38V88.85Z" fill="#414141"/>
</svg>
