<svg width="127" height="40" viewBox="0 0 127 40" fill="none" xmlns="http://www.w3.org/2000/svg">
<g filter="url(#filter0_d_287_18371)">
<rect x="3" y="2" width="119" height="26" rx="4" fill="white"/>
<path d="M13 11.9998H20.1639V13.004C20.1639 14.6005 18.5745 15.3988 15.3956 15.3988V17.9566H13V11.9998ZM17.073 14.2703C17.5359 14.0503 17.7684 13.7424 17.7684 13.3477V12.7985H15.3956V14.6009C16.0503 14.6005 16.6092 14.4907 17.073 14.2703Z" fill="#AA111D"/>
<path d="M23.373 12.0006H30.537V17.9573H28.1414V14.9531C27.6142 14.9531 27.1355 14.9333 26.7043 14.8929C26.0653 15.0473 25.7775 15.3421 25.8418 15.7769L26.2256 17.957H23.8537L23.4947 15.7769L23.471 15.5965C23.471 15.0987 23.8943 14.7125 24.7409 14.4379C23.83 14.0375 23.375 13.4108 23.375 12.5583V12.0006H23.373ZM26.4639 13.8246C26.9268 14.045 27.4856 14.1552 28.1414 14.1552V12.7992H25.7696V12.9023C25.7686 13.2967 26 13.6046 26.4639 13.8246Z" fill="#AA111D"/>
<path d="M34.708 12.0006H41.4881V13.6829H39.0926V12.7988H37.1036V14.0691C38.4774 14.0691 39.6109 14.2019 40.506 14.468C41.4001 14.7341 41.8482 15.1476 41.8482 15.7081L41.8244 15.8885L41.4654 17.957H34.709V12.0006H34.708ZM39.2123 17.1591L39.4516 15.8888C39.5792 15.2078 38.7969 14.8673 37.1036 14.8673V17.1591H39.2123Z" fill="#AA111D"/>
<path d="M45.5596 12.0004H47.9551V14.352L50.3269 13.6309V12H52.6988V17.9568H50.3269V14.6779L47.9551 15.399V17.9568H45.5596V12.0004Z" fill="#AA111D"/>
<path d="M56.8682 12.0006H59.2637V14.1548H61.6118V12.0006H64.0073V17.9573H61.6118V14.9531H59.2637V17.9573H56.8682V12.0006Z" fill="#AA111D"/>
<path d="M70.0465 11.9998L71.1246 14.6434H71.5084L72.5628 11.9998H75.7733V12.7981H74.6468L73.2334 15.8966C73.8723 15.9597 74.3718 16.0798 74.7308 16.257C75.0899 16.4345 75.2699 16.6577 75.2699 16.9266C75.2699 17.2643 74.9979 17.5275 74.4549 17.7164C73.9119 17.9052 73.1849 17.9995 72.2749 17.9995H70.6697C69.7587 17.9995 69.0318 17.9052 68.4897 17.7164C67.9467 17.5275 67.6747 17.2643 67.6747 16.9266C67.6747 16.589 67.9457 16.3257 68.4897 16.1368C69.0327 15.948 69.7597 15.8538 70.6697 15.8538H71.0287L71.1968 15.4417H69.2325L67.6035 11.9998H70.0465ZM71.005 17.2441H71.9396C72.6904 17.2441 73.0662 17.1381 73.0662 16.9266C73.0662 16.7151 72.6904 16.6092 71.9396 16.6092H71.005C70.2543 16.6092 69.8784 16.7151 69.8784 16.9266C69.8794 17.1385 70.2543 17.2441 71.005 17.2441Z" fill="#AA111D"/>
<path d="M81.6202 11.9998V17.1583H83.4648L83.4411 11.9998H85.8366V17.1583H87.6813L87.6575 11.9998H90.0531V17.9566H79.2474L79.2236 11.9998H81.6202Z" fill="#AA111D"/>
<path d="M94.2236 12.0006H96.6192V13.9918C96.8585 13.9975 97.2018 14.012 97.6498 14.0347L98.5845 12.0006H101.675V12.7988H100.478L99.6873 14.3352C100.853 14.6498 101.381 15.1419 101.269 15.8116L100.91 17.9573H98.5133L98.897 15.8116L98.9208 15.6656C98.9208 15.3797 98.7289 15.1678 98.3461 15.0303C97.9624 14.8929 97.3877 14.8156 96.6212 14.7986V17.9573H94.2256V12.0006H94.2236Z" fill="#AA111D"/>
<path d="M106.082 13.7725C106.976 13.4777 108.142 13.3303 109.58 13.3303L109.604 12.7981H105.124V11.9998H112V17.9566H109.604V16.0167H107.352L107.615 17.9566H105.219L104.86 15.1501C104.78 14.5265 105.188 14.0673 106.082 13.7725ZM107.232 15.2188H109.604V14.1286C108.805 14.1286 108.199 14.2087 107.783 14.3688C107.368 14.529 107.184 14.7894 107.232 15.1497V15.2188Z" fill="#AA111D"/>
<path d="M62.5 33.5L57 28H68L62.5 33.5Z" fill="white"/>
</g>
<defs>
<filter id="filter0_d_287_18371" x="0" y="0" width="127" height="39.5" filterUnits="userSpaceOnUse" color-interpolation-filters="sRGB">
<feFlood flood-opacity="0" result="BackgroundImageFix"/>
<feColorMatrix in="SourceAlpha" type="matrix" values="0 0 0 0 0 0 0 0 0 0 0 0 0 0 0 0 0 0 127 0" result="hardAlpha"/>
<feOffset dx="1" dy="2"/>
<feGaussianBlur stdDeviation="2"/>
<feColorMatrix type="matrix" values="0 0 0 0 0 0 0 0 0 0 0 0 0 0 0 0 0 0 0.1 0"/>
<feBlend mode="normal" in2="BackgroundImageFix" result="effect1_dropShadow_287_18371"/>
<feBlend mode="normal" in="SourceGraphic" in2="effect1_dropShadow_287_18371" result="shape"/>
</filter>
</defs>
</svg>
