<svg width="146" height="20" viewBox="0 0 146 20" fill="none" xmlns="http://www.w3.org/2000/svg">
<path d="M10.2626 0.57692C16.7852 0.57692 19.447 1.51193 19.447 4.5809C19.447 6.83554 16.9536 7.86605 14.3395 8.08223V8.46684C17.817 8.56233 20.7175 9.57029 20.7175 11.8952C20.7175 14.9642 17.1684 16.4987 10.431 16.4987C7.07427 16.4987 4.72414 16.4032 2.4695 16.4032C2.01326 16.4032 1.98939 16.1631 1.98939 15.5875V3.04642C1.07958 2.95093 0.69496 2.90318 0 2.71087V0.57692H10.2626ZM9.78382 3.23872C9.06499 3.23872 8.10478 3.2626 7.69762 3.35809V7.2427C8.39258 7.26658 9.18435 7.26658 9.71221 7.26658C12.2785 7.26658 13.6684 6.54774 13.6684 5.06101C13.6684 3.71883 12.4204 3.23872 9.78382 3.23872ZM9.99868 9.61671C9.56764 9.61671 8.51194 9.64058 7.69629 9.66446V13.6923C8.10345 13.7162 8.82361 13.7401 10.1897 13.7401C13.0676 13.7401 14.6737 12.9721 14.6737 11.4854C14.6751 10.0252 12.6844 9.61671 9.99868 9.61671Z" fill="#0093C6"/>
<path d="M46.7584 8.44165C46.7584 14.3409 42.082 16.9788 36.0157 16.9788C29.517 16.9788 25.2969 13.9337 25.2969 8.44165C25.2969 2.90186 28.9653 0.00132751 36.0157 0.00132751C43.1139 0.00132751 46.7584 2.90319 46.7584 8.44165ZM36.0157 14.2215C39.3009 14.2215 40.5953 12.3037 40.5953 8.44298C40.5953 4.6061 39.3725 2.75995 36.0157 2.75995C32.6589 2.75995 31.46 4.6061 31.46 8.44298C31.46 12.3024 32.7306 14.2215 36.0157 14.2215Z" fill="#0093C6"/>
<path d="M70.5683 0.576923L70.5444 6.23608C70.5444 6.76393 70.4489 6.95491 69.7765 6.95491H66.0842C66.1081 5.18037 65.2447 2.95093 62.3428 2.95093C58.7222 2.95093 57.7155 4.48541 57.7155 8.44165C57.7155 12.2308 58.6505 14.1247 62.3919 14.1247C65.7009 14.1247 66.6598 12.3024 66.2765 10.504L69.2978 10C72.7991 12.2056 69.9211 16.9775 62.4397 16.9775C54.6704 16.9775 51.5537 13.8369 51.5537 8.44032C51.5537 3.59682 54.5749 0 61.4569 0C64.9821 0 66.876 1.43899 66.8999 3.02122H67.3309C67.3787 2.22944 67.571 1.17507 67.7871 0.575597H70.5683V0.576923Z" fill="#0093C6"/>
<path d="M81.2625 8.99337L76.0835 3.07029C75.3647 2.9748 74.6922 2.85411 74.0928 2.73475V0.57692H80.5198C81.0238 0.57692 81.1671 0.672411 81.4071 0.984082L85.8196 6.13926L89.7519 2.97347C89.3209 2.87798 88.4814 2.80504 87.9297 2.70955V0.600792L93.3249 0.57692C93.8766 0.57692 94.0437 0.7931 94.0437 1.12864V2.75862L87.7851 7.62599L93.2997 13.9085C94.0185 14.004 94.7387 14.1247 95.2904 14.244V16.4019H89.1034C88.6962 16.4019 88.24 16.2334 87.7851 15.7069L83.2771 10.5995L78.9363 14.004C79.4164 14.0756 80.5424 14.1963 81.1419 14.2679V16.4019H75.1472C74.4999 16.4257 74.4044 16.1618 74.4044 15.8979V14.2188L81.2625 8.99337Z" fill="#0093C6"/>
<path d="M120.54 8.44228C120.54 14.3415 115.863 16.9794 109.797 16.9794C103.298 16.9794 99.0781 13.9343 99.0781 8.44228C99.0781 2.90248 102.747 0.00195312 109.797 0.00195312C116.895 0.00195312 120.54 2.90381 120.54 8.44228ZM109.798 14.2221C113.083 14.2221 114.378 12.3043 114.378 8.4436C114.378 4.60673 113.155 2.76058 109.798 2.76058C106.442 2.76058 105.243 4.60673 105.243 8.4436C105.241 12.303 106.513 14.2221 109.798 14.2221Z" fill="#0093C6"/>
<path d="M128.139 16.4032C127.971 17.2905 127.636 19.3528 127.372 20H124.255V13.6459H124.974C126.724 13.6459 127.803 12.0875 128.163 9.23342C128.332 7.89124 128.427 4.05437 128.356 3.11936C127.685 3.07162 126.701 2.87931 125.742 2.68833V0.57692H143.15C143.557 0.57692 143.773 0.745354 143.773 1.00795V13.6446H145.044C145.763 13.6446 145.907 13.813 145.907 14.1247V20H142.765C142.478 19.3289 142.166 17.2905 141.998 16.4032H128.139ZM129.171 13.6936L129.388 14.0292C130.106 13.6698 131.305 13.6698 132.529 13.6698L138.069 13.6459V3.33421H131.93C131.954 4.02917 131.834 8.20159 131.69 9.06499C131.281 11.4642 130.658 13.0225 129.171 13.6936Z" fill="#0093C6"/>
</svg>
