<svg width="101" height="44" viewBox="0 0 101 44" fill="none" xmlns="http://www.w3.org/2000/svg">
<g filter="url(#filter0_d_287_18355)">
<rect x="3" y="2" width="93" height="30" rx="4" fill="white"/>
<path d="M18.1346 12.2888C21.3979 12.2888 22.7297 12.7563 22.7297 14.2908C22.7297 15.4181 21.4822 15.9334 20.1743 16.0415V16.2338C21.9141 16.2815 23.3653 16.7855 23.3653 17.948C23.3653 19.4825 21.5897 20.2497 18.2188 20.2497C16.5394 20.2497 15.3636 20.202 14.2355 20.202C14.0073 20.202 13.9953 20.0819 13.9953 19.7941V13.5236C13.5401 13.4758 13.3477 13.4519 13 13.3558V12.2888H18.1346ZM17.895 13.6197C17.5354 13.6197 17.055 13.6317 16.8513 13.6794V15.6217C17.199 15.6336 17.5951 15.6336 17.8592 15.6336C19.1432 15.6336 19.8386 15.2742 19.8386 14.5309C19.8386 13.8598 19.2142 13.6197 17.895 13.6197ZM18.0025 16.8087C17.7869 16.8087 17.2587 16.8207 16.8506 16.8326V18.8465C17.0543 18.8584 17.4146 18.8704 18.0981 18.8704C19.538 18.8704 20.3415 18.4864 20.3415 17.7431C20.3422 17.013 19.3462 16.8087 18.0025 16.8087Z" fill="#0093C6"/>
<path d="M36.3948 16.2205C36.3948 19.1701 34.0551 20.4891 31.02 20.4891C27.7686 20.4891 25.6572 18.9665 25.6572 16.2205C25.6572 13.4506 27.4926 12.0003 31.02 12.0003C34.5714 12.0003 36.3948 13.4513 36.3948 16.2205ZM31.02 19.1104C32.6637 19.1104 33.3113 18.1515 33.3113 16.2212C33.3113 14.3027 32.6995 13.3796 31.02 13.3796C29.3406 13.3796 28.7407 14.3027 28.7407 16.2212C28.7407 18.1509 29.3764 19.1104 31.02 19.1104Z" fill="#0093C6"/>
<path d="M48.3063 12.2885L48.2944 15.118C48.2944 15.382 48.2466 15.4775 47.9102 15.4775H46.0628C46.0748 14.5902 45.6428 13.4755 44.191 13.4755C42.3795 13.4755 41.8758 14.2427 41.8758 16.2208C41.8758 18.1154 42.3436 19.0623 44.2155 19.0623C45.8711 19.0623 46.3508 18.1512 46.1591 17.252L47.6706 17C49.4224 18.1028 47.9825 20.4887 44.2394 20.4887C40.3523 20.4887 38.793 18.9184 38.793 16.2202C38.793 13.7984 40.3045 12 43.7477 12C45.5114 12 46.459 12.7195 46.4709 13.5106H46.6866C46.7105 13.1147 46.8067 12.5875 46.9148 12.2878H48.3063V12.2885Z" fill="#0093C6"/>
<path d="M53.6565 16.497L51.0653 13.5355C50.7057 13.4878 50.3693 13.4274 50.0693 13.3677V12.2888H53.2849C53.5371 12.2888 53.6087 12.3366 53.7288 12.4924L55.9365 15.07L57.9039 13.4871C57.6882 13.4393 57.2682 13.4029 56.9922 13.3551V12.3008L59.6915 12.2888C59.9675 12.2888 60.0511 12.3969 60.0511 12.5647V13.3797L56.9198 15.8134L59.6789 18.9546C60.0385 19.0023 60.3988 19.0627 60.6749 19.1224V20.2013H57.5794C57.3757 20.2013 57.1474 20.1171 56.9198 19.8538L54.6644 17.3001L52.4926 19.0023C52.7328 19.0382 53.2962 19.0985 53.5961 19.1343V20.2013H50.5969C50.273 20.2132 50.2253 20.0813 50.2253 19.9493V19.1098L53.6565 16.497Z" fill="#0093C6"/>
<path d="M73.3079 16.2211C73.3079 19.1707 70.9682 20.4897 67.9331 20.4897C64.6817 20.4897 62.5703 18.9672 62.5703 16.2211C62.5703 13.4512 64.4057 12.001 67.9331 12.001C71.4845 12.001 73.3079 13.4519 73.3079 16.2211ZM67.9338 19.1111C69.5774 19.1111 70.225 18.1522 70.225 16.2218C70.225 14.3034 69.6132 13.3803 67.9338 13.3803C66.2543 13.3803 65.6545 14.3034 65.6545 16.2218C65.6538 18.1515 66.2902 19.1111 67.9338 19.1111Z" fill="#0093C6"/>
<path d="M77.1105 20.202C77.0263 20.6456 76.8584 21.6768 76.7263 22.0004H75.167V18.8233H75.5266C76.4025 18.8233 76.942 18.0441 77.1225 16.6171C77.2067 15.946 77.2545 14.0275 77.2187 13.56C76.8829 13.5362 76.3906 13.44 75.9108 13.3445V12.2888H84.6206C84.8243 12.2888 84.9325 12.373 84.9325 12.5043V18.8226H85.5682C85.9278 18.8226 86.0001 18.9069 86.0001 19.0627V22.0004H84.4282C84.2842 21.6648 84.1283 20.6456 84.044 20.202H77.1105ZM77.6268 18.8472L77.7349 19.0149C78.0946 18.8352 78.6944 18.8352 79.3069 18.8352L82.0785 18.8233V13.6675H79.007C79.0189 14.0149 78.9592 16.1012 78.8869 16.5329C78.6825 17.7325 78.3706 18.5116 77.6268 18.8472Z" fill="#0093C6"/>
<path d="M49.5 37.5L44 32H55L49.5 37.5Z" fill="white"/>
</g>
<defs>
<filter id="filter0_d_287_18355" x="0" y="0" width="101" height="43.5" filterUnits="userSpaceOnUse" color-interpolation-filters="sRGB">
<feFlood flood-opacity="0" result="BackgroundImageFix"/>
<feColorMatrix in="SourceAlpha" type="matrix" values="0 0 0 0 0 0 0 0 0 0 0 0 0 0 0 0 0 0 127 0" result="hardAlpha"/>
<feOffset dx="1" dy="2"/>
<feGaussianBlur stdDeviation="2"/>
<feColorMatrix type="matrix" values="0 0 0 0 0 0 0 0 0 0 0 0 0 0 0 0 0 0 0.1 0"/>
<feBlend mode="normal" in2="BackgroundImageFix" result="effect1_dropShadow_287_18355"/>
<feBlend mode="normal" in="SourceGraphic" in2="effect1_dropShadow_287_18355" result="shape"/>
</filter>
</defs>
</svg>
