<svg width="180" height="96" viewBox="0 0 180 96" fill="none" xmlns="http://www.w3.org/2000/svg">
<path d="M10.2626 0.57692C16.7852 0.57692 19.447 1.51193 19.447 4.5809C19.447 6.83554 16.9536 7.86605 14.3395 8.08223V8.46684C17.817 8.56233 20.7175 9.57029 20.7175 11.8952C20.7175 14.9642 17.1684 16.4987 10.431 16.4987C7.07427 16.4987 4.72414 16.4032 2.4695 16.4032C2.01326 16.4032 1.98939 16.1631 1.98939 15.5875V3.04642C1.07958 2.95093 0.69496 2.90318 0 2.71087V0.57692H10.2626ZM9.78382 3.23872C9.06499 3.23872 8.10478 3.2626 7.69762 3.35809V7.2427C8.39258 7.26658 9.18435 7.26658 9.71221 7.26658C12.2785 7.26658 13.6684 6.54774 13.6684 5.06101C13.6684 3.71883 12.4204 3.23872 9.78382 3.23872ZM9.99868 9.61671C9.56764 9.61671 8.51194 9.64058 7.69629 9.66446V13.6923C8.10345 13.7162 8.82361 13.7401 10.1897 13.7401C13.0676 13.7401 14.6737 12.9721 14.6737 11.4854C14.6751 10.0252 12.6844 9.61671 9.99868 9.61671Z" fill="#0093C6"/>
<path d="M46.7584 8.44165C46.7584 14.3409 42.082 16.9788 36.0157 16.9788C29.517 16.9788 25.2969 13.9337 25.2969 8.44165C25.2969 2.90186 28.9653 0.00132751 36.0157 0.00132751C43.1139 0.00132751 46.7584 2.90319 46.7584 8.44165ZM36.0157 14.2215C39.3009 14.2215 40.5953 12.3037 40.5953 8.44298C40.5953 4.6061 39.3725 2.75995 36.0157 2.75995C32.6589 2.75995 31.46 4.6061 31.46 8.44298C31.46 12.3024 32.7306 14.2215 36.0157 14.2215Z" fill="#0093C6"/>
<path d="M70.5683 0.576923L70.5444 6.23608C70.5444 6.76393 70.4489 6.95491 69.7765 6.95491H66.0842C66.1081 5.18037 65.2447 2.95093 62.3428 2.95093C58.7222 2.95093 57.7155 4.48541 57.7155 8.44165C57.7155 12.2308 58.6505 14.1247 62.3919 14.1247C65.7009 14.1247 66.6598 12.3024 66.2765 10.504L69.2978 10C72.7991 12.2056 69.9211 16.9775 62.4397 16.9775C54.6704 16.9775 51.5537 13.8369 51.5537 8.44032C51.5537 3.59682 54.5749 0 61.4569 0C64.9821 0 66.876 1.43899 66.8999 3.02122H67.3309C67.3787 2.22944 67.571 1.17507 67.7871 0.575597H70.5683V0.576923Z" fill="#0093C6"/>
<path d="M81.2625 8.99337L76.0835 3.07029C75.3647 2.9748 74.6922 2.85411 74.0928 2.73475V0.57692H80.5198C81.0238 0.57692 81.1671 0.672411 81.4071 0.984082L85.8196 6.13926L89.7519 2.97347C89.3209 2.87798 88.4814 2.80504 87.9297 2.70955V0.600792L93.3249 0.57692C93.8766 0.57692 94.0437 0.7931 94.0437 1.12864V2.75862L87.7851 7.62599L93.2997 13.9085C94.0185 14.004 94.7387 14.1247 95.2904 14.244V16.4019H89.1034C88.6962 16.4019 88.24 16.2334 87.7851 15.7069L83.2771 10.5995L78.9363 14.004C79.4164 14.0756 80.5424 14.1963 81.1419 14.2679V16.4019H75.1472C74.4999 16.4257 74.4044 16.1618 74.4044 15.8979V14.2188L81.2625 8.99337Z" fill="#0093C6"/>
<path d="M120.54 8.44228C120.54 14.3415 115.863 16.9794 109.797 16.9794C103.298 16.9794 99.0781 13.9343 99.0781 8.44228C99.0781 2.90248 102.747 0.00195312 109.797 0.00195312C116.895 0.00195312 120.54 2.90381 120.54 8.44228ZM109.798 14.2221C113.083 14.2221 114.378 12.3043 114.378 8.4436C114.378 4.60673 113.155 2.76058 109.798 2.76058C106.442 2.76058 105.243 4.60673 105.243 8.4436C105.241 12.303 106.513 14.2221 109.798 14.2221Z" fill="#0093C6"/>
<path d="M128.139 16.4032C127.971 17.2905 127.636 19.3528 127.372 20H124.255V13.6459H124.974C126.724 13.6459 127.803 12.0875 128.163 9.23342C128.332 7.89124 128.427 4.05437 128.356 3.11936C127.685 3.07162 126.701 2.87931 125.742 2.68833V0.57692H143.15C143.557 0.57692 143.773 0.745354 143.773 1.00795V13.6446H145.044C145.763 13.6446 145.907 13.813 145.907 14.1247V20H142.765C142.478 19.3289 142.166 17.2905 141.998 16.4032H128.139ZM129.171 13.6936L129.388 14.0292C130.106 13.6698 131.305 13.6698 132.529 13.6698L138.069 13.6459V3.33421H131.93C131.954 4.02917 131.834 8.20159 131.69 9.06499C131.281 11.4642 130.658 13.0225 129.171 13.6936Z" fill="#0093C6"/>
<path fill-rule="evenodd" clip-rule="evenodd" d="M14.6163 30.0067C14.842 29.8311 15.158 29.8311 15.3837 30.0067L26.6337 38.7567C26.786 38.8751 26.875 39.0571 26.875 39.25V53C26.875 54.7259 25.4759 56.125 23.75 56.125H6.25C4.52411 56.125 3.125 54.7259 3.125 53V39.25C3.125 39.0571 3.21405 38.8751 3.36629 38.7567L14.6163 30.0067ZM4.375 39.5557V53C4.375 54.0355 5.21447 54.875 6.25 54.875H23.75C24.7855 54.875 25.625 54.0355 25.625 53V39.5557L15 31.2918L4.375 39.5557Z" fill="#414141"/>
<path fill-rule="evenodd" clip-rule="evenodd" d="M10.625 43C10.625 42.6548 10.9048 42.375 11.25 42.375H18.75C19.0952 42.375 19.375 42.6548 19.375 43V55.5C19.375 55.8452 19.0952 56.125 18.75 56.125C18.4048 56.125 18.125 55.8452 18.125 55.5V43.625H11.875V55.5C11.875 55.8452 11.5952 56.125 11.25 56.125C10.9048 56.125 10.625 55.8452 10.625 55.5V43Z" fill="#414141"/>
<path d="M47.018 40.14C47.114 40.14 47.198 40.176 47.27 40.248C47.342 40.32 47.378 40.404 47.378 40.5C47.378 40.584 47.348 40.692 47.288 40.824L43.868 48.924L43.706 49.284C43.394 50.04 43.106 50.664 42.842 51.156C42.578 51.648 42.248 52.062 41.852 52.398C41.456 52.746 40.988 52.92 40.448 52.92H39.764C39.644 52.92 39.542 52.884 39.458 52.812C39.386 52.74 39.35 52.638 39.35 52.506V51.894C39.35 51.774 39.386 51.672 39.458 51.588C39.542 51.516 39.644 51.48 39.764 51.48H40.232C40.496 51.48 40.712 51.426 40.88 51.318C41.048 51.222 41.198 51.054 41.33 50.814C41.474 50.574 41.648 50.208 41.852 49.716L42.158 48.978L38.63 40.824C38.57 40.668 38.54 40.566 38.54 40.518C38.552 40.41 38.594 40.32 38.666 40.248C38.738 40.176 38.822 40.14 38.918 40.14H39.764C39.968 40.14 40.118 40.242 40.214 40.446L42.968 47.052L45.758 40.446C45.842 40.242 45.992 40.14 46.208 40.14H47.018ZM48.1808 49.5C48.0608 49.5 47.9588 49.458 47.8748 49.374C47.7908 49.29 47.7488 49.188 47.7488 49.068V48.402C47.7488 48.282 47.7848 48.186 47.8568 48.114C47.9288 48.042 48.0188 48.006 48.1268 48.006C48.7028 47.982 49.1288 47.574 49.4048 46.782C49.6928 45.978 49.8368 44.67 49.8368 42.858V40.554C49.8368 40.434 49.8728 40.338 49.9448 40.266C50.0288 40.182 50.1308 40.14 50.2508 40.14H55.9748C56.0948 40.14 56.1908 40.182 56.2628 40.266C56.3468 40.338 56.3888 40.434 56.3888 40.554V49.086C56.3888 49.206 56.3468 49.308 56.2628 49.392C56.1908 49.464 56.0948 49.5 55.9748 49.5H55.1108C54.9908 49.5 54.8948 49.464 54.8228 49.392C54.7508 49.308 54.7148 49.206 54.7148 49.086V41.58H51.4748V43.056C51.4748 45.348 51.2108 46.998 50.6828 48.006C50.1548 49.002 49.3208 49.5 48.1808 49.5ZM59.3602 49.5C59.2402 49.5 59.1382 49.464 59.0542 49.392C58.9822 49.308 58.9462 49.206 58.9462 49.086V47.79C58.9462 47.67 58.9822 47.574 59.0542 47.502C59.1382 47.418 59.2402 47.376 59.3602 47.376H60.6562C60.7762 47.376 60.8782 47.418 60.9622 47.502C61.0462 47.574 61.0882 47.67 61.0882 47.79V49.086C61.0882 49.206 61.0462 49.308 60.9622 49.392C60.8782 49.464 60.7762 49.5 60.6562 49.5H59.3602ZM67.5155 52.002C67.3955 52.002 67.2935 51.966 67.2095 51.894C67.1375 51.822 67.1015 51.72 67.1015 51.588V48.294C67.1015 48.174 67.1375 48.078 67.2095 48.006C67.2935 47.922 67.3955 47.88 67.5155 47.88H67.8935C69.0575 47.88 69.6395 45.648 69.6395 41.184V37.314C69.6395 37.194 69.6755 37.098 69.7475 37.026C69.8315 36.942 69.9335 36.9 70.0535 36.9H77.0735C77.2055 36.9 77.3075 36.942 77.3795 37.026C77.4635 37.098 77.5055 37.2 77.5055 37.332V47.88H78.3875C78.5075 47.88 78.6095 47.922 78.6935 48.006C78.7775 48.078 78.8195 48.174 78.8195 48.294V51.588C78.8195 51.708 78.7775 51.804 78.6935 51.876C78.6215 51.96 78.5195 52.002 78.3875 52.002H77.4695C77.3495 52.002 77.2475 51.966 77.1635 51.894C77.0915 51.822 77.0555 51.72 77.0555 51.588V49.5H68.8655V51.588C68.8655 51.708 68.8235 51.804 68.7395 51.876C68.6675 51.96 68.5655 52.002 68.4335 52.002H67.5155ZM75.7415 47.88V38.52H71.3675V41.418C71.3675 43.11 71.2715 44.478 71.0795 45.522C70.8875 46.566 70.5935 47.352 70.1975 47.88H75.7415ZM84.5976 49.68C83.2776 49.68 82.2516 49.308 81.5196 48.564C80.7996 47.82 80.4156 46.83 80.3676 45.594L80.3496 44.82L80.3676 44.046C80.4156 42.822 80.8056 41.838 81.5376 41.094C82.2696 40.338 83.2896 39.96 84.5976 39.96C85.9056 39.96 86.9256 40.338 87.6576 41.094C88.3896 41.838 88.7796 42.822 88.8276 44.046C88.8396 44.178 88.8456 44.436 88.8456 44.82C88.8456 45.204 88.8396 45.462 88.8276 45.594C88.7796 46.83 88.3896 47.82 87.6576 48.564C86.9376 49.308 85.9176 49.68 84.5976 49.68ZM84.5976 48.294C85.3536 48.294 85.9476 48.054 86.3796 47.574C86.8236 47.094 87.0636 46.404 87.0996 45.504C87.1116 45.384 87.1176 45.156 87.1176 44.82C87.1176 44.484 87.1116 44.256 87.0996 44.136C87.0636 43.236 86.8236 42.546 86.3796 42.066C85.9476 41.586 85.3536 41.346 84.5976 41.346C83.8416 41.346 83.2416 41.586 82.7976 42.066C82.3536 42.546 82.1196 43.236 82.0956 44.136L82.0776 44.82L82.0956 45.504C82.1196 46.404 82.3536 47.094 82.7976 47.574C83.2416 48.054 83.8416 48.294 84.5976 48.294ZM91.5316 52.92C91.4116 52.92 91.3096 52.878 91.2256 52.794C91.1536 52.722 91.1176 52.626 91.1176 52.506V40.554C91.1176 40.434 91.1536 40.338 91.2256 40.266C91.3096 40.182 91.4116 40.14 91.5316 40.14H92.3596C92.4796 40.14 92.5756 40.182 92.6476 40.266C92.7316 40.338 92.7736 40.434 92.7736 40.554V41.346C93.4456 40.422 94.4296 39.96 95.7256 39.96C96.9856 39.96 97.9276 40.356 98.5516 41.148C99.1876 41.94 99.5296 42.96 99.5776 44.208C99.5896 44.34 99.5956 44.544 99.5956 44.82C99.5956 45.096 99.5896 45.3 99.5776 45.432C99.5296 46.668 99.1876 47.688 98.5516 48.492C97.9156 49.284 96.9736 49.68 95.7256 49.68C94.4776 49.68 93.5056 49.23 92.8096 48.33V52.506C92.8096 52.626 92.7736 52.722 92.7016 52.794C92.6296 52.878 92.5336 52.92 92.4136 52.92H91.5316ZM95.3476 48.222C96.1996 48.222 96.8176 47.958 97.2016 47.43C97.5976 46.902 97.8136 46.206 97.8496 45.342C97.8616 45.222 97.8676 45.048 97.8676 44.82C97.8676 42.552 97.0276 41.418 95.3476 41.418C94.5196 41.418 93.8956 41.694 93.4756 42.246C93.0676 42.786 92.8456 43.434 92.8096 44.19L92.7916 44.874L92.8096 45.576C92.8336 46.284 93.0616 46.902 93.4936 47.43C93.9256 47.958 94.5436 48.222 95.3476 48.222ZM105.656 49.68C104.336 49.68 103.31 49.308 102.578 48.564C101.858 47.82 101.474 46.83 101.426 45.594L101.408 44.82L101.426 44.046C101.474 42.822 101.864 41.838 102.596 41.094C103.328 40.338 104.348 39.96 105.656 39.96C106.964 39.96 107.984 40.338 108.716 41.094C109.448 41.838 109.838 42.822 109.886 44.046C109.898 44.178 109.904 44.436 109.904 44.82C109.904 45.204 109.898 45.462 109.886 45.594C109.838 46.83 109.448 47.82 108.716 48.564C107.996 49.308 106.976 49.68 105.656 49.68ZM105.656 48.294C106.412 48.294 107.006 48.054 107.438 47.574C107.882 47.094 108.122 46.404 108.158 45.504C108.17 45.384 108.176 45.156 108.176 44.82C108.176 44.484 108.17 44.256 108.158 44.136C108.122 43.236 107.882 42.546 107.438 42.066C107.006 41.586 106.412 41.346 105.656 41.346C104.9 41.346 104.3 41.586 103.856 42.066C103.412 42.546 103.178 43.236 103.154 44.136L103.136 44.82L103.154 45.504C103.178 46.404 103.412 47.094 103.856 47.574C104.3 48.054 104.9 48.294 105.656 48.294ZM124.704 48.978C124.752 49.062 124.776 49.14 124.776 49.212C124.776 49.404 124.656 49.5 124.416 49.5H123.336C123.144 49.5 122.982 49.41 122.85 49.23L120.24 45.45H118.854V49.086C118.854 49.206 118.812 49.308 118.728 49.392C118.656 49.464 118.56 49.5 118.44 49.5H117.612C117.492 49.5 117.39 49.464 117.306 49.392C117.234 49.308 117.198 49.206 117.198 49.086V45.45H115.794L113.184 49.23C113.052 49.41 112.89 49.5 112.698 49.5H111.6C111.492 49.5 111.402 49.476 111.33 49.428C111.27 49.368 111.24 49.296 111.24 49.212C111.24 49.152 111.27 49.074 111.33 48.978L114.408 44.604L111.69 40.644C111.642 40.584 111.618 40.512 111.618 40.428C111.618 40.344 111.648 40.278 111.708 40.23C111.78 40.17 111.87 40.14 111.978 40.14H112.914C113.094 40.14 113.256 40.23 113.4 40.41L115.812 44.01H117.198V40.554C117.198 40.434 117.234 40.338 117.306 40.266C117.39 40.182 117.492 40.14 117.612 40.14H118.44C118.56 40.14 118.656 40.182 118.728 40.266C118.812 40.338 118.854 40.434 118.854 40.554V44.01H120.186L122.634 40.41C122.754 40.23 122.91 40.14 123.102 40.14H124.056C124.164 40.14 124.248 40.17 124.308 40.23C124.38 40.278 124.416 40.344 124.416 40.428C124.416 40.488 124.386 40.56 124.326 40.644L121.626 44.604L124.704 48.978ZM126.951 49.5C126.831 49.5 126.729 49.464 126.645 49.392C126.573 49.308 126.537 49.206 126.537 49.086V40.554C126.537 40.434 126.573 40.338 126.645 40.266C126.729 40.182 126.831 40.14 126.951 40.14H127.815C127.935 40.14 128.031 40.182 128.103 40.266C128.187 40.338 128.229 40.434 128.229 40.554V44.01H133.125V40.554C133.125 40.434 133.161 40.338 133.233 40.266C133.317 40.182 133.419 40.14 133.539 40.14H134.385C134.505 40.14 134.601 40.182 134.673 40.266C134.757 40.338 134.799 40.434 134.799 40.554V49.086C134.799 49.206 134.757 49.308 134.673 49.392C134.601 49.464 134.505 49.5 134.385 49.5H133.539C133.419 49.5 133.317 49.464 133.233 49.392C133.161 49.308 133.125 49.206 133.125 49.086V45.45H128.229V49.086C128.229 49.206 128.187 49.308 128.103 49.392C128.031 49.464 127.935 49.5 127.815 49.5H126.951ZM140.116 49.68C139.528 49.68 138.982 49.56 138.478 49.32C137.974 49.08 137.572 48.756 137.272 48.348C136.984 47.928 136.84 47.466 136.84 46.962C136.84 46.17 137.164 45.522 137.812 45.018C138.472 44.502 139.36 44.166 140.476 44.01L143.158 43.632V43.11C143.158 41.886 142.456 41.274 141.052 41.274C140.524 41.274 140.092 41.388 139.756 41.616C139.42 41.832 139.168 42.09 139 42.39C138.964 42.498 138.916 42.576 138.856 42.624C138.808 42.672 138.736 42.696 138.64 42.696H137.866C137.758 42.696 137.662 42.66 137.578 42.588C137.506 42.504 137.47 42.408 137.47 42.3C137.482 42.012 137.614 41.688 137.866 41.328C138.13 40.956 138.532 40.638 139.072 40.374C139.612 40.098 140.278 39.96 141.07 39.96C142.414 39.96 143.38 40.278 143.968 40.914C144.556 41.538 144.85 42.318 144.85 43.254V49.086C144.85 49.206 144.808 49.308 144.724 49.392C144.652 49.464 144.556 49.5 144.436 49.5H143.608C143.488 49.5 143.386 49.464 143.302 49.392C143.23 49.308 143.194 49.206 143.194 49.086V48.312C142.93 48.696 142.546 49.02 142.042 49.284C141.538 49.548 140.896 49.68 140.116 49.68ZM140.494 48.33C141.274 48.33 141.91 48.078 142.402 47.574C142.906 47.058 143.158 46.32 143.158 45.36V44.856L141.07 45.162C140.218 45.282 139.576 45.486 139.144 45.774C138.712 46.05 138.496 46.404 138.496 46.836C138.496 47.316 138.694 47.688 139.09 47.952C139.486 48.204 139.954 48.33 140.494 48.33ZM154.133 40.14C154.253 40.14 154.349 40.182 154.421 40.266C154.505 40.338 154.547 40.434 154.547 40.554V49.086C154.547 49.206 154.505 49.308 154.421 49.392C154.349 49.464 154.253 49.5 154.133 49.5H153.269C153.149 49.5 153.047 49.464 152.963 49.392C152.891 49.308 152.855 49.206 152.855 49.086V46.152H150.929L148.895 49.23C148.847 49.302 148.781 49.368 148.697 49.428C148.613 49.476 148.523 49.5 148.427 49.5H147.563C147.455 49.5 147.365 49.464 147.293 49.392C147.221 49.32 147.185 49.236 147.185 49.14C147.185 49.02 147.227 48.912 147.311 48.816L149.327 45.846C148.703 45.63 148.235 45.288 147.923 44.82C147.611 44.34 147.455 43.764 147.455 43.092C147.455 42.084 147.749 41.34 148.337 40.86C148.937 40.38 149.837 40.14 151.037 40.14H154.133ZM152.873 41.49H150.983C150.299 41.49 149.801 41.61 149.489 41.85C149.177 42.09 149.021 42.504 149.021 43.092C149.021 43.608 149.171 44.022 149.471 44.334C149.783 44.646 150.239 44.802 150.839 44.802H152.873V41.49ZM165.294 49.5C165.174 49.5 165.072 49.464 164.988 49.392C164.916 49.308 164.88 49.206 164.88 49.086V39.006L161.892 41.31C161.808 41.382 161.718 41.418 161.622 41.418C161.514 41.418 161.412 41.358 161.316 41.238L160.848 40.644C160.788 40.56 160.758 40.476 160.758 40.392C160.758 40.248 160.818 40.134 160.938 40.05L164.862 37.026C164.994 36.942 165.15 36.9 165.33 36.9H166.248C166.368 36.9 166.464 36.942 166.536 37.026C166.62 37.098 166.662 37.194 166.662 37.314V49.086C166.662 49.206 166.62 49.308 166.536 49.392C166.464 49.464 166.368 49.5 166.248 49.5H165.294ZM173.731 49.68C172.183 49.68 171.049 49.23 170.329 48.33C169.609 47.43 169.225 46.248 169.177 44.784C169.165 44.46 169.159 43.938 169.159 43.218C169.159 42.474 169.165 41.934 169.177 41.598C169.213 40.158 169.597 38.988 170.329 38.088C171.061 37.176 172.195 36.72 173.731 36.72C175.279 36.72 176.419 37.176 177.151 38.088C177.883 38.988 178.267 40.158 178.303 41.598C178.327 42.27 178.339 42.81 178.339 43.218C178.339 43.614 178.327 44.136 178.303 44.784C178.255 46.248 177.871 47.43 177.151 48.33C176.431 49.23 175.291 49.68 173.731 49.68ZM173.731 48.132C174.631 48.132 175.309 47.832 175.765 47.232C176.233 46.632 176.479 45.786 176.503 44.694C176.527 43.998 176.539 43.494 176.539 43.182C176.539 42.846 176.527 42.354 176.503 41.706C176.479 40.626 176.239 39.78 175.783 39.168C175.327 38.556 174.643 38.25 173.731 38.25C172.831 38.25 172.147 38.556 171.679 39.168C171.223 39.78 170.983 40.626 170.959 41.706L170.941 43.182L170.959 44.694C170.983 45.786 171.223 46.632 171.679 47.232C172.147 47.832 172.831 48.132 173.731 48.132Z" fill="#414141"/>
<path fill-rule="evenodd" clip-rule="evenodd" d="M0.663186 73.0349C0.373237 70.7276 2.34828 69.125 4.46942 69.125H8.959C9.86517 69.125 10.6417 69.773 10.8038 70.6646L11.5617 74.8332C11.7881 76.0783 11.4642 77.3606 10.6736 78.3488L9.76931 79.4791C9.60817 79.6806 9.59344 79.9476 9.71792 80.1506C10.3049 81.1077 11.3607 82.7246 12.3192 83.6831C13.2776 84.6415 14.8945 85.6973 15.8516 86.2843C16.0546 86.4088 16.3217 86.3941 16.5231 86.2329L17.6534 85.3287C18.6417 84.5381 19.9239 84.2141 21.1691 84.4405L25.3376 85.1985C26.2292 85.3606 26.8772 86.1371 26.8772 87.0432V91.2271C26.8772 93.504 25.0635 95.53 22.6463 95.1413C18.5056 94.4754 12.5867 92.346 7.66923 87.0503C2.88791 81.9012 1.11664 76.6434 0.663186 73.0349ZM4.46942 70.375C2.88878 70.375 1.73184 71.5135 1.90343 72.8791C2.3263 76.2442 3.99305 81.2543 8.58522 86.1997C13.2721 91.2471 18.9134 93.2749 22.8448 93.9071C24.3378 94.1472 25.6272 92.9106 25.6272 91.2271V87.0432C25.6272 86.7412 25.4112 86.4823 25.114 86.4283L20.9455 85.6704C20.056 85.5087 19.1402 85.74 18.4343 86.3048L17.304 87.209C16.7067 87.6868 15.8671 87.7601 15.1982 87.3499C14.2442 86.7649 12.51 85.6416 11.4353 84.5669C10.3606 83.4923 9.23737 81.758 8.65234 80.8041C8.24209 80.1351 8.31539 79.2956 8.79323 78.6983L9.69747 77.568C10.2622 76.8621 10.4936 75.9462 10.3318 75.0568L9.57392 70.8882C9.51989 70.591 9.26106 70.375 8.959 70.375H4.46942Z" fill="#414141"/>
<path d="M43.274 86.906C43.154 86.906 43.052 86.87 42.968 86.798C42.896 86.714 42.86 86.612 42.86 86.492V82.748H39.17C39.05 82.748 38.948 82.712 38.864 82.64C38.792 82.556 38.756 82.454 38.756 82.334V81.758C38.756 81.638 38.792 81.542 38.864 81.47C38.948 81.386 39.05 81.344 39.17 81.344H42.86V77.708C42.86 77.588 42.896 77.492 42.968 77.42C43.052 77.336 43.154 77.294 43.274 77.294H43.904C44.024 77.294 44.12 77.336 44.192 77.42C44.276 77.492 44.318 77.588 44.318 77.708V81.344H48.026C48.146 81.344 48.242 81.386 48.314 81.47C48.398 81.542 48.44 81.638 48.44 81.758V82.334C48.44 82.454 48.398 82.556 48.314 82.64C48.242 82.712 48.146 82.748 48.026 82.748H44.318V86.492C44.318 86.612 44.276 86.714 44.192 86.798C44.12 86.87 44.024 86.906 43.904 86.906H43.274ZM50.93 87.5C50.822 87.5 50.732 87.464 50.66 87.392C50.6 87.308 50.57 87.212 50.57 87.104L50.606 86.942L55.088 76.466H49.184C49.064 76.466 48.962 76.43 48.878 76.358C48.806 76.274 48.77 76.172 48.77 76.052V75.332C48.77 75.2 48.806 75.098 48.878 75.026C48.962 74.942 49.064 74.9 49.184 74.9H56.564C56.696 74.9 56.798 74.942 56.87 75.026C56.954 75.098 56.996 75.2 56.996 75.332V75.998C56.996 76.214 56.948 76.448 56.852 76.7L52.424 87.05C52.364 87.182 52.292 87.29 52.208 87.374C52.136 87.458 52.034 87.5 51.902 87.5H50.93ZM65.3627 87.5C65.2547 87.5 65.1647 87.464 65.0927 87.392C65.0327 87.308 65.0027 87.212 65.0027 87.104C65.0027 87.02 65.0267 86.942 65.0747 86.87L67.8287 83.036C67.5407 83.108 67.2167 83.144 66.8567 83.144C66.0047 83.132 65.2487 82.934 64.5887 82.55C63.9407 82.166 63.4427 81.656 63.0947 81.02C62.7467 80.384 62.5727 79.706 62.5727 78.986C62.5727 78.266 62.7407 77.582 63.0767 76.934C63.4247 76.274 63.9407 75.74 64.6247 75.332C65.3087 74.924 66.1367 74.72 67.1087 74.72C68.0807 74.72 68.9087 74.918 69.5927 75.314C70.2887 75.71 70.8107 76.232 71.1587 76.88C71.5067 77.528 71.6807 78.218 71.6807 78.95C71.6807 79.598 71.5667 80.174 71.3387 80.678C71.1107 81.17 70.7927 81.71 70.3847 82.298L66.9107 87.14C66.8267 87.248 66.7427 87.338 66.6587 87.41C66.5867 87.47 66.4787 87.5 66.3347 87.5H65.3627ZM67.1087 81.686C67.6127 81.686 68.0747 81.578 68.4947 81.362C68.9267 81.134 69.2687 80.816 69.5207 80.408C69.7727 79.988 69.8987 79.508 69.8987 78.968C69.8987 78.428 69.7727 77.954 69.5207 77.546C69.2687 77.126 68.9267 76.808 68.4947 76.592C68.0747 76.364 67.6127 76.25 67.1087 76.25C66.6047 76.25 66.1427 76.364 65.7227 76.592C65.3027 76.808 64.9667 77.126 64.7147 77.546C64.4747 77.954 64.3547 78.428 64.3547 78.968C64.3547 79.508 64.4747 79.988 64.7147 80.408C64.9667 80.816 65.3027 81.134 65.7227 81.362C66.1427 81.578 66.6047 81.686 67.1087 81.686ZM78.2646 87.68C76.7166 87.68 75.5826 87.23 74.8626 86.33C74.1426 85.43 73.7586 84.248 73.7106 82.784C73.6986 82.46 73.6926 81.938 73.6926 81.218C73.6926 80.474 73.6986 79.934 73.7106 79.598C73.7466 78.158 74.1306 76.988 74.8626 76.088C75.5946 75.176 76.7286 74.72 78.2646 74.72C79.8126 74.72 80.9526 75.176 81.6846 76.088C82.4166 76.988 82.8006 78.158 82.8366 79.598C82.8606 80.27 82.8726 80.81 82.8726 81.218C82.8726 81.614 82.8606 82.136 82.8366 82.784C82.7886 84.248 82.4046 85.43 81.6846 86.33C80.9646 87.23 79.8246 87.68 78.2646 87.68ZM78.2646 86.132C79.1646 86.132 79.8426 85.832 80.2986 85.232C80.7666 84.632 81.0126 83.786 81.0366 82.694C81.0606 81.998 81.0726 81.494 81.0726 81.182C81.0726 80.846 81.0606 80.354 81.0366 79.706C81.0126 78.626 80.7726 77.78 80.3166 77.168C79.8606 76.556 79.1766 76.25 78.2646 76.25C77.3646 76.25 76.6806 76.556 76.2126 77.168C75.7566 77.78 75.5166 78.626 75.4926 79.706L75.4746 81.182L75.4926 82.694C75.5166 83.786 75.7566 84.632 76.2126 85.232C76.6806 85.832 77.3646 86.132 78.2646 86.132ZM91.2024 87.5C91.0824 87.5 90.9804 87.464 90.8964 87.392C90.8244 87.308 90.7884 87.206 90.7884 87.086V84.494H84.9564C84.8364 84.494 84.7344 84.458 84.6504 84.386C84.5784 84.302 84.5424 84.2 84.5424 84.08V83.36C84.5424 83.18 84.6084 83 84.7404 82.82L90.1404 75.206C90.2004 75.11 90.2904 75.038 90.4104 74.99C90.5304 74.93 90.6624 74.9 90.8064 74.9H92.1024C92.2224 74.9 92.3184 74.942 92.3904 75.026C92.4744 75.098 92.5164 75.194 92.5164 75.314V82.928H94.1364C94.2564 82.928 94.3584 82.97 94.4424 83.054C94.5264 83.126 94.5684 83.222 94.5684 83.342V84.08C94.5684 84.2 94.5264 84.302 94.4424 84.386C94.3704 84.458 94.2744 84.494 94.1544 84.494H92.5164V87.086C92.5164 87.206 92.4744 87.308 92.3904 87.392C92.3184 87.464 92.2224 87.5 92.1024 87.5H91.2024ZM90.8064 82.964V76.79L86.4684 82.964H90.8064ZM100.872 87.5C100.752 87.5 100.65 87.464 100.566 87.392C100.494 87.308 100.458 87.206 100.458 87.086V86.51C100.458 86.234 100.608 85.97 100.908 85.718L104.724 81.902C105.648 81.134 106.284 80.51 106.632 80.03C106.98 79.538 107.154 79.022 107.154 78.482C107.154 77.786 106.956 77.24 106.56 76.844C106.176 76.448 105.612 76.25 104.868 76.25C104.172 76.25 103.614 76.46 103.194 76.88C102.774 77.288 102.516 77.834 102.42 78.518C102.396 78.662 102.336 78.77 102.24 78.842C102.156 78.902 102.06 78.932 101.952 78.932H101.016C100.908 78.932 100.818 78.902 100.746 78.842C100.674 78.77 100.638 78.686 100.638 78.59C100.662 77.942 100.836 77.324 101.16 76.736C101.484 76.136 101.958 75.65 102.582 75.278C103.218 74.894 103.98 74.702 104.868 74.702C106.224 74.702 107.244 75.056 107.928 75.764C108.624 76.46 108.972 77.348 108.972 78.428C108.972 79.184 108.78 79.868 108.396 80.48C108.024 81.08 107.442 81.728 106.65 82.424L103.194 85.934H108.81C108.942 85.934 109.044 85.976 109.116 86.06C109.2 86.132 109.242 86.228 109.242 86.348V87.086C109.242 87.206 109.2 87.308 109.116 87.392C109.032 87.464 108.93 87.5 108.81 87.5H100.872ZM112.823 87.5C112.715 87.5 112.625 87.464 112.553 87.392C112.493 87.308 112.463 87.212 112.463 87.104L112.499 86.942L116.981 76.466H111.077C110.957 76.466 110.855 76.43 110.771 76.358C110.699 76.274 110.663 76.172 110.663 76.052V75.332C110.663 75.2 110.699 75.098 110.771 75.026C110.855 74.942 110.957 74.9 111.077 74.9H118.457C118.589 74.9 118.691 74.942 118.763 75.026C118.847 75.098 118.889 75.2 118.889 75.332V75.998C118.889 76.214 118.841 76.448 118.745 76.7L114.317 87.05C114.257 87.182 114.185 87.29 114.101 87.374C114.029 87.458 113.927 87.5 113.795 87.5H112.823ZM124.337 87.5C124.217 87.5 124.115 87.464 124.031 87.392C123.959 87.308 123.923 87.206 123.923 87.086V77.006L120.935 79.31C120.851 79.382 120.761 79.418 120.665 79.418C120.557 79.418 120.455 79.358 120.359 79.238L119.891 78.644C119.831 78.56 119.801 78.476 119.801 78.392C119.801 78.248 119.861 78.134 119.981 78.05L123.905 75.026C124.037 74.942 124.193 74.9 124.373 74.9H125.291C125.411 74.9 125.507 74.942 125.579 75.026C125.663 75.098 125.705 75.194 125.705 75.314V87.086C125.705 87.206 125.663 87.308 125.579 87.392C125.507 87.464 125.411 87.5 125.291 87.5H124.337ZM136.844 87.68C135.896 87.68 135.074 87.53 134.378 87.23C133.694 86.918 133.172 86.516 132.812 86.024C132.464 85.532 132.278 85.016 132.254 84.476C132.254 84.368 132.29 84.284 132.362 84.224C132.434 84.152 132.524 84.116 132.632 84.116H133.514C133.766 84.116 133.934 84.248 134.018 84.512C134.174 85.112 134.51 85.538 135.026 85.79C135.542 86.03 136.148 86.15 136.844 86.15C137.696 86.15 138.374 85.952 138.878 85.556C139.382 85.148 139.634 84.566 139.634 83.81C139.634 82.358 138.752 81.632 136.988 81.632H135.278C135.158 81.632 135.056 81.596 134.972 81.524C134.9 81.44 134.864 81.338 134.864 81.218V80.732C134.864 80.564 134.93 80.402 135.062 80.246L138.554 76.43H133.244C133.124 76.43 133.022 76.394 132.938 76.322C132.866 76.238 132.83 76.136 132.83 76.016V75.332C132.83 75.212 132.866 75.11 132.938 75.026C133.022 74.942 133.124 74.9 133.244 74.9H140.426C140.558 74.9 140.66 74.942 140.732 75.026C140.816 75.098 140.858 75.2 140.858 75.332V75.98C140.858 76.124 140.792 76.262 140.66 76.394L137.186 80.264L137.474 80.282C138.698 80.318 139.664 80.636 140.372 81.236C141.08 81.836 141.434 82.712 141.434 83.864C141.434 84.644 141.236 85.322 140.84 85.898C140.444 86.474 139.898 86.918 139.202 87.23C138.506 87.53 137.72 87.68 136.844 87.68ZM147.547 87.68C146.635 87.68 145.849 87.518 145.189 87.194C144.529 86.87 144.019 86.444 143.659 85.916C143.311 85.388 143.125 84.824 143.101 84.224V84.188C143.101 84.092 143.137 84.014 143.209 83.954C143.281 83.894 143.365 83.864 143.461 83.864H144.433C144.685 83.864 144.847 83.996 144.919 84.26C145.087 84.896 145.411 85.37 145.891 85.682C146.371 85.994 146.923 86.15 147.547 86.15C148.351 86.15 149.017 85.91 149.545 85.43C150.085 84.938 150.355 84.26 150.355 83.396C150.355 82.616 150.085 81.986 149.545 81.506C149.017 81.026 148.351 80.786 147.547 80.786C147.115 80.786 146.767 80.846 146.503 80.966C146.239 81.074 145.975 81.23 145.711 81.434C145.567 81.542 145.441 81.626 145.333 81.686C145.237 81.734 145.129 81.758 145.009 81.758H144.073C143.965 81.758 143.869 81.722 143.785 81.65C143.701 81.566 143.665 81.47 143.677 81.362L144.253 75.35C144.265 75.206 144.307 75.098 144.379 75.026C144.463 74.942 144.571 74.9 144.703 74.9H150.985C151.105 74.9 151.201 74.942 151.273 75.026C151.357 75.098 151.399 75.194 151.399 75.314V76.016C151.399 76.136 151.357 76.238 151.273 76.322C151.201 76.394 151.105 76.43 150.985 76.43H145.801L145.459 79.976C146.107 79.568 146.887 79.364 147.799 79.364C148.591 79.364 149.317 79.526 149.977 79.85C150.649 80.174 151.177 80.642 151.561 81.254C151.957 81.866 152.155 82.586 152.155 83.414C152.155 84.302 151.957 85.07 151.561 85.718C151.177 86.354 150.637 86.84 149.941 87.176C149.245 87.512 148.447 87.68 147.547 87.68ZM160.865 87.5C160.757 87.5 160.667 87.464 160.595 87.392C160.535 87.308 160.505 87.212 160.505 87.104C160.505 87.02 160.529 86.942 160.577 86.87L163.331 83.036C163.043 83.108 162.719 83.144 162.359 83.144C161.507 83.132 160.751 82.934 160.091 82.55C159.443 82.166 158.945 81.656 158.597 81.02C158.249 80.384 158.075 79.706 158.075 78.986C158.075 78.266 158.243 77.582 158.579 76.934C158.927 76.274 159.443 75.74 160.127 75.332C160.811 74.924 161.639 74.72 162.611 74.72C163.583 74.72 164.411 74.918 165.095 75.314C165.791 75.71 166.313 76.232 166.661 76.88C167.009 77.528 167.183 78.218 167.183 78.95C167.183 79.598 167.069 80.174 166.841 80.678C166.613 81.17 166.295 81.71 165.887 82.298L162.413 87.14C162.329 87.248 162.245 87.338 162.161 87.41C162.089 87.47 161.981 87.5 161.837 87.5H160.865ZM162.611 81.686C163.115 81.686 163.577 81.578 163.997 81.362C164.429 81.134 164.771 80.816 165.023 80.408C165.275 79.988 165.401 79.508 165.401 78.968C165.401 78.428 165.275 77.954 165.023 77.546C164.771 77.126 164.429 76.808 163.997 76.592C163.577 76.364 163.115 76.25 162.611 76.25C162.107 76.25 161.645 76.364 161.225 76.592C160.805 76.808 160.469 77.126 160.217 77.546C159.977 77.954 159.857 78.428 159.857 78.968C159.857 79.508 159.977 79.988 160.217 80.408C160.469 80.816 160.805 81.134 161.225 81.362C161.645 81.578 162.107 81.686 162.611 81.686ZM173.767 87.68C172.219 87.68 171.085 87.23 170.365 86.33C169.645 85.43 169.261 84.248 169.213 82.784C169.201 82.46 169.195 81.938 169.195 81.218C169.195 80.474 169.201 79.934 169.213 79.598C169.249 78.158 169.633 76.988 170.365 76.088C171.097 75.176 172.231 74.72 173.767 74.72C175.315 74.72 176.455 75.176 177.187 76.088C177.919 76.988 178.303 78.158 178.339 79.598C178.363 80.27 178.375 80.81 178.375 81.218C178.375 81.614 178.363 82.136 178.339 82.784C178.291 84.248 177.907 85.43 177.187 86.33C176.467 87.23 175.327 87.68 173.767 87.68ZM173.767 86.132C174.667 86.132 175.345 85.832 175.801 85.232C176.269 84.632 176.515 83.786 176.539 82.694C176.563 81.998 176.575 81.494 176.575 81.182C176.575 80.846 176.563 80.354 176.539 79.706C176.515 78.626 176.275 77.78 175.819 77.168C175.363 76.556 174.679 76.25 173.767 76.25C172.867 76.25 172.183 76.556 171.715 77.168C171.259 77.78 171.019 78.626 170.995 79.706L170.977 81.182L170.995 82.694C171.019 83.786 171.259 84.632 171.715 85.232C172.183 85.832 172.867 86.132 173.767 86.132Z" fill="#414141"/>
<path d="M38 88.85H179.491V89.75H38V88.85Z" fill="#414141"/>
</svg>
