<svg width="27" height="27" viewBox="0 0 27 27" fill="none" xmlns="http://www.w3.org/2000/svg">
<path fill-rule="evenodd" clip-rule="evenodd" d="M0.663186 4.03493C0.373237 1.72757 2.34828 0.125 4.46942 0.125H8.959C9.86517 0.125 10.6417 0.773045 10.8038 1.66459L11.5617 5.83316C11.7881 7.07835 11.4642 8.36056 10.6736 9.34883L9.76931 10.4791C9.60817 10.6806 9.59344 10.9476 9.71792 11.1506C10.3049 12.1077 11.3607 13.7246 12.3192 14.6831C13.2776 15.6415 14.8945 16.6973 15.8516 17.2843C16.0546 17.4088 16.3217 17.3941 16.5231 17.2329L17.6534 16.3287C18.6417 15.5381 19.9239 15.2141 21.1691 15.4405L25.3376 16.1985C26.2292 16.3606 26.8772 17.1371 26.8772 18.0432V22.2271C26.8772 24.504 25.0635 26.53 22.6463 26.1413C18.5056 25.4754 12.5867 23.346 7.66923 18.0503C2.88791 12.9012 1.11664 7.64343 0.663186 4.03493ZM4.46942 1.375C2.88878 1.375 1.73184 2.51355 1.90343 3.87908C2.3263 7.24421 3.99305 12.2543 8.58522 17.1997C13.2721 22.2471 18.9134 24.2749 22.8448 24.9071C24.3378 25.1472 25.6272 23.9106 25.6272 22.2271V18.0432C25.6272 17.7412 25.4112 17.4823 25.114 17.4283L20.9455 16.6704C20.056 16.5087 19.1402 16.74 18.4343 17.3048L17.304 18.209C16.7067 18.6868 15.8671 18.7601 15.1982 18.3499C14.2442 17.7649 12.51 16.6416 11.4353 15.5669C10.3606 14.4923 9.23737 12.758 8.65234 11.8041C8.24209 11.1351 8.31539 10.2956 8.79323 9.69826L9.69747 8.56796C10.2622 7.86205 10.4936 6.94619 10.3318 6.05677L9.57392 1.8882C9.51989 1.59101 9.26106 1.375 8.959 1.375H4.46942Z" fill="#414141"/>
</svg>
