<svg width="96" height="41" viewBox="0 0 96 41" fill="none" xmlns="http://www.w3.org/2000/svg">
<g filter="url(#filter0_d_287_18356)">
<rect x="3" y="2" width="88" height="27" rx="4" fill="white"/>
<path d="M14.4033 12.0779H26.1664L24.7631 18.9041H21.8033L22.9564 13.3233H17.1129L15.9598 18.9041H13L14.4033 12.0779Z" fill="#0093C6"/>
<path d="M33.8909 12.0772H37.6963L40.8292 18.9034H37.7734L36.8893 16.808H32.1415L30.1617 18.9034H27.1445L33.8909 12.0772ZM36.4096 15.7076L35.8519 14.1532L35.5255 12.9848L34.5841 14.1532L33.2194 15.7076H36.4096Z" fill="#0093C6"/>
<path d="M44.5783 12.0779H49.7098C52.2849 12.0779 54.3616 12.754 54.3616 14.144C54.3616 16.1813 50.6324 16.8862 47.1732 16.8862H46.5581L46.1349 18.9041H43.1553L44.5783 12.0779ZM46.8083 15.7183C49.0185 15.6989 51.2673 15.6025 51.2673 14.3278C51.2673 13.5941 50.402 13.2463 49.0571 13.2463H47.3274L46.8083 15.7183Z" fill="#0093C6"/>
<path d="M57.3017 17.7263C58.7623 17.5236 59.589 17.3691 60.127 16.925L60.396 16.703H59.4733L55.668 12.078H58.9739L61.6459 15.6602L64.8174 12.078H68.335L63.1451 16.8093C61.1465 18.6339 60.1468 18.7114 58.1669 18.9916L57.3017 17.7263Z" fill="#0093C6"/>
<path d="M69.2383 15.9975C69.2383 13.3711 72.2179 12 77.3682 12C78.7903 12 79.8286 12.1063 81.0005 12.3378L80.0976 13.4386C78.9831 13.2747 78.2523 13.236 77.0794 13.236C74.0237 13.236 72.2931 14.2787 72.2931 15.7754C72.2931 17.1177 74.081 17.7451 76.5791 17.7451C77.6748 17.7451 78.6163 17.7163 79.6734 17.5713L80.154 18.7104C78.7508 18.9324 77.482 19 75.964 19C72.1022 19.0005 69.2383 18.1028 69.2383 15.9975Z" fill="#0093C6"/>
<path d="M47 34.5L41.5 29H52.5L47 34.5Z" fill="white"/>
</g>
<defs>
<filter id="filter0_d_287_18356" x="0" y="0" width="96" height="40.5" filterUnits="userSpaceOnUse" color-interpolation-filters="sRGB">
<feFlood flood-opacity="0" result="BackgroundImageFix"/>
<feColorMatrix in="SourceAlpha" type="matrix" values="0 0 0 0 0 0 0 0 0 0 0 0 0 0 0 0 0 0 127 0" result="hardAlpha"/>
<feOffset dx="1" dy="2"/>
<feGaussianBlur stdDeviation="2"/>
<feColorMatrix type="matrix" values="0 0 0 0 0 0 0 0 0 0 0 0 0 0 0 0 0 0 0.1 0"/>
<feBlend mode="normal" in2="BackgroundImageFix" result="effect1_dropShadow_287_18356"/>
<feBlend mode="normal" in="SourceGraphic" in2="effect1_dropShadow_287_18356" result="shape"/>
</filter>
</defs>
</svg>
