<svg width="90" height="41" viewBox="0 0 90 41" fill="none" xmlns="http://www.w3.org/2000/svg">
<g filter="url(#filter0_d_287_18389)">
<rect x="3" y="2" width="82" height="27" rx="4" fill="white"/>
<path d="M21.3947 12.2945L21.4211 13.3885C21.4211 15.0611 21.2531 16.8418 20.9172 18.7287H17.7475C17.9507 17.3308 18.0527 15.9408 18.0527 14.5593C18.0527 14.0789 18.0395 13.6027 18.0131 13.1308H17.7879C17.2839 13.1308 16.8636 13.1564 16.5276 13.2077V13.6198C16.5276 15.3443 16.3772 17.0468 16.0765 18.7287H13.0528C13.1768 17.8105 13.2384 16.807 13.2384 15.7173C13.2384 14.6276 13.1592 13.4867 13 12.2945H21.3947Z" fill="#D20D21"/>
<path d="M28.7686 14.881L30.0149 14.9579C30.1389 14.9579 30.2313 14.9536 30.2936 14.9451L29.6701 16.0774H29.5506C29.3826 16.0774 29.1434 16.0326 28.8346 15.9422C28.5251 15.8518 28.3043 15.807 28.1715 15.807C27.8091 15.807 27.5216 16.0347 27.3096 16.4888C27.2744 16.9095 27.248 17.3294 27.2304 17.75C27.6903 17.8361 28.0527 17.8789 28.3182 17.8789H28.4378C28.8178 17.8789 29.1207 17.7977 29.3459 17.634C29.5711 17.471 29.7325 17.1792 29.83 16.7593L31.4218 16.8233C31.2891 17.5614 31.1123 18.1963 30.8915 18.728H24.3798C24.203 17.57 24.1143 16.4205 24.1143 15.2796C24.1143 14.1386 24.1759 13.1436 24.2998 12.2945H31.4086C31.2495 13.2212 31.1079 13.8732 30.9839 14.2504C30.4624 14.276 29.9848 14.2931 29.5513 14.3016C29.6217 14.1045 29.6577 13.9201 29.6577 13.7486C29.6577 13.3365 29.3393 13.1308 28.7026 13.1308C28.4642 13.1308 28.1986 13.1564 27.9067 13.2077C27.7123 14.0226 27.5619 14.7387 27.4556 15.3564C27.8099 15.0397 28.2471 14.881 28.7686 14.881Z" fill="#D20D21"/>
<path d="M42.0445 18.7289H38.9812C38.822 17.0043 38.3709 15.4734 37.6286 14.1353C37.151 15.1908 36.9126 16.1602 36.9126 17.0435C36.9126 17.6442 37.0278 18.2057 37.2574 18.7289H33.809C33.7474 18.3773 33.7158 17.9054 33.7158 17.3132C33.7158 16.721 33.7994 16.1467 33.9682 15.5887C34.6137 15.4086 35.2321 15.1018 35.8248 14.6684C36.4167 14.2356 36.8415 13.7737 37.0982 13.2847C36.9038 12.9844 36.6515 12.6541 36.3419 12.294H40.7315C41.6066 14.1218 42.0445 16.2669 42.0445 18.7289Z" fill="#D20D21"/>
<path d="M44.4712 18.7287C44.268 17.9052 44.166 16.8326 44.166 15.5116C44.166 14.1906 44.29 13.118 44.5372 12.2945H47.8132C47.6716 13.1095 47.5785 13.8433 47.5345 14.4952C49.0815 14.6668 50.4562 15.044 51.6592 15.6276C51.6328 16.7685 51.4912 17.802 51.2345 18.7287H44.4712ZM47.5088 15.3828C47.5088 16.2924 47.6195 17.1244 47.8403 17.8789C48.3003 17.3301 48.5915 16.6134 48.7155 15.7301C48.326 15.533 47.924 15.4176 47.5088 15.3828ZM55.7707 13.607C55.7707 15.3999 55.6203 17.1073 55.3196 18.7287H52.3091C52.4235 17.8881 52.4815 16.8824 52.4815 15.7109C52.4815 14.5401 52.4023 13.4013 52.2431 12.2945H55.7443C55.7619 12.8782 55.7707 13.3159 55.7707 13.607Z" fill="#D20D21"/>
<path d="M63.3165 13.0798C63.0069 13.0285 62.7084 13.0029 62.4215 13.0029C62.134 13.0029 61.787 13.0499 61.3806 13.1445C61.2479 13.6847 61.1818 14.2128 61.1818 14.7274C61.1818 16.057 61.7922 17.0783 63.012 17.7901C63.8255 17.2669 64.5591 16.615 65.2134 15.8342C65.2398 16.1773 65.2618 16.7011 65.2794 17.4043C64.6251 17.9018 63.9576 18.2926 63.2768 18.5751C62.5961 18.8584 61.7474 19 60.7307 19H60.4256C59.6297 18.6655 59.0039 18.1723 58.5491 17.5203C58.0936 16.8684 57.8662 16.1822 57.8662 15.4612C57.8662 14.5004 58.2726 13.6833 59.0861 13.01C59.8996 12.3367 61.0799 12 62.6269 12C63.4932 12 64.3992 12.1075 65.3455 12.3217C65.2039 12.862 65.0271 13.373 64.8151 13.8527C64.2583 13.9039 63.6832 13.9296 63.0913 13.9296C63.1793 13.689 63.2548 13.4057 63.3165 13.0798Z" fill="#D20D21"/>
<path d="M67.8252 18.7287C67.6132 17.871 67.5068 16.7963 67.5068 15.5052C67.5068 14.2141 67.6352 13.1436 67.8912 12.2945H71.154C71.0125 13.0924 70.92 13.8219 70.8753 14.4824C72.4223 14.654 73.797 15.0312 75 15.6148C74.9736 16.7643 74.8364 17.8027 74.5892 18.7287H67.8252ZM70.8489 15.37C70.8489 16.271 70.9596 17.1031 71.1804 17.8661C71.6492 17.2995 71.9404 16.5835 72.0556 15.7173C71.6668 15.5201 71.2648 15.4048 70.8489 15.37Z" fill="#D20D21"/>
<path d="M44 34.5L38.5 29H49.5L44 34.5Z" fill="white"/>
</g>
<defs>
<filter id="filter0_d_287_18389" x="0" y="0" width="90" height="40.5" filterUnits="userSpaceOnUse" color-interpolation-filters="sRGB">
<feFlood flood-opacity="0" result="BackgroundImageFix"/>
<feColorMatrix in="SourceAlpha" type="matrix" values="0 0 0 0 0 0 0 0 0 0 0 0 0 0 0 0 0 0 127 0" result="hardAlpha"/>
<feOffset dx="1" dy="2"/>
<feGaussianBlur stdDeviation="2"/>
<feColorMatrix type="matrix" values="0 0 0 0 0 0 0 0 0 0 0 0 0 0 0 0 0 0 0.1 0"/>
<feBlend mode="normal" in2="BackgroundImageFix" result="effect1_dropShadow_287_18389"/>
<feBlend mode="normal" in="SourceGraphic" in2="effect1_dropShadow_287_18389" result="shape"/>
</filter>
</defs>
</svg>
