<svg width="20" height="20" viewBox="0 0 20 20" fill="none" xmlns="http://www.w3.org/2000/svg">
<path fill-rule="evenodd" clip-rule="evenodd" d="M13.75 0H6.25C2.79875 0 0 2.79875 0 6.25V13.75C0 17.2013 2.79875 20 6.25 20H13.75C17.2013 20 20 17.2013 20 13.75V6.25C20 2.79875 17.2013 0 13.75 0ZM18.125 13.75C18.125 16.1625 16.1625 18.125 13.75 18.125H6.25C3.8375 18.125 1.875 16.1625 1.875 13.75V6.25C1.875 3.8375 3.8375 1.875 6.25 1.875H13.75C16.1625 1.875 18.125 3.8375 18.125 6.25V13.75ZM10.0002 5.2002C7.3494 5.2002 5.2002 7.3494 5.2002 10.0002C5.2002 12.651 7.3494 14.8002 10.0002 14.8002C12.651 14.8002 14.8002 12.651 14.8002 10.0002C14.8002 7.3494 12.651 5.2002 10.0002 5.2002ZM10.0002 13.0002C8.34659 13.0002 7.0002 11.6538 7.0002 10.0002C7.0002 8.3454 8.34659 7.0002 10.0002 7.0002C11.6538 7.0002 13.0002 8.3454 13.0002 10.0002C13.0002 11.6538 11.6538 13.0002 10.0002 13.0002ZM15.9998 4.6C15.9998 4.93137 15.7312 5.2 15.3998 5.2C15.0684 5.2 14.7998 4.93137 14.7998 4.6C14.7998 4.26863 15.0684 4 15.3998 4C15.7312 4 15.9998 4.26863 15.9998 4.6Z" fill="url(#paint0_linear_17811_267)"/>
<defs>
<linearGradient id="paint0_linear_17811_267" x1="2.92912" y1="17.0709" x2="17.0709" y2="2.92912" gradientUnits="userSpaceOnUse">
<stop stop-color="#FFC107"/>
<stop offset="0.507" stop-color="#F44336"/>
<stop offset="0.99" stop-color="#9C27B0"/>
</linearGradient>
</defs>
</svg>
