<svg width="12" height="20" viewBox="0 0 12 20" fill="none" xmlns="http://www.w3.org/2000/svg">
<path d="M5.79196 3.0251C6.97048 3.0251 7.9291 3.98373 7.9291 5.16224C7.9291 6.33977 6.97023 7.29839 5.79196 7.29839C4.61419 7.29839 3.65532 6.33977 3.65532 5.16224C3.65507 3.98348 4.61443 3.0251 5.79196 3.0251ZM5.79196 10.322C8.63868 10.322 10.9537 8.00773 10.9537 5.16224C10.9537 2.31528 8.63893 0 5.79196 0C2.94549 0 0.630213 2.31552 0.630213 5.16224C0.630213 8.00773 2.94549 10.322 5.79196 10.322ZM7.88018 14.5323C8.94204 14.2905 9.95537 13.8709 10.8774 13.2913C11.2168 13.0777 11.4575 12.7381 11.5465 12.3471C11.6355 11.9561 11.5655 11.5457 11.352 11.2063C11.2464 11.038 11.1086 10.8923 10.9466 10.7773C10.7846 10.6624 10.6016 10.5805 10.4079 10.5363C10.2142 10.4922 10.0138 10.4866 9.81794 10.52C9.62213 10.5534 9.43482 10.6251 9.26673 10.7309C7.15207 12.0604 4.43037 12.0594 2.31744 10.7309C2.14938 10.625 1.96209 10.5534 1.76629 10.52C1.57049 10.4865 1.37002 10.4921 1.17636 10.5362C0.982706 10.5804 0.799653 10.6623 0.637683 10.7773C0.475712 10.8922 0.338002 11.038 0.232434 11.2063C0.0188204 11.5456 -0.051259 11.9559 0.0376077 12.3469C0.126474 12.7379 0.367009 13.0776 0.70631 13.2913C1.62823 13.8707 2.64137 14.2902 3.703 14.5323L0.817491 17.4183C0.533925 17.702 0.374659 18.0867 0.374728 18.4878C0.374798 18.8888 0.534197 19.2735 0.817861 19.5571C1.10153 19.8406 1.48622 19.9999 1.88731 19.9998C2.2884 19.9997 2.67304 19.8403 2.95661 19.5567L5.79147 16.7213L8.62806 19.5569C8.76831 19.6974 8.93488 19.8088 9.11823 19.8848C9.30159 19.9609 9.49813 20 9.69663 20C9.89512 20 10.0917 19.9609 10.275 19.8848C10.4584 19.8088 10.6249 19.6974 10.7652 19.5569C10.9059 19.4167 11.0175 19.2501 11.0936 19.0666C11.1698 18.8832 11.209 18.6865 11.209 18.4879C11.209 18.2892 11.1698 18.0926 11.0936 17.9091C11.0175 17.7257 10.9059 17.559 10.7652 17.4188L7.88018 14.5323Z" fill="#EE8208"/>
</svg>
