<svg width="127" height="103" viewBox="0 0 127 103" fill="none" xmlns="http://www.w3.org/2000/svg">
<path d="M113.091 54.4805H13.7727C11.69 54.4805 9.99698 56.2457 10.1784 58.3197C12.3552 83.013 35.3658 102.444 63.4287 102.444C91.4916 102.444 114.502 83.013 116.679 58.3197C116.867 56.2457 115.174 54.4805 113.091 54.4805Z" fill="#FF6633"/>
<path d="M45.5036 17.5315C44.3951 17.5315 43.2933 17.0349 42.5744 16.0818C38.9464 11.3163 32.0533 8.34959 24.5892 8.34959C17.125 8.34959 10.2319 11.3096 6.6039 16.0818C5.37442 17.6993 3.06328 18.0081 1.45086 16.7798C-0.168285 15.5515 -0.477334 13.2426 0.75214 11.6317C5.81784 4.97348 14.7265 1 24.5892 1C34.4518 1 43.3605 4.97348 48.4329 11.6317C49.6624 13.2493 49.3466 15.5515 47.7342 16.7798C47.0623 17.2899 46.283 17.5315 45.5036 17.5315Z" fill="#414141"/>
<path d="M123.182 17.5315C122.074 17.5315 120.972 17.0349 120.253 16.0818C116.625 11.3163 109.732 8.34959 102.268 8.34959C94.8037 8.34959 87.9106 11.3096 84.2826 16.0818C83.0531 17.6993 80.742 18.0081 79.1296 16.7798C77.5104 15.5515 77.2014 13.2426 78.4308 11.6317C83.4966 4.97348 92.4052 1 102.268 1C112.131 1 121.039 4.97348 126.112 11.6317C127.341 13.2493 127.025 15.5515 125.413 16.7798C124.741 17.2899 123.962 17.5315 123.182 17.5315Z" fill="#414141"/>
</svg>
