<svg width="1440" height="200" viewBox="0 0 1440 200" fill="none" xmlns="http://www.w3.org/2000/svg">
<g style="mix-blend-mode:multiply" opacity="0.3">
<path d="M13.0369 19.9929L-15.1981 -5.32389C-15.7897 -5.85432 -16.7248 -5.78329 -17.2042 -5.13951C-22.9225 2.48524 -21.3707 13.9142 -13.3936 21.0668C-5.41649 28.2194 6.11103 28.5227 13.0716 22.0072C13.6569 21.4584 13.6285 20.5234 13.0369 19.9929Z" fill="#FF6633"/>
<path d="M159.221 192.796L187.456 218.113C188.047 218.643 188.983 218.572 189.462 217.928C195.18 210.304 193.629 198.875 185.651 191.722C177.674 184.569 166.147 184.266 159.186 190.782C158.601 191.33 158.629 192.265 159.221 192.796Z" fill="#FF6633"/>
<path d="M191.078 69.1119L161.714 45.1137C161.099 44.6109 160.168 44.7247 159.718 45.3897C154.355 53.2682 156.428 64.6141 164.724 71.3942C173.02 78.1743 184.55 77.9497 191.205 71.1224C191.764 70.5474 191.693 69.6147 191.078 69.1119Z" fill="#FF6633"/>
<path d="M0.595684 152.597L27.3043 125.675C27.8639 125.111 27.8401 124.173 27.2213 123.662C19.8946 117.567 8.402 118.54 0.856148 126.146C-6.6897 133.753 -7.57395 145.25 -1.41774 152.53C-0.899146 153.143 0.0360993 153.161 0.595684 152.597Z" fill="#FF6633"/>
<path d="M-5.08273 91.3229C-10.6506 91.9142 -16.1258 83.3391 -17.312 72.1699C-18.4982 61.0007 -14.9462 51.4669 -9.37833 50.8756C-3.8105 50.2843 1.66473 58.8594 2.85093 70.0286C4.03713 81.1978 0.48511 90.7316 -5.08273 91.3229Z" fill="#FCA21C"/>
<path d="M180.571 110.581C186.139 109.99 191.614 118.565 192.8 129.734C193.986 140.903 190.434 150.437 184.867 151.029C179.299 151.62 173.824 143.045 172.637 131.876C171.451 120.706 175.003 111.173 180.571 110.581Z" fill="#FCA21C"/>
<path d="M119.855 4.90633C123.476 7.509 121.097 17.0123 114.541 26.1326C107.985 35.2529 99.7353 40.5364 96.1145 37.9337C92.4938 35.3311 94.8732 25.8278 101.429 16.7075C107.985 7.58721 116.235 2.30366 119.855 4.90633Z" fill="#FCA21C"/>
<path d="M65.9765 159.895C61.5436 159.412 58.9357 149.969 60.1516 138.803C61.3676 127.637 65.9469 118.977 70.3798 119.459C74.8127 119.942 77.4205 129.385 76.2046 140.551C74.9887 151.717 70.4094 160.378 65.9765 159.895Z" fill="#FCA21C"/>
<path fill-rule="evenodd" clip-rule="evenodd" d="M68.3295 64.6266C70.1844 67.2202 69.5838 70.8213 66.9882 72.67C61.1432 76.833 53.2771 78.069 45.827 75.6483C38.3768 73.2277 32.7409 67.6034 30.4589 60.8016C29.4452 57.7804 31.0757 54.5139 34.1007 53.5055C37.1256 52.4972 40.3995 54.1289 41.4131 57.1501C42.49 60.3597 45.2994 63.3519 49.3904 64.6811C53.4828 66.0108 57.5143 65.2415 60.2713 63.2779C62.8669 61.4292 66.4747 62.0331 68.3295 64.6266Z" fill="#70C05B"/>
<path fill-rule="evenodd" clip-rule="evenodd" d="M110.577 135.599C108.722 133.006 109.322 129.404 111.918 127.556C117.763 123.393 125.629 122.157 133.079 124.577C140.529 126.998 146.165 132.622 148.447 139.424C149.461 142.445 147.831 145.712 144.806 146.72C141.781 147.729 138.507 146.097 137.493 143.076C136.416 139.866 133.607 136.874 129.516 135.545C125.423 134.215 121.392 134.984 118.635 136.948C116.039 138.797 112.432 138.193 110.577 135.599Z" fill="#70C05B"/>
<path fill-rule="evenodd" clip-rule="evenodd" d="M168.273 -0.775653C167.763 -3.92321 169.901 -6.8828 173.048 -7.38607C180.134 -8.51938 187.73 -6.13258 193.33 -0.654448C198.929 4.82377 201.48 12.3662 200.503 19.4738C200.069 22.6308 197.157 24.8331 193.999 24.3928C190.841 23.9524 188.633 21.0362 189.067 17.8793C189.528 14.5253 188.34 10.5966 185.265 7.58844C182.19 4.57929 178.236 3.4777 174.894 4.01226C171.747 4.51553 168.783 2.37191 168.273 -0.775653Z" fill="#70C05B"/>
<path fill-rule="evenodd" clip-rule="evenodd" d="M78.7 200.053C80.9545 202.308 80.9517 205.959 78.6938 208.207C73.6093 213.271 66.0519 215.779 58.3059 214.611C50.5599 213.443 44.0791 208.817 40.7141 202.481C39.2195 199.666 40.2931 196.177 43.1121 194.687C45.9311 193.197 49.428 194.27 50.9226 197.085C52.5105 200.075 55.7719 202.567 60.0254 203.208C64.2803 203.85 68.1314 202.431 70.5297 200.042C72.7875 197.793 76.4455 197.798 78.7 200.053Z" fill="#70C05B"/>
<path d="M44.7255 3.95806C43.2224 1.71707 43.8206 -1.3181 46.0616 -2.82118L69.7989 -18.7424C72.0399 -20.2455 75.0751 -19.6473 76.5781 -17.4063L81.2729 -10.4068C82.7759 -8.16583 82.1778 -5.13066 79.9368 -3.62758L56.1994 12.2936C53.9584 13.7967 50.9233 13.1985 49.4202 10.9575L44.7255 3.95806Z" fill="#1CB9FC"/>
<path d="M98.3586 177.491C97.783 174.854 99.4535 172.251 102.09 171.675L130.014 165.579C132.651 165.003 135.254 166.674 135.83 169.31L137.628 177.544C138.203 180.18 136.533 182.784 133.896 183.36L105.972 189.456C103.336 190.032 100.732 188.361 100.156 185.725L98.3586 177.491Z" fill="#1CB9FC"/>
<path d="M126.498 99.1414C124.484 100.938 121.395 100.761 119.599 98.7476L100.573 77.4178C98.7771 75.4041 98.9534 72.3156 100.967 70.5194L107.257 64.9091C109.27 63.113 112.359 63.2893 114.155 65.303L133.181 86.6327C134.977 88.6464 134.801 91.735 132.787 93.5312L126.498 99.1414Z" fill="#1CB9FC"/>
<path d="M-6.34277 173.558C-3.68328 173.101 -1.15725 174.887 -0.700727 177.547L4.13498 205.717C4.59151 208.376 2.80566 210.902 0.146178 211.359L-8.16043 212.785C-10.8199 213.241 -13.3459 211.455 -13.8025 208.796L-18.6382 180.626C-19.0947 177.966 -17.3089 175.44 -14.6494 174.984L-6.34277 173.558Z" fill="#1CB9FC"/>
<path d="M265.037 19.9929L236.802 -5.32389C236.21 -5.85432 235.275 -5.78329 234.796 -5.13951C229.078 2.48524 230.629 13.9142 238.606 21.0668C246.584 28.2194 258.111 28.5227 265.072 22.0072C265.657 21.4584 265.628 20.5234 265.037 19.9929Z" fill="#FF6633"/>
<path d="M411.221 192.796L439.456 218.113C440.047 218.643 440.983 218.572 441.462 217.928C447.18 210.304 445.629 198.875 437.651 191.722C429.674 184.569 418.147 184.266 411.186 190.782C410.601 191.33 410.629 192.265 411.221 192.796Z" fill="#FF6633"/>
<path d="M443.078 69.1119L413.714 45.1137C413.099 44.6109 412.168 44.7247 411.718 45.3897C406.355 53.2682 408.428 64.6141 416.724 71.3942C425.02 78.1743 436.55 77.9497 443.205 71.1224C443.764 70.5474 443.693 69.6147 443.078 69.1119Z" fill="#FF6633"/>
<path d="M252.596 152.597L279.304 125.675C279.864 125.111 279.84 124.173 279.221 123.662C271.895 117.567 260.402 118.54 252.856 126.146C245.31 133.753 244.426 145.25 250.582 152.53C251.101 153.143 252.036 153.161 252.596 152.597Z" fill="#FF6633"/>
<path d="M246.917 91.3229C241.349 91.9142 235.874 83.3391 234.688 72.1699C233.502 61.0007 237.054 51.4669 242.622 50.8756C248.19 50.2843 253.665 58.8594 254.851 70.0286C256.037 81.1978 252.485 90.7316 246.917 91.3229Z" fill="#FCA21C"/>
<path d="M432.571 110.581C438.139 109.99 443.614 118.565 444.8 129.734C445.986 140.903 442.434 150.437 436.867 151.029C431.299 151.62 425.824 143.045 424.637 131.876C423.451 120.706 427.003 111.173 432.571 110.581Z" fill="#FCA21C"/>
<path d="M371.855 4.90633C375.476 7.509 373.097 17.0123 366.541 26.1326C359.985 35.2529 351.735 40.5364 348.115 37.9337C344.494 35.3311 346.873 25.8278 353.429 16.7075C359.985 7.58721 368.235 2.30366 371.855 4.90633Z" fill="#FCA21C"/>
<path d="M317.976 159.895C313.544 159.412 310.936 149.969 312.152 138.803C313.368 127.637 317.947 118.977 322.38 119.459C326.813 119.942 329.421 129.385 328.205 140.551C326.989 151.717 322.409 160.378 317.976 159.895Z" fill="#FCA21C"/>
<path fill-rule="evenodd" clip-rule="evenodd" d="M320.33 64.6266C322.184 67.2202 321.584 70.8213 318.988 72.67C313.143 76.833 305.277 78.069 297.827 75.6483C290.377 73.2277 284.741 67.6034 282.459 60.8016C281.445 57.7804 283.076 54.5139 286.101 53.5055C289.126 52.4972 292.399 54.1289 293.413 57.1501C294.49 60.3597 297.299 63.3519 301.39 64.6811C305.483 66.0108 309.514 65.2415 312.271 63.2779C314.867 61.4292 318.475 62.0331 320.33 64.6266Z" fill="#70C05B"/>
<path fill-rule="evenodd" clip-rule="evenodd" d="M362.577 135.599C360.722 133.006 361.322 129.404 363.918 127.556C369.763 123.393 377.629 122.157 385.079 124.577C392.529 126.998 398.165 132.622 400.447 139.424C401.461 142.445 399.831 145.712 396.806 146.72C393.781 147.729 390.507 146.097 389.493 143.076C388.416 139.866 385.607 136.874 381.516 135.545C377.423 134.215 373.392 134.984 370.635 136.948C368.039 138.797 364.432 138.193 362.577 135.599Z" fill="#70C05B"/>
<path fill-rule="evenodd" clip-rule="evenodd" d="M420.273 -0.775653C419.763 -3.92321 421.901 -6.8828 425.048 -7.38607C432.134 -8.51938 439.73 -6.13258 445.33 -0.654448C450.929 4.82377 453.48 12.3662 452.503 19.4738C452.069 22.6308 449.157 24.8331 445.999 24.3928C442.841 23.9524 440.633 21.0362 441.067 17.8793C441.528 14.5253 440.34 10.5966 437.265 7.58844C434.19 4.57929 430.236 3.4777 426.894 4.01226C423.747 4.51553 420.783 2.37191 420.273 -0.775653Z" fill="#70C05B"/>
<path fill-rule="evenodd" clip-rule="evenodd" d="M330.7 200.053C332.954 202.308 332.952 205.959 330.694 208.207C325.609 213.271 318.052 215.779 310.306 214.611C302.56 213.443 296.079 208.817 292.714 202.481C291.22 199.666 292.293 196.177 295.112 194.687C297.931 193.197 301.428 194.27 302.923 197.085C304.51 200.075 307.772 202.567 312.025 203.208C316.28 203.85 320.131 202.431 322.53 200.042C324.788 197.793 328.446 197.798 330.7 200.053Z" fill="#70C05B"/>
<path d="M296.725 3.95806C295.222 1.71707 295.821 -1.3181 298.062 -2.82118L321.799 -18.7424C324.04 -20.2455 327.075 -19.6473 328.578 -17.4063L333.273 -10.4068C334.776 -8.16583 334.178 -5.13066 331.937 -3.62758L308.199 12.2936C305.958 13.7967 302.923 13.1985 301.42 10.9575L296.725 3.95806Z" fill="#1CB9FC"/>
<path d="M350.359 177.491C349.783 174.854 351.454 172.251 354.09 171.675L382.014 165.579C384.651 165.003 387.254 166.674 387.83 169.31L389.628 177.544C390.203 180.18 388.533 182.784 385.896 183.36L357.972 189.456C355.336 190.032 352.732 188.361 352.156 185.725L350.359 177.491Z" fill="#1CB9FC"/>
<path d="M378.498 99.1414C376.484 100.938 373.395 100.761 371.599 98.7476L352.573 77.4178C350.777 75.4041 350.953 72.3156 352.967 70.5194L359.257 64.9091C361.27 63.113 364.359 63.2893 366.155 65.303L385.181 86.6327C386.977 88.6464 386.801 91.735 384.787 93.5312L378.498 99.1414Z" fill="#1CB9FC"/>
<path d="M245.657 173.558C248.317 173.101 250.843 174.887 251.299 177.547L256.135 205.717C256.592 208.376 254.806 210.902 252.146 211.359L243.84 212.785C241.18 213.241 238.654 211.455 238.198 208.796L233.362 180.626C232.905 177.966 234.691 175.44 237.351 174.984L245.657 173.558Z" fill="#1CB9FC"/>
<path d="M517.037 19.9929L488.802 -5.32389C488.21 -5.85432 487.275 -5.78329 486.796 -5.13951C481.078 2.48524 482.629 13.9142 490.606 21.0668C498.584 28.2194 510.111 28.5227 517.072 22.0072C517.657 21.4584 517.628 20.5234 517.037 19.9929Z" fill="#FF6633"/>
<path d="M663.221 192.796L691.456 218.113C692.047 218.643 692.983 218.572 693.462 217.928C699.18 210.304 697.629 198.875 689.651 191.722C681.674 184.569 670.147 184.266 663.186 190.782C662.601 191.33 662.629 192.265 663.221 192.796Z" fill="#FF6633"/>
<path d="M695.078 69.1119L665.714 45.1137C665.099 44.6109 664.168 44.7247 663.718 45.3897C658.355 53.2682 660.428 64.6141 668.724 71.3942C677.02 78.1743 688.55 77.9497 695.205 71.1224C695.764 70.5474 695.693 69.6147 695.078 69.1119Z" fill="#FF6633"/>
<path d="M504.596 152.597L531.304 125.675C531.864 125.111 531.84 124.173 531.221 123.662C523.895 117.567 512.402 118.54 504.856 126.146C497.31 133.753 496.426 145.25 502.582 152.53C503.101 153.143 504.036 153.161 504.596 152.597Z" fill="#FF6633"/>
<path d="M498.917 91.3229C493.349 91.9142 487.874 83.3391 486.688 72.1699C485.502 61.0007 489.054 51.4669 494.622 50.8756C500.19 50.2843 505.665 58.8594 506.851 70.0286C508.037 81.1978 504.485 90.7316 498.917 91.3229Z" fill="#FCA21C"/>
<path d="M684.571 110.581C690.139 109.99 695.614 118.565 696.8 129.734C697.986 140.903 694.434 150.437 688.867 151.029C683.299 151.62 677.824 143.045 676.637 131.876C675.451 120.706 679.003 111.173 684.571 110.581Z" fill="#FCA21C"/>
<path d="M623.855 4.90633C627.476 7.509 625.097 17.0123 618.541 26.1326C611.985 35.2529 603.735 40.5364 600.115 37.9337C596.494 35.3311 598.873 25.8278 605.429 16.7075C611.985 7.58721 620.235 2.30366 623.855 4.90633Z" fill="#FCA21C"/>
<path d="M569.976 159.895C565.544 159.412 562.936 149.969 564.152 138.803C565.368 127.637 569.947 118.977 574.38 119.459C578.813 119.942 581.421 129.385 580.205 140.551C578.989 151.717 574.409 160.378 569.976 159.895Z" fill="#FCA21C"/>
<path fill-rule="evenodd" clip-rule="evenodd" d="M572.33 64.6266C574.184 67.2202 573.584 70.8213 570.988 72.67C565.143 76.833 557.277 78.069 549.827 75.6483C542.377 73.2277 536.741 67.6034 534.459 60.8016C533.445 57.7804 535.076 54.5139 538.101 53.5055C541.126 52.4972 544.399 54.1289 545.413 57.1501C546.49 60.3597 549.299 63.3519 553.39 64.6811C557.483 66.0108 561.514 65.2415 564.271 63.2779C566.867 61.4292 570.475 62.0331 572.33 64.6266Z" fill="#70C05B"/>
<path fill-rule="evenodd" clip-rule="evenodd" d="M614.577 135.599C612.722 133.006 613.322 129.404 615.918 127.556C621.763 123.393 629.629 122.157 637.079 124.577C644.529 126.998 650.165 132.622 652.447 139.424C653.461 142.445 651.831 145.712 648.806 146.72C645.781 147.729 642.507 146.097 641.493 143.076C640.416 139.866 637.607 136.874 633.516 135.545C629.423 134.215 625.392 134.984 622.635 136.948C620.039 138.797 616.432 138.193 614.577 135.599Z" fill="#70C05B"/>
<path fill-rule="evenodd" clip-rule="evenodd" d="M672.273 -0.775653C671.763 -3.92321 673.901 -6.8828 677.048 -7.38607C684.134 -8.51938 691.73 -6.13258 697.33 -0.654448C702.929 4.82377 705.48 12.3662 704.503 19.4738C704.069 22.6308 701.157 24.8331 697.999 24.3928C694.841 23.9524 692.633 21.0362 693.067 17.8793C693.528 14.5253 692.34 10.5966 689.265 7.58844C686.19 4.57929 682.236 3.4777 678.894 4.01226C675.747 4.51553 672.783 2.37191 672.273 -0.775653Z" fill="#70C05B"/>
<path fill-rule="evenodd" clip-rule="evenodd" d="M582.7 200.053C584.954 202.308 584.952 205.959 582.694 208.207C577.609 213.271 570.052 215.779 562.306 214.611C554.56 213.443 548.079 208.817 544.714 202.481C543.22 199.666 544.293 196.177 547.112 194.687C549.931 193.197 553.428 194.27 554.923 197.085C556.51 200.075 559.772 202.567 564.025 203.208C568.28 203.85 572.131 202.431 574.53 200.042C576.788 197.793 580.446 197.798 582.7 200.053Z" fill="#70C05B"/>
<path d="M548.725 3.95806C547.222 1.71707 547.821 -1.3181 550.062 -2.82118L573.799 -18.7424C576.04 -20.2455 579.075 -19.6473 580.578 -17.4063L585.273 -10.4068C586.776 -8.16583 586.178 -5.13066 583.937 -3.62758L560.199 12.2936C557.958 13.7967 554.923 13.1985 553.42 10.9575L548.725 3.95806Z" fill="#1CB9FC"/>
<path d="M602.359 177.491C601.783 174.854 603.454 172.251 606.09 171.675L634.014 165.579C636.651 165.003 639.254 166.674 639.83 169.31L641.628 177.544C642.203 180.18 640.533 182.784 637.896 183.36L609.972 189.456C607.336 190.032 604.732 188.361 604.156 185.725L602.359 177.491Z" fill="#1CB9FC"/>
<path d="M630.498 99.1414C628.484 100.938 625.395 100.761 623.599 98.7476L604.573 77.4178C602.777 75.4041 602.953 72.3156 604.967 70.5194L611.257 64.9091C613.27 63.113 616.359 63.2893 618.155 65.303L637.181 86.6327C638.977 88.6464 638.801 91.735 636.787 93.5312L630.498 99.1414Z" fill="#1CB9FC"/>
<path d="M497.657 173.558C500.317 173.101 502.843 174.887 503.299 177.547L508.135 205.717C508.592 208.376 506.806 210.902 504.146 211.359L495.84 212.785C493.18 213.241 490.654 211.455 490.198 208.796L485.362 180.626C484.905 177.966 486.691 175.44 489.351 174.984L497.657 173.558Z" fill="#1CB9FC"/>
<path d="M769.037 19.9929L740.802 -5.32389C740.21 -5.85432 739.275 -5.78329 738.796 -5.13951C733.078 2.48524 734.629 13.9142 742.606 21.0668C750.584 28.2194 762.111 28.5227 769.072 22.0072C769.657 21.4584 769.628 20.5234 769.037 19.9929Z" fill="#FF6633"/>
<path d="M915.221 192.796L943.456 218.113C944.047 218.643 944.983 218.572 945.462 217.928C951.18 210.304 949.629 198.875 941.651 191.722C933.674 184.569 922.147 184.266 915.186 190.782C914.601 191.33 914.629 192.265 915.221 192.796Z" fill="#FF6633"/>
<path d="M947.078 69.1119L917.714 45.1137C917.099 44.6109 916.168 44.7247 915.718 45.3897C910.355 53.2682 912.428 64.6141 920.724 71.3942C929.02 78.1743 940.55 77.9497 947.205 71.1224C947.764 70.5474 947.693 69.6147 947.078 69.1119Z" fill="#FF6633"/>
<path d="M756.596 152.597L783.304 125.675C783.864 125.111 783.84 124.173 783.221 123.662C775.895 117.567 764.402 118.54 756.856 126.146C749.31 133.753 748.426 145.25 754.582 152.53C755.101 153.143 756.036 153.161 756.596 152.597Z" fill="#FF6633"/>
<path d="M750.917 91.3229C745.349 91.9142 739.874 83.3391 738.688 72.1699C737.502 61.0007 741.054 51.4669 746.622 50.8756C752.19 50.2843 757.665 58.8594 758.851 70.0286C760.037 81.1978 756.485 90.7316 750.917 91.3229Z" fill="#FCA21C"/>
<path d="M936.571 110.581C942.139 109.99 947.614 118.565 948.8 129.734C949.986 140.903 946.434 150.437 940.867 151.029C935.299 151.62 929.824 143.045 928.637 131.876C927.451 120.706 931.003 111.173 936.571 110.581Z" fill="#FCA21C"/>
<path d="M875.855 4.90633C879.476 7.509 877.097 17.0123 870.541 26.1326C863.985 35.2529 855.735 40.5364 852.115 37.9337C848.494 35.3311 850.873 25.8278 857.429 16.7075C863.985 7.58721 872.235 2.30366 875.855 4.90633Z" fill="#FCA21C"/>
<path d="M821.976 159.895C817.544 159.412 814.936 149.969 816.152 138.803C817.368 127.637 821.947 118.977 826.38 119.459C830.813 119.942 833.421 129.385 832.205 140.551C830.989 151.717 826.409 160.378 821.976 159.895Z" fill="#FCA21C"/>
<path fill-rule="evenodd" clip-rule="evenodd" d="M824.33 64.6266C826.184 67.2202 825.584 70.8213 822.988 72.67C817.143 76.833 809.277 78.069 801.827 75.6483C794.377 73.2277 788.741 67.6034 786.459 60.8016C785.445 57.7804 787.076 54.5139 790.101 53.5055C793.126 52.4972 796.399 54.1289 797.413 57.1501C798.49 60.3597 801.299 63.3519 805.39 64.6811C809.483 66.0108 813.514 65.2415 816.271 63.2779C818.867 61.4292 822.475 62.0331 824.33 64.6266Z" fill="#70C05B"/>
<path fill-rule="evenodd" clip-rule="evenodd" d="M866.577 135.599C864.722 133.006 865.322 129.404 867.918 127.556C873.763 123.393 881.629 122.157 889.079 124.577C896.529 126.998 902.165 132.622 904.447 139.424C905.461 142.445 903.831 145.712 900.806 146.72C897.781 147.729 894.507 146.097 893.493 143.076C892.416 139.866 889.607 136.874 885.516 135.545C881.423 134.215 877.392 134.984 874.635 136.948C872.039 138.797 868.432 138.193 866.577 135.599Z" fill="#70C05B"/>
<path fill-rule="evenodd" clip-rule="evenodd" d="M924.273 -0.775653C923.763 -3.92321 925.901 -6.8828 929.048 -7.38607C936.134 -8.51938 943.73 -6.13258 949.33 -0.654448C954.929 4.82377 957.48 12.3662 956.503 19.4738C956.069 22.6308 953.157 24.8331 949.999 24.3928C946.841 23.9524 944.633 21.0362 945.067 17.8793C945.528 14.5253 944.34 10.5966 941.265 7.58844C938.19 4.57929 934.236 3.4777 930.894 4.01226C927.747 4.51553 924.783 2.37191 924.273 -0.775653Z" fill="#70C05B"/>
<path fill-rule="evenodd" clip-rule="evenodd" d="M834.7 200.053C836.954 202.308 836.952 205.959 834.694 208.207C829.609 213.271 822.052 215.779 814.306 214.611C806.56 213.443 800.079 208.817 796.714 202.481C795.22 199.666 796.293 196.177 799.112 194.687C801.931 193.197 805.428 194.27 806.923 197.085C808.51 200.075 811.772 202.567 816.025 203.208C820.28 203.85 824.131 202.431 826.53 200.042C828.788 197.793 832.446 197.798 834.7 200.053Z" fill="#70C05B"/>
<path d="M800.725 3.95806C799.222 1.71707 799.821 -1.3181 802.062 -2.82118L825.799 -18.7424C828.04 -20.2455 831.075 -19.6473 832.578 -17.4063L837.273 -10.4068C838.776 -8.16583 838.178 -5.13066 835.937 -3.62758L812.199 12.2936C809.958 13.7967 806.923 13.1985 805.42 10.9575L800.725 3.95806Z" fill="#1CB9FC"/>
<path d="M854.359 177.491C853.783 174.854 855.454 172.251 858.09 171.675L886.014 165.579C888.651 165.003 891.254 166.674 891.83 169.31L893.628 177.544C894.203 180.18 892.533 182.784 889.896 183.36L861.972 189.456C859.336 190.032 856.732 188.361 856.156 185.725L854.359 177.491Z" fill="#1CB9FC"/>
<path d="M882.498 99.1414C880.484 100.938 877.395 100.761 875.599 98.7476L856.573 77.4178C854.777 75.4041 854.953 72.3156 856.967 70.5194L863.257 64.9091C865.27 63.113 868.359 63.2893 870.155 65.303L889.181 86.6327C890.977 88.6464 890.801 91.735 888.787 93.5312L882.498 99.1414Z" fill="#1CB9FC"/>
<path d="M749.657 173.558C752.317 173.101 754.843 174.887 755.299 177.547L760.135 205.717C760.592 208.376 758.806 210.902 756.146 211.359L747.84 212.785C745.18 213.241 742.654 211.455 742.198 208.796L737.362 180.626C736.905 177.966 738.691 175.44 741.351 174.984L749.657 173.558Z" fill="#1CB9FC"/>
<path d="M1021.04 19.9929L992.802 -5.32389C992.21 -5.85432 991.275 -5.78329 990.796 -5.13951C985.078 2.48524 986.629 13.9142 994.606 21.0668C1002.58 28.2194 1014.11 28.5227 1021.07 22.0072C1021.66 21.4584 1021.63 20.5234 1021.04 19.9929Z" fill="#FF6633"/>
<path d="M1167.22 192.796L1195.46 218.113C1196.05 218.643 1196.98 218.572 1197.46 217.928C1203.18 210.304 1201.63 198.875 1193.65 191.722C1185.67 184.569 1174.15 184.266 1167.19 190.782C1166.6 191.33 1166.63 192.265 1167.22 192.796Z" fill="#FF6633"/>
<path d="M1199.08 69.1119L1169.71 45.1137C1169.1 44.6109 1168.17 44.7247 1167.72 45.3897C1162.36 53.2682 1164.43 64.6141 1172.72 71.3942C1181.02 78.1743 1192.55 77.9497 1199.2 71.1224C1199.76 70.5474 1199.69 69.6147 1199.08 69.1119Z" fill="#FF6633"/>
<path d="M1008.6 152.597L1035.3 125.675C1035.86 125.111 1035.84 124.173 1035.22 123.662C1027.89 117.567 1016.4 118.54 1008.86 126.146C1001.31 133.753 1000.43 145.25 1006.58 152.53C1007.1 153.143 1008.04 153.161 1008.6 152.597Z" fill="#FF6633"/>
<path d="M1002.92 91.3229C997.349 91.9142 991.874 83.3391 990.688 72.1699C989.502 61.0007 993.054 51.4669 998.622 50.8756C1004.19 50.2843 1009.66 58.8594 1010.85 70.0286C1012.04 81.1978 1008.49 90.7316 1002.92 91.3229Z" fill="#FCA21C"/>
<path d="M1188.57 110.581C1194.14 109.99 1199.61 118.565 1200.8 129.734C1201.99 140.903 1198.43 150.437 1192.87 151.029C1187.3 151.62 1181.82 143.045 1180.64 131.876C1179.45 120.706 1183 111.173 1188.57 110.581Z" fill="#FCA21C"/>
<path d="M1127.86 4.90633C1131.48 7.509 1129.1 17.0123 1122.54 26.1326C1115.99 35.2529 1107.74 40.5364 1104.11 37.9337C1100.49 35.3311 1102.87 25.8278 1109.43 16.7075C1115.98 7.58721 1124.23 2.30366 1127.86 4.90633Z" fill="#FCA21C"/>
<path d="M1073.98 159.895C1069.54 159.412 1066.94 149.969 1068.15 138.803C1069.37 127.637 1073.95 118.977 1078.38 119.459C1082.81 119.942 1085.42 129.385 1084.2 140.551C1082.99 151.717 1078.41 160.378 1073.98 159.895Z" fill="#FCA21C"/>
<path fill-rule="evenodd" clip-rule="evenodd" d="M1076.33 64.6266C1078.18 67.2202 1077.58 70.8213 1074.99 72.67C1069.14 76.833 1061.28 78.069 1053.83 75.6483C1046.38 73.2277 1040.74 67.6034 1038.46 60.8016C1037.45 57.7804 1039.08 54.5139 1042.1 53.5055C1045.13 52.4972 1048.4 54.1289 1049.41 57.1501C1050.49 60.3597 1053.3 63.3519 1057.39 64.6811C1061.48 66.0108 1065.51 65.2415 1068.27 63.2779C1070.87 61.4292 1074.47 62.0331 1076.33 64.6266Z" fill="#70C05B"/>
<path fill-rule="evenodd" clip-rule="evenodd" d="M1118.58 135.599C1116.72 133.006 1117.32 129.404 1119.92 127.556C1125.76 123.393 1133.63 122.157 1141.08 124.577C1148.53 126.998 1154.17 132.622 1156.45 139.424C1157.46 142.445 1155.83 145.712 1152.81 146.72C1149.78 147.729 1146.51 146.097 1145.49 143.076C1144.42 139.866 1141.61 136.874 1137.52 135.545C1133.42 134.215 1129.39 134.984 1126.63 136.948C1124.04 138.797 1120.43 138.193 1118.58 135.599Z" fill="#70C05B"/>
<path fill-rule="evenodd" clip-rule="evenodd" d="M1176.27 -0.775653C1175.76 -3.92321 1177.9 -6.8828 1181.05 -7.38607C1188.13 -8.51938 1195.73 -6.13258 1201.33 -0.654448C1206.93 4.82377 1209.48 12.3662 1208.5 19.4738C1208.07 22.6308 1205.16 24.8331 1202 24.3928C1198.84 23.9524 1196.63 21.0362 1197.07 17.8793C1197.53 14.5253 1196.34 10.5966 1193.27 7.58844C1190.19 4.57929 1186.24 3.4777 1182.89 4.01226C1179.75 4.51553 1176.78 2.37191 1176.27 -0.775653Z" fill="#70C05B"/>
<path fill-rule="evenodd" clip-rule="evenodd" d="M1086.7 200.053C1088.95 202.308 1088.95 205.959 1086.69 208.207C1081.61 213.271 1074.05 215.779 1066.31 214.611C1058.56 213.443 1052.08 208.817 1048.71 202.481C1047.22 199.666 1048.29 196.177 1051.11 194.687C1053.93 193.197 1057.43 194.27 1058.92 197.085C1060.51 200.075 1063.77 202.567 1068.03 203.208C1072.28 203.85 1076.13 202.431 1078.53 200.042C1080.79 197.793 1084.45 197.798 1086.7 200.053Z" fill="#70C05B"/>
<path d="M1052.73 3.95806C1051.22 1.71707 1051.82 -1.3181 1054.06 -2.82118L1077.8 -18.7424C1080.04 -20.2455 1083.08 -19.6473 1084.58 -17.4063L1089.27 -10.4068C1090.78 -8.16583 1090.18 -5.13066 1087.94 -3.62758L1064.2 12.2936C1061.96 13.7967 1058.92 13.1985 1057.42 10.9575L1052.73 3.95806Z" fill="#1CB9FC"/>
<path d="M1106.36 177.491C1105.78 174.854 1107.45 172.251 1110.09 171.675L1138.01 165.579C1140.65 165.003 1143.25 166.674 1143.83 169.31L1145.63 177.544C1146.2 180.18 1144.53 182.784 1141.9 183.36L1113.97 189.456C1111.34 190.032 1108.73 188.361 1108.16 185.725L1106.36 177.491Z" fill="#1CB9FC"/>
<path d="M1134.5 99.1414C1132.48 100.938 1129.4 100.761 1127.6 98.7476L1108.57 77.4178C1106.78 75.4041 1106.95 72.3156 1108.97 70.5194L1115.26 64.9091C1117.27 63.113 1120.36 63.2893 1122.16 65.303L1141.18 86.6327C1142.98 88.6464 1142.8 91.735 1140.79 93.5312L1134.5 99.1414Z" fill="#1CB9FC"/>
<path d="M1001.66 173.558C1004.32 173.101 1006.84 174.887 1007.3 177.547L1012.13 205.717C1012.59 208.376 1010.81 210.902 1008.15 211.359L999.84 212.785C997.18 213.241 994.654 211.455 994.198 208.796L989.362 180.626C988.905 177.966 990.691 175.44 993.351 174.984L1001.66 173.558Z" fill="#1CB9FC"/>
<path d="M1273.04 19.9929L1244.8 -5.32389C1244.21 -5.85432 1243.28 -5.78329 1242.8 -5.13951C1237.08 2.48524 1238.63 13.9142 1246.61 21.0668C1254.58 28.2194 1266.11 28.5227 1273.07 22.0072C1273.66 21.4584 1273.63 20.5234 1273.04 19.9929Z" fill="#FF6633"/>
<path d="M1419.22 192.796L1447.46 218.113C1448.05 218.643 1448.98 218.572 1449.46 217.928C1455.18 210.304 1453.63 198.875 1445.65 191.722C1437.67 184.569 1426.15 184.266 1419.19 190.782C1418.6 191.33 1418.63 192.265 1419.22 192.796Z" fill="#FF6633"/>
<path d="M1451.08 69.1119L1421.71 45.1137C1421.1 44.6109 1420.17 44.7247 1419.72 45.3897C1414.36 53.2682 1416.43 64.6141 1424.72 71.3942C1433.02 78.1743 1444.55 77.9497 1451.2 71.1224C1451.76 70.5474 1451.69 69.6147 1451.08 69.1119Z" fill="#FF6633"/>
<path d="M1260.6 152.597L1287.3 125.675C1287.86 125.111 1287.84 124.173 1287.22 123.662C1279.89 117.567 1268.4 118.54 1260.86 126.146C1253.31 133.753 1252.43 145.25 1258.58 152.53C1259.1 153.143 1260.04 153.161 1260.6 152.597Z" fill="#FF6633"/>
<path d="M1254.92 91.3229C1249.35 91.9142 1243.87 83.3391 1242.69 72.1699C1241.5 61.0007 1245.05 51.4669 1250.62 50.8756C1256.19 50.2843 1261.66 58.8594 1262.85 70.0286C1264.04 81.1978 1260.49 90.7316 1254.92 91.3229Z" fill="#FCA21C"/>
<path d="M1440.57 110.581C1446.14 109.99 1451.61 118.565 1452.8 129.734C1453.99 140.903 1450.43 150.437 1444.87 151.029C1439.3 151.62 1433.82 143.045 1432.64 131.876C1431.45 120.706 1435 111.173 1440.57 110.581Z" fill="#FCA21C"/>
<path d="M1379.86 4.90633C1383.48 7.509 1381.1 17.0123 1374.54 26.1326C1367.99 35.2529 1359.74 40.5364 1356.11 37.9337C1352.49 35.3311 1354.87 25.8278 1361.43 16.7075C1367.98 7.58721 1376.23 2.30366 1379.86 4.90633Z" fill="#FCA21C"/>
<path d="M1325.98 159.895C1321.54 159.412 1318.94 149.969 1320.15 138.803C1321.37 127.637 1325.95 118.977 1330.38 119.459C1334.81 119.942 1337.42 129.385 1336.2 140.551C1334.99 151.717 1330.41 160.378 1325.98 159.895Z" fill="#FCA21C"/>
<path fill-rule="evenodd" clip-rule="evenodd" d="M1328.33 64.6266C1330.18 67.2202 1329.58 70.8213 1326.99 72.67C1321.14 76.833 1313.28 78.069 1305.83 75.6483C1298.38 73.2277 1292.74 67.6034 1290.46 60.8016C1289.45 57.7804 1291.08 54.5139 1294.1 53.5055C1297.13 52.4972 1300.4 54.1289 1301.41 57.1501C1302.49 60.3597 1305.3 63.3519 1309.39 64.6811C1313.48 66.0108 1317.51 65.2415 1320.27 63.2779C1322.87 61.4292 1326.47 62.0331 1328.33 64.6266Z" fill="#70C05B"/>
<path fill-rule="evenodd" clip-rule="evenodd" d="M1370.58 135.599C1368.72 133.006 1369.32 129.404 1371.92 127.556C1377.76 123.393 1385.63 122.157 1393.08 124.577C1400.53 126.998 1406.17 132.622 1408.45 139.424C1409.46 142.445 1407.83 145.712 1404.81 146.72C1401.78 147.729 1398.51 146.097 1397.49 143.076C1396.42 139.866 1393.61 136.874 1389.52 135.545C1385.42 134.215 1381.39 134.984 1378.63 136.948C1376.04 138.797 1372.43 138.193 1370.58 135.599Z" fill="#70C05B"/>
<path fill-rule="evenodd" clip-rule="evenodd" d="M1428.27 -0.775653C1427.76 -3.92321 1429.9 -6.8828 1433.05 -7.38607C1440.13 -8.51938 1447.73 -6.13258 1453.33 -0.654448C1458.93 4.82377 1461.48 12.3662 1460.5 19.4738C1460.07 22.6308 1457.16 24.8331 1454 24.3928C1450.84 23.9524 1448.63 21.0362 1449.07 17.8793C1449.53 14.5253 1448.34 10.5966 1445.27 7.58844C1442.19 4.57929 1438.24 3.4777 1434.89 4.01226C1431.75 4.51553 1428.78 2.37191 1428.27 -0.775653Z" fill="#70C05B"/>
<path fill-rule="evenodd" clip-rule="evenodd" d="M1338.7 200.053C1340.95 202.308 1340.95 205.959 1338.69 208.207C1333.61 213.271 1326.05 215.779 1318.31 214.611C1310.56 213.443 1304.08 208.817 1300.71 202.481C1299.22 199.666 1300.29 196.177 1303.11 194.687C1305.93 193.197 1309.43 194.27 1310.92 197.085C1312.51 200.075 1315.77 202.567 1320.03 203.208C1324.28 203.85 1328.13 202.431 1330.53 200.042C1332.79 197.793 1336.45 197.798 1338.7 200.053Z" fill="#70C05B"/>
<path d="M1304.73 3.95806C1303.22 1.71707 1303.82 -1.3181 1306.06 -2.82118L1329.8 -18.7424C1332.04 -20.2455 1335.08 -19.6473 1336.58 -17.4063L1341.27 -10.4068C1342.78 -8.16583 1342.18 -5.13066 1339.94 -3.62758L1316.2 12.2936C1313.96 13.7967 1310.92 13.1985 1309.42 10.9575L1304.73 3.95806Z" fill="#1CB9FC"/>
<path d="M1358.36 177.491C1357.78 174.854 1359.45 172.251 1362.09 171.675L1390.01 165.579C1392.65 165.003 1395.25 166.674 1395.83 169.31L1397.63 177.544C1398.2 180.18 1396.53 182.784 1393.9 183.36L1365.97 189.456C1363.34 190.032 1360.73 188.361 1360.16 185.725L1358.36 177.491Z" fill="#1CB9FC"/>
<path d="M1386.5 99.1414C1384.48 100.938 1381.4 100.761 1379.6 98.7476L1360.57 77.4178C1358.78 75.4041 1358.95 72.3156 1360.97 70.5194L1367.26 64.9091C1369.27 63.113 1372.36 63.2893 1374.16 65.303L1393.18 86.6327C1394.98 88.6464 1394.8 91.735 1392.79 93.5312L1386.5 99.1414Z" fill="#1CB9FC"/>
<path d="M1253.66 173.558C1256.32 173.101 1258.84 174.887 1259.3 177.547L1264.13 205.717C1264.59 208.376 1262.81 210.902 1260.15 211.359L1251.84 212.785C1249.18 213.241 1246.65 211.455 1246.2 208.796L1241.36 180.626C1240.91 177.966 1242.69 175.44 1245.35 174.984L1253.66 173.558Z" fill="#1CB9FC"/>
</g>
</svg>
