<svg width="164" height="160" viewBox="0 0 164 160" fill="none" xmlns="http://www.w3.org/2000/svg">
<path d="M31.913 27.9319L13.5379 11.4559C13.1529 11.1107 12.5443 11.1569 12.2323 11.5759C8.51091 16.538 9.52078 23.9759 14.7122 28.6308C19.9037 33.2857 27.4057 33.483 31.9356 29.2428C32.3165 28.8856 32.298 28.2771 31.913 27.9319Z" fill="#FF6633"/>
<path d="M127.048 140.391L145.423 156.867C145.808 157.212 146.417 157.166 146.729 156.747C150.45 151.785 149.44 144.347 144.249 139.692C139.057 135.037 131.555 134.84 127.025 139.08C126.644 139.437 126.663 140.046 127.048 140.391Z" fill="#FF6633"/>
<path d="M147.78 59.8982L128.67 44.2803C128.27 43.9531 127.664 44.0272 127.371 44.46C123.881 49.5872 125.23 56.9711 130.629 61.3835C136.028 65.7959 143.531 65.6498 147.862 61.2066C148.227 60.8324 148.18 60.2254 147.78 59.8982Z" fill="#FF6633"/>
<path d="M23.8156 114.23L41.1974 96.7091C41.5616 96.342 41.5461 95.7319 41.1434 95.3992C36.3753 91.4323 28.8959 92.0657 23.9851 97.0158C19.0743 101.966 18.4989 109.448 22.5053 114.186C22.8428 114.585 23.4514 114.597 23.8156 114.23Z" fill="#FF6633"/>
<path d="M20.1213 74.353C16.4978 74.7378 12.9346 69.1572 12.1626 61.8884C11.3906 54.6195 13.7023 48.415 17.3258 48.0302C20.9493 47.6453 24.5125 53.2259 25.2845 60.4948C26.0565 67.7636 23.7448 73.9682 20.1213 74.353Z" fill="#FCA21C"/>
<path d="M140.945 86.8862C144.569 86.5014 148.132 92.082 148.904 99.3509C149.676 106.62 147.364 112.824 143.741 113.209C140.117 113.594 136.554 108.013 135.782 100.744C135.01 93.4756 137.322 87.2711 140.945 86.8862Z" fill="#FCA21C"/>
<path d="M101.432 18.1136C103.788 19.8074 102.24 25.9921 97.9732 31.9275C93.7067 37.863 88.3378 41.3015 85.9814 39.6077C83.625 37.9139 85.1735 31.7292 89.44 25.7938C93.7065 19.8583 99.0754 16.4198 101.432 18.1136Z" fill="#FCA21C"/>
<path d="M66.3678 118.979C63.4829 118.665 61.7857 112.52 62.577 105.253C63.3684 97.9863 66.3485 92.35 69.2334 92.6642C72.1184 92.9784 73.8155 99.1239 73.0242 106.391C72.2329 113.657 69.2527 119.294 66.3678 118.979Z" fill="#FCA21C"/>
<path fill-rule="evenodd" clip-rule="evenodd" d="M67.8966 56.9793C69.1037 58.6672 68.7129 61.0108 67.0236 62.2139C63.2197 64.9231 58.1006 65.7275 53.2521 64.1522C48.4035 62.5768 44.7357 58.9165 43.2506 54.49C42.5909 52.5238 43.652 50.398 45.6206 49.7418C47.5892 49.0856 49.7199 50.1475 50.3795 52.1136C51.0803 54.2024 52.9087 56.1497 55.5711 57.0148C58.2344 57.8801 60.8581 57.3795 62.6523 56.1016C64.3415 54.8984 66.6894 55.2914 67.8966 56.9793Z" fill="#70C05B"/>
<path fill-rule="evenodd" clip-rule="evenodd" d="M95.3925 103.168C94.1854 101.48 94.5762 99.1363 96.2654 97.9332C100.069 95.2239 105.189 94.4195 110.037 95.9949C114.886 97.5703 118.553 101.231 120.038 105.657C120.698 107.623 119.637 109.749 117.668 110.405C115.7 111.062 113.569 110 112.91 108.033C112.209 105.945 110.38 103.997 107.718 103.132C105.055 102.267 102.431 102.768 100.637 104.046C98.9476 105.249 96.5996 104.856 95.3925 103.168Z" fill="#70C05B"/>
<path fill-rule="evenodd" clip-rule="evenodd" d="M132.94 14.4159C132.609 12.3674 134 10.4414 136.048 10.1138C140.659 9.37629 145.603 10.9296 149.247 14.4947C152.891 18.0599 154.551 22.9685 153.916 27.5941C153.633 29.6486 151.738 31.0819 149.683 30.7953C147.628 30.5087 146.191 28.6109 146.473 26.5564C146.773 24.3736 146 21.8169 143.999 19.8592C141.997 17.9008 139.424 17.1839 137.249 17.5318C135.201 17.8593 133.272 16.4643 132.94 14.4159Z" fill="#70C05B"/>
<path fill-rule="evenodd" clip-rule="evenodd" d="M74.6437 145.114C76.1109 146.581 76.1091 148.957 74.6397 150.421C71.3308 153.716 66.4124 155.348 61.3714 154.588C56.3303 153.828 52.1127 150.817 49.9228 146.694C48.9501 144.862 49.6488 142.591 51.4834 141.621C53.318 140.652 55.5937 141.35 56.5664 143.182C57.5998 145.128 59.7223 146.749 62.4904 147.167C65.2595 147.584 67.7657 146.661 69.3265 145.107C70.7959 143.643 73.1765 143.646 74.6437 145.114Z" fill="#70C05B"/>
<path d="M52.5329 17.4965C51.5547 16.0381 51.944 14.0628 53.4024 13.0847L68.8505 2.72323C70.3089 1.74504 72.2842 2.13434 73.2624 3.59276L76.3177 8.14797C77.2959 9.60639 76.9066 11.5817 75.4482 12.5599L60.0001 22.9213C58.5417 23.8995 56.5664 23.5102 55.5882 22.0518L52.5329 17.4965Z" fill="#1CB9FC"/>
<path d="M87.4399 130.43C87.0654 128.715 88.1526 127.02 89.8682 126.646L108.041 122.678C109.757 122.304 111.451 123.391 111.826 125.106L112.996 130.465C113.371 132.181 112.283 133.875 110.568 134.25L92.3946 138.217C90.6789 138.592 88.9845 137.505 88.6099 135.789L87.4399 130.43Z" fill="#1CB9FC"/>
<path d="M105.752 79.4413C104.441 80.6102 102.431 80.4955 101.262 79.185L88.8804 65.3037C87.7114 63.9932 87.8261 61.9832 89.1366 60.8143L93.2298 57.1632C94.5403 55.9942 96.5503 56.109 97.7193 57.4195L110.101 71.3007C111.27 72.6112 111.155 74.6212 109.845 75.7902L105.752 79.4413Z" fill="#1CB9FC"/>
<path d="M19.2997 127.871C21.0305 127.574 22.6744 128.736 22.9716 130.467L26.1186 148.8C26.4157 150.531 25.2535 152.175 23.5227 152.472L18.1168 153.4C16.386 153.697 14.7421 152.535 14.445 150.804L11.298 132.471C11.0009 130.74 12.1631 129.096 13.8939 128.799L19.2997 127.871Z" fill="#1CB9FC"/>
</svg>
