<svg width="104" height="80" viewBox="0 0 104 80" fill="none" xmlns="http://www.w3.org/2000/svg">
<path d="M20.2394 6.98115L8.58689 -3.46706C8.34275 -3.68597 7.95683 -3.65665 7.75899 -3.39097C5.39907 -0.244244 6.03948 4.47245 9.33161 7.42433C12.6237 10.3762 17.3811 10.5014 20.2538 7.81242C20.4953 7.58593 20.4836 7.20005 20.2394 6.98115Z" fill="#FF6633"/>
<path d="M80.5692 78.2967L92.2217 88.745C92.4658 88.9639 92.8518 88.9345 93.0496 88.6689C95.4095 85.5221 94.7691 80.8054 91.477 77.8535C88.1849 74.9017 83.4275 74.7765 80.5548 77.4655C80.3133 77.6919 80.325 78.0778 80.5692 78.2967Z" fill="#FF6633"/>
<path d="M93.7145 27.2525L81.596 17.3485C81.3421 17.141 80.9579 17.188 80.7724 17.4624C78.559 20.7138 79.4146 25.3963 82.8384 28.1944C86.2621 30.9925 91.0203 30.8999 93.7668 28.0823C93.9978 27.8449 93.9684 27.46 93.7145 27.2525Z" fill="#FF6633"/>
<path d="M15.1048 61.7068L26.1274 50.596C26.3583 50.3633 26.3485 49.9763 26.0931 49.7654C23.0694 47.2497 18.3264 47.6515 15.2123 50.7905C12.0981 53.9296 11.7332 58.6746 14.2738 61.6792C14.4879 61.9319 14.8738 61.9396 15.1048 61.7068Z" fill="#FF6633"/>
<path d="M12.7606 36.4189C10.4628 36.663 8.20317 33.1241 7.71363 28.5145C7.22409 23.905 8.69 19.9704 10.9878 19.7264C13.2857 19.4824 15.5453 23.0213 16.0348 27.6308C16.5244 32.2403 15.0585 36.1749 12.7606 36.4189Z" fill="#FCA21C"/>
<path d="M89.38 44.3669C91.6778 44.1228 93.9375 47.6618 94.427 52.2713C94.9165 56.8808 93.4506 60.8154 91.1528 61.0594C88.855 61.3035 86.5953 57.7645 86.1058 53.155C85.6163 48.5455 87.0822 44.6109 89.38 44.3669Z" fill="#FCA21C"/>
<path d="M64.3198 0.75493C65.8141 1.82905 64.8322 5.75105 62.1266 9.51497C59.421 13.2789 56.0163 15.4594 54.522 14.3853C53.0278 13.3112 54.0097 9.38917 56.7153 5.62525C59.4209 1.86133 62.8256 -0.319188 64.3198 0.75493Z" fill="#FCA21C"/>
<path d="M42.0851 64.7188C40.2556 64.5196 39.1794 60.6224 39.6812 56.0142C40.183 51.406 42.0729 47.8318 43.9023 48.0311C45.7318 48.2303 46.808 52.1275 46.3062 56.7357C45.8044 61.3439 43.9145 64.918 42.0851 64.7188Z" fill="#FCA21C"/>
<path fill-rule="evenodd" clip-rule="evenodd" d="M43.0575 25.4015C43.823 26.4718 43.5752 27.958 42.5039 28.721C40.0917 30.439 36.8454 30.9491 33.7707 29.9501C30.696 28.9511 28.3701 26.63 27.4283 23.8229C27.01 22.5761 27.6829 21.228 28.9313 20.8118C30.1797 20.3957 31.5308 21.0691 31.9491 22.3159C32.3935 23.6405 33.553 24.8754 35.2414 25.424C36.9303 25.9727 38.5941 25.6552 39.7319 24.8449C40.8031 24.0819 42.292 24.3311 43.0575 25.4015Z" fill="#70C05B"/>
<path fill-rule="evenodd" clip-rule="evenodd" d="M60.4933 54.6917C59.7278 53.6214 59.9756 52.1352 61.0468 51.3722C63.4591 49.6541 66.7054 49.1441 69.78 50.1431C72.8547 51.1421 75.1807 53.4632 76.1224 56.2703C76.5408 57.5171 75.8679 58.8652 74.6195 59.2814C73.3711 59.6975 72.02 59.0241 71.6016 57.7773C71.1572 56.4527 69.9978 55.2178 68.3094 54.6692C66.6205 54.1205 64.9567 54.4379 63.8189 55.2483C62.7477 56.0113 61.2588 55.7621 60.4933 54.6917Z" fill="#70C05B"/>
<path fill-rule="evenodd" clip-rule="evenodd" d="M84.3034 -1.58995C84.093 -2.88895 84.9752 -4.11036 86.2739 -4.31806C89.1982 -4.78578 92.3333 -3.80075 94.6441 -1.53993C96.9551 0.720921 98.0078 3.83368 97.6047 6.76697C97.4256 8.06985 96.2239 8.97873 94.9206 8.79701C93.6173 8.61529 92.7059 7.41179 92.885 6.1089C93.0752 4.72475 92.585 3.10337 91.316 1.8619C90.0467 0.620026 88.415 0.1654 87.0356 0.386014C85.737 0.593712 84.5137 -0.290958 84.3034 -1.58995Z" fill="#70C05B"/>
<path fill-rule="evenodd" clip-rule="evenodd" d="M47.335 81.2916C48.2654 82.2221 48.2642 83.7288 47.3324 84.6569C45.2341 86.7467 42.1151 87.7815 38.9184 87.2995C35.7216 86.8174 33.047 84.9084 31.6583 82.2935C31.0414 81.132 31.4845 79.6919 32.6479 79.0769C33.8113 78.462 35.2544 78.9051 35.8713 80.0666C36.5266 81.3005 37.8726 82.3289 39.628 82.5936C41.384 82.8584 42.9733 82.2728 43.9631 81.287C44.8949 80.3589 46.4045 80.361 47.335 81.2916Z" fill="#70C05B"/>
<path d="M33.3146 0.363679C32.6943 -0.561172 32.9411 -1.81378 33.866 -2.4341L43.6624 -9.00476C44.5872 -9.62508 45.8398 -9.37821 46.4601 -8.45335L48.3976 -5.56468C49.018 -4.63983 48.7711 -3.38722 47.8462 -2.7669L38.0499 3.80375C37.125 4.42408 35.8724 4.1772 35.2521 3.25235L33.3146 0.363679Z" fill="#1CB9FC"/>
<path d="M55.4496 71.9803C55.2121 70.8923 55.9015 69.8178 56.9895 69.5802L68.5139 67.0642C69.6019 66.8266 70.6764 67.5161 70.914 68.6041L71.6559 72.0023C71.8934 73.0903 71.204 74.1648 70.116 74.4024L58.5916 76.9184C57.5036 77.1559 56.4291 76.4665 56.1915 75.3785L55.4496 71.9803Z" fill="#1CB9FC"/>
<path d="M67.0633 39.6456C66.2323 40.3869 64.9577 40.3142 64.2164 39.4831L56.3644 30.6803C55.6231 29.8493 55.6959 28.5747 56.5269 27.8334L59.1226 25.518C59.9537 24.7768 61.2283 24.8495 61.9696 25.6806L69.8216 34.4833C70.5628 35.3144 70.4901 36.589 69.659 37.3303L67.0633 39.6456Z" fill="#1CB9FC"/>
<path d="M12.2392 70.3574C13.3368 70.169 14.3793 70.906 14.5677 72.0036L16.5634 83.6294C16.7518 84.727 16.0148 85.7695 14.9172 85.9579L11.4891 86.5463C10.3915 86.7347 9.34905 85.9977 9.16064 84.9002L7.16495 73.2744C6.97654 72.1768 7.71356 71.1343 8.81112 70.9459L12.2392 70.3574Z" fill="#1CB9FC"/>
</svg>
