<svg width="20" height="20" viewBox="0 0 20 20" fill="none" xmlns="http://www.w3.org/2000/svg">
<path fill-rule="evenodd" clip-rule="evenodd" d="M2.5 0H17.5C18.8787 0 20 1.12125 20 2.5V17.5C20 18.8787 18.8787 20 17.5 20H13.75V13.125H15.625L16.875 10H13.75V7.5C13.75 6.86577 14.2231 6.86942 14.8355 6.87416C14.8893 6.87458 14.9442 6.875 15 6.875H16.25V3.75H13.75C11.6788 3.75 10 5.42875 10 7.5V10H7.5V13.125H10V20H2.5C1.12125 20 0 18.8787 0 17.5V2.5C0 1.12125 1.12125 0 2.5 0Z" fill="#1976D2"/>
</svg>
