<svg width="65" height="44" viewBox="0 0 65 44" fill="none" xmlns="http://www.w3.org/2000/svg">
<path d="M45.492 14.2617H17.9751C17.3981 14.2617 16.929 14.7325 16.9793 15.2855C17.5824 21.8704 23.9576 27.052 31.7326 27.052C39.5076 27.052 45.8829 21.8704 46.486 15.2855C46.5381 14.7325 46.069 14.2617 45.492 14.2617Z" fill="#FF6633"/>
<path d="M26.7653 4.40841C26.4581 4.40841 26.1529 4.27596 25.9537 4.0218C24.9486 2.75101 23.0388 1.95989 20.9708 1.95989C18.9028 1.95989 16.993 2.74922 15.9879 4.0218C15.6472 4.45316 15.0069 4.53549 14.5602 4.20795C14.1116 3.88041 14.026 3.2647 14.3666 2.83513C15.7701 1.05959 18.2383 0 20.9708 0C23.7033 0 26.1715 1.05959 27.5768 2.83513C27.9175 3.26648 27.83 3.88041 27.3832 4.20795C27.1971 4.34398 26.9812 4.40841 26.7653 4.40841Z" fill="#414141"/>
<path d="M48.2877 4.40841C47.9806 4.40841 47.6753 4.27596 47.4762 4.0218C46.471 2.75101 44.5612 1.95989 42.4932 1.95989C40.4252 1.95989 38.5155 2.74922 37.5103 4.0218C37.1697 4.45316 36.5294 4.53549 36.0826 4.20795C35.634 3.88041 35.5484 3.2647 35.889 2.83513C37.2925 1.05959 39.7607 0 42.4932 0C45.2258 0 47.6939 1.05959 49.0993 2.83513C49.4399 3.26648 49.3524 3.88041 48.9057 4.20795C48.7196 4.34398 48.5037 4.40841 48.2877 4.40841Z" fill="#414141"/>
<path d="M3.35197 30.0033L2.95178 31.0217C2.91641 31.1058 2.78797 31.1398 2.66885 31.0986C2.39708 31.0199 2.11601 30.8785 1.82192 30.6709C1.52968 30.4668 1.29887 30.2503 1.12762 30.0229C0.868886 29.6775 0.688332 29.3016 0.587817 28.9007C0.491025 28.4962 0.476134 28.106 0.533837 27.723C0.595263 27.3435 0.736728 26.9766 0.956371 26.6258C1.17788 26.275 1.46267 25.9761 1.82005 25.7291C2.17558 25.4821 2.56089 25.3138 2.97597 25.2226C3.39106 25.1313 3.79871 25.117 4.19332 25.1814C4.59352 25.2458 4.97324 25.3836 5.33807 25.6002C5.70663 25.815 6.0212 26.0978 6.27993 26.4432C6.4456 26.6652 6.5852 26.9462 6.69316 27.2809C6.80484 27.6156 6.86068 27.9288 6.85882 28.2223C6.86068 28.3405 6.7732 28.43 6.67641 28.4336L5.54841 28.464C5.44045 28.464 5.3511 28.3673 5.3511 28.2295C5.35482 28.0631 5.33249 27.8948 5.27851 27.7194C5.22453 27.544 5.15566 27.399 5.07003 27.2845C4.79269 26.9158 4.42413 26.692 3.96251 26.6204C3.50461 26.547 3.08766 26.6437 2.70421 26.9086C2.32449 27.1717 2.0974 27.5225 2.02667 27.9646C1.95966 28.4031 2.0639 28.8112 2.34124 29.1799C2.42687 29.2945 2.54413 29.4019 2.69677 29.5021C2.85126 29.6041 3.00203 29.6811 3.15653 29.7294C3.3073 29.7759 3.39106 29.8959 3.35197 30.0033Z" fill="#414141"/>
<path d="M7.85455 28.8363C7.94761 28.7378 8.06674 28.7342 8.16726 28.8237L11.0636 31.3832C11.166 31.4727 11.1697 31.5873 11.0766 31.6839L10.4251 32.3641C10.3265 32.4679 10.2204 32.4715 10.1124 32.3766L8.15795 30.6494L7.47296 31.3653L8.95649 32.6773C9.06817 32.7757 9.07934 32.8939 8.97882 32.9977L8.44088 33.5597C8.34781 33.6581 8.2231 33.6564 8.11328 33.5597L6.62975 32.2477L5.92615 32.9852L7.88061 34.7124C8.01835 34.8341 8.02952 34.9916 7.91225 35.1115L7.30171 35.7505C7.21051 35.8453 7.08952 35.8471 6.989 35.7576L4.03312 33.148C3.93074 33.0585 3.9233 32.9476 4.01637 32.8491L7.85455 28.8363Z" fill="#414141"/>
<path d="M14.1204 37.2577C14.1129 37.5422 14.0292 37.8089 13.8672 38.0577C13.5601 38.532 13.1618 38.8041 12.6722 38.8757C12.1864 38.9491 11.6559 38.8166 11.0845 38.473L9.07232 37.2666C8.97925 37.2111 8.96249 37.1395 9.01834 37.0536L12.0822 32.3284C12.138 32.2425 12.2125 32.2264 12.3037 32.2819L14.1669 33.3987C14.7123 33.7263 15.0529 34.1057 15.1907 34.5389C15.3284 34.972 15.2503 35.4177 14.9562 35.8723C14.7198 36.2374 14.3065 36.4773 13.8914 36.4898C14.0515 36.7189 14.1278 36.9731 14.1204 37.2577ZM11.7862 37.3561C12.1157 37.5548 12.4545 37.4814 12.6555 37.1717C12.8528 36.8675 12.7653 36.5542 12.434 36.3574L11.5889 35.8508L10.9411 36.8496L11.7862 37.3561ZM12.7374 34.0825L12.1901 34.9255L12.8882 35.3443C13.1692 35.5126 13.4484 35.4535 13.616 35.194C13.7835 34.9344 13.7146 34.6695 13.4335 34.5013L12.7374 34.0825Z" fill="#414141"/>
<path d="M16.9645 35.1866C17.0166 35.0631 17.1245 35.0184 17.253 35.0685L20.9031 36.4771C21.0316 36.5272 21.0781 36.6311 21.026 36.7546L20.6686 37.6119C20.6146 37.7425 20.516 37.7819 20.3801 37.73L17.9156 36.7796L17.5396 37.6817L19.4103 38.403C19.5499 38.4567 19.6039 38.5641 19.5499 38.6948L19.254 39.4035C19.2018 39.527 19.0864 39.5682 18.9468 39.5145L17.0761 38.7932L16.689 39.7221L19.1534 40.6725C19.3284 40.7406 19.3954 40.882 19.3303 41.0359L18.9934 41.8413C18.9431 41.9612 18.8314 42.0042 18.703 41.9541L14.9784 40.5168C14.8499 40.4667 14.8015 40.3665 14.8536 40.243L16.9645 35.1866Z" fill="#414141"/>
<path d="M24.4776 37.3452C25.1142 37.4794 25.5889 37.7694 25.9016 38.2186C26.2143 38.6643 26.3055 39.1887 26.1659 39.7937C26.03 40.3915 25.7192 40.8282 25.2408 41.1057C24.7624 41.3795 24.2077 41.4511 23.5693 41.3169L22.8545 41.1665L22.4971 42.7291C22.4673 42.8579 22.3687 42.9206 22.2253 42.8902L21.1792 42.67C21.0452 42.6414 20.9857 42.5465 21.0136 42.4176L22.2291 37.0964C22.257 36.9747 22.3631 36.9031 22.4897 36.9299L23.0164 37.0409L23.5469 37.1537L24.4776 37.3452ZM23.8038 40.0103C24.0123 40.055 24.2021 40.0246 24.3678 39.9244C24.5372 39.8241 24.6433 39.6738 24.6898 39.4733C24.7363 39.2729 24.7047 39.0939 24.5949 38.9346C24.4906 38.7717 24.3306 38.6679 24.1221 38.6249L23.4687 38.4871L23.1523 39.8742L23.8038 40.0103Z" fill="#414141"/>
<path d="M31.7775 38.1312C31.9078 38.1383 31.9897 38.2314 31.9822 38.3549L31.6695 43.7996C31.6621 43.9321 31.5783 44.009 31.4405 44.0001L30.3721 43.9428C30.2251 43.9356 30.1469 43.8497 30.1543 43.7173L30.2474 42.0957L29.6257 42.0635L28.6373 43.6708C28.5498 43.8068 28.494 43.8444 28.373 43.8372L27.124 43.771C26.99 43.7638 26.923 43.6314 26.9956 43.5186L28.1738 41.6679C27.5968 41.2956 27.2841 40.671 27.3269 39.9353C27.3623 39.3214 27.5912 38.8382 28.0175 38.4891C28.4437 38.1365 28.9854 37.9808 29.6369 38.0148L31.5038 38.1133L31.7775 38.1312ZM30.32 40.8392L30.4038 39.3769L29.6238 39.3357C29.4061 39.325 29.2236 39.3823 29.0784 39.5076C28.9333 39.6328 28.8532 39.7975 28.8402 40.0069C28.829 40.2163 28.8886 40.3953 29.0189 40.551C29.1529 40.7032 29.3279 40.7855 29.5401 40.7962L30.32 40.8392Z" fill="#414141"/>
<path d="M38.3859 37.5529C38.4901 37.5404 38.5497 37.5869 38.5627 37.6907L39.2514 43.2178C39.2644 43.3216 39.2161 43.3789 39.1137 43.3914L37.9391 43.5274C37.8349 43.54 37.7753 43.4934 37.7623 43.3896L37.4887 41.1935L35.2178 41.4548L35.4914 43.6509C35.5044 43.7548 35.4561 43.812 35.3537 43.8246L34.1829 43.9588C34.0749 43.9713 34.0153 43.9248 34.0023 43.821L33.3136 38.2939C33.3006 38.1901 33.349 38.1328 33.4569 38.1203L34.6277 37.986C34.732 37.9735 34.7915 38.0201 34.8046 38.1239L35.0559 40.141L37.3267 39.8797L37.0755 37.8625C37.0624 37.7587 37.1108 37.7015 37.2132 37.6889L38.3859 37.5529Z" fill="#414141"/>
<path d="M40.2982 38.9776C40.3317 38.5642 40.4396 38.1865 40.6183 37.8464C40.8008 37.5046 41.052 37.1967 41.3741 36.9282C41.6942 36.6562 42.0609 36.4557 42.4779 36.3233C42.8948 36.1908 43.3136 36.1425 43.7362 36.1783C44.1606 36.2087 44.5533 36.3125 44.907 36.4844C45.2644 36.6544 45.5864 36.896 45.8656 37.2092C46.1485 37.5171 46.357 37.8697 46.4947 38.2706C46.6771 38.8022 46.7106 39.3338 46.5971 39.86C46.4836 40.388 46.2434 40.8534 45.8656 41.2579C45.4933 41.6606 45.028 41.947 44.4714 42.1242C44.0545 42.2566 43.6356 42.305 43.2112 42.2745C42.785 42.2405 42.3922 42.1367 42.0349 41.9667C41.6812 41.7949 41.361 41.555 41.08 41.2489C40.8026 40.9393 40.5923 40.5867 40.4564 40.1894C40.3168 39.7884 40.2665 39.3857 40.2982 38.9776ZM42.718 40.6601C43.1256 40.857 43.5519 40.882 43.9968 40.7406C44.4379 40.601 44.7599 40.3361 44.9665 39.9459C45.1713 39.554 45.2048 39.1512 45.0577 38.727C44.9107 38.2993 44.6333 37.9896 44.2257 37.7927C43.8181 37.5959 43.3937 37.5654 42.9544 37.705C42.5132 37.8446 42.1875 38.1131 41.9827 38.5051C41.778 38.8971 41.7463 39.3052 41.8934 39.7312C42.0386 40.1571 42.3122 40.4632 42.718 40.6601Z" fill="#414141"/>
<path d="M50.4468 32.774C50.5473 32.7185 50.672 32.7561 50.7372 32.8635L53.5665 37.5816C53.6279 37.6818 53.5944 37.8124 53.4883 37.8697L52.5502 38.3888C52.4459 38.4478 52.3175 38.4103 52.2561 38.31L51.3012 36.7188C51.1839 37.1037 50.8973 37.4706 50.4933 37.6961C49.8698 38.0415 49.2481 38.131 48.6301 37.9682C48.0103 37.8017 47.5096 37.4026 47.1298 36.769L46.2717 35.3371C46.2103 35.2368 46.2382 35.1044 46.3369 35.0507L47.2676 34.5352C47.383 34.4708 47.5189 34.503 47.5821 34.6104L48.4384 36.0387C48.766 36.5846 49.2965 36.7224 49.8661 36.4074C50.1527 36.2481 50.3277 36.0441 50.404 35.7935C50.4803 35.5429 50.4412 35.2852 50.2849 35.0238L49.4249 33.5884C49.3635 33.4882 49.3951 33.3539 49.4975 33.2984L50.4468 32.774Z" fill="#414141"/>
<path d="M59.7314 32.6003C59.8747 32.6343 59.9436 32.7632 59.8356 32.8563L58.8007 33.7458C58.7356 33.8013 58.6574 33.8264 58.5736 33.8156L55.8876 33.1462L55.2455 33.6975L56.7309 35.2959C56.8035 35.3746 56.7997 35.448 56.7216 35.5142L55.8337 36.2785C55.7518 36.3483 55.6755 36.3447 55.6029 36.266L51.7498 32.1189C51.6809 32.0437 51.6846 31.9703 51.7647 31.9005L52.6526 31.1362C52.7307 31.07 52.8071 31.0736 52.8778 31.1488L54.2924 32.6719L54.795 32.2406L54.5586 29.699C54.5437 29.545 54.5921 29.4824 54.7019 29.3875L55.7276 28.5069C55.843 28.4085 55.9696 28.4837 55.9826 28.643L56.2599 31.7484L59.7314 32.6003Z" fill="#414141"/>
<path d="M64.3453 26.6723C64.4886 26.7063 64.5463 26.8083 64.4533 26.9372L63.7701 27.8715C63.7031 27.9628 63.5747 28.0003 63.4518 27.9717L62.6366 27.7444L61.4173 29.4107L61.9143 30.0658C61.9907 30.1571 61.9962 30.2896 61.9218 30.3898L61.2405 31.3205C61.1512 31.4422 61.0339 31.4369 60.9446 31.3116L57.5959 26.4217C57.5215 26.3071 57.5252 26.1765 57.5922 26.0852L58.1004 25.3907C58.1674 25.2994 58.3014 25.2565 58.4261 25.2869L64.3453 26.6723ZM60.63 28.3762L61.3559 27.3828L59.4778 26.8548L60.63 28.3762Z" fill="#414141"/>
</svg>
