<svg width="126" height="126" viewBox="0 0 126 126" fill="none" xmlns="http://www.w3.org/2000/svg">
<path d="M24.5194 22.9965L10.4019 10.3381C10.1061 10.0728 9.63857 10.1084 9.39888 10.4302C6.53975 14.2426 7.31563 19.9571 11.3042 23.5334C15.2927 27.1097 21.0565 27.2614 24.5368 24.0036C24.8294 23.7292 24.8152 23.2617 24.5194 22.9965Z" fill="white"/>
<path d="M97.6105 109.398L111.728 122.056C112.024 122.322 112.491 122.286 112.731 121.964C115.59 118.152 114.814 112.437 110.826 108.861C106.837 105.285 101.073 105.133 97.5931 108.391C97.3005 108.665 97.3147 109.133 97.6105 109.398Z" fill="white"/>
<path d="M113.539 47.5559L98.857 35.5569C98.5494 35.3055 98.0839 35.3623 97.8592 35.6949C95.1775 39.6341 96.2141 45.3071 100.362 48.6971C104.51 52.0871 110.275 51.9748 113.602 48.5612C113.882 48.2737 113.847 47.8073 113.539 47.5559Z" fill="white"/>
<path d="M18.2988 89.2987L31.6531 75.8376C31.9329 75.5555 31.921 75.0868 31.6116 74.8312C27.9483 71.7834 22.202 72.2701 18.4291 76.0732C14.6561 79.8763 14.214 85.6251 17.2921 89.2653C17.5514 89.5714 18.019 89.5808 18.2988 89.2987Z" fill="white"/>
<path d="M15.4577 58.6614C12.6737 58.9571 9.93613 54.6696 9.34303 49.085C8.74993 43.5004 10.5259 38.7335 13.3099 38.4378C16.0938 38.1421 18.8314 42.4297 19.4245 48.0143C20.0176 53.5989 18.2416 58.3658 15.4577 58.6614Z" fill="white"/>
<path d="M108.286 68.2907C111.069 67.995 113.807 72.2826 114.4 77.8672C114.993 83.4518 113.217 88.2187 110.433 88.5143C107.649 88.81 104.912 84.5225 104.319 78.9379C103.726 73.3532 105.502 68.5863 108.286 68.2907Z" fill="white"/>
<path d="M77.9277 15.4532C79.7381 16.7545 78.5484 21.5062 75.2704 26.0663C71.9925 30.6264 67.8676 33.2682 66.0573 31.9669C64.2469 30.6655 65.4366 25.9139 68.7145 21.3537C71.9924 16.7936 76.1173 14.1518 77.9277 15.4532Z" fill="white"/>
<path d="M50.9882 92.9476C48.7718 92.7062 47.4678 87.9846 48.0758 82.4016C48.6838 76.8186 50.9734 72.4884 53.1899 72.7297C55.4063 72.9711 56.7103 77.6927 56.1023 83.2757C55.4943 88.8587 53.2047 93.1889 50.9882 92.9476Z" fill="white"/>
<path fill-rule="evenodd" clip-rule="evenodd" d="M52.1648 45.3134C53.0922 46.6101 52.7919 48.4107 51.4941 49.335C48.5716 51.4166 44.6386 52.0346 40.9135 50.8242C37.1884 49.6139 34.3704 46.8017 33.2294 43.4008C32.7226 41.8903 33.5379 40.257 35.0503 39.7528C36.5628 39.2487 38.1997 40.0645 38.7066 41.5751C39.245 43.1799 40.6497 44.676 42.6952 45.3406C44.7414 46.0055 46.7571 45.6208 48.1356 44.639C49.4335 43.7147 51.2374 44.0166 52.1648 45.3134Z" fill="white"/>
<path fill-rule="evenodd" clip-rule="evenodd" d="M73.2884 80.7995C72.361 79.5028 72.6612 77.7022 73.959 76.7778C76.8816 74.6963 80.8146 74.0783 84.5396 75.2887C88.2647 76.499 91.0827 79.3112 92.2237 82.7121C92.7305 84.2226 91.9153 85.8559 90.4028 86.3601C88.8903 86.8642 87.2534 86.0484 86.7466 84.5378C86.2082 82.933 84.8034 81.4369 82.7579 80.7723C80.7117 80.1074 78.696 80.4921 77.3175 81.4739C76.0197 82.3982 74.2158 82.0963 73.2884 80.7995Z" fill="white"/>
<path fill-rule="evenodd" clip-rule="evenodd" d="M102.136 12.6122C101.881 11.0384 102.95 9.5586 104.523 9.30697C108.066 8.74031 111.864 9.93371 114.664 12.6728C117.464 15.4119 118.739 19.1831 118.251 22.7369C118.034 24.3154 116.578 25.4165 114.999 25.1964C113.42 24.9762 112.316 23.5181 112.533 21.9396C112.763 20.2627 112.169 18.2983 110.632 16.7942C109.094 15.2896 107.117 14.7388 105.446 15.0061C103.872 15.2578 102.39 14.186 102.136 12.6122Z" fill="white"/>
<path fill-rule="evenodd" clip-rule="evenodd" d="M57.349 113.026C58.4763 114.154 58.4749 115.979 57.3459 117.104C54.8037 119.636 51.025 120.889 47.152 120.305C43.279 119.721 40.0386 117.408 38.3561 114.24C37.6088 112.833 38.1456 111.088 39.5551 110.343C40.9646 109.598 42.713 110.135 43.4603 111.542C44.2543 113.037 45.885 114.283 48.0117 114.604C50.1392 114.925 52.0647 114.215 53.2639 113.021C54.3928 111.896 56.2218 111.899 57.349 113.026Z" fill="white"/>
<path d="M40.3618 14.979C39.6102 13.8585 39.9093 12.341 41.0298 11.5894L52.8985 3.62881C54.019 2.87727 55.5366 3.17636 56.2881 4.29685L58.6355 7.79659C59.387 8.91708 59.0879 10.4347 57.9674 11.1862L46.0987 19.1468C44.9782 19.8984 43.4607 19.5993 42.7091 18.4788L40.3618 14.979Z" fill="white"/>
<path d="M67.1793 101.745C66.8915 100.427 67.7268 99.1253 69.0449 98.8376L83.0072 95.7893C84.3253 95.5015 85.6272 96.3368 85.9149 97.6549L86.8138 101.772C87.1016 103.09 86.2663 104.392 84.9482 104.68L70.9859 107.728C69.6678 108.016 68.3659 107.181 68.0781 105.862L67.1793 101.745Z" fill="white"/>
<path d="M81.2479 62.5707C80.241 63.4688 78.6968 63.3807 77.7987 62.3738L68.2857 51.709C67.3876 50.7021 67.4757 49.1578 68.4826 48.2597L71.6274 45.4546C72.6342 44.5565 74.1785 44.6447 75.0766 45.6515L84.5895 56.3164C85.4876 57.3233 85.3995 58.8675 84.3926 59.7656L81.2479 62.5707Z" fill="white"/>
<path d="M14.8296 99.7789C16.1593 99.5506 17.4223 100.444 17.6506 101.773L20.0685 115.858C20.2967 117.188 19.4038 118.451 18.0741 118.679L13.9208 119.392C12.591 119.621 11.328 118.728 11.0997 117.398L8.68189 103.313C8.45362 101.983 9.34655 100.72 10.6763 100.492L14.8296 99.7789Z" fill="white"/>
</svg>
