<svg width="146" height="20" viewBox="0 0 146 20" fill="none" xmlns="http://www.w3.org/2000/svg">
<path d="M19.7556 0.841949L19.8178 3.96749C19.8178 8.74634 19.4224 13.8343 18.6318 19.2252H11.1725C11.6507 15.2313 11.8907 11.2598 11.8907 7.31272C11.8907 5.94008 11.8596 4.57962 11.7974 3.23137H11.2675C10.0815 3.23137 9.09235 3.30455 8.30171 3.45096V4.6284C8.30171 9.55569 7.94782 14.42 7.24004 19.2252H0.124293C0.416035 16.602 0.561043 13.7346 0.561043 10.6213C0.561043 7.5079 0.374604 4.24815 0 0.841949H19.7556Z" fill="#D20D21"/>
<path d="M37.1076 8.23184L40.0405 8.45148C40.3323 8.45148 40.5498 8.4393 40.6965 8.41489L39.2292 11.6503H38.9478C38.5525 11.6503 37.9897 11.5222 37.2629 11.2639C36.5345 11.0056 36.0148 10.8775 35.7024 10.8775C34.8496 10.8775 34.1729 11.5282 33.674 12.8257C33.5911 14.0275 33.529 15.2273 33.4876 16.4291C34.5699 16.6752 35.4227 16.7972 36.0476 16.7972H36.329C37.2232 16.7972 37.9362 16.5654 38.4662 16.0977C38.9961 15.632 39.3759 14.7982 39.6055 13.5984L43.3516 13.7814C43.0391 15.8902 42.6231 17.7041 42.1035 19.2232H26.7792C26.3632 15.9146 26.1543 12.6304 26.1543 9.37065C26.1543 6.11087 26.2993 3.26798 26.591 0.841949H43.3205C42.9459 3.48963 42.6127 5.35236 42.321 6.43015C41.0936 6.50335 39.9698 6.55215 38.9495 6.57656C39.1153 6.01326 39.1998 5.48657 39.1998 4.99648C39.1998 3.81906 38.4506 3.23137 36.9522 3.23137C36.3912 3.23137 35.7663 3.30455 35.0792 3.45096C34.6217 5.77938 34.2678 7.82517 34.0175 9.59029C34.8513 8.68536 35.8802 8.23184 37.1076 8.23184Z" fill="#D20D21"/>
<path d="M68.3503 19.2252H61.1413C60.7667 14.2979 59.705 9.92375 57.958 6.10068C56.8342 9.11643 56.2732 11.8862 56.2732 14.4098C56.2732 16.1261 56.5442 17.7306 57.0845 19.2252H48.9692C48.8242 18.2207 48.75 16.8724 48.75 15.1805C48.75 13.4886 48.9468 11.8475 49.3438 10.2532C50.863 9.73873 52.3182 8.86224 53.7131 7.6238C55.1062 6.38741 56.1057 5.06764 56.7099 3.67059C56.2524 2.81243 55.6586 1.86888 54.9301 0.839905H65.2602C67.3197 6.06207 68.3503 12.1912 68.3503 19.2252Z" fill="#D20D21"/>
<path d="M74.0609 19.2252C73.5827 16.8724 73.3428 13.8079 73.3428 10.0336C73.3428 6.25932 73.6345 3.19477 74.2163 0.841949H81.9259C81.5927 3.17037 81.3735 5.26694 81.2699 7.12968C84.9106 7.61976 88.1457 8.69753 90.9768 10.365C90.9146 13.6248 90.5815 16.5776 89.9773 19.2252H74.0609ZM81.2095 9.66551C81.2095 12.2644 81.4701 14.6416 81.9897 16.7972C83.0721 15.2293 83.7575 13.1815 84.0492 10.6579C83.1325 10.0946 82.1865 9.76515 81.2095 9.66551ZM100.653 4.59181C100.653 9.71432 100.299 14.5928 99.591 19.2252H92.5063C92.7756 16.8236 92.912 13.9502 92.912 10.603C92.912 7.2578 92.7255 4.00412 92.3509 0.841949H100.59C100.632 2.50946 100.653 3.76008 100.653 4.59181Z" fill="#D20D21"/>
<path d="M118.411 3.08495C117.683 2.93853 116.98 2.86531 116.305 2.86531C115.629 2.86531 114.812 2.99952 113.856 3.26998C113.543 4.81345 113.388 6.32234 113.388 7.7926C113.388 11.5913 114.824 14.5094 117.695 16.543C119.609 15.0483 121.336 13.1856 122.875 10.9548C122.938 11.935 122.989 13.4317 123.031 15.4408C121.491 16.8623 119.92 17.9787 118.318 18.786C116.716 19.5953 114.719 20 112.326 20H111.608C109.735 19.0442 108.262 17.635 107.192 15.7723C106.12 13.9095 105.585 11.9492 105.585 9.8892C105.585 7.14391 106.541 4.8094 108.456 2.88566C110.37 0.961923 113.148 1.52588e-05 116.789 1.52588e-05C118.827 1.52588e-05 120.959 0.307086 123.186 0.919185C122.853 2.46265 122.437 3.92274 121.938 5.29336C120.628 5.43977 119.274 5.513 117.881 5.513C118.088 4.82566 118.266 4.01631 118.411 3.08495Z" fill="#D20D21"/>
<path d="M129.023 19.2252C128.524 16.7748 128.273 13.7041 128.273 10.0153C128.273 6.32641 128.576 3.26798 129.178 0.841949H136.857C136.523 3.12156 136.306 5.20595 136.201 7.09309C139.841 7.58317 143.076 8.66094 145.907 10.3284C145.845 13.6126 145.523 16.5796 144.941 19.2252H129.023ZM136.138 9.62892C136.138 12.2034 136.399 14.5806 136.919 16.7606C138.022 15.1419 138.707 13.0961 138.978 10.6213C138.063 10.058 137.117 9.72856 136.138 9.62892Z" fill="#D20D21"/>
</svg>
