<svg width="192" height="44" viewBox="0 0 192 44" fill="none" xmlns="http://www.w3.org/2000/svg">
<g clip-path="url(#clip0_256_1942)">
<rect width="192" height="40" rx="5" fill="#D80000"/>
<path fill-rule="evenodd" clip-rule="evenodd" d="M17.5 20C17.5 14.201 22.201 9.5 28 9.5C33.799 9.5 38.5 14.201 38.5 20C38.5 25.799 33.799 30.5 28 30.5C22.201 30.5 17.5 25.799 17.5 20ZM28 10.5C22.7533 10.5 18.5 14.7533 18.5 20C18.5 25.2467 22.7533 29.5 28 29.5C33.2467 29.5 37.5 25.2467 37.5 20C37.5 14.7533 33.2467 10.5 28 10.5Z" fill="#F2F2F2"/>
<path fill-rule="evenodd" clip-rule="evenodd" d="M28 15.5C28.2761 15.5 28.5 15.7239 28.5 16V20C28.5 20.2761 28.2761 20.5 28 20.5C27.7239 20.5 27.5 20.2761 27.5 20V16C27.5 15.7239 27.7239 15.5 28 15.5Z" fill="#F2F2F2"/>
<path d="M29 24C29 24.5523 28.5523 25 28 25C27.4477 25 27 24.5523 27 24C27 23.4477 27.4477 23 28 23C28.5523 23 29 23.4477 29 24Z" fill="#F2F2F2"/>
<path d="M57.7119 25C57.6185 25 57.5392 24.972 57.4739 24.916C57.4179 24.8507 57.3899 24.7713 57.3899 24.678V15.536C57.3899 15.4333 57.4179 15.354 57.4739 15.298C57.5392 15.2327 57.6185 15.2 57.7119 15.2H58.4259C58.5285 15.2 58.6079 15.2327 58.6639 15.298C58.7292 15.354 58.7619 15.4333 58.7619 15.536V19.4H63.5779V15.536C63.5779 15.4333 63.6059 15.354 63.6619 15.298C63.7272 15.2327 63.8065 15.2 63.8999 15.2H64.6139C64.7165 15.2 64.7959 15.2327 64.8519 15.298C64.9172 15.354 64.9499 15.4333 64.9499 15.536V24.678C64.9499 24.7713 64.9172 24.8507 64.8519 24.916C64.7865 24.972 64.7072 25 64.6139 25H63.8999C63.8065 25 63.7272 24.972 63.6619 24.916C63.6059 24.8507 63.5779 24.7713 63.5779 24.678V20.66H58.7619V24.678C58.7619 24.7713 58.7292 24.8507 58.6639 24.916C58.5985 24.972 58.5192 25 58.4259 25H57.7119ZM70.114 25.14C69.1527 25.14 68.3827 24.846 67.804 24.258C67.2347 23.6607 66.922 22.8487 66.866 21.822L66.852 21.346L66.866 20.884C66.9313 19.876 67.2487 19.0733 67.818 18.476C68.3967 17.8787 69.1573 17.58 70.1 17.58C71.136 17.58 71.9387 17.9113 72.508 18.574C73.0773 19.2273 73.362 20.114 73.362 21.234V21.472C73.362 21.5653 73.3293 21.6447 73.264 21.71C73.208 21.766 73.1333 21.794 73.04 21.794H68.196V21.92C68.224 22.5267 68.406 23.0447 68.742 23.474C69.0873 23.894 69.54 24.104 70.1 24.104C70.5293 24.104 70.8793 24.02 71.15 23.852C71.43 23.6747 71.6353 23.4927 71.766 23.306C71.85 23.194 71.9107 23.1287 71.948 23.11C71.9947 23.082 72.074 23.068 72.186 23.068H72.872C72.956 23.068 73.026 23.0913 73.082 23.138C73.138 23.1847 73.166 23.25 73.166 23.334C73.166 23.5393 73.0353 23.7867 72.774 24.076C72.522 24.3653 72.1627 24.6173 71.696 24.832C71.2387 25.0373 70.7113 25.14 70.114 25.14ZM72.032 20.828V20.786C72.032 20.142 71.8547 19.6193 71.5 19.218C71.1547 18.8073 70.688 18.602 70.1 18.602C69.512 18.602 69.0453 18.8073 68.7 19.218C68.364 19.6193 68.196 20.142 68.196 20.786V20.828H72.032ZM75.358 25C75.2647 25 75.1853 24.972 75.12 24.916C75.064 24.8507 75.036 24.7713 75.036 24.678V18.042C75.036 17.9487 75.064 17.874 75.12 17.818C75.1853 17.7527 75.2647 17.72 75.358 17.72H78.27C79.1287 17.72 79.782 17.8973 80.23 18.252C80.6873 18.5973 80.916 19.0733 80.916 19.68C80.916 20.0813 80.8413 20.394 80.692 20.618C80.5427 20.8327 80.314 21.0193 80.006 21.178C80.342 21.318 80.6033 21.5513 80.79 21.878C80.986 22.2047 81.084 22.5547 81.084 22.928C81.084 23.6 80.846 24.1133 80.37 24.468C79.9033 24.8227 79.2407 25 78.382 25H75.358ZM78.186 20.814C78.6433 20.814 79.0027 20.716 79.264 20.52C79.5253 20.324 79.656 20.0487 79.656 19.694C79.656 19.3487 79.53 19.106 79.278 18.966C79.026 18.8167 78.662 18.742 78.186 18.742H76.324V20.814H78.186ZM78.27 23.978C78.7367 23.978 79.1007 23.8893 79.362 23.712C79.6327 23.5347 79.768 23.2733 79.768 22.928C79.768 22.5547 79.6467 22.284 79.404 22.116C79.1613 21.9387 78.7833 21.85 78.27 21.85H76.324V23.978H78.27ZM85.7957 25.14C84.8343 25.14 84.0643 24.846 83.4857 24.258C82.9163 23.6607 82.6037 22.8487 82.5477 21.822L82.5337 21.346L82.5477 20.884C82.613 19.876 82.9303 19.0733 83.4997 18.476C84.0783 17.8787 84.839 17.58 85.7817 17.58C86.8177 17.58 87.6203 17.9113 88.1897 18.574C88.759 19.2273 89.0437 20.114 89.0437 21.234V21.472C89.0437 21.5653 89.011 21.6447 88.9457 21.71C88.8897 21.766 88.815 21.794 88.7217 21.794H83.8777V21.92C83.9057 22.5267 84.0877 23.0447 84.4237 23.474C84.769 23.894 85.2217 24.104 85.7817 24.104C86.211 24.104 86.561 24.02 86.8317 23.852C87.1117 23.6747 87.317 23.4927 87.4477 23.306C87.5317 23.194 87.5923 23.1287 87.6297 23.11C87.6763 23.082 87.7557 23.068 87.8677 23.068H88.5537C88.6377 23.068 88.7077 23.0913 88.7637 23.138C88.8197 23.1847 88.8477 23.25 88.8477 23.334C88.8477 23.5393 88.717 23.7867 88.4557 24.076C88.2037 24.3653 87.8443 24.6173 87.3777 24.832C86.9203 25.0373 86.393 25.14 85.7957 25.14ZM87.7137 20.828V20.786C87.7137 20.142 87.5363 19.6193 87.1817 19.218C86.8363 18.8073 86.3697 18.602 85.7817 18.602C85.1937 18.602 84.727 18.8073 84.3817 19.218C84.0457 19.6193 83.8777 20.142 83.8777 20.786V20.828H87.7137ZM91.0536 27.66C90.9603 27.66 90.881 27.6273 90.8156 27.562C90.7596 27.506 90.7316 27.4313 90.7316 27.338V18.042C90.7316 17.9487 90.7596 17.874 90.8156 17.818C90.881 17.7527 90.9603 17.72 91.0536 17.72H91.6976C91.791 17.72 91.8656 17.7527 91.9216 17.818C91.987 17.874 92.0196 17.9487 92.0196 18.042V18.658C92.5423 17.9393 93.3076 17.58 94.3156 17.58C95.2956 17.58 96.0283 17.888 96.5136 18.504C97.0083 19.12 97.2743 19.9133 97.3116 20.884C97.321 20.9867 97.3256 21.1453 97.3256 21.36C97.3256 21.5747 97.321 21.7333 97.3116 21.836C97.2743 22.7973 97.0083 23.5907 96.5136 24.216C96.019 24.832 95.2863 25.14 94.3156 25.14C93.345 25.14 92.589 24.79 92.0476 24.09V27.338C92.0476 27.4313 92.0196 27.506 91.9636 27.562C91.9076 27.6273 91.833 27.66 91.7396 27.66H91.0536ZM94.0216 24.006C94.6843 24.006 95.165 23.8007 95.4636 23.39C95.7716 22.9793 95.9396 22.438 95.9676 21.766C95.977 21.6727 95.9816 21.5373 95.9816 21.36C95.9816 19.596 95.3283 18.714 94.0216 18.714C93.3776 18.714 92.8923 18.9287 92.5656 19.358C92.2483 19.778 92.0756 20.282 92.0476 20.87L92.0336 21.402L92.0476 21.948C92.0663 22.4987 92.2436 22.9793 92.5796 23.39C92.9156 23.8007 93.3963 24.006 94.0216 24.006ZM99.3795 25C99.2862 25 99.2068 24.972 99.1415 24.916C99.0855 24.8507 99.0575 24.7713 99.0575 24.678V18.042C99.0575 17.9487 99.0855 17.874 99.1415 17.818C99.2068 17.7527 99.2862 17.72 99.3795 17.72H100.051C100.145 17.72 100.219 17.7527 100.275 17.818C100.341 17.874 100.373 17.9487 100.373 18.042V20.73H104.181V18.042C104.181 17.9487 104.209 17.874 104.265 17.818C104.331 17.7527 104.41 17.72 104.503 17.72H105.161C105.255 17.72 105.329 17.7527 105.385 17.818C105.451 17.874 105.483 17.9487 105.483 18.042V24.678C105.483 24.7713 105.451 24.8507 105.385 24.916C105.329 24.972 105.255 25 105.161 25H104.503C104.41 25 104.331 24.972 104.265 24.916C104.209 24.8507 104.181 24.7713 104.181 24.678V21.85H100.373V24.678C100.373 24.7713 100.341 24.8507 100.275 24.916C100.219 24.972 100.145 25 100.051 25H99.3795ZM107.911 25C107.817 25 107.738 24.972 107.673 24.916C107.617 24.8507 107.589 24.7713 107.589 24.678V18.042C107.589 17.9487 107.617 17.874 107.673 17.818C107.738 17.7527 107.817 17.72 107.911 17.72H108.583C108.676 17.72 108.751 17.7527 108.807 17.818C108.872 17.874 108.905 17.9487 108.905 18.042V20.1H110.361C111.285 20.1 111.971 20.3193 112.419 20.758C112.876 21.1873 113.105 21.7987 113.105 22.592C113.105 23.4133 112.862 24.02 112.377 24.412C111.901 24.804 111.173 25 110.193 25H107.911ZM114.421 25C114.327 25 114.248 24.972 114.183 24.916C114.127 24.8507 114.099 24.7713 114.099 24.678V18.042C114.099 17.9487 114.127 17.874 114.183 17.818C114.248 17.7527 114.327 17.72 114.421 17.72H115.093C115.186 17.72 115.261 17.7527 115.317 17.818C115.382 17.874 115.415 17.9487 115.415 18.042V24.678C115.415 24.7713 115.382 24.8507 115.317 24.916C115.261 24.972 115.186 25 115.093 25H114.421ZM110.235 23.95C110.813 23.95 111.229 23.8473 111.481 23.642C111.742 23.4367 111.873 23.0867 111.873 22.592C111.873 22.0973 111.742 21.7333 111.481 21.5C111.229 21.2667 110.813 21.15 110.235 21.15H108.891V23.95H110.235ZM123.689 17.72C123.764 17.72 123.829 17.748 123.885 17.804C123.95 17.86 123.983 17.9253 123.983 18V24.678C123.983 24.7713 123.95 24.8507 123.885 24.916C123.829 24.972 123.754 25 123.661 25H123.003C122.91 25 122.83 24.972 122.765 24.916C122.709 24.8507 122.681 24.7713 122.681 24.678V19.596L118.803 24.79C118.7 24.93 118.579 25 118.439 25H117.809C117.725 25 117.65 24.972 117.585 24.916C117.529 24.8507 117.501 24.7807 117.501 24.706V18.042C117.501 17.9487 117.529 17.874 117.585 17.818C117.65 17.7527 117.73 17.72 117.823 17.72H118.495C118.588 17.72 118.663 17.7527 118.719 17.818C118.784 17.874 118.817 17.9487 118.817 18.042V23.096L122.681 17.93C122.784 17.79 122.905 17.72 123.045 17.72H123.689ZM120.777 16.754C120.03 16.754 119.494 16.5907 119.167 16.264C118.84 15.9373 118.677 15.5173 118.677 15.004C118.677 14.9293 118.7 14.8687 118.747 14.822C118.794 14.766 118.859 14.738 118.943 14.738H119.419C119.503 14.738 119.568 14.766 119.615 14.822C119.662 14.8687 119.685 14.9293 119.685 15.004C119.685 15.592 120.049 15.886 120.777 15.886C121.505 15.886 121.869 15.592 121.869 15.004C121.869 14.9293 121.892 14.8687 121.939 14.822C121.986 14.766 122.051 14.738 122.135 14.738H122.625C122.709 14.738 122.774 14.766 122.821 14.822C122.868 14.8687 122.891 14.9293 122.891 15.004C122.891 15.508 122.723 15.928 122.387 16.264C122.06 16.5907 121.524 16.754 120.777 16.754ZM129.786 25C129.692 25 129.613 24.972 129.548 24.916C129.492 24.8507 129.464 24.7713 129.464 24.678V18.042C129.464 17.9487 129.492 17.874 129.548 17.818C129.613 17.7527 129.692 17.72 129.786 17.72H135.344C135.437 17.72 135.512 17.7527 135.568 17.818C135.633 17.874 135.666 17.9487 135.666 18.042V24.678C135.666 24.7713 135.633 24.8507 135.568 24.916C135.512 24.972 135.437 25 135.344 25H134.672C134.578 25 134.504 24.972 134.448 24.916C134.392 24.8507 134.364 24.7713 134.364 24.678V18.84H130.78V24.678C130.78 24.7713 130.747 24.8507 130.682 24.916C130.626 24.972 130.551 25 130.458 25H129.786ZM139.779 25.14C139.322 25.14 138.897 25.0467 138.505 24.86C138.113 24.6733 137.8 24.4213 137.567 24.104C137.343 23.7773 137.231 23.418 137.231 23.026C137.231 22.41 137.483 21.906 137.987 21.514C138.5 21.1127 139.191 20.8513 140.059 20.73L142.145 20.436V20.03C142.145 19.078 141.599 18.602 140.507 18.602C140.096 18.602 139.76 18.6907 139.499 18.868C139.238 19.036 139.042 19.2367 138.911 19.47C138.883 19.554 138.846 19.6147 138.799 19.652C138.762 19.6893 138.706 19.708 138.631 19.708H138.029C137.945 19.708 137.87 19.68 137.805 19.624C137.749 19.5587 137.721 19.484 137.721 19.4C137.73 19.176 137.833 18.924 138.029 18.644C138.234 18.3547 138.547 18.1073 138.967 17.902C139.387 17.6873 139.905 17.58 140.521 17.58C141.566 17.58 142.318 17.8273 142.775 18.322C143.232 18.8073 143.461 19.414 143.461 20.142V24.678C143.461 24.7713 143.428 24.8507 143.363 24.916C143.307 24.972 143.232 25 143.139 25H142.495C142.402 25 142.322 24.972 142.257 24.916C142.201 24.8507 142.173 24.7713 142.173 24.678V24.076C141.968 24.3747 141.669 24.6267 141.277 24.832C140.885 25.0373 140.386 25.14 139.779 25.14ZM140.073 24.09C140.68 24.09 141.174 23.894 141.557 23.502C141.949 23.1007 142.145 22.5267 142.145 21.78V21.388L140.521 21.626C139.858 21.7193 139.359 21.878 139.023 22.102C138.687 22.3167 138.519 22.592 138.519 22.928C138.519 23.3013 138.673 23.5907 138.981 23.796C139.289 23.992 139.653 24.09 140.073 24.09ZM145.81 27.66C145.716 27.66 145.637 27.6273 145.572 27.562C145.516 27.506 145.488 27.4313 145.488 27.338V18.042C145.488 17.9487 145.516 17.874 145.572 17.818C145.637 17.7527 145.716 17.72 145.81 17.72H146.454C146.547 17.72 146.622 17.7527 146.678 17.818C146.743 17.874 146.776 17.9487 146.776 18.042V18.658C147.298 17.9393 148.064 17.58 149.072 17.58C150.052 17.58 150.784 17.888 151.27 18.504C151.764 19.12 152.03 19.9133 152.068 20.884C152.077 20.9867 152.082 21.1453 152.082 21.36C152.082 21.5747 152.077 21.7333 152.068 21.836C152.03 22.7973 151.764 23.5907 151.27 24.216C150.775 24.832 150.042 25.14 149.072 25.14C148.101 25.14 147.345 24.79 146.804 24.09V27.338C146.804 27.4313 146.776 27.506 146.72 27.562C146.664 27.6273 146.589 27.66 146.495 27.66H145.81ZM148.778 24.006C149.44 24.006 149.921 23.8007 150.22 23.39C150.528 22.9793 150.696 22.438 150.724 21.766C150.733 21.6727 150.738 21.5373 150.738 21.36C150.738 19.596 150.084 18.714 148.778 18.714C148.134 18.714 147.648 18.9287 147.322 19.358C147.004 19.778 146.832 20.282 146.804 20.87L146.79 21.402L146.804 21.948C146.822 22.4987 147 22.9793 147.336 23.39C147.672 23.8007 148.152 24.006 148.778 24.006ZM156.795 25.14C155.769 25.14 154.971 24.8507 154.401 24.272C153.841 23.6933 153.543 22.9233 153.505 21.962L153.491 21.36L153.505 20.758C153.543 19.806 153.846 19.0407 154.415 18.462C154.985 17.874 155.778 17.58 156.795 17.58C157.813 17.58 158.606 17.874 159.175 18.462C159.745 19.0407 160.048 19.806 160.085 20.758C160.095 20.8607 160.099 21.0613 160.099 21.36C160.099 21.6587 160.095 21.8593 160.085 21.962C160.048 22.9233 159.745 23.6933 159.175 24.272C158.615 24.8507 157.822 25.14 156.795 25.14ZM156.795 24.062C157.383 24.062 157.845 23.8753 158.181 23.502C158.527 23.1287 158.713 22.592 158.741 21.892C158.751 21.7987 158.755 21.6213 158.755 21.36C158.755 21.0987 158.751 20.9213 158.741 20.828C158.713 20.128 158.527 19.5913 158.181 19.218C157.845 18.8447 157.383 18.658 156.795 18.658C156.207 18.658 155.741 18.8447 155.395 19.218C155.05 19.5913 154.868 20.128 154.849 20.828L154.835 21.36L154.849 21.892C154.868 22.592 155.05 23.1287 155.395 23.502C155.741 23.8753 156.207 24.062 156.795 24.062ZM161.379 25C161.286 25 161.207 24.9673 161.141 24.902C161.076 24.8367 161.043 24.7573 161.043 24.664V24.146C161.043 24.0527 161.071 23.978 161.127 23.922C161.183 23.866 161.253 23.838 161.337 23.838C161.785 23.8193 162.117 23.502 162.331 22.886C162.555 22.2607 162.667 21.2433 162.667 19.834V18.042C162.667 17.9487 162.695 17.874 162.751 17.818C162.817 17.7527 162.896 17.72 162.989 17.72H167.441C167.535 17.72 167.609 17.7527 167.665 17.818C167.731 17.874 167.763 17.9487 167.763 18.042V24.678C167.763 24.7713 167.731 24.8507 167.665 24.916C167.609 24.972 167.535 25 167.441 25H166.769C166.676 25 166.601 24.972 166.545 24.916C166.489 24.8507 166.461 24.7713 166.461 24.678V18.84H163.941V19.988C163.941 21.7707 163.736 23.054 163.325 23.838C162.915 24.6127 162.266 25 161.379 25ZM170.172 25C170.079 25 170 24.972 169.934 24.916C169.878 24.8507 169.85 24.7713 169.85 24.678V18.042C169.85 17.9487 169.878 17.874 169.934 17.818C170 17.7527 170.079 17.72 170.172 17.72H170.844C170.938 17.72 171.012 17.7527 171.068 17.818C171.134 17.874 171.166 17.9487 171.166 18.042V20.1H172.734C173.658 20.1 174.344 20.3193 174.792 20.758C175.25 21.1873 175.478 21.7987 175.478 22.592C175.478 23.4133 175.236 24.02 174.75 24.412C174.274 24.804 173.546 25 172.566 25H170.172ZM172.622 23.95C173.192 23.95 173.602 23.8473 173.854 23.642C174.116 23.4367 174.246 23.0867 174.246 22.592C174.246 22.0973 174.116 21.7333 173.854 21.5C173.602 21.2667 173.192 21.15 172.622 21.15H171.152V23.95H172.622Z" fill="#F2F2F2"/>
<path d="M96 44L90 40L102 40L96 44Z" fill="#D80000"/>
</g>
<defs>
<clipPath id="clip0_256_1942">
<rect width="192" height="44" fill="white"/>
</clipPath>
</defs>
</svg>
