<svg width="24" height="24" viewBox="0 0 24 24" fill="none" xmlns="http://www.w3.org/2000/svg">
<path fill-rule="evenodd" clip-rule="evenodd" d="M12.6464 6.64645C12.8417 6.45118 13.1583 6.45118 13.3536 6.64645L18.3536 11.6464C18.5488 11.8417 18.5488 12.1583 18.3536 12.3536L13.3536 17.3536C13.1583 17.5488 12.8417 17.5488 12.6464 17.3536C12.4512 17.1583 12.4512 16.8417 12.6464 16.6464L17.2929 12L12.6464 7.35355C12.4512 7.15829 12.4512 6.84171 12.6464 6.64645Z" fill="#414141"/>
<path fill-rule="evenodd" clip-rule="evenodd" d="M5.64645 6.64645C5.84171 6.45118 6.15829 6.45118 6.35355 6.64645L11.3536 11.6464C11.5488 11.8417 11.5488 12.1583 11.3536 12.3536L6.35355 17.3536C6.15829 17.5488 5.84171 17.5488 5.64645 17.3536C5.45118 17.1583 5.45118 16.8417 5.64645 16.6464L10.2929 12L5.64645 7.35355C5.45118 7.15829 5.45118 6.84171 5.64645 6.64645Z" fill="#414141"/>
</svg>
