<svg width="252" height="200" viewBox="0 0 252 200" fill="none" xmlns="http://www.w3.org/2000/svg">
<path d="M49.0369 19.9929L20.8019 -5.32389C20.2103 -5.85432 19.2752 -5.78329 18.7958 -5.13951C13.0775 2.48524 14.6293 13.9142 22.6064 21.0668C30.5835 28.2194 42.111 28.5227 49.0716 22.0072C49.6569 21.4584 49.6285 20.5234 49.0369 19.9929Z" fill="#FF6633"/>
<path d="M195.221 192.796L223.456 218.113C224.047 218.643 224.983 218.572 225.462 217.928C231.18 210.304 229.629 198.875 221.651 191.722C213.674 184.569 202.147 184.266 195.186 190.782C194.601 191.33 194.629 192.265 195.221 192.796Z" fill="#FF6633"/>
<path d="M227.078 69.1119L197.714 45.1137C197.099 44.6109 196.168 44.7247 195.718 45.3897C190.355 53.2682 192.428 64.6141 200.724 71.3942C209.02 78.1743 220.55 77.9497 227.205 71.1224C227.764 70.5474 227.693 69.6147 227.078 69.1119Z" fill="#FF6633"/>
<path d="M36.5957 152.597L63.3043 125.675C63.8639 125.111 63.8401 124.173 63.2213 123.662C55.8946 117.567 44.402 118.54 36.8561 126.146C29.3103 133.753 28.426 145.25 34.5823 152.53C35.1009 153.143 36.0361 153.161 36.5957 152.597Z" fill="#FF6633"/>
<path d="M30.9173 91.3229C25.3494 91.9142 19.8742 83.3391 18.688 72.1699C17.5018 61.0007 21.0538 51.4669 26.6217 50.8756C32.1895 50.2843 37.6647 58.8594 38.8509 70.0286C40.0371 81.1978 36.4851 90.7316 30.9173 91.3229Z" fill="#FCA21C"/>
<path d="M216.571 110.581C222.139 109.99 227.614 118.565 228.8 129.734C229.986 140.903 226.434 150.437 220.867 151.029C215.299 151.62 209.824 143.045 208.637 131.876C207.451 120.706 211.003 111.173 216.571 110.581Z" fill="#FCA21C"/>
<path d="M155.855 4.90633C159.476 7.509 157.097 17.0123 150.541 26.1326C143.985 35.2529 135.735 40.5364 132.115 37.9337C128.494 35.3311 130.873 25.8278 137.429 16.7075C143.985 7.58722 152.235 2.30366 155.855 4.90633Z" fill="#FCA21C"/>
<path d="M101.976 159.895C97.5436 159.412 94.9357 149.969 96.1516 138.803C97.3676 127.637 101.947 118.977 106.38 119.459C110.813 119.942 113.421 129.385 112.205 140.551C110.989 151.717 106.409 160.378 101.976 159.895Z" fill="#FCA21C"/>
<path fill-rule="evenodd" clip-rule="evenodd" d="M104.33 64.6266C106.184 67.2202 105.584 70.8213 102.988 72.67C97.1432 76.833 89.2771 78.069 81.827 75.6483C74.3768 73.2277 68.7409 67.6034 66.4589 60.8016C65.4452 57.7804 67.0757 54.5139 70.1007 53.5055C73.1256 52.4972 76.3995 54.1289 77.4131 57.1501C78.49 60.3597 81.2994 63.3519 85.3904 64.6811C89.4828 66.0108 93.5143 65.2415 96.2713 63.2779C98.8669 61.4292 102.475 62.0331 104.33 64.6266Z" fill="#70C05B"/>
<path fill-rule="evenodd" clip-rule="evenodd" d="M146.577 135.599C144.722 133.006 145.322 129.404 147.918 127.556C153.763 123.393 161.629 122.157 169.079 124.577C176.529 126.998 182.165 132.622 184.447 139.424C185.461 142.445 183.831 145.712 180.806 146.72C177.781 147.729 174.507 146.097 173.493 143.076C172.416 139.866 169.607 136.874 165.516 135.545C161.423 134.215 157.392 134.984 154.635 136.948C152.039 138.797 148.432 138.193 146.577 135.599Z" fill="#70C05B"/>
<path fill-rule="evenodd" clip-rule="evenodd" d="M204.273 -0.775652C203.763 -3.92321 205.901 -6.8828 209.048 -7.38607C216.134 -8.51938 223.73 -6.13258 229.33 -0.654449C234.929 4.82377 237.48 12.3662 236.503 19.4738C236.069 22.6308 233.157 24.8331 229.999 24.3928C226.841 23.9524 224.633 21.0362 225.067 17.8793C225.528 14.5253 224.34 10.5966 221.265 7.58844C218.19 4.57929 214.236 3.4777 210.894 4.01226C207.747 4.51553 204.783 2.37191 204.273 -0.775652Z" fill="#70C05B"/>
<path fill-rule="evenodd" clip-rule="evenodd" d="M114.7 200.053C116.954 202.308 116.952 205.959 114.694 208.207C109.609 213.271 102.052 215.779 94.3059 214.611C86.5599 213.443 80.0791 208.817 76.7141 202.481C75.2195 199.666 76.2931 196.177 79.1121 194.687C81.9311 193.197 85.428 194.27 86.9226 197.085C88.5105 200.075 91.7719 202.567 96.0254 203.208C100.28 203.85 104.131 202.431 106.53 200.042C108.788 197.793 112.446 197.798 114.7 200.053Z" fill="#70C05B"/>
<path d="M80.7255 3.95806C79.2224 1.71707 79.8206 -1.3181 82.0616 -2.82118L105.799 -18.7424C108.04 -20.2455 111.075 -19.6473 112.578 -17.4063L117.273 -10.4068C118.776 -8.16583 118.178 -5.13066 115.937 -3.62758L92.1994 12.2936C89.9584 13.7967 86.9233 13.1985 85.4202 10.9575L80.7255 3.95806Z" fill="#1CB9FC"/>
<path d="M134.359 177.491C133.783 174.854 135.454 172.251 138.09 171.675L166.014 165.579C168.651 165.003 171.254 166.674 171.83 169.31L173.628 177.544C174.203 180.18 172.533 182.784 169.896 183.36L141.972 189.456C139.336 190.032 136.732 188.361 136.156 185.725L134.359 177.491Z" fill="#1CB9FC"/>
<path d="M162.498 99.1414C160.484 100.938 157.395 100.761 155.599 98.7476L136.573 77.4178C134.777 75.4041 134.953 72.3156 136.967 70.5194L143.257 64.9091C145.27 63.113 148.359 63.2893 150.155 65.303L169.181 86.6327C170.977 88.6464 170.801 91.735 168.787 93.5312L162.498 99.1414Z" fill="#1CB9FC"/>
<path d="M29.6572 173.558C32.3167 173.101 34.8427 174.887 35.2993 177.547L40.135 205.717C40.5915 208.376 38.8057 210.902 36.1462 211.359L27.8396 212.785C25.1801 213.241 22.6541 211.455 22.1975 208.796L17.3618 180.626C16.9053 177.966 18.6911 175.44 21.3506 174.984L29.6572 173.558Z" fill="#1CB9FC"/>
</svg>
