<svg width="25" height="24" viewBox="0 0 25 24" fill="none" xmlns="http://www.w3.org/2000/svg">
<path fill-rule="evenodd" clip-rule="evenodd" d="M6.25 21C6.25 19.6193 7.36929 18.5 8.75 18.5C10.1307 18.5 11.25 19.6193 11.25 21C11.25 22.3807 10.1307 23.5 8.75 23.5C7.36929 23.5 6.25 22.3807 6.25 21ZM8.75 19.5C7.92157 19.5 7.25 20.1716 7.25 21C7.25 21.8284 7.92157 22.5 8.75 22.5C9.57843 22.5 10.25 21.8284 10.25 21C10.25 20.1716 9.57843 19.5 8.75 19.5Z" fill="#414141"/>
<path fill-rule="evenodd" clip-rule="evenodd" d="M18.25 21C18.25 19.6193 19.3693 18.5 20.75 18.5C22.1307 18.5 23.25 19.6193 23.25 21C23.25 22.3807 22.1307 23.5 20.75 23.5C19.3693 23.5 18.25 22.3807 18.25 21ZM20.75 19.5C19.9216 19.5 19.25 20.1716 19.25 21C19.25 21.8284 19.9216 22.5 20.75 22.5C21.5784 22.5 22.25 21.8284 22.25 21C22.25 20.1716 21.5784 19.5 20.75 19.5Z" fill="#414141"/>
<path fill-rule="evenodd" clip-rule="evenodd" d="M1.75 0.5C1.47386 0.5 1.25 0.723858 1.25 1C1.25 1.27614 1.47386 1.5 1.75 1.5H5.33051C6.08783 5.79147 6.85333 10.0643 7.49931 14.3709C7.68288 15.5947 8.73416 16.5 9.97165 16.5H20.1097C21.3014 16.5 22.3274 15.6588 22.5611 14.4903L24.0003 7.29417C24.186 6.36599 23.476 5.5 22.5295 5.5H7.91046C7.6075 5.5 7.32797 5.58901 7.09436 5.74093L6.24239 0.913107C6.20023 0.674179 5.99262 0.5 5.75 0.5H1.75ZM7.416 7.07417C7.37065 6.77187 7.60478 6.5 7.91046 6.5H22.5295C22.845 6.5 23.0816 6.78866 23.0198 7.09806L21.5805 14.2942C21.4403 14.9953 20.8247 15.5 20.1097 15.5H9.97165C9.22916 15.5 8.59839 14.9568 8.48825 14.2225L7.416 7.07417Z" fill="#414141"/>
</svg>
