<svg width="24" height="24" viewBox="0 0 24 24" fill="none" xmlns="http://www.w3.org/2000/svg">
<path fill-rule="evenodd" clip-rule="evenodd" d="M13.5 2C13.5 1.72386 13.7239 1.5 14 1.5H19C20.3807 1.5 21.5 2.61929 21.5 4V20C21.5 21.3807 20.3807 22.5 19 22.5H14C13.7239 22.5 13.5 22.2761 13.5 22C13.5 21.7239 13.7239 21.5 14 21.5H19C19.8284 21.5 20.5 20.8284 20.5 20V4C20.5 3.17157 19.8284 2.5 19 2.5H14C13.7239 2.5 13.5 2.27614 13.5 2Z" fill="white"/>
<path fill-rule="evenodd" clip-rule="evenodd" d="M10.6464 7.64645C10.8417 7.45118 11.1583 7.45118 11.3536 7.64645L15.3536 11.6464C15.5488 11.8417 15.5488 12.1583 15.3536 12.3536L11.3536 16.3536C11.1583 16.5488 10.8417 16.5488 10.6464 16.3536C10.4512 16.1583 10.4512 15.8417 10.6464 15.6464L14.2929 12L10.6464 8.35355C10.4512 8.15829 10.4512 7.84171 10.6464 7.64645Z" fill="white"/>
<path fill-rule="evenodd" clip-rule="evenodd" d="M2.5 12C2.5 11.7239 2.72386 11.5 3 11.5H15C15.2761 11.5 15.5 11.7239 15.5 12C15.5 12.2761 15.2761 12.5 15 12.5H3C2.72386 12.5 2.5 12.2761 2.5 12Z" fill="white"/>
</svg>
