<svg width="24" height="24" viewBox="0 0 24 24" fill="none" xmlns="http://www.w3.org/2000/svg">
<path fill-rule="evenodd" clip-rule="evenodd" d="M1.56643 12C1.58302 12.0301 1.60133 12.063 1.62133 12.0986C1.73999 12.3096 1.91836 12.6133 2.15439 12.9787C2.62709 13.7107 3.32783 14.6853 4.23977 15.658C6.07276 17.6132 8.69975 19.5 12 19.5C15.3002 19.5 17.9272 17.6132 19.7602 15.658C20.6722 14.6853 21.3729 13.7107 21.8456 12.9787C22.0816 12.6133 22.26 12.3096 22.3787 12.0986C22.3987 12.0631 22.417 12.0301 22.4336 12C22.417 11.9699 22.3987 11.937 22.3787 11.9014C22.26 11.6904 22.0816 11.3867 21.8456 11.0213C21.3729 10.2893 20.6722 9.3147 19.7602 8.34197C17.9272 6.38678 15.3002 4.5 12 4.5C8.69975 4.5 6.07276 6.38678 4.23977 8.34197C3.32783 9.3147 2.62709 10.2893 2.15439 11.0213C1.91836 11.3867 1.73999 11.6904 1.62133 11.9014C1.60133 11.937 1.58302 11.9699 1.56643 12ZM23 12C23.4472 11.7764 23.4471 11.7762 23.447 11.776L23.4459 11.7737L23.443 11.7681L23.433 11.7484C23.4243 11.7316 23.4118 11.7074 23.3953 11.6763C23.3624 11.6141 23.314 11.5244 23.2502 11.4111C23.1228 11.1846 22.934 10.8633 22.6856 10.4787C22.1896 9.71066 21.4528 8.6853 20.4898 7.65803C18.5728 5.61322 15.6998 3.5 12 3.5C8.30025 3.5 5.42724 5.61322 3.51023 7.65803C2.54717 8.6853 1.81041 9.71066 1.31436 10.4787C1.06602 10.8633 0.877193 11.1846 0.749759 11.4111C0.686023 11.5244 0.637588 11.6141 0.604692 11.6763C0.588242 11.7074 0.575673 11.7316 0.567013 11.7484L0.556958 11.7681L0.554135 11.7737L0.553277 11.7754C0.553169 11.7756 0.552786 11.7764 1 12L0.552786 11.7764C0.482405 11.9172 0.482405 12.0828 0.552786 12.2236L1 12C0.552786 12.2236 0.552679 12.2234 0.552786 12.2236L0.553277 12.2246L0.554135 12.2263L0.556958 12.2319L0.567013 12.2516C0.575673 12.2684 0.588242 12.2926 0.604692 12.3237C0.637588 12.3859 0.686023 12.4756 0.749759 12.5889C0.877193 12.8154 1.06602 13.1367 1.31436 13.5213C1.81041 14.2893 2.54717 15.3147 3.51023 16.342C5.42724 18.3868 8.30025 20.5 12 20.5C15.6998 20.5 18.5728 18.3868 20.4898 16.342C21.4528 15.3147 22.1896 14.2893 22.6856 13.5213C22.934 13.1367 23.1228 12.8154 23.2502 12.5889C23.314 12.4756 23.3624 12.3859 23.3953 12.3237C23.4118 12.2926 23.4243 12.2684 23.433 12.2516L23.443 12.2319L23.4459 12.2263L23.4467 12.2246C23.4468 12.2244 23.4472 12.2236 23 12ZM23 12L23.4472 12.2236C23.5176 12.0828 23.5174 11.9168 23.447 11.776L23 12Z" fill="#414141"/>
<path fill-rule="evenodd" clip-rule="evenodd" d="M8.5 12C8.5 10.067 10.067 8.5 12 8.5C13.933 8.5 15.5 10.067 15.5 12C15.5 13.933 13.933 15.5 12 15.5C10.067 15.5 8.5 13.933 8.5 12ZM12 9.5C10.6193 9.5 9.5 10.6193 9.5 12C9.5 13.3807 10.6193 14.5 12 14.5C13.3807 14.5 14.5 13.3807 14.5 12C14.5 10.6193 13.3807 9.5 12 9.5Z" fill="#414141"/>
</svg>
