<svg width="152" height="32" viewBox="0 0 152 32" fill="none" xmlns="http://www.w3.org/2000/svg">
<path d="M35.6689 16.819H4.28623C3.62872 16.819 3.09179 17.3764 3.15209 18.0343C3.84119 25.8488 11.1112 31.9999 19.9776 31.9999C28.844 31.9999 36.1139 25.8517 36.803 18.0343C36.8605 17.3764 36.3264 16.819 35.6689 16.819Z" fill="#FF6633"/>
<path fill-rule="evenodd" clip-rule="evenodd" d="M0.225147 3.33137C1.7887 1.27854 4.60645 0 7.711 0C10.8155 0 13.6333 1.27854 15.1969 3.33137C15.5659 3.81589 15.4714 4.50716 14.9858 4.87537C14.5001 5.24357 13.8073 5.14928 13.4383 4.66476C12.3661 3.25707 10.2569 2.20377 7.711 2.20377C5.16509 2.20377 3.05591 3.25707 1.98374 4.66476C1.6147 5.14928 0.921857 5.24357 0.436236 4.87537C-0.0493858 4.50716 -0.143894 3.81589 0.225147 3.33137Z" fill="#414141"/>
<path fill-rule="evenodd" clip-rule="evenodd" d="M24.7671 3.33137C26.3307 1.27854 29.1484 0 32.253 0C35.3552 0 38.1721 1.27884 39.7381 3.33045C40.1077 3.81458 40.0139 4.50596 39.5287 4.87467C39.0434 5.24338 38.3505 5.14981 37.981 4.66568C36.9055 3.25676 34.7955 2.20377 32.253 2.20377C29.7071 2.20377 27.5979 3.25707 26.5257 4.66476C26.1567 5.14928 25.4638 5.24357 24.9782 4.87537C24.4926 4.50716 24.3981 3.81589 24.7671 3.33137Z" fill="#414141"/>
<path d="M57.9525 18.2185C57.7473 18.3699 57.5025 18.4884 57.2245 18.5871C56.9465 18.6859 56.6951 18.7319 56.4634 18.7319C55.7156 18.7319 55.0736 18.4752 54.5508 17.9684C54.0279 17.455 53.7698 16.8297 53.7698 16.0926C53.7698 15.3488 54.0279 14.7235 54.5508 14.2101C55.0736 13.6901 55.7156 13.4334 56.4634 13.4334C56.6951 13.4334 56.9532 13.4861 57.2377 13.5848C57.5223 13.6836 57.7672 13.8152 57.9856 13.9797C58.1709 14.1114 58.3827 14.0916 58.482 13.9534L59.4879 12.4856C59.574 12.3606 59.5343 12.1631 59.3754 12.0512C58.9849 11.7682 58.5151 11.5378 57.9657 11.3601C57.4164 11.1758 56.9135 11.0837 56.4634 11.0837C55.7619 11.0837 55.0934 11.2153 54.4647 11.4786C53.836 11.7353 53.2999 12.0907 52.8433 12.5383C52.3932 12.9793 52.0358 13.5124 51.7711 14.1311C51.5064 14.7498 51.374 15.4015 51.374 16.0926C51.374 16.7837 51.5064 17.4353 51.7711 18.054C52.0358 18.6727 52.3932 19.2058 52.8433 19.6468C53.2999 20.0878 53.836 20.4432 54.4647 20.7065C55.0934 20.9632 55.7619 21.0949 56.4634 21.0949C56.9267 21.0949 57.4297 21.0093 57.9724 20.8316C58.5217 20.6539 58.9717 20.4301 59.3291 20.1602C59.4946 20.0483 59.5674 19.8509 59.4879 19.7258L58.5018 18.2383C58.3959 18.0869 58.1577 18.0803 57.9525 18.2185Z" fill="#414141"/>
<path d="M60.7255 20.542C60.7255 20.7592 60.8579 20.8842 61.0763 20.8842H67.4298C67.6482 20.8842 67.7871 20.7526 67.7871 20.542V19.1203C67.7871 18.8504 67.6018 18.6727 67.304 18.6727H63.1015V17.0338H66.2914C66.5297 17.0338 66.6753 16.9021 66.6753 16.6849V15.4344C66.6753 15.204 66.5297 15.0724 66.2914 15.0724H63.1015V13.4795H67.304C67.5357 13.4795 67.6548 13.361 67.6548 13.1307V11.6168C67.6548 11.3996 67.5224 11.268 67.304 11.268H61.0763C60.8579 11.268 60.7255 11.3996 60.7255 11.6168V20.542Z" fill="#414141"/>
<path d="M75.1731 15.7898C75.7224 15.4278 76.0665 14.7498 76.0665 14.0456C76.0665 13.1702 75.7819 12.4856 75.2194 11.9986C74.6568 11.5115 73.8693 11.268 72.8501 11.268H69.3755C69.2034 11.268 69.1174 11.3535 69.1174 11.5181V20.6341C69.1174 20.7987 69.2034 20.8842 69.3755 20.8842H73.128C74.1936 20.8842 75.0208 20.6275 75.6099 20.1207C76.2055 19.6139 76.5033 18.9031 76.5033 17.9882C76.5033 17.5077 76.3842 17.0667 76.1459 16.6652C75.9077 16.2637 75.5834 15.9741 75.1731 15.7898ZM72.8236 13.4071C73.3464 13.4071 73.6707 13.7165 73.6707 14.2167C73.6707 14.7169 73.3464 15.0329 72.8236 15.0329H71.5198V13.4071H72.8236ZM71.5198 18.7451V16.8166H73.0949C73.7104 16.8166 74.1009 17.1786 74.1009 17.7644C74.1009 18.3633 73.7104 18.7451 73.0949 18.7451H71.5198Z" fill="#414141"/>
<path d="M77.6946 20.542C77.6946 20.7592 77.827 20.8842 78.0454 20.8842H84.3988C84.6172 20.8842 84.7562 20.7526 84.7562 20.542V19.1203C84.7562 18.8504 84.5709 18.6727 84.2731 18.6727H80.0705V17.0338H83.2605C83.4987 17.0338 83.6443 16.9021 83.6443 16.6849V15.4344C83.6443 15.204 83.4987 15.0724 83.2605 15.0724H80.0705V13.4795H84.2731C84.5047 13.4795 84.6238 13.361 84.6238 13.1307V11.6168C84.6238 11.3996 84.4915 11.268 84.2731 11.268H78.0454C77.827 11.268 77.6946 11.3996 77.6946 11.6168V20.542Z" fill="#414141"/>
<path d="M88.1447 11.268H87.2844H86.4306C86.2254 11.268 86.0865 11.4194 86.0865 11.6234V20.542C86.0865 20.7592 86.2122 20.8908 86.4306 20.8908H88.1249C88.3565 20.8908 88.4889 20.7592 88.4889 20.542V17.9223H89.6471C90.6795 17.9223 91.5134 17.6196 92.1553 17.0206C92.7973 16.4151 93.1216 15.6121 93.1216 14.6116C93.1216 13.598 92.7973 12.7884 92.1553 12.1829C91.5134 11.5707 90.6795 11.268 89.6471 11.268H88.1447ZM88.4889 15.7569V13.4334H89.5478C89.8853 13.4334 90.1699 13.5453 90.3883 13.7691C90.6133 13.9863 90.7258 14.2628 90.7258 14.5985C90.7258 14.9341 90.6133 15.2106 90.3883 15.4278C90.1699 15.645 89.8853 15.7569 89.5478 15.7569H88.4889Z" fill="#414141"/>
<path d="M100.388 11.268H97.4301C96.3976 11.268 95.5571 11.5707 94.9151 12.1829C94.2732 12.7884 93.9555 13.598 93.9555 14.605C93.9555 15.8095 94.5048 16.8034 95.4512 17.3629L93.757 20.4893C93.6511 20.6802 93.7702 20.8908 93.982 20.8908H95.9608C96.1527 20.8908 96.2388 20.825 96.3645 20.5946L97.7808 17.8829H98.7669V20.542C98.7669 20.7592 98.8993 20.8908 99.1309 20.8908H100.825C101.044 20.8908 101.169 20.7592 101.169 20.542V11.6168C101.169 11.4128 101.03 11.268 100.825 11.268H100.388ZM97.5293 15.8227C97.1918 15.8227 96.9072 15.7042 96.6822 15.4673C96.4638 15.2237 96.3513 14.9341 96.3513 14.5919C96.3513 14.2496 96.4638 13.9732 96.6822 13.756C96.9006 13.5388 97.1852 13.4269 97.5293 13.4269H98.7669V15.8227H97.5293Z" fill="#414141"/>
<path d="M109.038 11.268C108.873 11.268 108.787 11.3535 108.787 11.5247V14.8486H105.167V11.5247C105.167 11.3535 105.081 11.268 104.915 11.268H103.049C102.877 11.268 102.791 11.3535 102.791 11.5247V20.6341C102.791 20.8052 102.877 20.8908 103.049 20.8908H104.915C105.081 20.8908 105.167 20.8052 105.167 20.6341V17.014H108.787V20.6341C108.787 20.8052 108.873 20.8908 109.038 20.8908H110.911C111.077 20.8908 111.163 20.8052 111.163 20.6341V11.5247C111.163 11.3535 111.077 11.268 110.911 11.268H109.038Z" fill="#414141"/>
<path d="M112.341 16.0991C112.341 16.7837 112.473 17.4353 112.731 18.054C112.996 18.6661 113.353 19.1992 113.797 19.6402C114.247 20.0812 114.783 20.4367 115.405 20.6999C116.027 20.9566 116.682 21.0883 117.377 21.0883C118.304 21.0883 119.151 20.8711 119.919 20.4301C120.693 19.9891 121.295 19.3835 121.739 18.62C122.182 17.8565 122.407 17.014 122.407 16.0991C122.407 15.408 122.275 14.7564 122.01 14.1377C121.752 13.5124 121.395 12.9793 120.945 12.5383C120.501 12.0973 119.965 11.7419 119.343 11.4852C118.727 11.2219 118.072 11.0903 117.377 11.0903C116.682 11.0903 116.027 11.2219 115.405 11.4852C114.783 11.7419 114.247 12.0973 113.797 12.5383C113.353 12.9793 112.996 13.5124 112.731 14.1377C112.473 14.7564 112.341 15.408 112.341 16.0991ZM114.737 16.0991C114.737 15.362 114.995 14.7433 115.504 14.2364C116.014 13.7296 116.643 13.4729 117.377 13.4729C118.112 13.4729 118.734 13.7296 119.244 14.2364C119.753 14.7433 120.011 15.362 120.011 16.0991C120.011 16.8297 119.753 17.4419 119.244 17.9487C118.734 18.4555 118.112 18.7056 117.377 18.7056C116.636 18.7056 116.007 18.4555 115.498 17.9487C114.988 17.4419 114.737 16.8297 114.737 16.0991Z" fill="#414141"/>
<path d="M129.303 11.2614C129.118 11.2614 128.966 11.4259 128.966 11.6168V14.3286C128.966 14.8222 128.807 15.2172 128.496 15.5133C128.185 15.8095 127.774 15.9609 127.252 15.9609C126.213 15.9609 125.597 15.3488 125.597 14.3154V11.6168C125.597 11.4128 125.438 11.2614 125.226 11.2614H123.526C123.347 11.2614 123.201 11.4259 123.201 11.6168V14.322C123.201 15.5199 123.559 16.4809 124.273 17.2049C124.988 17.9223 125.915 18.2844 127.053 18.2844C127.794 18.2844 128.489 17.9882 128.966 17.534V20.542C128.966 20.7328 129.111 20.8842 129.303 20.8842H131.017C131.209 20.8842 131.362 20.7263 131.362 20.5354V11.6168C131.362 11.4128 131.223 11.2614 131.037 11.2614H129.303Z" fill="#414141"/>
<path d="M138.714 15.803L141.792 11.7221C141.951 11.5115 141.884 11.2877 141.64 11.2877H139.462C139.231 11.2877 139.105 11.314 138.953 11.5181L136.444 14.8683H135.379V11.5247C135.379 11.3601 135.293 11.2746 135.127 11.2746H133.241C133.069 11.2746 132.983 11.3601 132.983 11.5247V20.6275C132.983 20.7987 133.069 20.8842 133.241 20.8842H135.127C135.293 20.8842 135.379 20.7987 135.379 20.6275V17.1193H136.742L139.178 20.7526C139.264 20.8513 139.383 20.904 139.522 20.904H141.719C141.951 20.904 142.01 20.6736 141.878 20.4827L138.714 15.803Z" fill="#414141"/>
<path d="M148.192 11.5839C148.119 11.393 147.94 11.2614 147.755 11.2614H146.358C146.173 11.2614 145.994 11.3799 145.908 11.5839L142.374 20.5025C142.288 20.7328 142.387 20.8908 142.632 20.8908H144.505C144.71 20.8908 144.883 20.7592 144.935 20.5749L145.366 19.3177H148.721L149.158 20.5815C149.231 20.7658 149.396 20.8974 149.581 20.8974H151.461C151.719 20.8974 151.805 20.7263 151.719 20.5091L148.192 11.5839ZM147.04 14.4142L148.039 17.33H146.041L147.04 14.4142Z" fill="#414141"/>
</svg>
