<svg width="31" height="30" viewBox="0 0 31 30" fill="none" xmlns="http://www.w3.org/2000/svg">
<g clip-path="url(#clip0_278_31222)">
<path d="M3.97265 23.0891C3.97265 17.325 0.986816 13.3666 0.986816 10.5891C0.986816 7.81162 2.58348 1.97746 15.361 1.97746C28.1385 1.97746 30.0135 9.82496 30.0135 12.88C30.0143 27.1858 3.97265 33.2975 3.97265 23.0891Z" fill="#FCD5BA"/>
<path d="M13.5904 20.9341C13.4337 21.0908 13.222 21.1783 13.0012 21.1783C12.7804 21.1783 12.5679 21.0908 12.412 20.9341L7.41203 15.9341C7.0862 15.6083 7.08703 15.0808 7.41203 14.7558L8.59036 13.5775C8.9162 13.2516 9.4437 13.2516 9.7687 13.5775L13.0012 16.8091L21.2337 8.57746C21.5595 8.25163 22.087 8.25163 22.412 8.57746L23.5904 9.75579C23.9162 10.0816 23.9162 10.6091 23.5904 10.9341L13.5904 20.9341Z" fill="#FF6633"/>
<path d="M9.28588 15.9339C8.96005 15.6081 8.96088 15.0806 9.28588 14.7556L10.1159 13.9255L9.76755 13.5772C9.44171 13.2514 8.91421 13.2514 8.58921 13.5772L7.41088 14.7556C7.08505 15.0814 7.08505 15.6089 7.41088 15.9339L12.4109 20.9339C12.5675 21.0906 12.7792 21.1781 13 21.1781C13.2209 21.1781 13.4334 21.0906 13.5892 20.9339L13.9375 20.5856L9.28588 15.9339Z" fill="black" fill-opacity="0.1"/>
</g>
<defs>
<clipPath id="clip0_278_31222">
<rect width="30" height="30" fill="white" transform="translate(0.5)"/>
</clipPath>
</defs>
</svg>
