<svg width="623" height="275" viewBox="0 0 623 275" fill="none" xmlns="http://www.w3.org/2000/svg">
<path d="M257.088 32.8151H305.242C306.216 32.8151 307.006 32.0249 307.006 31.0512V2.70928C307.006 1.73555 306.216 0.945343 305.242 0.945343H257.088C256.114 0.945343 255.324 1.73555 255.324 2.70928V31.0512C255.324 32.0249 256.114 32.8151 257.088 32.8151Z" fill="white"/>
<path d="M260.177 6.74671H303.271C303.569 6.74671 303.811 6.5049 303.811 6.20694C303.811 5.90899 303.569 5.66718 303.271 5.66718H260.177C259.879 5.66718 259.638 5.90899 259.638 6.20694C259.638 6.5049 259.879 6.74671 260.177 6.74671Z" fill="#61A3C5"/>
<path d="M260.177 12.8806H303.271C303.569 12.8806 303.811 12.6388 303.811 12.3408C303.811 12.0429 303.569 11.8011 303.271 11.8011H260.177C259.879 11.8011 259.638 12.0429 259.638 12.3408C259.638 12.6388 259.879 12.8806 260.177 12.8806Z" fill="#61A3C5"/>
<path d="M275.272 19.0144H303.273C303.571 19.0144 303.813 18.7726 303.813 18.4747C303.813 18.1767 303.571 17.9349 303.273 17.9349H275.272C274.974 17.9349 274.732 18.1767 274.732 18.4747C274.732 18.7726 274.974 19.0144 275.272 19.0144Z" fill="#61A3C5"/>
<path d="M259.858 19.0144H271.033C271.33 19.0144 271.572 18.7726 271.572 18.4747C271.572 18.1767 271.33 17.9349 271.033 17.9349H259.858C259.56 17.9349 259.318 18.1767 259.318 18.4747C259.318 18.7726 259.56 19.0144 259.858 19.0144Z" fill="#61A3C5"/>
<path d="M285.672 25.1483H303.271C303.569 25.1483 303.811 24.9065 303.811 24.6085C303.811 24.3106 303.569 24.0688 303.271 24.0688H285.672C285.374 24.0688 285.132 24.3106 285.132 24.6085C285.132 24.9065 285.374 25.1483 285.672 25.1483Z" fill="#61A3C5"/>
<path d="M259.858 25.1483H281.725C282.023 25.1483 282.265 24.9065 282.265 24.6085C282.265 24.3106 282.023 24.0688 281.725 24.0688H259.858C259.56 24.0688 259.318 24.3106 259.318 24.6085C259.318 24.9065 259.56 25.1483 259.858 25.1483Z" fill="#61A3C5"/>
<path d="M271.129 31.4052C271.075 31.619 262.755 42.4466 262.703 42.1271C262.649 41.8075 263.664 30.4984 263.664 30.4984L271.129 31.4052Z" fill="white"/>
<path d="M125.991 92.0723H174.143C175.117 92.0723 175.907 91.2821 175.907 90.3084V67.0986C175.907 66.1248 175.117 65.3346 174.143 65.3346H125.991C125.018 65.3346 124.228 66.1248 124.228 67.0986V90.3084C124.228 91.2821 125.016 92.0723 125.991 92.0723Z" fill="white"/>
<path d="M129.081 72.1378H172.174C172.472 72.1378 172.714 71.896 172.714 71.598C172.714 71.3001 172.472 71.0583 172.174 71.0583H129.081C128.783 71.0583 128.541 71.3001 128.541 71.598C128.539 71.896 128.781 72.1378 129.081 72.1378Z" fill="#61A3C5"/>
<path d="M144.174 78.2717H172.174C172.472 78.2717 172.714 78.0299 172.714 77.7319C172.714 77.434 172.472 77.1921 172.174 77.1921H144.174C143.876 77.1921 143.634 77.434 143.634 77.7319C143.634 78.0299 143.876 78.2717 144.174 78.2717Z" fill="#61A3C5"/>
<path d="M128.758 78.2717H139.933C140.231 78.2717 140.473 78.0299 140.473 77.7319C140.473 77.434 140.231 77.1921 139.933 77.1921H128.758C128.461 77.1921 128.219 77.434 128.219 77.7319C128.219 78.0299 128.461 78.2717 128.758 78.2717Z" fill="#61A3C5"/>
<path d="M154.573 84.4055H172.172C172.47 84.4055 172.712 84.1637 172.712 83.8657C172.712 83.5678 172.47 83.326 172.172 83.326H154.573C154.275 83.326 154.033 83.5678 154.033 83.8657C154.033 84.1637 154.275 84.4055 154.573 84.4055Z" fill="#61A3C5"/>
<path d="M128.758 84.4055H150.626C150.924 84.4055 151.166 84.1637 151.166 83.8657C151.166 83.5678 150.924 83.326 150.626 83.326H128.758C128.461 83.326 128.219 83.5678 128.219 83.8657C128.219 84.1637 128.461 84.4055 128.758 84.4055Z" fill="#61A3C5"/>
<path d="M140.031 90.6624C139.977 90.8762 131.656 101.704 131.605 101.384C131.551 101.065 132.565 89.7556 132.565 89.7556L140.031 90.6624Z" fill="white"/>
<path d="M430.707 78.8093H382.553C381.579 78.8093 380.789 78.0191 380.789 77.0454V53.8356C380.789 52.8619 381.579 52.0717 382.553 52.0717H430.707C431.681 52.0717 432.471 52.8619 432.471 53.8356V77.0454C432.471 78.0191 431.683 78.8093 430.707 78.8093Z" fill="white"/>
<path d="M427.618 58.8748H384.524C384.226 58.8748 383.984 58.633 383.984 58.3351C383.984 58.0371 384.226 57.7953 384.524 57.7953H427.618C427.916 57.7953 428.157 58.0371 428.157 58.3351C428.16 58.633 427.918 58.8748 427.618 58.8748Z" fill="#61A3C5"/>
<path d="M412.525 65.0086H384.524C384.226 65.0086 383.984 64.7668 383.984 64.4689C383.984 64.1709 384.226 63.9291 384.524 63.9291H412.525C412.823 63.9291 413.065 64.1709 413.065 64.4689C413.065 64.7668 412.823 65.0086 412.525 65.0086Z" fill="#61A3C5"/>
<path d="M427.939 65.0086H416.764C416.466 65.0086 416.225 64.7668 416.225 64.4689C416.225 64.1709 416.466 63.9291 416.764 63.9291H427.939C428.237 63.9291 428.478 64.1709 428.478 64.4689C428.478 64.7668 428.237 65.0086 427.939 65.0086Z" fill="#61A3C5"/>
<path d="M402.125 71.1426H384.526C384.228 71.1426 383.986 70.9008 383.986 70.6028C383.986 70.3049 384.228 70.063 384.526 70.063H402.125C402.423 70.063 402.665 70.3049 402.665 70.6028C402.665 70.9008 402.423 71.1426 402.125 71.1426Z" fill="#61A3C5"/>
<path d="M427.939 71.1426H406.072C405.774 71.1426 405.532 70.9008 405.532 70.6028C405.532 70.3049 405.774 70.063 406.072 70.063H427.939C428.237 70.063 428.479 70.3049 428.479 70.6028C428.479 70.9008 428.237 71.1426 427.939 71.1426Z" fill="#61A3C5"/>
<path d="M416.668 77.3994C416.722 77.6132 425.042 88.4408 425.094 88.1212C425.148 87.8017 424.133 76.4926 424.133 76.4926L416.668 77.3994Z" fill="white"/>
<path d="M328.178 69.927C327.868 69.4066 327.19 69.2382 326.65 69.5146L323.291 71.231C323.185 71.285 323.057 71.2656 322.973 71.1835C322.848 71.0626 322.865 70.8575 323.008 70.7582L327.591 67.5887C328.116 67.226 328.17 66.5653 327.712 66.1206C327.254 65.6758 326.449 65.611 325.925 65.9738L321.253 69.2059C321.145 69.2814 320.998 69.2685 320.903 69.1778L320.836 69.113C320.726 69.0072 320.724 68.8323 320.829 68.7222L325.214 64.1947C325.635 63.7586 325.676 63.0612 325.268 62.6121C324.821 62.1199 324.061 62.1134 323.606 62.5841L319.195 67.1396C319.089 67.2498 318.915 67.2519 318.804 67.1461L318.591 66.9389C318.491 66.8417 318.478 66.6862 318.56 66.5761L322.075 61.8478C322.438 61.362 322.386 60.6625 321.924 60.2717C321.417 59.8421 320.661 59.9349 320.273 60.4595C320.273 60.4595 314.528 67.3815 313.541 68.3919L312.876 65.1684C312.865 64.5402 312.349 64.0393 311.719 64.0479C311.091 64.0587 310.59 64.5747 310.598 65.2051L309.862 72.4984C309.869 72.9086 310.456 73.4808 311.039 73.8284C315.495 78.8568 316.222 79.5952 317.548 80.8388L322.367 75.5168C323.757 73.9817 325.415 72.71 327.261 71.7686L327.725 71.5312C328.299 71.2267 328.517 70.497 328.178 69.927Z" fill="#FE9F73"/>
<path d="M268.859 268.73L253.625 268.94L253.405 254.571L268.58 252.675L268.859 268.73Z" fill="#FE9F73"/>
<path d="M284.511 271.317H253.408V265.058C253.408 265.058 255.671 262.052 259.116 263.587C259.116 263.587 264.216 267.279 268.81 262.868L280.325 267.813C280.323 267.813 284.511 269.188 284.511 271.317Z" fill="#3AA1C9"/>
<path d="M253.405 273.508H285.43C285.668 273.508 285.86 273.316 285.86 273.078V271.748C285.86 271.511 285.668 271.319 285.43 271.319H253.405V273.508Z" fill="#472A31"/>
<path d="M272.216 264.33C271.173 265.96 269.077 269.233 267.745 271.317H265.625C266.815 269.456 269.312 265.556 270.554 263.615L272.216 264.33Z" fill="#D7E4F7"/>
<path d="M271.142 271.317H269.022C269.992 269.803 271.881 266.852 273.217 264.762L274.879 265.476C273.757 267.232 272.2 269.665 271.142 271.317Z" fill="#D7E4F7"/>
<path d="M238.142 268.73L222.908 268.94L222.69 254.571L237.863 252.675L238.142 268.73Z" fill="#FE9F73"/>
<path d="M244.253 144.36C244.758 159.197 246.952 217.239 251.565 255.212C251.87 257.715 253.99 259.604 256.511 259.597C259.303 259.591 263.184 259.256 267.487 257.944C269.566 257.309 271.01 255.417 271.045 253.243L272.921 137.7C272.925 137.419 272.906 137.138 272.863 136.86L272.774 136.29C272.291 133.144 269.026 131.25 266.056 132.39L247.45 139.539C245.464 140.299 244.18 142.234 244.253 144.36Z" fill="#FF424D"/>
<path d="M219.305 141.366C219.305 141.366 218.038 212.735 221.341 256.76C221.497 258.844 223.152 260.491 225.236 260.649C228.185 260.873 232.675 260.839 237.74 259.496C239.456 259.04 240.706 257.557 240.86 255.787L249.692 153.435L255.13 125.017L219.305 141.366Z" fill="#EF3A4C"/>
<path d="M253.794 271.317H222.69V265.058C222.69 265.058 224.953 262.052 228.399 263.587C228.399 263.587 233.498 267.279 238.092 262.868L249.607 267.813C249.605 267.813 253.794 269.188 253.794 271.317Z" fill="#4CB7D8"/>
<path d="M222.69 273.508H254.715C254.953 273.508 255.145 273.316 255.145 273.078V271.748C255.145 271.511 254.953 271.319 254.715 271.319H222.69V273.508Z" fill="#683D46"/>
<path d="M241.498 264.33C240.456 265.96 238.359 269.233 237.027 271.317H234.907C236.097 269.456 238.595 265.556 239.836 263.615L241.498 264.33Z" fill="#D7E4F7"/>
<path d="M240.428 271.317H238.308C239.277 269.803 241.166 266.852 242.502 264.762L244.165 265.476C243.042 267.232 241.486 269.665 240.428 271.317Z" fill="#D7E4F7"/>
<path d="M274.018 159.143L274.193 158.899L273.276 103.822C273.276 103.822 290.184 115.971 295.251 116.204C300.318 116.437 321.27 83.1188 321.27 83.1188C316.855 72.2609 307.557 70.7561 307.557 70.7561L290.255 91.0749L269.985 71.3757C267.282 69.6183 246.505 69.2383 246.505 69.2383C246.505 69.2383 230.195 68.3401 227.494 70.0976C224.791 71.855 207.511 101.132 205.968 114.263C204.424 127.397 205.968 135.901 215.331 137.451L218.738 137.529L218.999 159.141C219.001 159.143 237.87 163.695 274.018 159.143Z" fill="#61A3C5"/>
<path d="M307.561 70.7561L290.259 91.0749L269.989 71.3757C268.975 70.715 265.408 70.2487 261.35 69.9248L249.169 101.013L230.777 69.2383C224.335 69.3009 222.671 70.9223 221.272 71.8334C218.569 73.5909 207.515 101.132 205.97 114.263C204.426 127.397 205.97 135.901 215.333 137.451L218.74 137.529L217.766 159.141C217.766 159.141 237.872 163.69 274.018 159.141L274.193 158.897L273.275 103.82C273.275 103.82 290.184 115.969 295.251 116.202C300.318 116.435 321.27 83.1166 321.27 83.1166C316.857 72.2609 307.561 70.7561 307.561 70.7561Z" fill="#FECC86"/>
<path d="M223.923 118.024L223.536 117.536L227.303 114.125L228.741 95.4189L229.335 95.4707L227.878 114.442L223.923 118.024Z" fill="#21111D"/>
<path d="M218.731 137.851L215.285 137.769C210.689 137.007 207.744 134.569 206.278 130.311C205.007 126.619 204.814 121.507 205.671 114.224L206.263 114.304C204.516 129.148 207.152 135.765 215.356 137.134L218.741 137.212L218.731 137.851Z" fill="#21111D"/>
<path d="M290.466 96.5114L289.972 91.2303L270.343 72.1551C268.905 70.7561 266.107 70.7388 266.079 70.7388V70.0997C266.206 70.0997 269.134 70.117 270.742 71.6823L290.542 90.9237L291.06 96.4487L290.466 96.5114Z" fill="#21111D"/>
<path d="M290.479 91.2908L290.039 90.859L307.451 70.4107L307.61 70.4387C307.703 70.4538 316.907 72.1789 321.546 82.9828L321.004 83.2505C316.831 73.5327 308.88 71.3779 307.671 71.1037L290.479 91.2908Z" fill="#21111D"/>
<path d="M251.423 161.361C251.246 161.361 251.071 161.361 250.9 161.358L250.907 160.719C258.368 160.804 271.673 159.124 273.718 158.86L272.977 98.5257L273.573 98.5171L274.32 159.426L274.054 159.461C273.908 159.48 259.609 161.361 251.423 161.361Z" fill="#21111D"/>
<path d="M240.841 81.1886C237.836 79.1828 235.654 76.0738 234.697 72.4402L235.272 72.2674C236.187 75.75 238.277 78.7251 241.157 80.6467L240.841 81.1886Z" fill="#21111D"/>
<path d="M241.694 46.2789C241.694 46.2789 246.21 44.3574 250.222 45.737C252.544 46.5359 254.086 48.7424 254.086 51.1994V53.6003L241.726 48.3214C241.726 48.3214 239.77 49.2455 239.928 48.9648C240.083 48.6841 241.694 46.2789 241.694 46.2789Z" fill="#FE9F73"/>
<path d="M254.085 50.9274V61.0533C254.085 61.0533 254.236 64.6719 251.069 65.1231L251.66 69.9508C251.881 71.745 250.808 73.4636 249.085 74.0098C248.243 74.2775 247.237 74.4718 246.095 74.4718C242.476 74.4718 240.516 71.7579 240.216 70.402C239.914 69.0461 240.818 62.5625 240.818 62.5625L240.708 59.3779L241.121 47.0346L254.085 50.9274Z" fill="#FE9F73"/>
<path d="M245.35 55.7032C245.313 55.7032 245.274 55.6903 245.246 55.66C245.185 55.6017 245.183 55.5067 245.242 55.4463C245.263 55.4247 247.336 53.3045 249.231 54.831C249.296 54.8828 249.307 54.9778 249.255 55.0425C249.203 55.1073 249.108 55.1181 249.043 55.0663C247.364 53.7147 245.537 55.5758 245.462 55.6557C245.429 55.6881 245.391 55.7032 245.35 55.7032Z" fill="#21111D"/>
<path d="M251.565 54.7985C251.522 54.7985 251.481 54.7813 251.451 54.7467C251.397 54.6841 251.403 54.5891 251.466 54.5351C251.526 54.4833 252.964 53.2526 253.873 54.032C253.936 54.086 253.944 54.181 253.89 54.2436C253.836 54.3063 253.741 54.3149 253.679 54.2609C252.966 53.6499 251.677 54.751 251.664 54.764C251.634 54.7856 251.6 54.7985 251.565 54.7985Z" fill="#21111D"/>
<path d="M248.398 56.3121C248.398 56.5625 248.195 56.7633 247.946 56.7633C247.696 56.7633 247.495 56.5603 247.495 56.3121C247.495 56.0616 247.698 55.8608 247.946 55.8608C248.197 55.8608 248.398 56.0616 248.398 56.3121Z" fill="black"/>
<path d="M252.755 56.3121C253.004 56.3121 253.206 56.11 253.206 55.8608C253.206 55.6116 253.004 55.4096 252.755 55.4096C252.506 55.4096 252.304 55.6116 252.304 55.8608C252.304 56.11 252.506 56.3121 252.755 56.3121Z" fill="black"/>
<path d="M241.695 46.1213C241.695 46.1213 237.865 45.9378 236.893 49.2887C235.922 52.6395 237.577 54.4099 237.61 55.4096C237.644 56.4092 236.966 63.1433 241.692 62.6402L242.968 51.5168L241.323 47.0886L241.695 46.1213Z" fill="#FECC86"/>
<path d="M244.663 56.1544C244.663 57.6528 243.447 58.8683 241.949 58.8683C240.451 58.8683 239.235 57.6528 239.235 56.1544C239.235 54.6561 240.451 53.4405 241.949 53.4405C243.447 53.4405 244.663 54.6561 244.663 56.1544Z" fill="#FE9F73"/>
<path d="M241.748 57.8191C241.185 57.8191 240.807 57.3959 240.684 56.9727C240.537 56.4718 240.706 55.9861 241.112 55.7334C241.712 55.3599 242.258 55.5996 242.536 55.7831C242.42 55.4744 242.236 55.2498 241.988 55.116C241.453 54.8223 240.79 55.0361 240.783 55.0382C240.745 55.0512 240.701 55.0296 240.688 54.9907C240.676 54.9519 240.697 54.9087 240.736 54.8957C240.766 54.8849 241.466 54.6582 242.059 54.9843C242.403 55.1721 242.634 55.5046 242.752 55.9731L242.817 56.2365L242.625 56.0465C242.597 56.0184 241.954 55.3923 241.189 55.8651C240.766 56.1264 240.729 56.6057 240.827 56.9339C240.926 57.275 241.228 57.6723 241.746 57.6723C241.751 57.6723 241.757 57.6723 241.761 57.6723C241.802 57.6723 241.837 57.7046 241.837 57.7457C241.837 57.7867 241.805 57.8212 241.764 57.8212C241.759 57.8191 241.755 57.8191 241.748 57.8191Z" fill="#F07162"/>
<path d="M243.73 62.0508C243.73 62.0508 243.942 68.1069 251.507 68.6855L251.071 65.1253C251.071 65.1253 246.166 66.112 243.73 62.0508Z" fill="#F07162"/>
<path d="M249.993 59.3628C249.961 59.3628 249.933 59.3433 249.922 59.311C249.909 59.2721 249.93 59.2289 249.969 59.216L251.48 58.7172L251.003 55.1613C250.997 55.1203 251.027 55.0814 251.068 55.0771C251.109 55.0706 251.148 55.1008 251.152 55.1419L251.647 58.823L250.017 59.3628C250.01 59.3628 250.002 59.3628 249.993 59.3628Z" fill="#F07162"/>
<path d="M240.708 63.4045L241.233 58.3005L242.5 58.4408V63.5513L240.708 63.4045Z" fill="#FE9F73"/>
<path d="M242.402 46.0199C242.402 46.0199 241.515 48.1379 242.97 51.6723C244.425 55.2066 239.235 50.3552 239.235 50.3552C239.235 50.3552 239.596 45.1822 242.402 46.0199Z" fill="#FECC86"/>
<path d="M242.973 51.6722C242.973 51.6722 254.497 50.9899 255.207 48.289C255.917 45.5902 253.208 45.5189 253.208 45.5189C253.208 45.5189 253.715 41.6823 250.235 42.8201C246.755 43.9579 240.304 43.809 238.491 47.0346C236.675 50.2602 242.973 51.6722 242.973 51.6722Z" fill="#FECC86"/>
<path d="M242.733 53.6003L243.23 55.7032L243.731 55.0749C243.731 55.0749 244.715 52.0544 244.035 50.6057C243.355 49.1569 240.633 51.2404 240.633 51.2404L242.733 53.6003Z" fill="#FECC86"/>
<path d="M240.238 67.7809L247.139 73.0166L251.507 68.6855L254.419 69.5038L251.507 77.2656L247.334 74.705L243.029 77.5463L237.243 69.0115L240.238 67.7809Z" fill="#EDFCFB"/>
<path d="M251.988 60.6345C251.94 60.6215 248.836 60.3516 248.836 60.3516C248.836 60.3516 249.145 61.6622 250.298 61.7658C251.453 61.8695 251.988 60.6345 251.988 60.6345Z" fill="#FBFDFC"/>
<path d="M267.997 111.096H267.924H260.271L262.207 133.882H267.924H267.997H273.921L275.651 111.096H267.997Z" fill="#49263E"/>
<path d="M273.607 107.099H267.999H267.925H262.317C261.66 107.099 261.127 107.637 261.127 108.298H267.925H267.999H274.797C274.797 107.635 274.264 107.099 273.607 107.099Z" fill="#CE1D37"/>
<path d="M275.48 108.913C275.404 108.555 275.091 108.298 274.728 108.298H267.999H267.926H261.196C260.834 108.298 260.519 108.555 260.445 108.913L259.806 111.959C259.705 112.441 260.069 112.894 260.557 112.894H267.926H267.999H275.367C275.855 112.894 276.22 112.441 276.119 111.959L275.48 108.913Z" fill="#EF3A4C"/>
<path d="M260.65 118.093L261.151 127.356H267.913H268.008H274.77L275.27 118.093H268.008H267.913H260.65Z" fill="#EF3A4C"/>
<path d="M274.77 127.515H260.998L260.488 118.1C260.484 118.011 260.551 117.936 260.642 117.929C260.73 117.925 260.806 117.992 260.81 118.08L261.302 127.191H274.77C274.858 127.191 274.931 127.263 274.931 127.353C274.931 127.444 274.86 127.515 274.77 127.515Z" fill="#21111D"/>
<path d="M271.587 115.848C271.561 115.848 271.533 115.841 271.507 115.826C271.429 115.783 271.403 115.684 271.447 115.606L272.761 113.285C272.805 113.207 272.904 113.181 272.982 113.225C273.059 113.268 273.085 113.367 273.042 113.445L271.727 115.766C271.697 115.82 271.643 115.848 271.587 115.848Z" fill="#21111D"/>
<path d="M271.807 117.18C271.779 117.18 271.751 117.173 271.727 117.158C271.649 117.113 271.623 117.016 271.669 116.938L272.858 114.896C272.904 114.818 273.001 114.792 273.079 114.837C273.156 114.883 273.182 114.98 273.137 115.058L271.947 117.1C271.917 117.152 271.863 117.18 271.807 117.18Z" fill="#21111D"/>
<path d="M270.371 124.791C273.098 122.217 270.241 121.783 270.241 121.783C271.571 120.241 271.263 119.52 270.775 119.19C270.416 118.948 269.967 118.92 269.572 119.084C268.318 119.607 264.497 121.213 262.161 122.368C260.501 122.243 261.029 119.244 261.772 117.707C262.154 116.914 262.18 115.608 260.38 116.925C258.907 118 256.694 121.543 256.694 121.543L247.441 120.591L248.821 134.252C248.821 134.252 259.382 134.094 260.973 134.081C262.564 134.068 267.895 132.125 269.503 130.624C272.424 127.9 270.587 127.761 270.587 127.761C273.374 124.629 270.371 124.791 270.371 124.791Z" fill="#FE9F73"/>
<path d="M266.901 124.039C266.821 124.046 266.742 123.998 266.709 123.914C266.668 123.81 266.716 123.69 266.813 123.646C268.181 123.042 270.111 121.63 270.131 121.617C270.217 121.552 270.338 121.578 270.396 121.671C270.457 121.764 270.433 121.891 270.347 121.956C270.267 122.014 268.365 123.405 266.957 124.026C266.94 124.033 266.921 124.037 266.901 124.039Z" fill="#F07162"/>
<path d="M267.089 126.628C266.999 126.637 266.914 126.574 266.891 126.477C266.863 126.367 266.923 126.254 267.027 126.226C268.767 125.725 270.248 124.635 270.261 124.624C270.347 124.56 270.468 124.583 270.526 124.676C270.587 124.769 270.565 124.896 270.479 124.961C270.416 125.006 268.933 126.103 267.124 126.624C267.113 126.626 267.102 126.628 267.089 126.628Z" fill="#F07162"/>
<path d="M267.731 129.545C267.643 129.551 267.558 129.493 267.532 129.4C267.502 129.292 267.56 129.178 267.66 129.145C269.152 128.666 270.458 127.613 270.471 127.602C270.555 127.533 270.676 127.552 270.738 127.641C270.803 127.731 270.786 127.859 270.702 127.928C270.646 127.973 269.326 129.037 267.768 129.538C267.757 129.54 267.744 129.543 267.731 129.545Z" fill="#F07162"/>
<path d="M242.123 115.28L251.432 115.919C251.432 115.919 253.314 122.28 251.052 135.173C250.832 136.426 250.37 138.565 250.37 138.565C250.37 138.565 240.916 139.373 239.433 136.082C238.5 134.016 240.538 125.093 240.538 125.093L242.123 115.28Z" fill="#FECC86"/>
<path d="M250.6 138.893L218.73 137.851L218.748 137.212L250.138 138.237C250.587 136.247 253.461 122.856 251.22 116.226L227.571 114.602L227.61 113.963L251.641 115.612L251.71 115.802C254.32 123.053 250.81 138.01 250.658 138.643L250.6 138.893Z" fill="#21111D"/>
<path d="M260.649 115.688L260.919 118.093H262.731L262.469 115.511L260.649 115.688Z" fill="#49263E"/>
<path d="M260.92 118.093L261.239 122.491C261.239 122.491 261.922 122.709 263.962 121.52C266.002 120.33 262.61 118.093 262.61 118.093H260.92Z" fill="#EF3A4C"/>
<path d="M329.577 36.2738C329.577 36.2738 333.193 38.1393 331.384 45.4347L330.018 44.7287L330.48 40.8532L329.577 36.2738Z" fill="black"/>
<path d="M316.909 40.7992V51.4908C316.909 51.4908 316.76 55.1051 319.902 55.5563L319.314 60.3775C319.096 62.1695 320.161 63.8859 321.873 64.43C322.708 64.6956 323.708 64.8921 324.839 64.8921C328.429 64.8921 330.374 62.1824 330.674 60.8266C330.974 59.4707 330.076 52.9957 330.076 52.9957L330.186 49.8132L329.778 37.4851L316.909 40.7992Z" fill="#FE9F73"/>
<path d="M325.579 46.145C325.616 46.145 325.655 46.1321 325.683 46.104C325.744 46.0457 325.746 45.9507 325.687 45.8902C325.666 45.8687 323.608 43.7506 321.728 45.2749C321.663 45.3267 321.652 45.4217 321.706 45.4865C321.758 45.5513 321.853 45.5621 321.916 45.5102C323.583 44.1586 325.396 46.0198 325.472 46.0997C325.502 46.1299 325.541 46.145 325.579 46.145Z" fill="black"/>
<path d="M319.411 45.2426C319.452 45.2426 319.495 45.2253 319.523 45.1908C319.577 45.1282 319.571 45.0332 319.508 44.9792C319.448 44.9274 318.021 43.6988 317.118 44.4761C317.056 44.5301 317.049 44.6251 317.101 44.6877C317.155 44.7503 317.25 44.759 317.313 44.705C318.019 44.094 319.299 45.1951 319.312 45.2059C319.342 45.2296 319.377 45.2426 319.411 45.2426Z" fill="black"/>
<path d="M322.555 46.7539C322.555 47.0043 322.755 47.2051 323.004 47.2051C323.252 47.2051 323.453 47.0022 323.453 46.7539C323.453 46.5034 323.252 46.3026 323.004 46.3026C322.755 46.3026 322.555 46.5056 322.555 46.7539Z" fill="black"/>
<path d="M317.783 46.3026C317.783 46.5531 317.984 46.7538 318.232 46.7538C318.481 46.7538 318.681 46.5509 318.681 46.3026C318.681 46.0522 318.481 45.8514 318.232 45.8514C317.984 45.8514 317.783 46.0522 317.783 46.3026Z" fill="black"/>
<path d="M327.792 46.9115C327.792 48.4077 328.999 49.6211 330.486 49.6211C331.974 49.6211 333.181 48.4077 333.181 46.9115C333.181 45.4153 331.974 44.2019 330.486 44.2019C328.999 44.2019 327.792 45.4131 327.792 46.9115Z" fill="#FE9F73"/>
<path d="M330.683 48.5718C331.242 48.5718 331.616 48.1486 331.739 47.7255C331.884 47.2245 331.717 46.7388 331.314 46.4861C330.718 46.1126 330.176 46.3523 329.9 46.5358C330.016 46.2292 330.198 46.0047 330.444 45.8686C330.975 45.575 331.633 45.7888 331.64 45.7909C331.679 45.8039 331.722 45.7823 331.735 45.7434C331.748 45.7046 331.726 45.6614 331.687 45.6484C331.657 45.6376 330.962 45.4109 330.372 45.7369C330.033 45.9248 329.802 46.2573 329.686 46.7236L329.621 46.9849L329.811 46.7949C329.837 46.7668 330.478 46.1407 331.236 46.6135C331.655 46.8748 331.692 47.3519 331.597 47.6823C331.497 48.0234 331.199 48.4207 330.685 48.4207C330.681 48.4207 330.675 48.4207 330.67 48.4207C330.629 48.4207 330.597 48.4531 330.595 48.4941C330.595 48.5351 330.627 48.5697 330.668 48.5697C330.673 48.5718 330.679 48.5718 330.683 48.5718Z" fill="#F07162"/>
<path d="M316.388 49.7895C316.388 49.7895 315.41 57.0288 320.188 57.2879C327.023 57.6549 327.686 53.7298 328.092 50.5171L328.161 43.8867L327.94 41.963C327.457 42.5135 327.161 43.2022 327.096 43.9342C326.954 45.5232 326.604 49.8068 326.211 49.9968C325.654 50.2645 317.453 49.0921 316.388 49.7895Z" fill="black"/>
<path d="M320.97 49.8003C321.002 49.8003 321.03 49.7809 321.041 49.7485C321.054 49.7096 321.033 49.6664 320.994 49.6535L319.493 49.1548L319.966 45.6031C319.973 45.5621 319.942 45.5232 319.901 45.5189C319.86 45.5125 319.824 45.5427 319.817 45.5837L319.327 49.2605L320.944 49.7982C320.955 49.8003 320.963 49.8003 320.97 49.8003Z" fill="#F07162"/>
<path d="M322.131 51.2685C322.086 51.2598 319.169 51.1907 319.169 51.1907C319.169 51.1907 319.536 52.4041 320.62 52.4321C321.703 52.4602 322.131 51.2685 322.131 51.2685Z" fill="#FBFDFC"/>
<path d="M318.996 60.3882L319.469 57.6592C319.469 57.6592 327.537 57.4498 330.736 56.6682L331.174 60.4811C331.174 60.4811 324.013 63.7801 318.996 60.3882Z" fill="#CEE4EF"/>
<path d="M327.954 42.086L329.305 40.8532L330.704 44.217C330.704 44.217 328.975 44.502 328.945 46.3026C328.915 48.1011 329.886 50.9101 326.771 54.9475C323.655 58.9828 327.021 48.9237 327.051 48.5718C327.084 48.222 327.954 42.086 327.954 42.086Z" fill="black"/>
<path d="M329.577 36.2739C328.135 34.8424 323.131 34.0263 319.562 36.1767V36.1724C315.497 38.1609 316.775 42.2091 316.909 42.33L316.961 42.289C316.941 42.3818 316.922 42.4768 316.909 42.5696C316.909 42.5696 317.08 42.2976 317.444 41.9198L319.042 40.6956C319.938 40.1904 321.138 39.7564 322.695 39.6549C324.238 39.5534 325.586 39.6398 326.693 39.9809C326.987 40.8985 327.224 42.7186 326.881 46.3026C326.356 51.7693 328.744 45.1389 329.614 42.5977C329.8 43.0727 329.936 43.606 330.003 44.217C330 44.217 332.468 39.1411 329.577 36.2739Z" fill="black"/>
<path d="M316.909 43.8025C316.909 43.8025 316.803 41.6089 316.907 41.1274C317.01 40.6459 321.896 39.2663 324.571 39.6333C327.246 40.0004 322.06 42.9453 322.002 42.9453C321.944 42.9475 316.909 43.8025 316.909 43.8025Z" fill="#FE9F73"/>
<path d="M326.182 40.1968L328.766 37.7917L326.333 41.3087L326.182 40.1968Z" fill="#FE9F73"/>
<path d="M326.181 35.4621C326.181 35.4621 325.654 30.276 328.541 31.4052C331.425 32.5322 331.922 34.9223 329.307 36.5006C326.693 38.0767 326.181 35.4621 326.181 35.4621Z" fill="black"/>
<path d="M334.363 269.242L347.381 269.421L347.569 257.14L334.601 255.521L334.363 269.242Z" fill="#FE9F73"/>
<path d="M320.985 271.453H347.568V266.103C347.568 266.103 345.633 263.535 342.691 264.846C342.691 264.846 338.332 268.002 334.407 264.231L324.565 268.456C324.565 268.456 320.985 269.633 320.985 271.453Z" fill="#4C222E"/>
<path d="M347.57 273.325H320.234C320.011 273.325 319.832 273.145 319.832 272.923V271.854C319.832 271.632 320.011 271.453 320.234 271.453H347.57V273.325Z" fill="#8CD2F9"/>
<path d="M304.895 269.242L317.913 269.421L318.1 257.14L305.132 255.521L304.895 269.242Z" fill="#FE9F73"/>
<path d="M291.517 271.453H318.099V266.103C318.099 266.103 316.165 263.535 313.222 264.846C313.222 264.846 308.863 268.002 304.938 264.231L295.096 268.456C295.096 268.456 291.517 269.633 291.517 271.453Z" fill="#4C222E"/>
<path d="M318.101 273.325H290.765C290.542 273.325 290.363 273.145 290.363 272.923V271.854C290.363 271.632 290.542 271.453 290.765 271.453H318.101V273.325Z" fill="#8CD2F9"/>
<path d="M304.537 158.908C306.525 161.464 307.041 158.945 307.041 158.945C308.25 160.208 308.863 159.968 309.165 159.549C309.385 159.242 309.433 158.845 309.318 158.485C308.954 157.342 307.827 153.86 306.993 151.725C307.188 150.254 309.649 150.876 310.884 151.617C311.52 151.997 312.604 152.087 311.609 150.416C310.795 149.052 307.973 146.903 307.973 146.903L309.267 138.719L297.848 139.252C297.848 139.252 297.406 148.657 297.33 150.073C297.255 151.489 298.578 156.33 299.737 157.839C301.84 160.577 302.056 158.949 302.056 158.949C304.508 161.589 304.537 158.908 304.537 158.908Z" fill="#FE9F73"/>
<path d="M305.349 155.859C305.347 155.788 305.392 155.719 305.463 155.695C305.552 155.665 305.649 155.712 305.679 155.801C306.106 157.051 307.175 158.839 307.186 158.856C307.233 158.936 307.207 159.042 307.128 159.089C307.046 159.137 306.942 159.111 306.894 159.031C306.849 158.955 305.798 157.194 305.36 155.911C305.353 155.894 305.349 155.877 305.349 155.859Z" fill="#F07162"/>
<path d="M303.19 155.896C303.187 155.816 303.243 155.743 303.326 155.725C303.418 155.706 303.507 155.766 303.526 155.859C303.848 157.433 304.673 158.804 304.681 158.819C304.731 158.899 304.705 159.005 304.625 159.055C304.545 159.104 304.44 159.078 304.39 158.999C304.355 158.94 303.526 157.565 303.192 155.931C303.19 155.918 303.19 155.907 303.19 155.896Z" fill="#F07162"/>
<path d="M300.732 156.319C300.73 156.241 300.784 156.168 300.864 156.151C300.955 156.129 301.048 156.185 301.069 156.278C301.387 157.63 302.19 158.845 302.198 158.858C302.25 158.936 302.229 159.042 302.151 159.096C302.073 159.148 301.967 159.126 301.913 159.048C301.879 158.996 301.067 157.768 300.735 156.358C300.735 156.343 300.732 156.33 300.732 156.319Z" fill="#F07162"/>
<path d="M296.795 142.782L296.998 146.761C296.998 146.761 299.073 148.147 302.887 148.044L301.929 142.782H296.795Z" fill="#E2F2F1"/>
<path d="M327.902 130.67C327.902 130.67 326.175 212.12 320.229 259.127C320.229 259.127 312.31 261.618 302.351 256.961L301.928 136.914L300.49 118.929L327.902 130.67Z" fill="#3AAAA4"/>
<path d="M348.802 131.458C348.802 131.458 352.285 211.751 348.388 259.064C348.388 259.064 340.989 263.725 330.843 259.69L318.574 144.33L313.364 113.464L348.802 131.458Z" fill="#7FC6A6"/>
<path d="M338.342 261.51C343.938 261.51 348.444 259.34 348.509 259.31L348.632 259.25L348.657 259.114C351.991 241.066 349.864 152.133 349.843 151.237C349.838 151.088 349.717 150.969 349.569 150.969C349.566 150.969 349.564 150.969 349.562 150.969C349.411 150.973 349.292 151.099 349.294 151.25C349.316 152.144 351.432 240.567 348.144 258.874C347.032 259.379 338.664 262.942 330.957 259.44C330.821 259.377 330.657 259.437 330.594 259.576C330.531 259.714 330.592 259.876 330.73 259.938C333.29 261.102 335.92 261.51 338.342 261.51Z" fill="black"/>
<path d="M314.527 260.014C316.332 260.014 318.267 259.837 320.287 259.397C320.434 259.364 320.529 259.217 320.497 259.071C320.464 258.922 320.315 258.831 320.171 258.861C311.075 260.85 303.72 257.356 302.625 256.797L302.204 148.039C302.204 147.888 302.081 147.767 301.93 147.767C301.779 147.767 301.656 147.89 301.658 148.041L302.081 257.125L302.222 257.203C302.282 257.237 307.373 260.014 314.527 260.014Z" fill="black"/>
<path d="M305.625 61.6427C305.625 61.6427 299.128 64.294 298.045 69.4368C296.961 74.5797 294.146 136.672 296.095 142.782H305.625V61.6427Z" fill="#4C222E"/>
<path d="M352.162 97.4311L352.673 137.192C352.673 137.192 321.862 145.969 301.931 135.504C301.931 135.504 305.417 65.6154 306.043 62.5366C306.782 58.9094 326.663 58.6136 334.96 59.5031C334.96 59.5031 347.816 59.1814 354.69 62.977L352.162 97.4311Z" fill="#E2F2F1"/>
<path d="M352.671 86.8107L352.021 147.765C352.021 147.765 336.267 153.819 328.308 150.634C328.308 150.634 328.355 61.7916 331.604 59.082C332.006 59.0928 340.182 59.2504 346.019 59.9824C351.859 60.7143 352.671 86.8107 352.671 86.8107Z" fill="#4C222E"/>
<path d="M318.423 59.082C318.423 59.082 316.778 138.788 315.154 150.634C315.154 150.634 308.531 151.09 300.085 148.05C300.085 148.05 301.605 64.9007 303.785 62.679C305.964 60.4595 318.423 59.082 318.423 59.082Z" fill="#4C222E"/>
<path d="M330.557 59.1921C330.557 59.1921 320.249 58.9482 318.521 59.2742C318.521 59.2742 319.879 63.3353 320.102 63.4973C320.324 63.6592 327.002 65.0194 327.002 65.0194C327.002 65.0194 329.279 63.6786 329.381 63.2231C329.482 62.7654 330.557 59.1921 330.557 59.1921Z" fill="#E2F2F1"/>
<path d="M352.672 106.631C352.823 106.631 352.946 106.508 352.946 106.357V93.3958C352.946 93.2447 352.823 93.1216 352.672 93.1216C352.52 93.1216 352.397 93.2447 352.397 93.3958V106.357C352.397 106.508 352.52 106.631 352.672 106.631Z" fill="black"/>
<path d="M328.31 150.909C328.461 150.909 328.584 150.785 328.584 150.634C328.448 94.0716 329.996 74.4135 330.011 74.2213C330.024 74.0702 329.912 73.9385 329.761 73.9255C329.614 73.9169 329.478 74.0248 329.465 74.176C329.45 74.3681 327.9 94.0414 328.036 150.634C328.036 150.785 328.159 150.909 328.31 150.909Z" fill="black"/>
<path d="M300.084 148.324C300.087 148.324 300.089 148.324 300.091 148.324C300.242 148.32 300.363 148.195 300.359 148.044C299.823 123.277 304.178 69.7197 304.221 69.1821C304.234 69.0309 304.122 68.8992 303.97 68.8863C303.811 68.8755 303.688 68.9856 303.675 69.1367C303.632 69.6743 299.275 123.26 299.81 148.054C299.812 148.205 299.935 148.324 300.084 148.324Z" fill="black"/>
<path d="M318.066 75.0676C318.215 75.0676 318.336 74.9489 318.34 74.7999L318.703 58.7841L318.401 58.8078C317.844 58.851 304.692 59.9284 300.808 64.4451C300.709 64.5596 300.722 64.7323 300.836 64.8316C300.951 64.9309 301.123 64.918 301.223 64.8035C304.644 60.8244 316.125 59.5743 318.142 59.3822L317.794 74.7891C317.792 74.9403 317.911 75.0655 318.062 75.0698C318.064 75.0676 318.064 75.0676 318.066 75.0676Z" fill="black"/>
<path d="M373.64 116.375C371.965 107.879 375.633 102.509 378.375 99.6787C379.32 102.395 379.996 105.135 380.283 107.866C380.665 111.532 378.694 116.381 375.665 121.442C374.778 120.183 374.065 118.529 373.64 116.375Z" fill="#FEC786"/>
<path d="M351.827 66.6021C351.771 66.6021 351.715 66.5762 351.678 66.5287C349.88 64.1321 346.944 63.1584 346.913 63.1476C346.816 63.1152 346.762 63.0116 346.795 62.9122C346.827 62.8151 346.931 62.7611 347.028 62.7935C347.153 62.8345 350.104 63.8104 351.976 66.3041C352.039 66.3862 352.021 66.5028 351.939 66.5654C351.905 66.5913 351.866 66.6021 351.827 66.6021Z" fill="#21111D"/>
<path d="M351.475 68.325C351.419 68.325 351.363 68.2991 351.326 68.2516C349.528 65.855 346.592 64.8813 346.562 64.8705C346.465 64.8381 346.411 64.7344 346.443 64.6351C346.475 64.538 346.579 64.484 346.676 64.5164C346.801 64.5574 349.753 65.5333 351.624 68.027C351.687 68.1091 351.67 68.2256 351.588 68.2883C351.555 68.3142 351.514 68.325 351.475 68.325Z" fill="#21111D"/>
<path d="M343.91 260.85C344.059 260.85 344.182 260.729 344.184 260.58L344.666 228.369C344.668 228.218 344.547 228.093 344.396 228.09C344.394 228.09 344.394 228.09 344.391 228.09C344.242 228.09 344.119 228.211 344.117 228.36L343.636 260.571C343.634 260.722 343.755 260.847 343.906 260.85C343.908 260.85 343.908 260.85 343.91 260.85Z" fill="black"/>
<path d="M314.197 260.016C314.342 260.016 314.463 259.904 314.472 259.757L316.277 228.377C316.285 228.226 316.171 228.097 316.017 228.088C315.866 228.073 315.737 228.194 315.728 228.347L313.923 259.727C313.915 259.878 314.029 260.008 314.182 260.016C314.187 260.016 314.191 260.016 314.197 260.016Z" fill="black"/>
<path d="M373.727 123.82L324.405 123.651L324.636 93.3922L373.958 93.5627L373.727 123.82Z" fill="#8CD2F9"/>
<path d="M336.761 123.692L324.405 123.651L324.636 93.3922L336.992 93.4353L336.761 123.692Z" fill="#3AA1C9"/>
<path d="M341.6 100.221L331.788 100.188L331.805 97.8888L341.62 97.9212L341.6 100.221Z" fill="#D7E4F7"/>
<path d="M341.466 117.709L331.654 117.674L331.672 115.377L341.486 115.409L341.466 117.709Z" fill="#D7E4F7"/>
<g opacity="0.5">
<g opacity="0.5">
<g opacity="0.5">
<path opacity="0.5" d="M371.285 107.691L353.619 107.628L353.623 107.136L371.29 107.197L371.285 107.691Z" fill="#D7E4F7"/>
</g>
</g>
</g>
<g opacity="0.5">
<g opacity="0.5">
<g opacity="0.5">
<path opacity="0.5" d="M371.272 109.459L353.605 109.399L353.61 108.906L371.274 108.967L371.272 109.459Z" fill="#D7E4F7"/>
</g>
</g>
</g>
<path d="M354.303 124.026C354.301 124.026 354.303 124.026 354.303 124.026L324.131 123.923L324.364 93.3915C324.366 93.2404 324.487 93.1195 324.638 93.1195H324.64C324.791 93.1217 324.912 93.2447 324.912 93.3959L324.684 123.379L354.305 123.48C354.457 123.48 354.578 123.603 354.578 123.754C354.575 123.903 354.452 124.026 354.303 124.026Z" fill="black"/>
<path d="M373.79 115.794C373.636 115.792 373.515 115.669 373.515 115.517L373.682 93.832L342.632 93.7262C342.481 93.7262 342.36 93.6031 342.36 93.452C342.36 93.3008 342.483 93.1799 342.635 93.1799L374.232 93.2879L374.062 115.522C374.062 115.673 373.941 115.794 373.79 115.794Z" fill="black"/>
<path d="M350.901 105.886C350.828 105.886 350.752 105.856 350.698 105.797L348.552 103.435C348.451 103.323 348.46 103.15 348.57 103.049C348.682 102.947 348.855 102.956 348.956 103.066L351.102 105.428C351.204 105.541 351.195 105.713 351.085 105.815C351.033 105.864 350.968 105.886 350.901 105.886Z" fill="black"/>
<path d="M350.653 107.848C350.584 107.848 350.513 107.823 350.459 107.769L348.311 105.61C348.205 105.502 348.205 105.329 348.311 105.223C348.419 105.117 348.591 105.117 348.697 105.223L350.845 107.382C350.951 107.49 350.951 107.663 350.845 107.769C350.794 107.823 350.722 107.848 350.653 107.848Z" fill="black"/>
<path d="M336.997 154.624C333.787 155.052 335.186 152.895 335.186 152.895C333.439 152.947 333.169 152.346 333.247 151.837C333.303 151.463 333.552 151.146 333.884 150.971C334.944 150.414 338.189 148.721 340.281 147.782C341.172 146.597 338.981 145.314 337.584 144.975C336.863 144.801 336.028 144.103 337.908 143.611C339.445 143.209 342.962 143.656 342.962 143.656L347.779 136.916L355.544 145.306C355.544 145.306 349.264 152.321 348.325 153.383C347.386 154.447 343.046 156.967 341.164 157.23C337.744 157.705 338.733 156.395 338.733 156.395C335.136 156.555 336.997 154.624 336.997 154.624Z" fill="#FE9F73"/>
<path d="M338.556 151.88C338.607 151.83 338.623 151.751 338.588 151.682C338.547 151.597 338.443 151.563 338.359 151.606C337.178 152.195 335.162 152.722 335.142 152.729C335.052 152.752 334.998 152.845 335.019 152.936C335.043 153.027 335.136 153.083 335.227 153.059C335.311 153.037 337.297 152.517 338.51 151.913C338.53 151.904 338.545 151.893 338.556 151.88Z" fill="#F07162"/>
<path d="M340.069 153.422C340.127 153.366 340.138 153.275 340.091 153.206C340.039 153.128 339.933 153.107 339.853 153.161C338.519 154.057 336.969 154.456 336.954 154.46C336.863 154.484 336.807 154.577 336.831 154.668C336.854 154.758 336.947 154.814 337.038 154.791C337.103 154.773 338.659 154.374 340.043 153.443C340.054 153.437 340.063 153.428 340.069 153.422Z" fill="#F07162"/>
<path d="M341.524 155.445C341.58 155.389 341.593 155.302 341.548 155.231C341.498 155.151 341.392 155.127 341.312 155.177C340.14 155.918 338.713 156.22 338.698 156.224C338.605 156.244 338.547 156.334 338.566 156.425C338.586 156.518 338.676 156.576 338.767 156.557C338.827 156.544 340.27 156.237 341.494 155.464C341.507 155.462 341.515 155.453 341.524 155.445Z" fill="#F07162"/>
<path d="M340.99 59.6844C340.99 59.6844 354.381 58.4624 361.063 69.5362C367.168 79.6535 378.822 93.8687 380.284 107.866C381.465 119.179 360.234 141.733 354.69 147.124L344.874 136.657C344.874 136.657 360.5 111.871 361.715 108.814C362.82 106.033 339.96 75.873 339.96 75.873L340.99 59.6844Z" fill="#4C222E"/>
<path d="M354.452 146.871L352.343 149.227C352.343 149.227 344.478 142.445 343.91 141.551C344.046 141.415 346.276 138.153 346.276 138.153L354.452 146.871Z" fill="#E2F2F1"/>
<path d="M373.643 89.665C373.695 89.665 373.744 89.6499 373.792 89.6218C373.919 89.5398 373.956 89.3692 373.874 89.2418L359.135 66.4466C351.599 58.3869 342.371 59.4556 342.281 59.4686C342.132 59.488 342.024 59.624 342.043 59.7751C342.063 59.9241 342.203 60.0299 342.35 60.0126C342.441 60.0018 351.385 58.9763 358.719 66.805L373.414 89.5419C373.464 89.6197 373.552 89.665 373.643 89.665Z" fill="black"/>
<path d="M367.056 110.8C367.207 110.8 367.33 110.677 367.33 110.526C367.33 110.375 367.207 110.252 367.056 110.252C365.387 110.252 362.525 108.6 361.959 108.263C361.05 104.552 348.185 86.4242 347.633 85.6448C347.544 85.5218 347.373 85.4915 347.25 85.5801C347.127 85.6686 347.097 85.8391 347.186 85.9622C347.322 86.1544 360.834 105.195 361.447 108.485L361.469 108.604L361.572 108.669C361.713 108.757 365.053 110.8 367.056 110.8Z" fill="black"/>
<path d="M354.689 147.398C354.754 147.398 354.817 147.376 354.868 147.331C354.983 147.232 354.994 147.059 354.894 146.944C352.656 144.375 346.285 137.732 345.22 136.624C350.68 128.236 361.986 108.98 361.988 108.438C361.988 108.287 361.868 108.164 361.716 108.164C361.585 108.164 361.472 108.259 361.449 108.384C361.129 109.232 350.529 127.496 344.646 136.508L344.527 136.691L344.678 136.849C344.752 136.927 352.06 144.524 354.486 147.307C354.536 147.366 354.612 147.398 354.689 147.398Z" fill="black"/>
<path d="M369.351 273.325H373.064L366.365 179.032H358.938L369.351 273.325Z" fill="#FEC786"/>
<path d="M211.266 273.325H207.553L214.252 179.032H221.678L211.266 273.325Z" fill="#FEC786"/>
<path d="M189.327 166.762C189.389 166.16 188.947 165.618 188.349 165.517L184.631 164.88C184.515 164.86 184.424 164.768 184.404 164.651C184.376 164.478 184.512 164.325 184.687 164.331L190.255 164.537C190.892 164.56 191.332 164.064 191.231 163.433C191.129 162.803 190.525 162.267 189.886 162.244L184.208 162.034C184.076 162.03 183.966 161.933 183.945 161.801L183.93 161.708C183.906 161.557 184.007 161.415 184.158 161.391L190.38 160.391C190.978 160.294 191.43 159.759 191.371 159.156C191.309 158.496 190.702 158.034 190.056 158.137L183.796 159.143C183.645 159.167 183.502 159.066 183.478 158.914L183.431 158.621C183.409 158.485 183.491 158.351 183.625 158.312L189.271 156.628C189.851 156.455 190.229 155.866 190.093 155.274C189.944 154.627 189.284 154.249 188.657 154.434C188.657 154.434 179.91 156.539 178.517 156.755L179.914 153.776C180.283 153.266 180.169 152.554 179.659 152.187C179.15 151.818 178.437 151.932 178.07 152.442L173.114 157.841C172.874 158.174 173.001 158.983 173.26 159.612C173.817 166.307 173.958 167.332 174.275 169.124L181.322 167.747C183.355 167.35 185.443 167.326 187.485 167.676L187.999 167.764C188.645 167.877 189.255 167.423 189.327 166.762Z" fill="#FE9F73"/>
<path d="M149.228 157.915L174.386 154.277C174.386 154.277 177.926 165.251 177.194 171.357C177.194 171.357 153.82 177.668 148.917 177.044C144.014 176.42 139.016 169.403 139.016 169.403C139.016 169.403 138.239 132.833 138.971 133.399C139.705 133.962 149.228 157.915 149.228 157.915Z" fill="#EF3A4C"/>
<path d="M195.788 268.451L176.842 266.912L176.648 262.929L176.462 248.88L196.026 250.866L195.788 268.451Z" fill="#FE9F73"/>
<path d="M144.683 169.58C144.683 169.58 185.551 174.708 191.264 182.031C194.081 185.643 199.819 234.086 197.438 254.239C197.438 254.239 182.84 255.242 175.858 253.552L174.159 204.414L142.777 194.923L126.665 170.167L144.683 169.58Z" fill="#258D8C"/>
<path d="M185.857 254.793C179.931 254.793 175.838 253.822 175.797 253.811L175.598 253.764L173.88 204.077L176.073 205.843L175.737 206.26L174.454 205.228L176.119 253.334C177.028 253.53 180.983 254.312 186.376 254.254L186.38 254.789C186.205 254.793 186.03 254.793 185.857 254.793Z" fill="#21111D"/>
<path d="M182.441 273.325L208.311 273.318C208.544 273.281 208.736 273.24 208.874 273.195C210.534 272.666 210.673 271.697 210.595 271.135C210.56 270.887 210.416 270.667 210.202 270.529L195.91 261.275L191.189 263.365C189.686 264.034 188.084 264.459 186.443 264.617C183.093 264.939 177.717 265.114 176.648 263.032L176.817 271.021C176.819 271.019 176.037 273.387 182.441 273.325Z" fill="#EF3A4C"/>
<path d="M141.326 269.486H125.523V215.423H122.013V269.486H106.62C104.472 269.486 102.729 271.228 102.729 273.374H122.013H125.523H145.214C145.214 271.228 143.474 269.486 141.326 269.486Z" fill="#4C222E"/>
<path d="M78.0664 131.766H114.388L133.602 215.423L91.9805 211.083L78.0664 131.766Z" fill="#FEC786"/>
<path d="M161.264 206.901C161.264 206.901 113.53 206.901 99.2861 206.901C96.9869 206.901 95.0158 205.26 94.5991 203L81.9329 134.426C81.5918 132.585 79.7913 131.38 77.9476 131.79C76.1902 132.179 75.0935 133.941 75.4195 135.711L89.7675 213.396C89.8798 213.998 90.1475 214.529 90.5231 214.961C91.4471 216.675 93.2585 217.843 95.3418 217.843H161.264C164.284 217.843 166.734 215.395 166.734 212.372C166.734 209.352 164.284 206.901 161.264 206.901Z" fill="#F99247"/>
<path d="M99.2859 207.169C96.8594 207.169 94.7782 205.438 94.3356 203.05L81.6694 134.476C81.5183 133.653 81.0498 132.947 80.3525 132.485C79.6551 132.023 78.8218 131.87 78.0036 132.051C77.8611 132.084 77.7165 131.993 77.6862 131.849C77.6539 131.704 77.7445 131.561 77.8892 131.531C78.8499 131.317 79.83 131.499 80.6482 132.041C81.4665 132.583 82.017 133.414 82.194 134.379L94.8602 202.952C95.2553 205.086 97.1163 206.636 99.2859 206.636C99.4328 206.636 99.5536 206.755 99.5536 206.904C99.5515 207.05 99.4328 207.169 99.2859 207.169Z" fill="#21111D"/>
<path d="M145.227 207.424C145.227 207.424 129.565 207.681 118.587 207.305C115.063 207.184 111.926 207.433 110.07 207.02C102.429 205.323 100.547 181.472 109.223 166.857C117.9 152.243 148.256 197.112 148.256 197.112L145.227 207.424Z" fill="#7FC6A6"/>
<path d="M173.422 268.717L157.265 267.847C155.516 267.752 154.133 266.329 154.089 264.578L153.694 248.67L173.26 250.657L173.422 268.717Z" fill="#FE9F73"/>
<path d="M132.089 174.708C132.089 174.708 174.055 179.684 175.165 184.128C176.275 188.571 178.665 234.194 176.283 254.347C176.283 254.347 160.586 255.245 153.604 253.554L151.724 207.201L144.954 207.437L128.535 178.551L132.089 174.708Z" fill="#7FC6A6"/>
<path d="M163.023 254.893C156.087 254.893 153.615 253.848 153.496 253.796L153.343 253.729L151.521 207.102L154.388 208.454L154.159 208.937L152.09 207.961L153.863 253.36C154.612 253.619 158.211 254.657 166.706 254.264L166.73 254.8C165.374 254.865 164.141 254.893 163.023 254.893Z" fill="#21111D"/>
<path d="M156.518 244.838C155.778 241.982 155.566 214.13 155.558 212.947L156.093 212.942C156.095 213.232 156.313 241.913 157.036 244.704L156.518 244.838Z" fill="#21111D"/>
<path d="M133.442 207.923C126.607 207.923 118.414 207.692 109.202 206.999L109.243 206.467C136.687 208.536 155.094 206.489 155.275 206.467L155.336 206.996C155.215 207.012 147.011 207.923 133.442 207.923Z" fill="#21111D"/>
<path d="M159.866 273.325L185.736 273.318C185.969 273.281 186.162 273.24 186.3 273.195C187.96 272.666 188.098 271.697 188.02 271.135C187.986 270.887 187.841 270.667 187.628 270.529L173.336 261.275L168.614 263.365C167.112 264.034 165.51 264.459 163.869 264.617C160.518 264.939 155.091 265.111 154.024 263.03L154.242 271.019C154.242 271.019 153.461 273.387 159.866 273.325Z" fill="#FF424D"/>
<path d="M115.892 191.585C115.892 191.585 125.806 186.863 135.024 179.905C144.243 172.948 149.811 168.552 149.811 168.552C149.811 168.552 148.528 165.72 147.293 163.349L145.124 159.178L139.821 136.033C139.821 136.033 138.163 124.901 123.153 122.252C123.727 122.517 121.926 122.044 121.926 122.044C121.926 122.044 108.334 122.537 103.185 123.249C95.1798 124.357 94.3594 145.047 94.3594 145.047C94.3572 158.787 95.9829 177.594 100.758 183.72C106.825 191.501 113.82 191.749 115.901 191.63C115.894 191.6 115.892 191.585 115.892 191.585Z" fill="#EF3A4C"/>
<path d="M111.957 121.615C111.957 121.615 102.894 121.297 98.5672 123.748C92.1099 127.405 94.4113 148.354 94.4113 148.354C94.4113 148.354 99.897 145.362 100.23 144.364C100.562 143.367 111.957 121.615 111.957 121.615Z" fill="#EF3A4C"/>
<path d="M109.631 190.829C110.216 191.052 110.769 191.222 111.276 191.358C114.329 192.168 116.462 191.831 116.55 191.816C116.686 191.795 116.777 191.665 116.755 191.529C116.734 191.393 116.604 191.302 116.468 191.324C116.447 191.328 114.331 191.659 111.375 190.868C108.649 190.141 104.627 188.282 100.95 183.564C96.3323 177.642 94.6462 159.409 94.6051 145.595C94.6051 145.457 94.4929 145.345 94.3547 145.347C94.2165 145.347 94.1064 145.459 94.1064 145.597C94.1475 159.491 95.8616 177.851 100.557 183.873C103.649 187.835 106.984 189.828 109.631 190.829Z" fill="#21111D"/>
<path d="M117.043 168.017C117.088 168.034 117.138 168.039 117.188 168.026C117.322 167.993 117.406 167.859 117.373 167.725C117.332 167.548 113.205 150.004 111.449 138.965C111.428 138.829 111.298 138.736 111.164 138.757C111.028 138.779 110.936 138.906 110.957 139.042C112.717 150.101 116.847 167.665 116.89 167.84C116.909 167.926 116.97 167.989 117.043 168.017Z" fill="#21111D"/>
<path d="M117.106 131.471C117.298 131.49 117.494 131.507 117.695 131.522C117.809 131.531 117.909 131.445 117.915 131.33C117.924 131.216 117.842 131.119 117.723 131.11C109.135 130.508 107.54 124.218 107.527 124.156C107.505 124.046 107.399 123.968 107.289 123.987C107.179 124.007 107.101 124.106 107.119 124.218C107.129 124.281 108.714 130.603 117.106 131.471Z" fill="#21111D"/>
<path d="M123.012 218.154L97.1553 218.109C90.1907 218.737 89.3617 212.776 89.3207 212.45L87.7836 204.127C87.7576 203.982 87.8526 203.842 87.9973 203.816C88.1419 203.79 88.2823 203.885 88.3082 204.03L89.8496 212.383C89.8734 212.621 90.5167 218.18 97.1186 217.578L97.1424 217.576L123.01 217.621C123.157 217.621 123.276 217.742 123.276 217.889C123.278 218.036 123.159 218.154 123.012 218.154Z" fill="#21111D"/>
<path d="M92.0601 132.032L79.3485 132.013C79.2017 132.013 79.083 131.892 79.083 131.745C79.083 131.598 79.2017 131.479 79.3507 131.479L92.0601 131.499C92.2069 131.499 92.3257 131.617 92.3257 131.766C92.3257 131.913 92.2069 132.032 92.0601 132.032Z" fill="#21111D"/>
<path d="M138.995 156.805C137.311 151.129 135.493 144.695 134.861 141.372C134.835 141.236 134.703 141.148 134.569 141.173C134.433 141.199 134.345 141.329 134.371 141.465C135.01 144.82 136.847 151.317 138.54 157.025C138.693 156.952 138.846 156.878 138.995 156.805Z" fill="#21111D"/>
<path d="M134.284 180.639C134.213 180.639 134.144 180.604 134.1 180.542C134.034 180.44 134.059 180.304 134.161 180.237C137.032 178.322 148.258 169.496 149.552 168.477C147.781 163.189 142.79 156.678 141.985 155.648L117.699 167.864L114.491 170.198C114.394 170.269 114.256 170.247 114.185 170.15C114.113 170.053 114.135 169.915 114.232 169.843L117.486 167.481L142.106 155.097L142.218 155.235C142.276 155.309 148.125 162.658 150.018 168.49L150.065 168.637L149.945 168.732C149.819 168.831 137.451 178.575 134.405 180.606C134.368 180.628 134.327 180.639 134.284 180.639Z" fill="#21111D"/>
<path d="M176.849 166.43C176.725 166.43 176.62 166.335 176.609 166.21C176.166 161.261 174.575 155.717 174.247 154.614L149.072 158.126L144.599 147.057C140.404 135.163 136.913 130.27 136.879 130.223C131.309 123.124 122 122.293 121.905 122.284C121.771 122.273 121.674 122.157 121.684 122.023C121.695 121.889 121.812 121.789 121.946 121.802C122.041 121.811 131.561 122.662 137.265 129.931C137.306 129.987 140.832 134.923 145.05 146.886L149.379 157.595L174.59 154.076L174.651 154.272C174.67 154.335 176.596 160.614 177.09 166.164C177.101 166.298 177.004 166.415 176.872 166.426C176.864 166.43 176.857 166.43 176.849 166.43Z" fill="#21111D"/>
<path d="M123.975 103.338L124.256 114.192C124.256 114.192 124.491 117.677 121.451 118.193L122.142 122.832C122.399 124.557 121.408 126.241 119.759 126.809C118.954 127.088 117.989 127.302 116.888 127.33C113.399 127.42 111.441 124.853 111.117 123.551C110.793 122.249 111.503 115.977 111.503 115.977L111.318 112.909L111.406 100.998L123.975 103.338Z" fill="#FE9F73"/>
<path d="M114.299 115.412C114.299 115.412 114.655 121.245 121.963 121.615L121.453 118.193C121.451 118.193 116.747 119.266 114.299 115.412Z" fill="#F07162"/>
<path d="M115.701 109.25C115.664 109.25 115.627 109.239 115.599 109.211C115.541 109.157 115.537 109.064 115.591 109.006C115.61 108.984 117.557 106.888 119.423 108.313C119.487 108.362 119.498 108.453 119.451 108.516C119.401 108.58 119.31 108.591 119.248 108.544C117.594 107.281 115.88 109.122 115.809 109.202C115.776 109.232 115.74 109.248 115.701 109.25Z" fill="black"/>
<path d="M110.65 107.853L113.805 108.425L114.387 108.997C114.387 108.997 113.979 103.744 113.362 102.725C112.745 101.708 110.65 107.853 110.65 107.853Z" fill="black"/>
<path d="M121.67 108.222C121.629 108.222 121.588 108.207 121.557 108.175C121.503 108.116 121.508 108.023 121.566 107.969C121.624 107.918 122.98 106.696 123.876 107.423C123.939 107.473 123.947 107.566 123.898 107.628C123.848 107.691 123.755 107.7 123.693 107.65C122.991 107.08 121.775 108.172 121.763 108.185C121.739 108.207 121.704 108.22 121.67 108.222Z" fill="black"/>
<path d="M118.656 109.759C118.662 110.001 118.472 110.2 118.23 110.206C117.988 110.213 117.79 110.023 117.783 109.781C117.777 109.539 117.967 109.34 118.209 109.334C118.448 109.33 118.649 109.52 118.656 109.759Z" fill="black"/>
<path d="M123.28 109.204C123.286 109.446 123.096 109.645 122.854 109.651C122.612 109.658 122.414 109.468 122.407 109.226C122.401 108.984 122.591 108.786 122.833 108.779C123.072 108.773 123.273 108.963 123.28 109.204Z" fill="black"/>
<path d="M114.257 111.642C115.288 110.629 115.303 108.973 114.29 107.942C113.277 106.911 111.621 106.896 110.59 107.909C109.559 108.922 109.545 110.579 110.557 111.609C111.57 112.64 113.227 112.655 114.257 111.642Z" fill="#FE9F73"/>
<path d="M112.013 111.234C111.469 111.249 111.095 110.85 110.966 110.444C110.812 109.964 110.961 109.492 111.348 109.237C111.918 108.861 112.449 109.079 112.723 109.25C112.602 108.956 112.419 108.745 112.179 108.619C111.656 108.349 111.022 108.572 111.015 108.574C110.979 108.587 110.935 108.567 110.922 108.531C110.91 108.494 110.929 108.451 110.966 108.438C110.994 108.427 111.665 108.192 112.244 108.49C112.578 108.662 112.812 108.978 112.937 109.427L113.006 109.677L112.816 109.498C112.79 109.472 112.151 108.883 111.428 109.36C111.026 109.623 111.002 110.085 111.104 110.401C111.21 110.729 111.51 111.102 112.008 111.089C112.013 111.089 112.017 111.089 112.024 111.089C112.062 111.089 112.097 111.119 112.099 111.158C112.101 111.199 112.069 111.232 112.03 111.234C112.024 111.234 112.017 111.234 112.013 111.234Z" fill="#F07162"/>
<path d="M120.271 112.661C120.24 112.661 120.21 112.644 120.199 112.614C120.186 112.575 120.206 112.534 120.243 112.521L121.687 112L121.138 108.583C121.132 108.544 121.16 108.505 121.199 108.498C121.24 108.492 121.277 108.52 121.283 108.559L121.851 112.095L120.292 112.657C120.286 112.661 120.277 112.661 120.271 112.661Z" fill="#F07162"/>
<path d="M119.179 114.108C119.224 114.097 122.054 113.959 122.054 113.959C122.054 113.959 121.728 115.14 120.677 115.194C119.626 115.248 119.179 114.108 119.179 114.108Z" fill="#FBFDFC"/>
<path d="M110.651 107.853C110.651 107.853 109.636 102.781 111.146 100.84C112.657 98.9014 121.523 95.3455 122.633 96.2652C123.743 97.1871 122.687 98.3681 122.687 98.3681C122.687 98.3681 126.251 97.1224 127.149 100.29C128.047 103.457 120.349 105.014 115.699 103.641C115.699 103.643 112.672 104.61 110.651 107.853Z" fill="black"/>
<path d="M154.131 161.302L160.424 160.965C161.029 160.933 161.534 160.447 161.54 159.841C161.547 159.176 160.994 158.653 160.342 158.69L154.01 159.029C153.857 159.037 153.727 158.921 153.719 158.768L153.704 158.472C153.697 158.334 153.792 158.211 153.928 158.185L159.721 157.107C160.316 156.997 160.752 156.451 160.681 155.849C160.601 155.188 159.986 154.743 159.343 154.862C159.343 154.862 150.422 156.03 149.012 156.099L150.718 153.284C151.139 152.815 151.1 152.096 150.632 151.675C150.163 151.254 149.444 151.293 149.023 151.761L143.525 156.609C143.477 156.66 143.44 156.729 143.41 156.809C145.081 159.089 148.088 163.466 149.632 167.415L150.638 167.326C152.702 167.145 154.781 167.343 156.776 167.907L157.277 168.049C157.905 168.226 158.561 167.84 158.699 167.19C158.827 166.596 158.442 166.013 157.857 165.847L154.228 164.819C154.114 164.787 154.034 164.686 154.028 164.569C154.019 164.394 154.17 164.256 154.343 164.28L159.857 165.072C160.489 165.163 160.977 164.716 160.942 164.079C160.908 163.442 160.364 162.846 159.731 162.755L154.107 161.946C153.978 161.926 153.879 161.818 153.87 161.687L153.866 161.594C153.861 161.44 153.98 161.309 154.131 161.302Z" fill="#FE9F73"/>
<path d="M169.614 273.325H165.9L172.599 179.032H180.026L169.614 273.325Z" fill="#FEC786"/>
<path d="M230.106 148.888H198.278L187.179 177.156H219.005L230.106 148.888Z" fill="#4CB7D8"/>
<path d="M187.179 177.156H188.839L199.938 148.888H198.278L187.179 177.156Z" fill="#3AA1C9"/>
<path d="M209.297 162.123C208.856 163.42 209.178 164.705 210.018 164.99C210.858 165.275 211.896 164.454 212.339 163.155C212.779 161.857 212.457 160.573 211.618 160.288C210.778 160.003 209.739 160.823 209.297 162.123Z" fill="#E2F2F1"/>
<path d="M176.656 174.874H188.547V177.156H176.656C176.025 177.156 175.514 176.644 175.514 176.014C175.514 175.386 176.025 174.874 176.656 174.874Z" fill="#3AA1C9"/>
<path d="M179.667 176.016H187.178V175.658H179.667V176.016Z" fill="#4CB7D8"/>
<path d="M167.947 158.575V160.808C164.037 160.808 160.857 163.988 160.857 167.898C160.857 171.806 164.037 174.986 167.947 174.986V175.874C167.947 176.582 168.521 177.154 169.227 177.154H179.096C179.804 177.154 180.376 176.58 180.376 175.874V158.573H167.947V158.575ZM162.606 167.9C162.606 164.955 165.002 162.559 167.947 162.559V173.242C165.002 173.24 162.606 170.845 162.606 167.9Z" fill="#FEBAC7"/>
<path d="M173.376 167.766L173.082 167.943L174.915 171L175.21 170.823L173.376 167.766Z" fill="#49263E"/>
<path d="M175.454 168.346L175.156 168.518L176.888 171.524L177.185 171.352L175.454 168.346Z" fill="#49263E"/>
<path d="M314.78 158.575V175.876C314.78 176.584 315.355 177.156 316.06 177.156H325.929C326.637 177.156 327.209 176.582 327.209 175.876V174.988C331.119 174.988 334.299 171.808 334.299 167.9C334.299 163.99 331.119 160.81 327.209 160.81V158.578H314.78V158.575ZM327.211 173.24V162.557C330.156 162.557 332.552 164.953 332.552 167.898C332.552 170.845 330.156 173.24 327.211 173.24Z" fill="#FECC86"/>
<path d="M321.8 167.791L319.966 170.848L320.26 171.024L322.094 167.968L321.8 167.791Z" fill="#49263E"/>
<path d="M319.691 168.36L317.959 171.366L318.256 171.538L319.989 168.532L319.691 168.36Z" fill="#49263E"/>
<path d="M380.579 145.109C380.672 144.509 381.24 144.101 381.844 144.155L385.603 144.49C385.722 144.501 385.832 144.434 385.879 144.326C385.951 144.166 385.858 143.982 385.687 143.944L380.253 142.717C379.631 142.577 379.334 141.985 379.593 141.4C379.852 140.817 380.573 140.454 381.197 140.595L386.738 141.845C386.868 141.873 386.998 141.808 387.052 141.687L387.09 141.601C387.153 141.461 387.09 141.299 386.95 141.236L381.19 138.678C380.635 138.431 380.337 137.799 380.549 137.229C380.78 136.605 381.482 136.316 382.08 136.581L387.874 139.155C388.014 139.217 388.176 139.155 388.239 139.014L388.36 138.745C388.416 138.617 388.371 138.468 388.252 138.397L383.224 135.325C382.706 135.009 382.494 134.342 382.775 133.805C383.083 133.217 383.82 133.021 384.377 133.36C384.377 133.36 392.293 137.633 393.587 138.198L392.997 134.96C392.77 134.372 393.064 133.714 393.651 133.489C394.238 133.263 394.897 133.556 395.121 134.144L398.53 140.632C398.677 141.014 398.347 141.765 397.937 142.305C395.685 148.635 395.286 149.592 394.521 151.241L388.062 148.106C386.199 147.202 384.185 146.644 382.121 146.459L381.602 146.413C380.95 146.362 380.476 145.766 380.579 145.109Z" fill="#FE9F73"/>
<path d="M399.318 139.552L425.859 162.168L422.835 177.169L415.27 176.048L389.845 150.323C389.847 150.323 393.02 142.408 399.318 139.552Z" fill="#FD7583"/>
<path d="M421.39 158.601C421.334 158.601 421.28 158.582 421.235 158.543L399.281 139.835C394.562 142.117 391.751 147.178 391.723 147.23C391.658 147.346 391.511 147.389 391.395 147.325C391.278 147.26 391.235 147.113 391.3 146.996C391.328 146.942 394.266 141.646 399.216 139.33L399.357 139.263L421.548 158.172C421.649 158.258 421.662 158.411 421.576 158.513C421.528 158.573 421.459 158.601 421.39 158.601Z" fill="#21111D"/>
<path d="M430.683 101.576C430.683 101.576 428.5 96.8611 433.856 92.7891C439.215 88.7172 440.216 95.4577 442.332 96.0493C444.448 96.6409 448.234 95.8183 449.707 99.7262C451.179 103.634 450.106 106.795 451.725 108.425C454.43 111.148 461.086 117.066 456.956 127.902C454.245 135.016 445.298 143.337 445.298 143.337C445.298 143.337 423.299 129.268 421.304 121.958C419.307 114.647 421.995 111.439 425.542 108.919C427.725 107.367 432.127 106.05 430.683 101.576Z" fill="#4C222E"/>
<path d="M433.632 103.835C433.632 103.835 431.38 113.896 432.926 116.275C432.926 116.275 433.675 117.536 435.674 117.717L435.214 124.082L444.195 124.732L445.707 103.85L433.632 103.835Z" fill="#FE9F73"/>
<path d="M435.99 112.033C436.028 112.035 436.063 112.011 436.074 111.974C436.087 111.931 436.061 111.886 436.018 111.873C435.499 111.722 435.214 111.048 435.132 110.83C435.91 110.485 436.404 109.999 436.603 109.384C436.924 108.382 436.346 107.41 436.32 107.371C436.296 107.333 436.246 107.32 436.208 107.343C436.169 107.367 436.156 107.417 436.179 107.456C436.186 107.464 436.745 108.403 436.445 109.334C436.257 109.919 435.769 110.383 434.999 110.709L434.932 110.737L434.953 110.809C434.966 110.85 435.268 111.826 435.972 112.031C435.979 112.033 435.983 112.033 435.99 112.033Z" fill="#F07162"/>
<path d="M435.49 120.278L435.676 117.717C435.676 117.717 440.022 117.776 442.798 116.295C442.796 116.295 438.942 119.499 435.49 120.278Z" fill="#F07162"/>
<path d="M441.315 108.082C441.357 108.084 441.398 108.073 441.432 108.045C441.501 107.987 441.512 107.883 441.454 107.814C441.434 107.79 439.491 105.493 437.462 106.901C437.388 106.953 437.369 107.054 437.421 107.13C437.473 107.203 437.574 107.222 437.65 107.171C439.431 105.938 441.13 107.939 441.201 108.023C441.231 108.058 441.272 108.08 441.315 108.082Z" fill="#4C222E"/>
<path d="M435.652 107.313C435.698 107.317 435.745 107.3 435.78 107.266C435.844 107.201 435.844 107.097 435.78 107.035C435.721 106.976 434.355 105.625 433.374 106.35C433.301 106.404 433.286 106.508 433.34 106.579C433.394 106.652 433.497 106.667 433.569 106.614C434.322 106.056 435.536 107.253 435.546 107.266C435.577 107.294 435.615 107.311 435.652 107.313Z" fill="#4C222E"/>
<path d="M433.688 108.447C433.67 108.699 433.858 108.917 434.111 108.935C434.363 108.952 434.581 108.764 434.599 108.511C434.616 108.259 434.428 108.041 434.176 108.023C433.925 108.006 433.707 108.194 433.688 108.447Z" fill="black"/>
<path d="M438.737 109.194C438.985 109.149 439.15 108.911 439.105 108.662C439.06 108.414 438.822 108.248 438.573 108.293C438.325 108.338 438.16 108.576 438.205 108.825C438.25 109.074 438.488 109.239 438.737 109.194Z" fill="black"/>
<path d="M448.28 112.354C448.864 111.064 448.291 109.546 447.002 108.962C445.713 108.379 444.194 108.951 443.611 110.241C443.028 111.53 443.6 113.049 444.889 113.632C446.179 114.216 447.697 113.643 448.28 112.354Z" fill="#FE9F73"/>
<path d="M446.013 112.886C446.55 112.924 446.937 112.547 447.084 112.154C447.259 111.687 447.131 111.212 446.762 110.945C446.235 110.562 445.719 110.727 445.434 110.878C445.564 110.614 445.745 110.426 445.976 110.321C446.496 110.083 447.101 110.327 447.105 110.329C447.146 110.347 447.196 110.327 447.213 110.284C447.231 110.243 447.211 110.193 447.168 110.176C447.14 110.165 446.492 109.9 445.907 110.169C445.568 110.325 445.324 110.625 445.182 111.059L445.089 111.338L445.311 111.145C445.339 111.122 445.983 110.58 446.663 111.072C447.038 111.344 447.041 111.791 446.928 112.091C446.812 112.406 446.501 112.758 446.011 112.717C445.968 112.713 445.927 112.747 445.922 112.793C445.918 112.838 445.952 112.877 445.998 112.881C446.002 112.883 446.009 112.883 446.013 112.886Z" fill="#F07162"/>
<path d="M433.632 103.835C433.632 103.835 434.694 99.9572 439.988 99.9054C445.281 99.8535 445.704 103.85 445.704 103.85L439.61 104.634L434.02 103.835H433.632Z" fill="#FE9F73"/>
<path d="M433.873 100.503C433.873 100.503 436.915 103.945 441.215 103.526C441.215 103.526 442.258 108.818 445.347 108.801C448.437 108.783 447.286 101.475 447.286 101.475C447.286 101.475 441.71 98.7179 441.345 98.692C440.982 98.6661 434.911 97.8608 434.911 97.8608L433.873 100.503Z" fill="#4C222E"/>
<path d="M435.1 113.108C435.147 113.093 438.202 112.704 438.202 112.704C438.202 112.704 437.949 114.011 436.814 114.159C435.678 114.306 435.1 113.108 435.1 113.108Z" fill="#FBFDFC"/>
<path d="M428.862 269.486H444.665V215.423H448.175V269.486H463.568C465.716 269.486 467.459 271.228 467.459 273.374H448.175H444.665H424.972C424.974 271.228 426.714 269.486 428.862 269.486Z" fill="#4C222E"/>
<path d="M492.122 131.766H455.801L436.587 215.423L478.208 211.083L492.122 131.766Z" fill="#FEC786"/>
<path d="M408.925 206.902C408.925 206.902 456.658 206.902 470.902 206.902C473.201 206.902 475.173 205.261 475.589 203.001L488.255 134.427C488.596 132.585 490.397 131.381 492.241 131.791C493.998 132.179 495.095 133.941 494.769 135.712L480.421 213.396C480.308 213.999 480.041 214.53 479.665 214.962C478.741 216.676 476.93 217.844 474.847 217.844H408.925C405.904 217.844 403.454 215.396 403.454 212.373C403.456 209.353 405.904 206.902 408.925 206.902Z" fill="#F99247"/>
<path d="M470.902 207.169C473.329 207.169 475.41 205.438 475.853 203.05L488.519 134.476C488.67 133.653 489.139 132.947 489.836 132.485C490.533 132.023 491.367 131.87 492.185 132.051C492.327 132.084 492.472 131.993 492.502 131.849C492.535 131.704 492.444 131.561 492.299 131.531C491.339 131.317 490.359 131.499 489.54 132.041C488.722 132.583 488.172 133.414 487.995 134.379L475.328 202.953C474.933 205.086 473.072 206.636 470.902 206.636C470.756 206.636 470.635 206.755 470.635 206.904C470.637 207.05 470.756 207.169 470.902 207.169Z" fill="#21111D"/>
<path d="M478.128 132.032C478.128 132.032 478.13 132.032 478.128 132.032L490.839 132.013C490.986 132.013 491.105 131.892 491.105 131.745C491.105 131.598 490.986 131.479 490.837 131.479L478.128 131.499C477.981 131.499 477.862 131.618 477.862 131.767C477.862 131.913 477.981 132.032 478.128 132.032Z" fill="#21111D"/>
<path d="M374.4 268.452L393.346 266.912L393.54 262.929L393.728 248.88L374.162 250.866L374.4 268.452Z" fill="#FE9F73"/>
<path d="M425.506 169.58C425.506 169.58 384.638 174.708 378.925 182.031C376.108 185.643 370.369 234.086 372.751 254.239C372.751 254.239 387.349 255.242 394.331 253.552L396.03 204.414L427.412 194.923L443.524 170.167L425.506 169.58Z" fill="#3AA1C9"/>
<path d="M384.331 254.794C390.257 254.794 394.35 253.822 394.391 253.811L394.59 253.764L396.308 204.077L394.115 205.843L394.452 206.26L395.734 205.228L394.07 253.334C393.161 253.53 389.206 254.312 383.813 254.254L383.809 254.789C383.983 254.794 384.158 254.794 384.331 254.794Z" fill="#21111D"/>
<path d="M387.749 273.325L361.879 273.318C361.646 273.281 361.453 273.24 361.315 273.195C359.655 272.666 359.517 271.697 359.595 271.135C359.629 270.887 359.774 270.667 359.988 270.529L374.279 261.275L379.001 263.365C380.503 264.034 382.105 264.46 383.746 264.617C387.097 264.939 392.472 265.114 393.541 263.032L393.373 271.021C393.373 271.019 394.154 273.387 387.749 273.325Z" fill="#CE1D37"/>
<path d="M424.962 207.424C424.962 207.424 440.624 207.681 451.602 207.305C455.126 207.184 458.262 207.433 460.119 207.02C467.759 205.323 469.642 181.472 460.965 166.857C452.289 152.243 421.933 197.112 421.933 197.112L424.962 207.424Z" fill="#4CB7D8"/>
<path d="M396.767 268.717L412.924 267.847C414.673 267.752 416.056 266.329 416.1 264.578L416.495 248.67L396.929 250.657L396.767 268.717Z" fill="#FE9F73"/>
<path d="M438.103 174.708C438.103 174.708 396.136 179.684 395.026 184.128C393.917 188.571 391.527 234.194 393.908 254.347C393.908 254.347 409.605 255.245 416.587 253.554L418.468 207.202L425.238 207.437L441.656 178.551L438.103 174.708Z" fill="#4CB7D8"/>
<path d="M407.166 254.893C414.102 254.893 416.574 253.848 416.693 253.796L416.846 253.729L418.668 207.102L415.801 208.454L416.03 208.937L418.098 207.962L416.326 253.36C415.577 253.619 411.978 254.657 403.483 254.264L403.459 254.8C404.815 254.865 406.048 254.893 407.166 254.893Z" fill="#21111D"/>
<path d="M415.149 244.467C415.89 241.61 414.622 214.13 414.631 212.947L414.096 212.942C414.094 213.232 415.354 241.541 414.631 244.333L415.149 244.467Z" fill="#21111D"/>
<path d="M436.747 207.923C443.582 207.923 451.775 207.692 460.987 206.999L460.946 206.467C433.502 208.536 415.095 206.489 414.914 206.467L414.854 206.996C414.974 207.012 423.178 207.923 436.747 207.923Z" fill="#21111D"/>
<path d="M410.324 273.325L384.454 273.318C384.221 273.281 384.029 273.24 383.89 273.195C382.23 272.666 382.092 271.697 382.17 271.135C382.204 270.887 382.349 270.667 382.563 270.529L396.855 261.275L401.576 263.365C403.079 264.034 404.681 264.46 406.321 264.617C409.672 264.939 415.099 265.112 416.166 263.03L415.948 271.019C415.946 271.019 416.727 273.387 410.324 273.325Z" fill="#EF3A4C"/>
<path d="M447.176 218.154L473.033 218.109C479.998 218.737 480.827 212.776 480.868 212.45L482.405 204.127C482.431 203.982 482.336 203.842 482.191 203.816C482.047 203.79 481.906 203.885 481.881 204.03L480.339 212.383C480.315 212.621 479.672 218.18 473.07 217.578L473.046 217.576L447.179 217.621C447.032 217.621 446.913 217.742 446.913 217.889C446.911 218.036 447.03 218.154 447.176 218.154Z" fill="#21111D"/>
<path d="M419.836 138.155C419.333 138.848 417.269 160.797 416.956 164.144L417.733 165.359L427.338 177.154C429.193 174.334 429.955 172.709 429.955 172.709C429.955 172.709 420.38 137.404 419.836 138.155Z" fill="#FD7583"/>
<path d="M458.401 187.461C458.401 187.461 447.556 185.73 436.749 181.658C425.942 177.586 419.361 174.941 419.361 174.941C419.361 174.941 419.791 171.862 420.307 169.239L421.211 164.625L419.765 140.923C419.765 140.923 418.215 129.776 431.866 122.996C431.391 123.413 432.984 122.452 432.984 122.452C432.984 122.452 446.714 118.955 451.766 120.183C461.116 122.452 465.922 136.739 465.922 136.739C469.802 149.92 473.552 168.421 470.7 175.645C467.077 184.821 460.436 187.034 458.407 187.507C458.403 187.476 458.401 187.461 458.401 187.461Z" fill="#FD7583"/>
<path d="M417.809 155.548C417.8 155.548 417.794 155.548 417.785 155.546C417.654 155.533 417.557 155.415 417.57 155.283L417.813 152.8C418.485 140.146 420.473 134.413 420.493 134.357C423.917 125.764 432.809 122.26 432.898 122.226C433.021 122.178 433.161 122.241 433.211 122.364C433.258 122.489 433.196 122.627 433.072 122.677C432.984 122.711 424.286 126.142 420.946 134.528C420.929 134.575 418.964 140.254 418.297 152.837L418.053 155.33C418.038 155.456 417.932 155.548 417.809 155.548Z" fill="#21111D"/>
<path d="M433.688 122.278C433.688 122.278 435.944 126.684 439.877 126.257C443.813 125.827 446.665 121.906 446.455 120.039C446.455 120.039 437.729 120.589 433.688 122.278Z" fill="#FE9F73"/>
<path d="M411.438 151.306H411.514H419.165L417.231 174.092H411.514H411.438H405.516L403.787 151.306H411.438Z" fill="#49263E"/>
<path d="M405.829 147.309H411.438H411.511H417.12C417.776 147.309 418.31 147.847 418.31 148.508H411.511H411.438H404.64C404.64 147.845 405.173 147.309 405.829 147.309Z" fill="#CE1D37"/>
<path d="M403.958 149.123C404.033 148.765 404.346 148.508 404.709 148.508H411.438H411.512H418.241C418.604 148.508 418.919 148.765 418.992 149.123L419.631 152.169C419.733 152.651 419.368 153.104 418.88 153.104H411.512H411.438H404.07C403.582 153.104 403.217 152.651 403.319 152.169L403.958 149.123Z" fill="#EF3A4C"/>
<path d="M418.787 158.301L418.286 167.566H411.525H411.43H404.666L404.165 158.301H411.43H411.525H418.787Z" fill="#EF3A4C"/>
<path d="M418.439 167.725H404.668C404.579 167.725 404.506 167.654 404.506 167.564C404.506 167.475 404.577 167.402 404.668 167.402H418.135L418.627 158.29C418.631 158.202 418.707 158.133 418.798 158.139C418.886 158.144 418.955 158.219 418.949 158.31L418.439 167.725Z" fill="#21111D"/>
<path d="M407.85 156.058C407.794 156.058 407.74 156.028 407.71 155.976L406.395 153.655C406.352 153.577 406.378 153.48 406.455 153.435C406.533 153.391 406.63 153.417 406.675 153.495L407.99 155.816C408.033 155.894 408.008 155.991 407.93 156.036C407.904 156.052 407.876 156.058 407.85 156.058Z" fill="#21111D"/>
<path d="M407.63 157.39C407.574 157.39 407.52 157.362 407.49 157.31L406.301 155.268C406.255 155.19 406.281 155.093 406.359 155.048C406.437 155.002 406.534 155.028 406.579 155.106L407.769 157.148C407.814 157.226 407.788 157.323 407.71 157.368C407.684 157.384 407.656 157.39 407.63 157.39Z" fill="#21111D"/>
<path d="M406.7 163.602C405.715 162.146 407.132 160.795 407.132 160.795C407.028 158.852 408.034 158.038 408.034 158.038C408.034 158.038 412.499 160.596 415.197 162.211C416.879 162.272 417.607 161.579 417.607 161.579L417.637 161.654C417.933 160.242 418.304 158.476 418.341 158.277C418.403 157.939 419.047 157.498 419.692 158.727C420.338 159.955 421.771 163.012 421.771 163.012L426.123 161.443L427.341 173.974C427.341 173.974 416.819 173.51 415.219 173.328C413.619 173.147 408.371 170.828 406.989 169.17C405.608 167.512 406.186 166.367 406.186 166.367C405.245 164.679 406.7 163.602 406.7 163.602Z" fill="#FE9F73"/>
<path d="M410.264 163.269C410.344 163.284 410.428 163.248 410.469 163.172C410.521 163.079 410.484 162.96 410.391 162.911C409.075 162.196 407.276 160.665 407.259 160.65C407.177 160.581 407.056 160.59 406.987 160.672C406.918 160.754 406.926 160.875 407.008 160.944C407.084 161.009 408.856 162.516 410.208 163.25C410.225 163.258 410.245 163.265 410.264 163.269Z" fill="#F07162"/>
<path d="M409.815 165.677C409.906 165.694 409.996 165.644 410.031 165.556C410.07 165.456 410.02 165.344 409.921 165.305C408.22 164.649 406.842 163.466 406.829 163.455C406.747 163.386 406.626 163.394 406.557 163.474C406.488 163.554 406.497 163.677 406.577 163.746C406.635 163.796 408.017 164.983 409.783 165.666C409.791 165.672 409.802 165.674 409.815 165.677Z" fill="#F07162"/>
<path d="M408.879 168.345C408.967 168.362 409.056 168.315 409.092 168.231C409.133 168.131 409.088 168.019 408.989 167.978C407.538 167.369 406.329 166.24 406.316 166.227C406.238 166.154 406.115 166.158 406.042 166.236C405.968 166.313 405.973 166.437 406.05 166.51C406.102 166.557 407.322 167.7 408.838 168.334C408.853 168.339 408.866 168.343 408.879 168.345Z" fill="#F07162"/>
<path d="M464.192 184.97C463.694 185.348 463.212 185.669 462.763 185.941C460.062 187.58 457.923 187.859 457.832 187.872C457.696 187.889 457.571 187.792 457.554 187.656C457.536 187.52 457.634 187.394 457.77 187.377C457.791 187.375 459.913 187.094 462.526 185.503C464.935 184.035 468.268 181.118 470.466 175.554C473.225 168.57 469.695 150.602 465.835 137.337C465.796 137.205 465.872 137.065 466.006 137.028C466.138 136.989 466.276 137.065 466.315 137.199C470.196 150.537 473.735 168.637 470.93 175.738C469.087 180.406 466.451 183.26 464.192 184.97Z" fill="#21111D"/>
<path d="M450.643 165.178C450.604 165.206 450.559 165.225 450.507 165.227C450.369 165.236 450.253 165.13 450.244 164.992C450.233 164.811 449.24 146.815 447.809 135.728C447.791 135.592 447.889 135.467 448.025 135.45C448.161 135.433 448.286 135.53 448.303 135.666C449.737 146.772 450.732 164.787 450.74 164.966C450.747 165.05 450.708 165.128 450.643 165.178Z" fill="#21111D"/>
<path d="M439.339 129.34C439.149 129.374 438.955 129.407 438.756 129.437C438.644 129.454 438.538 129.376 438.521 129.262C438.504 129.15 438.579 129.044 438.696 129.027C447.211 127.748 448.305 121.356 448.312 121.291C448.325 121.178 448.424 121.094 448.536 121.105C448.648 121.116 448.733 121.209 448.726 121.323C448.72 121.388 447.638 127.813 439.339 129.34Z" fill="#21111D"/>
<path d="M426.421 160.618C426.434 154.696 426.361 148.011 426.03 144.645C426.017 144.507 426.117 144.386 426.255 144.373C426.393 144.36 426.514 144.459 426.527 144.598C426.862 147.996 426.933 154.747 426.92 160.702C426.754 160.672 426.585 160.644 426.421 160.618Z" fill="#21111D"/>
<path d="M431.351 166.173L427.34 160.855L423.225 160.35C423.225 160.35 420.762 165.577 420.14 169.872C419.519 174.166 419.149 174.706 419.149 174.706L432.984 175.168L431.351 166.173Z" fill="#FD7583"/>
<path d="M437.666 182.152C437.735 182.133 437.791 182.079 437.815 182.008C437.852 181.891 437.787 181.768 437.671 181.733C434.374 180.708 421.114 175.409 419.586 174.796C419.793 169.224 422.742 161.568 423.225 160.352L449.972 165.217L453.709 166.549C453.823 166.59 453.949 166.529 453.99 166.415C454.031 166.3 453.97 166.175 453.856 166.134L450.069 164.787L422.953 159.856L422.886 160.02C422.85 160.106 419.316 168.809 419.143 174.937L419.139 175.09L419.281 175.146C419.428 175.204 434.044 181.062 437.541 182.152C437.582 182.165 437.627 182.165 437.666 182.152Z" fill="#21111D"/>
<path d="M572.37 194.588C572.37 194.588 570.803 172.726 562.317 176.97C553.83 181.213 546.913 209.071 545.991 209.9C545.069 210.731 545.345 236.189 545.345 236.189L555.214 231.208C555.216 231.21 557.841 170.355 572.37 194.588Z" fill="#258D8C"/>
<path d="M562.861 149.324C562.861 149.324 543.848 166.337 538.658 195.51C533.468 224.683 549.865 233.268 549.865 233.268C549.865 233.268 552.198 171.929 562.861 149.324Z" fill="#7FC6A6"/>
<path d="M527.591 237.204C527.591 237.204 524.409 175.103 508.359 148.177C508.359 148.177 536.535 164.988 545.879 209.112C546.405 211.597 546.716 214.357 547.116 217.017C547.53 219.782 547.776 222.233 547.714 224.679C547.601 228.999 547.003 232.713 546.826 235.442C545.302 259.021 527.591 237.204 527.591 237.204Z" fill="#258D8C"/>
<path d="M528.135 210.833C527.043 201.979 523.681 193.539 518.28 186.44C514.377 181.312 509.86 177.415 506.33 180.196C498.489 186.375 496.922 224.75 496.922 224.75C496.922 224.75 505.778 198.183 509.651 199.936C513.524 201.689 517.123 237.756 517.123 237.756L531.604 238.955L528.135 210.833Z" fill="#7FC6A6"/>
<path d="M547.887 235.036C548.481 221.477 546.782 208.465 542.833 196.359C539.675 186.673 535.078 177.543 529.172 169.222C519.113 155.052 508.593 148.05 508.487 147.981L508.23 148.372C508.334 148.441 518.796 155.404 528.803 169.509C538.034 182.521 548.759 204.449 547.419 235.012L547.887 235.036Z" fill="#21111D"/>
<path d="M550.099 233.276C550.106 233.123 550.704 217.74 552.597 199.794C554.344 183.242 557.578 161.071 563.072 149.423L562.649 149.222C557.127 160.929 553.882 183.158 552.131 199.746C550.235 217.707 549.635 233.104 549.631 233.257L550.099 233.276Z" fill="#21111D"/>
<path d="M555.449 231.219C555.453 231.119 555.898 221.117 557.368 210.982C559.3 197.656 562.094 190.158 565.445 189.299C567.424 188.791 569.687 190.611 572.17 194.707L572.571 194.463C569.967 190.169 567.53 188.28 565.328 188.843C561.727 189.765 558.895 197.192 556.904 210.915C555.432 221.073 554.985 231.096 554.98 231.195L555.449 231.219Z" fill="#21111D"/>
<path d="M531.371 238.985L531.836 238.927L528.366 210.803C527.259 201.83 523.835 193.356 518.463 186.298C515.063 181.828 512.043 179.397 509.484 179.073C508.278 178.92 507.166 179.235 506.184 180.01C502.883 182.612 500.281 190.94 498.452 204.757C497.095 215.015 496.691 224.642 496.687 224.737L497.155 224.757C497.17 224.375 498.809 186.421 506.475 180.377C507.356 179.682 508.351 179.399 509.428 179.535C511.855 179.844 514.772 182.213 518.092 186.578C523.414 193.569 526.805 201.966 527.902 210.857L531.371 238.985Z" fill="#21111D"/>
<path d="M516.29 204.29L515.874 204.505L518.915 210.404L519.332 210.189L516.29 204.29Z" fill="#21111D"/>
<path d="M516.315 208.278L515.904 208.505L518.946 214.029L519.356 213.803L516.315 208.278Z" fill="#21111D"/>
<path d="M550.026 169.162L547.426 174.872L547.852 175.066L550.452 169.356L550.026 169.162Z" fill="#21111D"/>
<path d="M549.671 173.594L547.457 177.59L547.867 177.817L550.081 173.821L549.671 173.594Z" fill="#21111D"/>
<path d="M564.593 179.065L560.165 181.322L560.378 181.74L564.806 179.483L564.593 179.065Z" fill="#21111D"/>
<path d="M562.715 181.669L560.096 183.263L560.339 183.663L562.958 182.07L562.715 181.669Z" fill="#21111D"/>
<path d="M560.242 229.63C560.242 229.63 559.415 275.03 547.257 273.966H537.695H536.16H526.598C514.439 275.03 513.612 229.63 513.612 229.63C525.119 227.892 548.735 227.892 560.242 229.63Z" fill="#F99247"/>
<path d="M518.448 235.452L518.107 235.774L531.39 249.809L531.73 249.487L518.448 235.452Z" fill="#21111D"/>
<path d="M522.352 244.496L521.999 244.803L529.312 253.215L529.665 252.908L522.352 244.496Z" fill="#21111D"/>
<path d="M361.305 169.725C361.305 169.725 362.831 173.564 361.551 176.467L390.884 176.714L393.591 176.467L395.976 174.989V172.726L395.314 170.856L393.148 169.725H361.305Z" fill="white"/>
<path d="M392.255 177.088H360.565C360.358 177.088 360.191 176.922 360.191 176.715C360.191 176.508 360.358 176.341 360.565 176.341H392.255C394.168 176.341 395.725 174.897 395.725 173.122C395.725 171.347 394.168 169.903 392.255 169.903H360.565C360.358 169.903 360.191 169.735 360.191 169.53C360.191 169.324 360.358 169.156 360.565 169.156H392.255C394.581 169.156 396.472 170.935 396.472 173.122C396.472 175.307 394.581 177.088 392.255 177.088Z" fill="#EF3A4C"/>
<path d="M377.287 173.205H361.734C361.689 173.205 361.652 173.168 361.652 173.123C361.652 173.078 361.689 173.041 361.734 173.041H377.287C377.332 173.041 377.369 173.078 377.369 173.123C377.369 173.168 377.332 173.205 377.287 173.205Z" fill="#AAC9F8"/>
<path d="M394.586 173.205H379.479C379.433 173.205 379.396 173.168 379.396 173.123C379.396 173.078 379.433 173.041 379.479 173.041H394.586C394.632 173.041 394.669 173.078 394.669 173.123C394.669 173.168 394.632 173.205 394.586 173.205Z" fill="#AAC9F8"/>
<path d="M394.18 174.693H386.428C386.382 174.693 386.346 174.656 386.346 174.611C386.346 174.565 386.382 174.529 386.428 174.529H394.18C394.226 174.529 394.262 174.565 394.262 174.611C394.262 174.656 394.226 174.693 394.18 174.693Z" fill="#AAC9F8"/>
<path d="M385.29 174.693H361.734C361.689 174.693 361.652 174.656 361.652 174.611C361.652 174.565 361.689 174.529 361.734 174.529H385.29C385.335 174.529 385.372 174.565 385.372 174.611C385.374 174.656 385.338 174.693 385.29 174.693Z" fill="#AAC9F8"/>
<path d="M392.256 177.171H360.566C360.313 177.171 360.108 176.966 360.108 176.714C360.108 176.461 360.313 176.256 360.566 176.256C360.611 176.256 360.648 176.293 360.648 176.338C360.648 176.383 360.611 176.42 360.566 176.42C360.406 176.42 360.275 176.549 360.275 176.711C360.275 176.871 360.404 177.003 360.566 177.003H392.256C394.536 177.003 396.391 175.261 396.391 173.119C396.391 170.977 394.536 169.235 392.256 169.235H360.566C360.406 169.235 360.275 169.364 360.275 169.526C360.275 169.686 360.404 169.818 360.566 169.818C360.611 169.818 360.648 169.854 360.648 169.9C360.648 169.945 360.611 169.982 360.566 169.982C360.313 169.982 360.108 169.777 360.108 169.524C360.108 169.271 360.313 169.066 360.566 169.066H392.256C394.627 169.066 396.557 170.882 396.557 173.117C396.557 175.356 394.627 177.171 392.256 177.171Z" fill="#21111D"/>
<path d="M370.113 171.633C370.113 171.633 369.116 174.121 369.69 175.951L370.502 174.699C370.502 174.699 371.054 175.364 371.395 175.951C371.395 175.951 372.015 171.862 373.215 171.633H370.113Z" fill="#7FC6A6"/>
<path d="M394.18 171.715H361.736C361.691 171.715 361.654 171.679 361.654 171.633C361.654 171.588 361.691 171.551 361.736 171.551H394.18C394.226 171.551 394.262 171.588 394.262 171.633C394.262 171.679 394.226 171.715 394.18 171.715Z" fill="#AAC9F8"/>
<path d="M411.002 273.325H414.715L408.016 179.032H400.59L411.002 273.325Z" fill="#FEC786"/>
<path d="M423.5 177.152H157.119V184.126H423.5V177.152Z" fill="#4C222E"/>
<path d="M622.69 273.426H0.844727V275H622.69V273.426Z" fill="black"/>
</svg>
