<svg width="584" height="200" viewBox="0 0 584 200" fill="none" xmlns="http://www.w3.org/2000/svg">
<path d="M456.342 43C456.007 43 455.706 42.8864 455.439 42.6592C455.204 42.3995 455.087 42.1074 455.087 41.7828V32.97H446.255C445.92 32.97 445.619 32.8564 445.351 32.6292C445.117 32.3695 445 32.0774 445 31.7528V28.0037C445 27.6467 445.117 27.3546 445.351 27.1273C445.586 26.8677 445.887 26.7378 446.255 26.7378H455.087V18.2172C455.087 17.8602 455.204 17.568 455.439 17.3408C455.706 17.1136 456.007 17 456.342 17H460.658C461.026 17 461.327 17.1136 461.561 17.3408C461.829 17.568 461.963 17.8602 461.963 18.2172V26.7378H470.695C471.063 26.7378 471.364 26.8677 471.599 27.1273C471.866 27.3546 472 27.6467 472 28.0037V31.7528C472 32.1099 471.866 32.402 471.599 32.6292C471.364 32.8564 471.063 32.97 470.695 32.97H461.963V41.7828C461.963 42.1398 461.829 42.432 461.561 42.6592C461.327 42.8864 461.026 43 460.658 43H456.342Z" fill="#FF6633"/>
<path d="M531.803 141C531.307 141 530.861 140.83 530.465 140.489C530.118 140.099 529.944 139.661 529.944 139.174V125.955H516.859C516.363 125.955 515.917 125.785 515.52 125.444C515.173 125.054 515 124.616 515 124.129V118.506C515 117.97 515.173 117.532 515.52 117.191C515.867 116.801 516.314 116.607 516.859 116.607H529.944V103.826C529.944 103.29 530.118 102.852 530.465 102.511C530.861 102.17 531.307 102 531.803 102H538.197C538.742 102 539.188 102.17 539.535 102.511C539.932 102.852 540.13 103.29 540.13 103.826V116.607H553.067C553.612 116.607 554.058 116.801 554.405 117.191C554.802 117.532 555 117.97 555 118.506V124.129C555 124.665 554.802 125.103 554.405 125.444C554.058 125.785 553.612 125.955 553.067 125.955H540.13V139.174C540.13 139.71 539.932 140.148 539.535 140.489C539.188 140.83 538.742 141 538.197 141H531.803Z" fill="#FF6633"/>
<path d="M327.561 66C327.338 66 327.138 65.9257 326.959 65.7772C326.803 65.6074 326.725 65.4164 326.725 65.2041V59.4419H320.836C320.613 59.4419 320.413 59.3677 320.234 59.2191C320.078 59.0493 320 58.8583 320 58.6461V56.1948C320 55.9613 320.078 55.7703 320.234 55.6217C320.39 55.4519 320.591 55.367 320.836 55.367H326.725V49.7959C326.725 49.5624 326.803 49.3714 326.959 49.2228C327.138 49.0743 327.338 49 327.561 49H330.439C330.684 49 330.885 49.0743 331.041 49.2228C331.219 49.3714 331.309 49.5624 331.309 49.7959V55.367H337.13C337.375 55.367 337.576 55.4519 337.732 55.6217C337.911 55.7703 338 55.9613 338 56.1948V58.6461C338 58.8795 337.911 59.0705 337.732 59.2191C337.576 59.3677 337.375 59.4419 337.13 59.4419H331.309V65.2041C331.309 65.4376 331.219 65.6286 331.041 65.7772C330.885 65.9257 330.684 66 330.439 66H327.561Z" fill="#FF6633"/>
<path d="M183.041 28C182.892 28 182.758 27.9519 182.639 27.8558C182.535 27.7459 182.483 27.6223 182.483 27.485V23.7566H178.558C178.409 23.7566 178.275 23.7085 178.156 23.6124C178.052 23.5025 178 23.3789 178 23.2416V21.6554C178 21.5044 178.052 21.3808 178.156 21.2846C178.26 21.1748 178.394 21.1199 178.558 21.1199H182.483V17.515C182.483 17.3639 182.535 17.2403 182.639 17.1442C182.758 17.0481 182.892 17 183.041 17H184.959C185.123 17 185.257 17.0481 185.361 17.1442C185.48 17.2403 185.539 17.3639 185.539 17.515V21.1199H189.42C189.584 21.1199 189.717 21.1748 189.822 21.2846C189.941 21.3808 190 21.5044 190 21.6554V23.2416C190 23.3926 189.941 23.5162 189.822 23.6124C189.717 23.7085 189.584 23.7566 189.42 23.7566H185.539V27.485C185.539 27.6361 185.48 27.7597 185.361 27.8558C185.257 27.9519 185.123 28 184.959 28H183.041Z" fill="#FF6633"/>
<path d="M471.041 179C470.892 179 470.758 178.952 470.639 178.856C470.535 178.746 470.483 178.622 470.483 178.485V174.757H466.558C466.409 174.757 466.275 174.708 466.156 174.612C466.052 174.502 466 174.379 466 174.242V172.655C466 172.504 466.052 172.381 466.156 172.285C466.26 172.175 466.394 172.12 466.558 172.12H470.483V168.515C470.483 168.364 470.535 168.24 470.639 168.144C470.758 168.048 470.892 168 471.041 168H472.959C473.123 168 473.257 168.048 473.361 168.144C473.48 168.24 473.539 168.364 473.539 168.515V172.12H477.42C477.584 172.12 477.717 172.175 477.822 172.285C477.941 172.381 478 172.504 478 172.655V174.242C478 174.393 477.941 174.516 477.822 174.612C477.717 174.708 477.584 174.757 477.42 174.757H473.539V178.485C473.539 178.636 473.48 178.76 473.361 178.856C473.257 178.952 473.123 179 472.959 179H471.041Z" fill="#FF6633"/>
<path d="M543.041 25C542.892 25 542.758 24.9519 542.639 24.8558C542.535 24.7459 542.483 24.6223 542.483 24.485V20.7566H538.558C538.409 20.7566 538.275 20.7085 538.156 20.6124C538.052 20.5025 538 20.3789 538 20.2416V18.6554C538 18.5044 538.052 18.3808 538.156 18.2846C538.26 18.1748 538.394 18.1199 538.558 18.1199H542.483V14.515C542.483 14.3639 542.535 14.2403 542.639 14.1442C542.758 14.0481 542.892 14 543.041 14H544.959C545.123 14 545.257 14.0481 545.361 14.1442C545.48 14.2403 545.539 14.3639 545.539 14.515V18.1199H549.42C549.584 18.1199 549.717 18.1748 549.822 18.2846C549.941 18.3808 550 18.5044 550 18.6554V20.2416C550 20.3926 549.941 20.5162 549.822 20.6124C549.717 20.7085 549.584 20.7566 549.42 20.7566H545.539V24.485C545.539 24.6361 545.48 24.7597 545.361 24.8558C545.257 24.9519 545.123 25 544.959 25H543.041Z" fill="#FF6633"/>
<path d="M572.041 184C571.892 184 571.758 183.952 571.639 183.856C571.535 183.746 571.483 183.622 571.483 183.485V179.757H567.558C567.409 179.757 567.275 179.708 567.156 179.612C567.052 179.502 567 179.379 567 179.242V177.655C567 177.504 567.052 177.381 567.156 177.285C567.26 177.175 567.394 177.12 567.558 177.12H571.483V173.515C571.483 173.364 571.535 173.24 571.639 173.144C571.758 173.048 571.892 173 572.041 173H573.959C574.123 173 574.257 173.048 574.361 173.144C574.48 173.24 574.539 173.364 574.539 173.515V177.12H578.42C578.584 177.12 578.717 177.175 578.822 177.285C578.941 177.381 579 177.504 579 177.655V179.242C579 179.393 578.941 179.516 578.822 179.612C578.717 179.708 578.584 179.757 578.42 179.757H574.539V183.485C574.539 183.636 574.48 183.76 574.361 183.856C574.257 183.952 574.123 184 573.959 184H572.041Z" fill="#FF6633"/>
<path d="M319.041 178C318.892 178 318.758 177.952 318.639 177.856C318.535 177.746 318.483 177.622 318.483 177.485V173.757H314.558C314.409 173.757 314.275 173.708 314.156 173.612C314.052 173.502 314 173.379 314 173.242V171.655C314 171.504 314.052 171.381 314.156 171.285C314.26 171.175 314.394 171.12 314.558 171.12H318.483V167.515C318.483 167.364 318.535 167.24 318.639 167.144C318.758 167.048 318.892 167 319.041 167H320.959C321.123 167 321.257 167.048 321.361 167.144C321.48 167.24 321.539 167.364 321.539 167.515V171.12H325.42C325.584 171.12 325.717 171.175 325.822 171.285C325.941 171.381 326 171.504 326 171.655V173.242C326 173.393 325.941 173.516 325.822 173.612C325.717 173.708 325.584 173.757 325.42 173.757H321.539V177.485C321.539 177.636 321.48 177.76 321.361 177.856C321.257 177.952 321.123 178 320.959 178H319.041Z" fill="#FF6633"/>
<path d="M24.7807 184C24.6691 184 24.5688 183.965 24.4796 183.895C24.4015 183.815 24.3625 183.725 24.3625 183.625V180.914H21.4182C21.3067 180.914 21.2063 180.879 21.1171 180.809C21.039 180.729 21 180.639 21 180.539V179.386C21 179.276 21.039 179.186 21.1171 179.116C21.1952 179.036 21.2955 178.996 21.4182 178.996H24.3625V176.375C24.3625 176.265 24.4015 176.175 24.4796 176.105C24.5688 176.035 24.6691 176 24.7807 176H26.2193C26.342 176 26.4424 176.035 26.5204 176.105C26.6097 176.175 26.6543 176.265 26.6543 176.375V178.996H29.5651C29.6877 178.996 29.7881 179.036 29.8662 179.116C29.9554 179.186 30 179.276 30 179.386V180.539C30 180.649 29.9554 180.739 29.8662 180.809C29.7881 180.879 29.6877 180.914 29.5651 180.914H26.6543V183.625C26.6543 183.735 26.6097 183.825 26.5204 183.895C26.4424 183.965 26.342 184 26.2193 184H24.7807Z" fill="#FF6633"/>
<path d="M351.862 133C351.454 133 351.086 132.865 350.758 132.594C350.472 132.284 350.329 131.936 350.329 131.549V121.041H339.533C339.125 121.041 338.757 120.906 338.429 120.635C338.143 120.325 338 119.977 338 119.59V115.12C338 114.694 338.143 114.346 338.429 114.075C338.716 113.765 339.084 113.61 339.533 113.61H350.329V103.451C350.329 103.026 350.472 102.677 350.758 102.406C351.086 102.135 351.454 102 351.862 102H357.138C357.587 102 357.955 102.135 358.242 102.406C358.569 102.677 358.732 103.026 358.732 103.451V113.61H369.405C369.855 113.61 370.223 113.765 370.509 114.075C370.836 114.346 371 114.694 371 115.12V119.59C371 120.016 370.836 120.364 370.509 120.635C370.223 120.906 369.855 121.041 369.405 121.041H358.732V131.549C358.732 131.974 358.569 132.323 358.242 132.594C357.955 132.865 357.587 133 357.138 133H351.862Z" fill="#FF6633"/>
<path d="M370.854 69C370.276 69 369.777 68.8167 369.356 68.45C368.988 68.0833 368.804 67.6119 368.804 67.0357V60.1214H362.971C362.393 60.1214 361.92 59.9381 361.552 59.5714C361.184 59.1524 361 58.6548 361 58.0786V54.9357C361 54.3595 361.184 53.8881 361.552 53.5214C361.972 53.1548 362.445 52.9714 362.971 52.9714H368.804V49.0429H362.971C362.445 49.0429 361.972 48.8595 361.552 48.4929C361.184 48.0738 361 47.6024 361 47.0786V40.7929C361 40.2167 361.184 39.7452 361.552 39.3786C361.972 39.0119 362.445 38.8286 362.971 38.8286H368.804V16.0429C368.804 15.4667 368.988 14.9952 369.356 14.6286C369.777 14.2095 370.276 14 370.854 14H393.163C399.943 14 405.277 15.5452 409.166 18.6357C413.055 21.7262 415 26.2571 415 32.2286C415 37.8333 413.055 42.05 409.166 44.8786C405.33 47.6548 399.996 49.0429 393.163 49.0429H384.177V52.9714H394.267C394.845 52.9714 395.318 53.1548 395.686 53.5214C396.054 53.8881 396.238 54.3595 396.238 54.9357V58.0786C396.238 58.6548 396.054 59.1524 395.686 59.5714C395.318 59.9381 394.845 60.1214 394.267 60.1214H384.177V67.0357C384.177 67.6119 383.966 68.0833 383.546 68.45C383.178 68.8167 382.705 69 382.127 69H370.854ZM392.769 38.8286C394.924 38.8286 396.606 38.2786 397.815 37.1786C399.076 36.0262 399.707 34.35 399.707 32.15C399.707 30.1071 399.128 28.4571 397.972 27.2C396.816 25.9429 395.082 25.3143 392.769 25.3143H383.861V38.8286H392.769Z" fill="#70C05B"/>
<path d="M509.124 79C508.589 79 508.127 78.8267 507.737 78.48C507.397 78.1333 507.226 77.6876 507.226 77.1429V70.6057H501.825C501.29 70.6057 500.852 70.4324 500.511 70.0857C500.17 69.6895 500 69.219 500 68.6743V65.7029C500 65.1581 500.17 64.7124 500.511 64.3657C500.9 64.019 501.338 63.8457 501.825 63.8457H507.226V60.1314H501.825C501.338 60.1314 500.9 59.9581 500.511 59.6114C500.17 59.2152 500 58.7695 500 58.2743V52.3314C500 51.7867 500.17 51.341 500.511 50.9943C500.9 50.6476 501.338 50.4743 501.825 50.4743H507.226V28.9314C507.226 28.3867 507.397 27.941 507.737 27.5943C508.127 27.1981 508.589 27 509.124 27H529.781C536.058 27 540.998 28.461 544.599 31.3829C548.2 34.3048 550 38.5886 550 44.2343C550 49.5333 548.2 53.52 544.599 56.1943C541.046 58.819 536.107 60.1314 529.781 60.1314H521.46V63.8457H530.803C531.338 63.8457 531.776 64.019 532.117 64.3657C532.457 64.7124 532.628 65.1581 532.628 65.7029V68.6743C532.628 69.219 532.457 69.6895 532.117 70.0857C531.776 70.4324 531.338 70.6057 530.803 70.6057H521.46V77.1429C521.46 77.6876 521.265 78.1333 520.876 78.48C520.535 78.8267 520.097 79 519.562 79H509.124ZM529.416 50.4743C531.411 50.4743 532.968 49.9543 534.088 48.9143C535.255 47.8248 535.839 46.24 535.839 44.16C535.839 42.2286 535.304 40.6686 534.234 39.48C533.163 38.2914 531.557 37.6971 529.416 37.6971H521.168V50.4743H529.416Z" fill="#70C05B"/>
<path d="M502.657 179C502.325 179 502.038 178.89 501.797 178.67C501.586 178.45 501.48 178.167 501.48 177.821V173.673H498.131C497.8 173.673 497.528 173.563 497.317 173.343C497.106 173.091 497 172.793 497 172.447V170.561C497 170.216 497.106 169.933 497.317 169.713C497.558 169.493 497.83 169.383 498.131 169.383H501.48V167.026H498.131C497.83 167.026 497.558 166.916 497.317 166.696C497.106 166.444 497 166.161 497 165.847V162.076C497 161.73 497.106 161.447 497.317 161.227C497.558 161.007 497.83 160.897 498.131 160.897H501.48V147.226C501.48 146.88 501.586 146.597 501.797 146.377C502.038 146.126 502.325 146 502.657 146H515.464C519.356 146 522.418 146.927 524.651 148.781C526.884 150.636 528 153.354 528 156.937C528 160.3 526.884 162.83 524.651 164.527C522.449 166.193 519.386 167.026 515.464 167.026H510.305V169.383H516.098C516.43 169.383 516.701 169.493 516.912 169.713C517.124 169.933 517.229 170.216 517.229 170.561V172.447C517.229 172.793 517.124 173.091 516.912 173.343C516.701 173.563 516.43 173.673 516.098 173.673H510.305V177.821C510.305 178.167 510.184 178.45 509.943 178.67C509.732 178.89 509.46 179 509.128 179H502.657ZM515.238 160.897C516.475 160.897 517.44 160.567 518.134 159.907C518.858 159.216 519.22 158.21 519.22 156.89C519.22 155.664 518.889 154.674 518.225 153.92C517.561 153.166 516.565 152.789 515.238 152.789H510.124V160.897H515.238Z" fill="#70C05B"/>
<path d="M365.927 178C365.638 178 365.388 177.9 365.178 177.7C364.994 177.5 364.902 177.243 364.902 176.929V173.157H361.985C361.696 173.157 361.46 173.057 361.276 172.857C361.092 172.629 361 172.357 361 172.043V170.329C361 170.014 361.092 169.757 361.276 169.557C361.486 169.357 361.723 169.257 361.985 169.257H364.902V167.114H361.985C361.723 167.114 361.486 167.014 361.276 166.814C361.092 166.586 361 166.329 361 166.043V162.614C361 162.3 361.092 162.043 361.276 161.843C361.486 161.643 361.723 161.543 361.985 161.543H364.902V149.114C364.902 148.8 364.994 148.543 365.178 148.343C365.388 148.114 365.638 148 365.927 148H377.082C380.472 148 383.139 148.843 385.083 150.529C387.028 152.214 388 154.686 388 157.943C388 161 387.028 163.3 385.083 164.843C383.165 166.357 380.498 167.114 377.082 167.114H372.588V169.257H377.634C377.923 169.257 378.159 169.357 378.343 169.557C378.527 169.757 378.619 170.014 378.619 170.329V172.043C378.619 172.357 378.527 172.629 378.343 172.857C378.159 173.057 377.923 173.157 377.634 173.157H372.588V176.929C372.588 177.243 372.483 177.5 372.273 177.7C372.089 177.9 371.853 178 371.564 178H365.927ZM376.885 161.543C377.962 161.543 378.803 161.243 379.407 160.643C380.038 160.014 380.353 159.1 380.353 157.9C380.353 156.786 380.064 155.886 379.486 155.2C378.908 154.514 378.041 154.171 376.885 154.171H372.431V161.543H376.885Z" fill="#70C05B"/>
</svg>
