<svg width="25" height="24" viewBox="0 0 25 24" fill="none" xmlns="http://www.w3.org/2000/svg">
<path fill-rule="evenodd" clip-rule="evenodd" d="M4 12C4 11.7239 4.22386 11.5 4.5 11.5H20.5C20.7761 11.5 21 11.7239 21 12C21 12.2761 20.7761 12.5 20.5 12.5H4.5C4.22386 12.5 4 12.2761 4 12Z" fill="#414141"/>
<path fill-rule="evenodd" clip-rule="evenodd" d="M10.8536 5.64645C11.0488 5.84171 11.0488 6.15829 10.8536 6.35355L5.20711 12L10.8536 17.6464C11.0488 17.8417 11.0488 18.1583 10.8536 18.3536C10.6583 18.5488 10.3417 18.5488 10.1464 18.3536L4.14645 12.3536C3.95118 12.1583 3.95118 11.8417 4.14645 11.6464L10.1464 5.64645C10.3417 5.45118 10.6583 5.45118 10.8536 5.64645Z" fill="#414141"/>
</svg>
