<svg width="25" height="24" viewBox="0 0 25 24" fill="none" xmlns="http://www.w3.org/2000/svg">
<path fill-rule="evenodd" clip-rule="evenodd" d="M12.4973 4.50002C11.8291 4.49845 11.163 4.57458 10.5124 4.72687C10.2435 4.7898 9.97453 4.62286 9.9116 4.35398C9.84866 4.08511 10.0156 3.81612 10.2845 3.75318C11.0104 3.58327 11.7535 3.49832 12.499 3.50003C16.1985 3.50025 19.0713 5.61335 20.9882 7.65805C21.9513 8.68532 22.688 9.71068 23.1841 10.4788C23.4324 10.8633 23.6212 11.1846 23.7487 11.4111C23.8124 11.5245 23.8608 11.6142 23.8937 11.6763C23.9102 11.7074 23.9228 11.7316 23.9314 11.7485L23.9415 11.7681L23.9443 11.7737L23.9452 11.7754C23.9453 11.7757 23.9457 11.7764 23.4984 12L23.0575 11.7643C23.0158 11.8424 22.9735 11.9201 22.9306 11.9975C22.9144 11.9681 22.8966 11.936 22.8771 11.9014C22.7584 11.6905 22.5801 11.3868 22.344 11.0213C21.8713 10.2894 21.1706 9.31473 20.2587 8.342C18.4257 6.38681 15.7987 4.50003 12.4984 4.50003L12.4973 4.50002ZM22.9306 11.9975C22.3668 13.0158 21.7055 13.9772 20.9559 14.8681C20.7781 15.0794 20.8052 15.3948 21.0165 15.5726C21.2278 15.7504 21.5432 15.7232 21.721 15.5119C22.5725 14.5001 23.316 13.402 23.9394 12.2357C24.0158 12.0927 24.0182 11.9215 23.9457 11.7764L23.4984 12C23.0512 12.2236 23.0513 12.2238 23.0513 12.2238L23.0495 12.2203L23.0421 12.2057C23.0352 12.1923 23.0244 12.1715 23.0099 12.144C22.9903 12.1071 22.9639 12.0578 22.9306 11.9975ZM6.95739 5.75657C7.12498 5.97605 7.08292 6.28982 6.86345 6.45741C4.89974 7.95692 3.26752 9.84509 2.06807 12.003C2.08423 12.0323 2.10198 12.0642 2.12133 12.0986C2.23999 12.3096 2.41836 12.6133 2.65439 12.9788C3.12709 13.7107 3.82783 14.6853 4.73977 15.6581C6.572 17.6124 9.19759 19.4985 12.4959 19.5C14.5369 19.4658 16.5134 18.7799 18.1369 17.5424C18.3565 17.375 18.6702 17.4173 18.8377 17.6369C19.0051 17.8565 18.9627 18.1703 18.7431 18.3377C16.9488 19.7054 14.764 20.4631 12.5082 20.5L12.5 20.5001C8.80025 20.5001 5.92724 18.3868 4.01023 16.342C3.04717 15.3147 2.31041 14.2894 1.81436 13.5213C1.56602 13.1368 1.37719 12.8155 1.24976 12.5889C1.18602 12.4756 1.13759 12.3859 1.10469 12.3237C1.08824 12.2926 1.07567 12.2684 1.06701 12.2516L1.05696 12.2319L1.05414 12.2263L1.05328 12.2246C1.05317 12.2244 1.05279 12.2236 1.5 12L1.05279 12.2236C0.980131 12.0783 0.982605 11.9068 1.05942 11.7636C2.33702 9.38269 4.10902 7.30251 6.25655 5.66264C6.47602 5.49505 6.7898 5.5371 6.95739 5.75657ZM10.7458 9.53916C10.9341 9.74119 10.9229 10.0576 10.7209 10.2458C10.052 10.8691 9.7767 11.8077 10.0029 12.6935C10.2291 13.5792 10.9208 14.2709 11.8066 14.4971C12.6923 14.7233 13.631 14.448 14.2542 13.7792C14.4424 13.5771 14.7588 13.566 14.9609 13.7542C15.1629 13.9425 15.1741 14.2589 14.9858 14.4609C14.1133 15.3973 12.7992 15.7827 11.5591 15.466C10.319 15.1493 9.3507 14.181 9.03401 12.9409C8.71731 11.7008 9.10276 10.3867 10.0391 9.51422C10.2412 9.32597 10.5576 9.33714 10.7458 9.53916Z" fill="#414141"/>
<path fill-rule="evenodd" clip-rule="evenodd" d="M1.14645 0.646447C1.34171 0.451184 1.65829 0.451184 1.85355 0.646447L23.8536 22.6464C24.0488 22.8417 24.0488 23.1583 23.8536 23.3536C23.6583 23.5488 23.3417 23.5488 23.1464 23.3536L1.14645 1.35355C0.951184 1.15829 0.951184 0.841709 1.14645 0.646447Z" fill="#414141"/>
</svg>
