<svg width="174" height="179" viewBox="0 0 174 179" fill="none" xmlns="http://www.w3.org/2000/svg">
<path d="M125.486 99.8818H48.3739C46.7567 99.8818 45.4428 101.251 45.5847 102.858C47.275 122.009 65.1412 137.076 86.932 137.076C108.723 137.076 126.587 122.009 128.279 102.858C128.419 101.253 127.105 99.8818 125.486 99.8818Z" fill="#FF6633"/>
<path d="M73.0142 71.2294C72.1518 71.2294 71.3002 70.8411 70.739 70.1051C67.9197 66.4079 62.5693 64.1098 56.7759 64.1098C50.9804 64.1098 45.63 66.4058 42.8128 70.1051C41.858 71.3582 40.0667 71.6007 38.8108 70.6479C37.5549 69.6952 37.3119 67.9078 38.2667 66.6547C42.2021 61.492 49.1202 58.4106 56.7781 58.4106C64.4338 58.4106 71.354 61.492 75.2894 66.6547C76.2442 67.9078 76.0012 69.6952 74.7453 70.6479C74.2249 71.0385 73.6163 71.2294 73.0142 71.2294Z" fill="#414141"/>
<path d="M133.323 71.2294C132.46 71.2294 131.609 70.8411 131.048 70.1051C128.228 66.4079 122.878 64.1098 117.084 64.1098C111.289 64.1098 105.939 66.4058 103.121 70.1051C102.167 71.3582 100.373 71.6007 99.1194 70.6479C97.8635 69.6952 97.6205 67.9078 98.5753 66.6547C102.511 61.492 109.429 58.4106 117.087 58.4106C124.745 58.4106 131.663 61.492 135.598 66.6547C136.553 67.9078 136.31 69.6952 135.054 70.6479C134.533 71.0385 133.925 71.2294 133.323 71.2294Z" fill="#414141"/>
<path d="M15.513 139.085L14.2463 141.683C14.1367 141.898 13.8012 141.96 13.5087 141.823C12.8356 141.55 12.1518 141.111 11.4507 140.497C10.754 139.892 10.2206 139.263 9.83786 138.621C9.25938 137.647 8.89164 136.611 8.73251 135.527C8.58197 134.437 8.63574 133.399 8.87659 132.401C9.12175 131.412 9.57335 130.474 10.2185 129.594C10.8658 128.714 11.6679 127.991 12.6335 127.421C13.599 126.848 14.6205 126.494 15.7022 126.348C16.7861 126.204 17.8247 126.258 18.814 126.517C19.8161 126.781 20.7559 127.23 21.6332 127.89C22.5192 128.545 23.2547 129.362 23.8332 130.337C24.2052 130.961 24.4912 131.736 24.6869 132.65C24.8912 133.56 24.9579 134.401 24.8826 135.177C24.8568 135.491 24.6138 135.71 24.3687 135.692L21.487 135.512C21.2118 135.489 21.0096 135.212 21.0397 134.845C21.0892 134.405 21.072 133.957 20.9752 133.48C20.8784 133.004 20.7386 132.603 20.5473 132.281C19.9301 131.242 19.0419 130.564 17.8828 130.27C16.7345 129.97 15.6463 130.128 14.6076 130.744C13.5775 131.354 12.9152 132.229 12.6292 133.379C12.3518 134.523 12.5217 135.628 13.1388 136.664C13.3302 136.986 13.6012 137.297 13.9689 137.6C14.3367 137.905 14.7044 138.145 15.085 138.306C15.4506 138.476 15.6377 138.812 15.513 139.085Z" fill="#414141"/>
<path d="M27.236 136.918C27.4919 136.675 27.7951 136.682 28.0381 136.937L34.9777 144.213C35.2207 144.469 35.2143 144.771 34.9584 145.014L33.1756 146.707C32.9047 146.964 32.6315 146.958 32.3735 146.688L27.6897 141.778L25.8145 143.559L29.3693 147.286C29.6338 147.565 29.6424 147.883 29.3714 148.14L27.8983 149.539C27.6424 149.782 27.3263 149.76 27.0596 149.481L23.5049 145.754L21.5759 147.587L26.2597 152.496C26.5908 152.844 26.5887 153.26 26.2704 153.56L24.5973 155.15C24.35 155.386 24.0404 155.371 23.7952 155.116L16.7158 147.692C16.4728 147.436 16.4728 147.142 16.7287 146.9L27.236 136.918Z" fill="#414141"/>
<path d="M41.9368 160.139C41.8809 160.892 41.6315 161.59 41.1885 162.231C40.3412 163.45 39.2896 164.126 38.0273 164.255C36.7757 164.39 35.4381 163.971 34.0231 162.993L29.0361 159.547C28.8082 159.388 28.7716 159.195 28.9243 158.976L37.3585 146.825C37.5111 146.606 37.7047 146.569 37.9326 146.728L42.5497 149.919C43.9045 150.854 44.726 151.902 45.0228 153.069C45.3195 154.234 45.0636 155.408 44.2551 156.575C43.6035 157.515 42.5196 158.101 41.4551 158.079C41.8293 158.701 41.9928 159.384 41.9368 160.139ZM35.9585 160.109C36.7757 160.673 37.6488 160.523 38.2015 159.725C38.7434 158.944 38.5606 158.103 37.7413 157.538L35.6488 156.092L33.8639 158.663L35.9585 160.109ZM38.8057 151.547L37.3026 153.715L39.0358 154.912C39.7304 155.393 40.453 155.268 40.9175 154.601C41.3799 153.934 41.2358 153.223 40.5412 152.745L38.8057 151.547Z" fill="#414141"/>
<path d="M49.443 154.942C49.5849 154.62 49.8666 154.511 50.1892 154.653L59.4083 158.691C59.7309 158.833 59.8406 159.114 59.6986 159.436L58.7094 161.682C58.5589 162.023 58.3051 162.122 57.9632 161.972L51.7418 159.247L50.701 161.611L55.4235 163.68C55.7761 163.834 55.9052 164.124 55.7546 164.467L54.9375 166.326C54.7955 166.647 54.4945 166.748 54.1418 166.594L49.4193 164.525L48.3484 166.959L54.5697 169.684C55.0106 169.877 55.1676 170.261 54.9912 170.662L54.0622 172.774C53.9246 173.087 53.6321 173.192 53.3095 173.05L43.9055 168.931C43.5829 168.789 43.4689 168.516 43.6109 168.195L49.443 154.942Z" fill="#414141"/>
<path d="M68.4298 161.169C70.0534 161.555 71.2491 162.347 72.0276 163.553C72.8082 164.748 73.0125 166.147 72.6297 167.746C72.2512 169.323 71.4384 170.469 70.1997 171.183C68.9632 171.887 67.5374 172.052 65.9159 171.664L64.0945 171.231L63.1031 175.363C63.0214 175.707 62.7633 175.863 62.3999 175.777L59.7354 175.142C59.3913 175.061 59.2451 174.805 59.3268 174.462L62.6988 160.394C62.7762 160.073 63.0515 159.886 63.374 159.963L64.7159 160.283L66.0686 160.605L68.4298 161.169ZM66.5761 168.211C67.1073 168.338 67.5954 168.267 68.0212 168.008C68.4578 167.75 68.7395 167.355 68.8664 166.825C68.9933 166.295 68.9201 165.817 68.6492 165.39C68.3911 164.954 67.9847 164.671 67.4557 164.544L65.7912 164.147L64.9138 167.812L66.5761 168.211Z" fill="#414141"/>
<path d="M87.0278 163.418C87.359 163.437 87.5697 163.686 87.5482 164.016L86.6773 178.466C86.6558 178.818 86.4407 179.02 86.088 178.998L83.3548 178.835C82.9806 178.814 82.7806 178.586 82.8021 178.234L83.0623 173.93L81.4709 173.835L78.9205 178.088C78.6947 178.449 78.5506 178.547 78.2409 178.528L75.0475 178.337C74.7055 178.316 74.5335 177.964 74.7227 177.666L77.7614 172.767C76.2883 171.769 75.4991 170.106 75.6173 168.158C75.7163 166.527 76.3076 165.248 77.4022 164.33C78.4968 163.401 79.8839 162.993 81.5505 163.092L86.3246 163.379L87.0278 163.418ZM83.2623 170.593L83.4967 166.714L81.4989 166.593C80.9441 166.559 80.4731 166.714 80.0989 167.044C79.7248 167.375 79.5162 167.812 79.4839 168.366C79.4495 168.919 79.6043 169.4 79.9334 169.814C80.2731 170.22 80.7204 170.439 81.2666 170.471L83.2623 170.593Z" fill="#414141"/>
<path d="M103.842 161.774C104.107 161.74 104.264 161.86 104.298 162.135L106.195 176.786C106.231 177.061 106.111 177.217 105.844 177.252L102.842 177.638C102.578 177.672 102.421 177.552 102.386 177.277L101.634 171.456L95.8295 172.205L96.5821 178.026C96.6187 178.301 96.4983 178.458 96.2316 178.492L93.2403 178.878C92.965 178.915 92.808 178.794 92.7736 178.518L90.8769 163.866C90.8425 163.592 90.9608 163.435 91.2382 163.401L94.2295 163.015C94.494 162.98 94.651 163.1 94.6854 163.375L95.3779 168.72L101.182 167.971L100.49 162.626C100.453 162.351 100.573 162.195 100.84 162.161L103.842 161.774Z" fill="#414141"/>
<path d="M108.783 165.489C108.841 164.39 109.093 163.382 109.525 162.468C109.968 161.549 110.587 160.715 111.394 159.983C112.196 159.243 113.121 158.683 114.176 158.305C115.232 157.925 116.303 157.771 117.383 157.835C118.471 157.886 119.482 158.138 120.398 158.569C121.325 158.996 122.161 159.616 122.897 160.429C123.639 161.23 124.198 162.152 124.578 163.206C125.082 164.603 125.202 166.01 124.946 167.418C124.69 168.826 124.107 170.077 123.172 171.173C122.247 172.265 121.077 173.059 119.669 173.563C118.611 173.943 117.542 174.098 116.456 174.046C115.366 173.984 114.355 173.733 113.428 173.306C112.512 172.875 111.675 172.257 110.936 171.467C110.202 170.664 109.643 169.742 109.267 168.697C108.886 167.641 108.731 166.573 108.783 165.489ZM115.086 169.795C116.14 170.291 117.234 170.33 118.361 169.926C119.48 169.525 120.288 168.804 120.785 167.753C121.282 166.701 121.338 165.626 120.935 164.51C120.531 163.386 119.798 162.581 118.744 162.086C117.69 161.59 116.602 161.539 115.486 161.938C114.368 162.339 113.553 163.073 113.056 164.124C112.559 165.176 112.506 166.261 112.912 167.386C113.312 168.504 114.032 169.3 115.086 169.795Z" fill="#414141"/>
<path d="M134.114 148.172C134.368 148.011 134.688 148.099 134.867 148.378L142.645 160.583C142.811 160.845 142.742 161.192 142.48 161.358L140.142 162.84C139.88 163.006 139.548 162.926 139.383 162.664L136.759 158.549C136.505 159.583 135.815 160.589 134.804 161.231C133.252 162.216 131.671 162.523 130.071 162.16C128.465 161.789 127.14 160.783 126.095 159.143L123.736 155.442C123.57 155.18 123.624 154.83 123.869 154.674L126.19 153.202C126.478 153.019 126.826 153.088 127.005 153.367L129.359 157.06C130.26 158.474 131.635 158.778 133.052 157.879C133.766 157.427 134.192 156.864 134.359 156.191C134.525 155.517 134.398 154.839 133.968 154.163L131.602 150.451C131.437 150.189 131.499 149.833 131.753 149.672L134.114 148.172Z" fill="#414141"/>
<path d="M157.73 146.309C158.102 146.374 158.3 146.704 158.038 146.97L155.545 149.496C155.388 149.655 155.193 149.732 154.98 149.719L148.01 148.384L146.464 149.951L150.528 153.942C150.726 154.137 150.728 154.332 150.541 154.523L148.401 156.691C148.206 156.888 148.01 156.89 147.812 156.695L137.268 146.339C137.077 146.153 137.077 145.955 137.27 145.758L139.41 143.591C139.597 143.4 139.795 143.4 139.984 143.586L143.857 147.391L145.066 146.166L144.029 139.471C143.965 139.063 144.077 138.889 144.341 138.623L146.81 136.121C147.087 135.84 147.423 136.018 147.485 136.441L148.722 144.621L157.73 146.309Z" fill="#414141"/>
<path d="M168.286 129.393C168.662 129.448 168.832 129.706 168.623 130.069L167.107 132.695C166.957 132.955 166.638 133.079 166.32 133.032L164.189 132.62L161.481 137.308L162.905 138.926C163.122 139.149 163.167 139.497 163.004 139.782L161.492 142.4C161.294 142.741 160.991 142.754 160.737 142.448L151.03 130.29C150.813 130.004 150.789 129.659 150.94 129.399L152.067 127.449C152.217 127.189 152.546 127.047 152.873 127.099L168.286 129.393ZM159.226 134.755L160.838 131.961L155.927 130.998L159.226 134.755Z" fill="#414141"/>
<path d="M12.1919 64.1229L14.8649 63.0114C15.0886 62.9234 15.381 63.0993 15.5101 63.3955C15.8326 64.0435 16.0541 64.8245 16.1724 65.7494C16.2928 66.6635 16.2756 67.4853 16.1359 68.2191C15.923 69.3306 15.5122 70.3499 14.9122 71.2683C14.3015 72.1845 13.5725 72.9269 12.7295 73.5149C11.8887 74.0942 10.9295 74.4976 9.8629 74.7294C8.79411 74.9611 7.71457 74.974 6.61137 74.7637C5.50817 74.5534 4.5082 74.1457 3.60069 73.5385C2.69319 72.9312 1.94912 72.2038 1.3814 71.3562C0.805068 70.4958 0.398627 69.5388 0.179278 68.4659C-0.0508234 67.3887 -0.0594253 66.2901 0.153472 65.1786C0.288953 64.4662 0.58787 63.6959 1.05022 62.8826C1.49967 62.0651 2.00934 61.3913 2.57922 60.8592C2.80502 60.6424 3.13404 60.6382 3.30608 60.812L5.34474 62.8504C5.53613 63.05 5.50172 63.3912 5.23721 63.6444C4.90819 63.9405 4.62432 64.2881 4.38132 64.7087C4.13831 65.1292 3.97488 65.5219 3.90606 65.8888C3.68026 67.0733 3.89531 68.1698 4.56841 69.1547C5.23076 70.1396 6.15117 70.7383 7.33823 70.9636C8.51454 71.1867 9.59194 70.9679 10.5704 70.2962C11.5381 69.6225 12.1424 68.6826 12.3682 67.4982C12.4392 67.1312 12.4413 66.7192 12.3682 66.2493C12.2951 65.7794 12.179 65.3545 12.0005 64.9833C11.8349 64.6207 11.9188 64.2452 12.1919 64.1229Z" fill="#414141"/>
<path d="M4.04493 54.3552C3.72451 54.2072 3.62128 53.9239 3.76967 53.6042L8.00181 44.489C8.1502 44.1693 8.43406 44.0663 8.75448 44.2143L10.9867 45.2465C11.3265 45.4031 11.4211 45.6584 11.2619 45.9975L8.40825 52.1494L10.7566 53.2351L12.9243 48.566C13.0855 48.2162 13.3802 48.0939 13.7199 48.2505L15.5651 49.1024C15.8855 49.2505 15.9801 49.553 15.8188 49.9028L13.6511 54.5719L16.0683 55.6899L18.9241 49.5401C19.1263 49.1045 19.5155 48.9543 19.9133 49.1389L22.01 50.1088C22.3197 50.2525 22.4208 50.5465 22.2724 50.8641L17.9542 60.1617C17.8059 60.4814 17.5306 60.5908 17.2123 60.4428L4.04493 54.3552Z" fill="#414141"/>
<path d="M11.7852 39.2384C11.5056 39.0238 11.4648 38.7256 11.6798 38.4445L18.0366 30.1811C18.2517 29.9022 18.5506 29.8614 18.8323 30.076L20.8774 31.6424C21.157 31.857 21.2064 32.1617 20.9892 32.4428L18.9893 35.0413L28.0944 42.015C28.3912 42.2425 28.4278 42.5128 28.1934 42.8175L26.5267 44.9847C26.3117 45.2637 26.0128 45.3045 25.7311 45.0899L16.6259 38.1162L14.6324 40.7061C14.4174 40.9851 14.1099 41.0194 13.8281 40.8048L11.7852 39.2384Z" fill="#414141"/>
<path d="M30.0515 25.3145C31.3138 24.2245 32.6557 23.7181 34.0836 23.7825C35.5051 23.8404 36.7545 24.482 37.819 25.7094C38.8964 26.9518 39.3609 28.2886 39.2255 29.7155C39.0835 31.136 38.3868 32.387 37.1244 33.4749L35.2879 35.0585L34.2363 35.9661L33.1933 36.8673C32.9417 37.0841 32.6127 37.0454 32.3955 36.7944L22.9162 25.8553C22.6861 25.5892 22.699 25.2952 22.9657 25.0635L25.0366 23.2761C25.3204 23.0314 25.6215 23.0529 25.8516 23.3211L28.6365 26.5355L30.0515 25.3145ZM34.703 30.9257C35.1159 30.5695 35.3438 30.1318 35.3804 29.6361C35.4169 29.1233 35.2621 28.6662 34.9051 28.2542C34.5482 27.8422 34.1181 27.6212 33.6105 27.5933C33.1116 27.5569 32.645 27.7199 32.2321 28.0761L30.9375 29.1941L33.4062 32.0437L34.703 30.9257Z" fill="#414141"/>
<path d="M65.726 17.3687C65.9088 17.7099 65.8034 17.9588 65.4163 18.1154L62.7949 19.1668C62.468 19.2977 62.2486 19.214 62.0658 18.8729L58.0229 11.2447L58.9541 19.9028C58.9928 20.3127 58.9154 20.4929 58.5971 20.6217L55.937 21.6881C55.6187 21.8147 55.4467 21.7589 55.1822 21.4156L49.8619 14.5406L52.2188 22.8232C52.3156 23.1751 52.2037 23.4154 51.8855 23.5442L49.2748 24.5913C48.9178 24.7351 48.6361 24.6407 48.5329 24.2673L44.7136 10.1868C44.6125 9.82418 44.7136 9.58815 45.0211 9.46369L48.3866 8.11401C48.7049 7.98741 48.9716 8.07538 49.1909 8.36721L55.223 16.0941L54.2144 6.35019C54.1714 5.98756 54.3026 5.73865 54.6209 5.61205L57.9864 4.26236C58.2939 4.13791 58.5305 4.23876 58.7111 4.57135L65.726 17.3687Z" fill="#414141"/>
<path d="M82.7037 14.8431C82.8929 15.1714 82.794 15.4653 82.3811 15.5254L79.3747 15.961C79.078 16.0039 78.7834 15.8301 78.6242 15.5512L77.6307 13.6243L72.2631 14.401L71.8674 16.5189C71.8266 16.8279 71.5814 17.0789 71.2524 17.1261L68.2568 17.5596C67.8654 17.6154 67.6697 17.3858 67.7535 16.9953L71.3298 1.86333C71.4201 1.51572 71.6782 1.28398 71.9749 1.24106L74.2093 0.919198C74.5061 0.876283 74.8222 1.0458 74.9835 1.33548L82.7037 14.8431ZM72.8781 11.0536L76.0759 10.5923L73.7985 6.14413L72.8781 11.0536Z" fill="#414141"/>
<path d="M96.2926 0.41284C96.57 0.425714 96.7033 0.56948 96.6926 0.835555L96.5657 3.76881C96.5528 4.04562 96.4087 4.17865 96.1313 4.16578L90.0282 3.90185L89.5315 15.313C89.5186 15.5898 89.3745 15.7229 89.1078 15.7121L86.0628 15.5791C85.7853 15.5662 85.652 15.4225 85.6649 15.1456L86.3079 0.387091C86.3187 0.121016 86.4649 -0.0120215 86.7423 0.000853103L96.2926 0.41284Z" fill="#414141"/>
<path d="M110.525 18.2033C110.592 18.5767 110.4 18.8213 109.99 18.7376L107.011 18.1325C106.719 18.0724 106.499 17.8106 106.443 17.4952L106.162 15.3473L100.846 14.268L99.7576 16.1283C99.6135 16.4051 99.2995 16.5575 98.9748 16.4931L96.0072 15.8923C95.6201 15.8129 95.5126 15.5297 95.7233 15.1928L104.209 2.15513C104.411 1.85901 104.732 1.72812 105.026 1.7882L107.239 2.23667C107.532 2.29675 107.772 2.56282 107.826 2.88898L110.525 18.2033ZM102.56 11.3261L105.725 11.9677L105.086 7.01314L102.56 11.3261Z" fill="#414141"/>
<path d="M123.918 19.4523C123.35 20.8235 122.369 21.714 120.984 22.1002C119.597 22.4886 118.062 22.3405 116.372 21.6453C115.471 21.2741 114.703 20.7849 114.073 20.1797C113.447 19.5639 113.013 18.9352 112.787 18.2765C112.572 17.7615 112.705 17.2958 113.075 17.1607L115.217 16.2058C115.565 16.0599 115.821 16.1436 115.997 16.4697C116.126 16.8002 116.391 17.1392 116.795 17.4782C117.2 17.8173 117.625 18.0747 118.07 18.2571C119.178 18.712 120.079 18.4374 120.417 17.6177C120.78 16.7401 120.294 15.8711 119.107 15.3818L118.167 14.9956C117.802 14.8454 117.675 14.5621 117.819 14.2167L118.569 12.4014C118.72 12.0366 119.008 11.9014 119.324 12.0301L120.294 12.4292C120.66 12.5794 121.017 12.6116 121.35 12.5065C121.692 12.4056 121.931 12.1911 122.066 11.8649C122.343 11.1933 121.948 10.5002 121.195 10.1912C120.612 9.95089 119.989 9.94874 119.301 10.1848C118.944 10.2921 118.707 10.1934 118.599 9.8951L117.774 7.44249C117.658 7.16354 117.761 6.94038 118.081 6.78374C119.389 6.10997 121.092 6.04774 122.645 6.68718C124.098 7.28585 125.115 8.15488 125.707 9.29858C126.303 10.4337 126.328 11.6568 125.795 12.9485C125.262 14.2403 124.361 14.9913 123.272 15.1329C124.361 16.1715 124.617 17.7658 123.918 19.4523Z" fill="#414141"/>
<path d="M144.795 19.5812C145.026 19.7378 145.062 19.9309 144.907 20.1605L136.591 32.3871C136.434 32.6167 136.243 32.6532 136.013 32.4987L133.49 30.7906C133.26 30.634 133.224 30.443 133.379 30.2134L138.553 22.6067L128.441 26.7909C128.093 26.9411 127.772 26.9197 127.497 26.733L125.088 25.1022C124.858 24.9456 124.822 24.7546 124.977 24.525L133.293 12.2984C133.45 12.0688 133.641 12.0324 133.871 12.1869L136.394 13.8949C136.615 14.0451 136.652 14.2382 136.495 14.4678L131.615 21.6411L141.234 17.783C141.606 17.635 141.925 17.6435 142.18 17.8173L144.795 19.5812Z" fill="#414141"/>
<path d="M159.393 34.4209C159.571 34.6204 159.56 34.8157 159.352 35.0002L148.303 44.83C148.094 45.0145 147.898 45.0038 147.72 44.8042L145.705 42.549C145.526 42.3495 145.539 42.1542 145.746 41.9697L150.137 38.0622L146.242 33.7042L141.851 37.6116C141.645 37.7962 141.447 37.7854 141.268 37.5859L139.26 35.3393C139.075 35.1311 139.086 34.9359 139.294 34.7513L150.343 24.9216C150.55 24.7371 150.748 24.7478 150.933 24.9559L152.941 27.2025C153.12 27.4021 153.107 27.5974 152.9 27.7819L148.868 31.3696L152.763 35.7277L156.795 32.1399C157.003 31.9554 157.199 31.9661 157.378 32.1657L159.393 34.4209Z" fill="#414141"/>
<path d="M159.825 42.9848C160.926 42.9226 161.958 43.0599 162.917 43.3882C163.881 43.7251 164.782 44.2487 165.597 44.9653C166.422 45.6777 167.08 46.5339 167.575 47.5403C168.07 48.5466 168.343 49.5895 168.397 50.6688C168.463 51.7524 168.328 52.7824 167.999 53.7394C167.674 54.705 167.151 55.604 166.422 56.4237C165.708 57.2477 164.85 57.9043 163.842 58.3978C162.506 59.0501 161.117 59.3248 159.687 59.2282C158.257 59.1295 156.945 58.6896 155.752 57.8828C154.563 57.0846 153.644 56.0139 152.984 54.6706C152.489 53.6643 152.216 52.6214 152.15 51.5378C152.092 50.4499 152.229 49.4199 152.554 48.4522C152.883 47.4952 153.406 46.5983 154.111 45.7764C154.831 44.961 155.687 44.3044 156.687 43.8174C157.691 43.3238 158.737 43.0513 159.825 42.9848ZM156.229 49.7096C155.851 50.8083 155.935 51.8983 156.461 52.9712C156.984 54.0355 157.79 54.7586 158.894 55.1341C159.995 55.5118 161.072 55.4474 162.139 54.926C163.214 54.4003 163.934 53.5849 164.311 52.4862C164.689 51.3876 164.62 50.3019 164.098 49.2376C163.575 48.1733 162.754 47.4458 161.653 47.0703C160.552 46.6948 159.463 46.7613 158.388 47.2871C157.319 47.8085 156.605 48.6088 156.229 49.7096Z" fill="#414141"/>
<path d="M166.133 74.4163C165.557 74.9055 164.882 75.2167 164.114 75.3497C162.65 75.6029 161.428 75.3261 160.454 74.5193C159.48 73.7232 158.841 72.4808 158.549 70.7878L157.514 64.8247C157.467 64.5522 157.581 64.3913 157.843 64.3462L172.439 61.8271C172.703 61.782 172.862 61.8936 172.91 62.1683L173.867 67.6893C174.148 69.3094 173.974 70.6269 173.351 71.6568C172.725 72.6847 171.708 73.3262 170.308 73.5687C169.181 73.764 168 73.4035 167.269 72.631C167.084 73.3305 166.71 73.927 166.133 74.4163ZM161.962 70.1441C162.131 71.1225 162.85 71.6375 163.809 71.4723C164.746 71.3114 165.22 70.5904 165.05 69.6119L164.615 67.11L161.527 67.6421L161.962 70.1441ZM170.075 66.1658L167.473 66.6143L167.832 68.6849C167.976 69.5154 168.572 69.9445 169.372 69.805C170.174 69.6677 170.579 69.0669 170.434 68.2343L170.075 66.1658Z" fill="#414141"/>
</svg>
